<?xml version="1.0" encoding="utf-8" standalone="no"?>
<!DOCTYPE svg PUBLIC "-//W3C//DTD SVG 1.1//EN"
  "http://www.w3.org/Graphics/SVG/1.1/DTD/svg11.dtd">
<svg xmlns:xlink="http://www.w3.org/1999/xlink" width="712.805937pt" height="424.042031pt" viewBox="0 0 712.805937 424.042031" xmlns="http://www.w3.org/2000/svg" version="1.1">
 <metadata>
  <rdf:RDF xmlns:dc="http://purl.org/dc/elements/1.1/" xmlns:cc="http://creativecommons.org/ns#" xmlns:rdf="http://www.w3.org/1999/02/22-rdf-syntax-ns#">
   <cc:Work>
    <dc:type rdf:resource="http://purl.org/dc/dcmitype/StillImage"/>
    <dc:date>2026-05-10T03:14:23.084733</dc:date>
    <dc:format>image/svg+xml</dc:format>
    <dc:creator>
     <cc:Agent>
      <dc:title>Matplotlib v3.10.8, https://matplotlib.org/</dc:title>
     </cc:Agent>
    </dc:creator>
   </cc:Work>
  </rdf:RDF>
 </metadata>
 <defs>
  <style type="text/css">*{stroke-linejoin: round; stroke-linecap: butt}</style>
 </defs>
 <g id="figure_1">
  <g id="patch_1">
   <path d="M 0 424.042031
L 712.805937 424.042031
L 712.805937 0
L 0 0
z
" style="fill: #ffffff"/>
  </g>
  <g id="axes_1">
   <g id="patch_2">
    <path d="M 53.795938 386.017969
L 705.605938 386.017969
L 705.605938 29.077969
L 53.795938 29.077969
z
" style="fill: #ffffff"/>
   </g>
   <g id="matplotlib.axis_1">
    <g id="xtick_1">
     <g id="line2d_1">
      <defs>
       <path id="m46be7fd267" d="M 0 0
L 0 3
" style="stroke: #333333; stroke-width: 0.8"/>
      </defs>
      <g>
       <use xlink:href="#m46be7fd267" x="83.423665" y="386.017969" style="fill: #333333; stroke: #333333; stroke-width: 0.8"/>
      </g>
     </g>
     <g id="text_1">
      <!-- 2010 -->
      <g style="fill: #333333" transform="translate(70.698665 400.116406) scale(0.1 -0.1)">
       <defs>
        <path id="DejaVuSans-32" d="M 1228 531
L 3431 531
L 3431 0
L 469 0
L 469 531
Q 828 903 1448 1529
Q 2069 2156 2228 2338
Q 2531 2678 2651 2914
Q 2772 3150 2772 3378
Q 2772 3750 2511 3984
Q 2250 4219 1831 4219
Q 1534 4219 1204 4116
Q 875 4013 500 3803
L 500 4441
Q 881 4594 1212 4672
Q 1544 4750 1819 4750
Q 2544 4750 2975 4387
Q 3406 4025 3406 3419
Q 3406 3131 3298 2873
Q 3191 2616 2906 2266
Q 2828 2175 2409 1742
Q 1991 1309 1228 531
z
" transform="scale(0.015625)"/>
        <path id="DejaVuSans-30" d="M 2034 4250
Q 1547 4250 1301 3770
Q 1056 3291 1056 2328
Q 1056 1369 1301 889
Q 1547 409 2034 409
Q 2525 409 2770 889
Q 3016 1369 3016 2328
Q 3016 3291 2770 3770
Q 2525 4250 2034 4250
z
M 2034 4750
Q 2819 4750 3233 4129
Q 3647 3509 3647 2328
Q 3647 1150 3233 529
Q 2819 -91 2034 -91
Q 1250 -91 836 529
Q 422 1150 422 2328
Q 422 3509 836 4129
Q 1250 4750 2034 4750
z
" transform="scale(0.015625)"/>
        <path id="DejaVuSans-31" d="M 794 531
L 1825 531
L 1825 4091
L 703 3866
L 703 4441
L 1819 4666
L 2450 4666
L 2450 531
L 3481 531
L 3481 0
L 794 0
L 794 531
z
" transform="scale(0.015625)"/>
       </defs>
       <use xlink:href="#DejaVuSans-32"/>
       <use xlink:href="#DejaVuSans-30" transform="translate(63.623047 0)"/>
       <use xlink:href="#DejaVuSans-31" transform="translate(127.246094 0)"/>
       <use xlink:href="#DejaVuSans-30" transform="translate(190.869141 0)"/>
      </g>
     </g>
    </g>
    <g id="xtick_2">
     <g id="line2d_2">
      <g>
       <use xlink:href="#m46be7fd267" x="168.074314" y="386.017969" style="fill: #333333; stroke: #333333; stroke-width: 0.8"/>
      </g>
     </g>
     <g id="text_2">
      <!-- 2012 -->
      <g style="fill: #333333" transform="translate(155.349314 400.116406) scale(0.1 -0.1)">
       <use xlink:href="#DejaVuSans-32"/>
       <use xlink:href="#DejaVuSans-30" transform="translate(63.623047 0)"/>
       <use xlink:href="#DejaVuSans-31" transform="translate(127.246094 0)"/>
       <use xlink:href="#DejaVuSans-32" transform="translate(190.869141 0)"/>
      </g>
     </g>
    </g>
    <g id="xtick_3">
     <g id="line2d_3">
      <g>
       <use xlink:href="#m46be7fd267" x="252.724963" y="386.017969" style="fill: #333333; stroke: #333333; stroke-width: 0.8"/>
      </g>
     </g>
     <g id="text_3">
      <!-- 2014 -->
      <g style="fill: #333333" transform="translate(239.999963 400.116406) scale(0.1 -0.1)">
       <defs>
        <path id="DejaVuSans-34" d="M 2419 4116
L 825 1625
L 2419 1625
L 2419 4116
z
M 2253 4666
L 3047 4666
L 3047 1625
L 3713 1625
L 3713 1100
L 3047 1100
L 3047 0
L 2419 0
L 2419 1100
L 313 1100
L 313 1709
L 2253 4666
z
" transform="scale(0.015625)"/>
       </defs>
       <use xlink:href="#DejaVuSans-32"/>
       <use xlink:href="#DejaVuSans-30" transform="translate(63.623047 0)"/>
       <use xlink:href="#DejaVuSans-31" transform="translate(127.246094 0)"/>
       <use xlink:href="#DejaVuSans-34" transform="translate(190.869141 0)"/>
      </g>
     </g>
    </g>
    <g id="xtick_4">
     <g id="line2d_4">
      <g>
       <use xlink:href="#m46be7fd267" x="337.375613" y="386.017969" style="fill: #333333; stroke: #333333; stroke-width: 0.8"/>
      </g>
     </g>
     <g id="text_4">
      <!-- 2016 -->
      <g style="fill: #333333" transform="translate(324.650613 400.116406) scale(0.1 -0.1)">
       <defs>
        <path id="DejaVuSans-36" d="M 2113 2584
Q 1688 2584 1439 2293
Q 1191 2003 1191 1497
Q 1191 994 1439 701
Q 1688 409 2113 409
Q 2538 409 2786 701
Q 3034 994 3034 1497
Q 3034 2003 2786 2293
Q 2538 2584 2113 2584
z
M 3366 4563
L 3366 3988
Q 3128 4100 2886 4159
Q 2644 4219 2406 4219
Q 1781 4219 1451 3797
Q 1122 3375 1075 2522
Q 1259 2794 1537 2939
Q 1816 3084 2150 3084
Q 2853 3084 3261 2657
Q 3669 2231 3669 1497
Q 3669 778 3244 343
Q 2819 -91 2113 -91
Q 1303 -91 875 529
Q 447 1150 447 2328
Q 447 3434 972 4092
Q 1497 4750 2381 4750
Q 2619 4750 2861 4703
Q 3103 4656 3366 4563
z
" transform="scale(0.015625)"/>
       </defs>
       <use xlink:href="#DejaVuSans-32"/>
       <use xlink:href="#DejaVuSans-30" transform="translate(63.623047 0)"/>
       <use xlink:href="#DejaVuSans-31" transform="translate(127.246094 0)"/>
       <use xlink:href="#DejaVuSans-36" transform="translate(190.869141 0)"/>
      </g>
     </g>
    </g>
    <g id="xtick_5">
     <g id="line2d_5">
      <g>
       <use xlink:href="#m46be7fd267" x="422.026262" y="386.017969" style="fill: #333333; stroke: #333333; stroke-width: 0.8"/>
      </g>
     </g>
     <g id="text_5">
      <!-- 2018 -->
      <g style="fill: #333333" transform="translate(409.301262 400.116406) scale(0.1 -0.1)">
       <defs>
        <path id="DejaVuSans-38" d="M 2034 2216
Q 1584 2216 1326 1975
Q 1069 1734 1069 1313
Q 1069 891 1326 650
Q 1584 409 2034 409
Q 2484 409 2743 651
Q 3003 894 3003 1313
Q 3003 1734 2745 1975
Q 2488 2216 2034 2216
z
M 1403 2484
Q 997 2584 770 2862
Q 544 3141 544 3541
Q 544 4100 942 4425
Q 1341 4750 2034 4750
Q 2731 4750 3128 4425
Q 3525 4100 3525 3541
Q 3525 3141 3298 2862
Q 3072 2584 2669 2484
Q 3125 2378 3379 2068
Q 3634 1759 3634 1313
Q 3634 634 3220 271
Q 2806 -91 2034 -91
Q 1263 -91 848 271
Q 434 634 434 1313
Q 434 1759 690 2068
Q 947 2378 1403 2484
z
M 1172 3481
Q 1172 3119 1398 2916
Q 1625 2713 2034 2713
Q 2441 2713 2670 2916
Q 2900 3119 2900 3481
Q 2900 3844 2670 4047
Q 2441 4250 2034 4250
Q 1625 4250 1398 4047
Q 1172 3844 1172 3481
z
" transform="scale(0.015625)"/>
       </defs>
       <use xlink:href="#DejaVuSans-32"/>
       <use xlink:href="#DejaVuSans-30" transform="translate(63.623047 0)"/>
       <use xlink:href="#DejaVuSans-31" transform="translate(127.246094 0)"/>
       <use xlink:href="#DejaVuSans-38" transform="translate(190.869141 0)"/>
      </g>
     </g>
    </g>
    <g id="xtick_6">
     <g id="line2d_6">
      <g>
       <use xlink:href="#m46be7fd267" x="506.676912" y="386.017969" style="fill: #333333; stroke: #333333; stroke-width: 0.8"/>
      </g>
     </g>
     <g id="text_6">
      <!-- 2020 -->
      <g style="fill: #333333" transform="translate(493.951912 400.116406) scale(0.1 -0.1)">
       <use xlink:href="#DejaVuSans-32"/>
       <use xlink:href="#DejaVuSans-30" transform="translate(63.623047 0)"/>
       <use xlink:href="#DejaVuSans-32" transform="translate(127.246094 0)"/>
       <use xlink:href="#DejaVuSans-30" transform="translate(190.869141 0)"/>
      </g>
     </g>
    </g>
    <g id="xtick_7">
     <g id="line2d_7">
      <g>
       <use xlink:href="#m46be7fd267" x="591.327561" y="386.017969" style="fill: #333333; stroke: #333333; stroke-width: 0.8"/>
      </g>
     </g>
     <g id="text_7">
      <!-- 2022 -->
      <g style="fill: #333333" transform="translate(578.602561 400.116406) scale(0.1 -0.1)">
       <use xlink:href="#DejaVuSans-32"/>
       <use xlink:href="#DejaVuSans-30" transform="translate(63.623047 0)"/>
       <use xlink:href="#DejaVuSans-32" transform="translate(127.246094 0)"/>
       <use xlink:href="#DejaVuSans-32" transform="translate(190.869141 0)"/>
      </g>
     </g>
    </g>
    <g id="xtick_8">
     <g id="line2d_8">
      <g>
       <use xlink:href="#m46be7fd267" x="675.97821" y="386.017969" style="fill: #333333; stroke: #333333; stroke-width: 0.8"/>
      </g>
     </g>
     <g id="text_8">
      <!-- 2024 -->
      <g style="fill: #333333" transform="translate(663.25321 400.116406) scale(0.1 -0.1)">
       <use xlink:href="#DejaVuSans-32"/>
       <use xlink:href="#DejaVuSans-30" transform="translate(63.623047 0)"/>
       <use xlink:href="#DejaVuSans-32" transform="translate(127.246094 0)"/>
       <use xlink:href="#DejaVuSans-34" transform="translate(190.869141 0)"/>
      </g>
     </g>
    </g>
    <g id="text_9">
     <!-- Год -->
     <g transform="translate(369.17875 414.554375) scale(0.11 -0.11)">
      <defs>
       <path id="DejaVuSans-413" d="M 628 0
L 628 4666
L 3531 4666
L 3531 4134
L 1259 4134
L 1259 0
L 628 0
z
" transform="scale(0.015625)"/>
       <path id="DejaVuSans-43e" d="M 1959 3097
Q 1497 3097 1228 2736
Q 959 2375 959 1747
Q 959 1119 1226 758
Q 1494 397 1959 397
Q 2419 397 2687 759
Q 2956 1122 2956 1747
Q 2956 2369 2687 2733
Q 2419 3097 1959 3097
z
M 1959 3584
Q 2709 3584 3137 3096
Q 3566 2609 3566 1747
Q 3566 888 3137 398
Q 2709 -91 1959 -91
Q 1206 -91 779 398
Q 353 888 353 1747
Q 353 2609 779 3096
Q 1206 3584 1959 3584
z
" transform="scale(0.015625)"/>
       <path id="DejaVuSans-434" d="M 1384 459
L 3053 459
L 3053 3041
L 1844 3041
L 1844 2603
Q 1844 1316 1475 628
L 1384 459
z
M 550 459
Q 834 584 959 850
Q 1266 1509 1266 2838
L 1266 3500
L 3631 3500
L 3631 459
L 4091 459
L 4091 -884
L 3631 -884
L 3631 0
L 794 0
L 794 -884
L 334 -884
L 334 459
L 550 459
z
" transform="scale(0.015625)"/>
      </defs>
      <use xlink:href="#DejaVuSans-413"/>
      <use xlink:href="#DejaVuSans-43e" transform="translate(60.986328 0)"/>
      <use xlink:href="#DejaVuSans-434" transform="translate(122.167969 0)"/>
     </g>
    </g>
   </g>
   <g id="matplotlib.axis_2">
    <g id="ytick_1">
     <g id="line2d_9">
      <path d="M 53.795938 374.096467
L 705.605938 374.096467
" clip-path="url(#p3b52a5d8fe)" style="fill: none; stroke: #d9d9d9; stroke-opacity: 0.8; stroke-width: 0.7; stroke-linecap: square"/>
     </g>
     <g id="line2d_10">
      <defs>
       <path id="mbb41fcc90f" d="M 0 0
L -3 0
" style="stroke: #333333; stroke-width: 0.8"/>
      </defs>
      <g>
       <use xlink:href="#mbb41fcc90f" x="53.795938" y="374.096467" style="fill: #333333; stroke: #333333; stroke-width: 0.8"/>
      </g>
     </g>
     <g id="text_10">
      <!-- 0 -->
      <g style="fill: #333333" transform="translate(40.933438 377.895686) scale(0.1 -0.1)">
       <use xlink:href="#DejaVuSans-30"/>
      </g>
     </g>
    </g>
    <g id="ytick_2">
     <g id="line2d_11">
      <path d="M 53.795938 300.036295
L 705.605938 300.036295
" clip-path="url(#p3b52a5d8fe)" style="fill: none; stroke: #d9d9d9; stroke-opacity: 0.8; stroke-width: 0.7; stroke-linecap: square"/>
     </g>
     <g id="line2d_12">
      <g>
       <use xlink:href="#mbb41fcc90f" x="53.795938" y="300.036295" style="fill: #333333; stroke: #333333; stroke-width: 0.8"/>
      </g>
     </g>
     <g id="text_11">
      <!-- 1000 -->
      <g style="fill: #333333" transform="translate(21.845938 303.835514) scale(0.1 -0.1)">
       <use xlink:href="#DejaVuSans-31"/>
       <use xlink:href="#DejaVuSans-30" transform="translate(63.623047 0)"/>
       <use xlink:href="#DejaVuSans-30" transform="translate(127.246094 0)"/>
       <use xlink:href="#DejaVuSans-30" transform="translate(190.869141 0)"/>
      </g>
     </g>
    </g>
    <g id="ytick_3">
     <g id="line2d_13">
      <path d="M 53.795938 225.976123
L 705.605938 225.976123
" clip-path="url(#p3b52a5d8fe)" style="fill: none; stroke: #d9d9d9; stroke-opacity: 0.8; stroke-width: 0.7; stroke-linecap: square"/>
     </g>
     <g id="line2d_14">
      <g>
       <use xlink:href="#mbb41fcc90f" x="53.795938" y="225.976123" style="fill: #333333; stroke: #333333; stroke-width: 0.8"/>
      </g>
     </g>
     <g id="text_12">
      <!-- 2000 -->
      <g style="fill: #333333" transform="translate(21.845938 229.775342) scale(0.1 -0.1)">
       <use xlink:href="#DejaVuSans-32"/>
       <use xlink:href="#DejaVuSans-30" transform="translate(63.623047 0)"/>
       <use xlink:href="#DejaVuSans-30" transform="translate(127.246094 0)"/>
       <use xlink:href="#DejaVuSans-30" transform="translate(190.869141 0)"/>
      </g>
     </g>
    </g>
    <g id="ytick_4">
     <g id="line2d_15">
      <path d="M 53.795938 151.915951
L 705.605938 151.915951
" clip-path="url(#p3b52a5d8fe)" style="fill: none; stroke: #d9d9d9; stroke-opacity: 0.8; stroke-width: 0.7; stroke-linecap: square"/>
     </g>
     <g id="line2d_16">
      <g>
       <use xlink:href="#mbb41fcc90f" x="53.795938" y="151.915951" style="fill: #333333; stroke: #333333; stroke-width: 0.8"/>
      </g>
     </g>
     <g id="text_13">
      <!-- 3000 -->
      <g style="fill: #333333" transform="translate(21.845938 155.715169) scale(0.1 -0.1)">
       <defs>
        <path id="DejaVuSans-33" d="M 2597 2516
Q 3050 2419 3304 2112
Q 3559 1806 3559 1356
Q 3559 666 3084 287
Q 2609 -91 1734 -91
Q 1441 -91 1130 -33
Q 819 25 488 141
L 488 750
Q 750 597 1062 519
Q 1375 441 1716 441
Q 2309 441 2620 675
Q 2931 909 2931 1356
Q 2931 1769 2642 2001
Q 2353 2234 1838 2234
L 1294 2234
L 1294 2753
L 1863 2753
Q 2328 2753 2575 2939
Q 2822 3125 2822 3475
Q 2822 3834 2567 4026
Q 2313 4219 1838 4219
Q 1578 4219 1281 4162
Q 984 4106 628 3988
L 628 4550
Q 988 4650 1302 4700
Q 1616 4750 1894 4750
Q 2613 4750 3031 4423
Q 3450 4097 3450 3541
Q 3450 3153 3228 2886
Q 3006 2619 2597 2516
z
" transform="scale(0.015625)"/>
       </defs>
       <use xlink:href="#DejaVuSans-33"/>
       <use xlink:href="#DejaVuSans-30" transform="translate(63.623047 0)"/>
       <use xlink:href="#DejaVuSans-30" transform="translate(127.246094 0)"/>
       <use xlink:href="#DejaVuSans-30" transform="translate(190.869141 0)"/>
      </g>
     </g>
    </g>
    <g id="ytick_5">
     <g id="line2d_17">
      <path d="M 53.795938 77.855778
L 705.605938 77.855778
" clip-path="url(#p3b52a5d8fe)" style="fill: none; stroke: #d9d9d9; stroke-opacity: 0.8; stroke-width: 0.7; stroke-linecap: square"/>
     </g>
     <g id="line2d_18">
      <g>
       <use xlink:href="#mbb41fcc90f" x="53.795938" y="77.855778" style="fill: #333333; stroke: #333333; stroke-width: 0.8"/>
      </g>
     </g>
     <g id="text_14">
      <!-- 4000 -->
      <g style="fill: #333333" transform="translate(21.845938 81.654997) scale(0.1 -0.1)">
       <use xlink:href="#DejaVuSans-34"/>
       <use xlink:href="#DejaVuSans-30" transform="translate(63.623047 0)"/>
       <use xlink:href="#DejaVuSans-30" transform="translate(127.246094 0)"/>
       <use xlink:href="#DejaVuSans-30" transform="translate(190.869141 0)"/>
      </g>
     </g>
    </g>
    <g id="text_15">
     <!-- Стоимость экспорта, млн долл. США -->
     <g transform="translate(15.558281 314.339922) rotate(-90) scale(0.11 -0.11)">
      <defs>
       <path id="DejaVuSans-421" d="M 4122 4306
L 4122 3641
Q 3803 3938 3442 4084
Q 3081 4231 2675 4231
Q 1875 4231 1450 3742
Q 1025 3253 1025 2328
Q 1025 1406 1450 917
Q 1875 428 2675 428
Q 3081 428 3442 575
Q 3803 722 4122 1019
L 4122 359
Q 3791 134 3420 21
Q 3050 -91 2638 -91
Q 1578 -91 968 557
Q 359 1206 359 2328
Q 359 3453 968 4101
Q 1578 4750 2638 4750
Q 3056 4750 3426 4639
Q 3797 4528 4122 4306
z
" transform="scale(0.015625)"/>
       <path id="DejaVuSans-442" d="M 188 3500
L 3541 3500
L 3541 3041
L 2147 3041
L 2147 0
L 1581 0
L 1581 3041
L 188 3041
L 188 3500
z
" transform="scale(0.015625)"/>
       <path id="DejaVuSans-438" d="M 3578 3500
L 3578 0
L 3006 0
L 3006 2809
L 1319 0
L 581 0
L 581 3500
L 1153 3500
L 1153 697
L 2838 3500
L 3578 3500
z
" transform="scale(0.015625)"/>
       <path id="DejaVuSans-43c" d="M 581 3500
L 1422 3500
L 2416 1156
L 3413 3500
L 4247 3500
L 4247 0
L 3669 0
L 3669 2950
L 2703 672
L 2128 672
L 1159 2950
L 1159 0
L 581 0
L 581 3500
z
" transform="scale(0.015625)"/>
       <path id="DejaVuSans-441" d="M 3122 3366
L 3122 2828
Q 2878 2963 2633 3030
Q 2388 3097 2138 3097
Q 1578 3097 1268 2742
Q 959 2388 959 1747
Q 959 1106 1268 751
Q 1578 397 2138 397
Q 2388 397 2633 464
Q 2878 531 3122 666
L 3122 134
Q 2881 22 2623 -34
Q 2366 -91 2075 -91
Q 1284 -91 818 406
Q 353 903 353 1747
Q 353 2603 823 3093
Q 1294 3584 2113 3584
Q 2378 3584 2631 3529
Q 2884 3475 3122 3366
z
" transform="scale(0.015625)"/>
       <path id="DejaVuSans-44c" d="M 2781 1038
Q 2781 1319 2576 1466
Q 2372 1613 1978 1613
L 1159 1613
L 1159 459
L 1978 459
Q 2372 459 2576 607
Q 2781 756 2781 1038
z
M 581 3500
L 1159 3500
L 1159 2072
L 2003 2072
Q 2672 2072 3033 1817
Q 3394 1563 3394 1038
Q 3394 513 3033 256
Q 2672 0 2003 0
L 581 0
L 581 3500
z
" transform="scale(0.015625)"/>
       <path id="DejaVuSans-20" transform="scale(0.015625)"/>
       <path id="DejaVuSans-44d" d="M 353 666
Q 847 397 1338 397
Q 1797 397 2125 664
Q 2453 931 2513 1613
L 738 1613
L 738 2072
L 2494 2072
Q 2456 2400 2207 2748
Q 1959 3097 1338 3097
Q 856 3097 353 2828
L 353 3366
Q 844 3584 1363 3584
Q 2181 3584 2651 3089
Q 3122 2594 3122 1747
Q 3122 903 2664 406
Q 2206 -91 1403 -91
Q 813 -91 353 134
L 353 666
z
" transform="scale(0.015625)"/>
       <path id="DejaVuSans-43a" d="M 581 3500
L 1153 3500
L 1153 1856
L 2775 3500
L 3481 3500
L 2144 2147
L 3653 0
L 3009 0
L 1769 1766
L 1153 1141
L 1153 0
L 581 0
L 581 3500
z
" transform="scale(0.015625)"/>
       <path id="DejaVuSans-43f" d="M 3603 3500
L 3603 0
L 3025 0
L 3025 3041
L 1159 3041
L 1159 0
L 581 0
L 581 3500
L 3603 3500
z
" transform="scale(0.015625)"/>
       <path id="DejaVuSans-440" d="M 1159 525
L 1159 -1331
L 581 -1331
L 581 3500
L 1159 3500
L 1159 2969
Q 1341 3281 1617 3432
Q 1894 3584 2278 3584
Q 2916 3584 3314 3078
Q 3713 2572 3713 1747
Q 3713 922 3314 415
Q 2916 -91 2278 -91
Q 1894 -91 1617 61
Q 1341 213 1159 525
z
M 3116 1747
Q 3116 2381 2855 2742
Q 2594 3103 2138 3103
Q 1681 3103 1420 2742
Q 1159 2381 1159 1747
Q 1159 1113 1420 752
Q 1681 391 2138 391
Q 2594 391 2855 752
Q 3116 1113 3116 1747
z
" transform="scale(0.015625)"/>
       <path id="DejaVuSans-430" d="M 2194 1759
Q 1497 1759 1228 1600
Q 959 1441 959 1056
Q 959 750 1161 570
Q 1363 391 1709 391
Q 2188 391 2477 730
Q 2766 1069 2766 1631
L 2766 1759
L 2194 1759
z
M 3341 1997
L 3341 0
L 2766 0
L 2766 531
Q 2569 213 2275 61
Q 1981 -91 1556 -91
Q 1019 -91 701 211
Q 384 513 384 1019
Q 384 1609 779 1909
Q 1175 2209 1959 2209
L 2766 2209
L 2766 2266
Q 2766 2663 2505 2880
Q 2244 3097 1772 3097
Q 1472 3097 1187 3025
Q 903 2953 641 2809
L 641 3341
Q 956 3463 1253 3523
Q 1550 3584 1831 3584
Q 2591 3584 2966 3190
Q 3341 2797 3341 1997
z
" transform="scale(0.015625)"/>
       <path id="DejaVuSans-2c" d="M 750 794
L 1409 794
L 1409 256
L 897 -744
L 494 -744
L 750 256
L 750 794
z
" transform="scale(0.015625)"/>
       <path id="DejaVuSans-43b" d="M 238 0
L 238 478
Q 806 566 981 959
Q 1194 1513 1194 2928
L 1194 3500
L 3559 3500
L 3559 0
L 2984 0
L 2984 3041
L 1769 3041
L 1769 2694
Q 1769 1344 1494 738
Q 1200 91 238 0
z
" transform="scale(0.015625)"/>
       <path id="DejaVuSans-43d" d="M 581 3500
L 1159 3500
L 1159 2072
L 3025 2072
L 3025 3500
L 3603 3500
L 3603 0
L 3025 0
L 3025 1613
L 1159 1613
L 1159 0
L 581 0
L 581 3500
z
" transform="scale(0.015625)"/>
       <path id="DejaVuSans-2e" d="M 684 794
L 1344 794
L 1344 0
L 684 0
L 684 794
z
" transform="scale(0.015625)"/>
       <path id="DejaVuSans-428" d="M 3738 531
L 5584 531
L 5584 4666
L 6216 4666
L 6216 0
L 628 0
L 628 4666
L 1259 4666
L 1259 531
L 3106 531
L 3106 4666
L 3738 4666
L 3738 531
z
" transform="scale(0.015625)"/>
       <path id="DejaVuSans-410" d="M 2188 4044
L 1331 1722
L 3047 1722
L 2188 4044
z
M 1831 4666
L 2547 4666
L 4325 0
L 3669 0
L 3244 1197
L 1141 1197
L 716 0
L 50 0
L 1831 4666
z
" transform="scale(0.015625)"/>
      </defs>
      <use xlink:href="#DejaVuSans-421"/>
      <use xlink:href="#DejaVuSans-442" transform="translate(69.824219 0)"/>
      <use xlink:href="#DejaVuSans-43e" transform="translate(128.076172 0)"/>
      <use xlink:href="#DejaVuSans-438" transform="translate(189.257812 0)"/>
      <use xlink:href="#DejaVuSans-43c" transform="translate(254.248047 0)"/>
      <use xlink:href="#DejaVuSans-43e" transform="translate(329.6875 0)"/>
      <use xlink:href="#DejaVuSans-441" transform="translate(390.869141 0)"/>
      <use xlink:href="#DejaVuSans-442" transform="translate(445.849609 0)"/>
      <use xlink:href="#DejaVuSans-44c" transform="translate(504.101562 0)"/>
      <use xlink:href="#DejaVuSans-20" transform="translate(563.037109 0)"/>
      <use xlink:href="#DejaVuSans-44d" transform="translate(594.824219 0)"/>
      <use xlink:href="#DejaVuSans-43a" transform="translate(649.707031 0)"/>
      <use xlink:href="#DejaVuSans-441" transform="translate(710.107422 0)"/>
      <use xlink:href="#DejaVuSans-43f" transform="translate(765.087891 0)"/>
      <use xlink:href="#DejaVuSans-43e" transform="translate(830.46875 0)"/>
      <use xlink:href="#DejaVuSans-440" transform="translate(891.650391 0)"/>
      <use xlink:href="#DejaVuSans-442" transform="translate(955.126953 0)"/>
      <use xlink:href="#DejaVuSans-430" transform="translate(1013.378906 0)"/>
      <use xlink:href="#DejaVuSans-2c" transform="translate(1074.658203 0)"/>
      <use xlink:href="#DejaVuSans-20" transform="translate(1106.445312 0)"/>
      <use xlink:href="#DejaVuSans-43c" transform="translate(1138.232422 0)"/>
      <use xlink:href="#DejaVuSans-43b" transform="translate(1213.671875 0)"/>
      <use xlink:href="#DejaVuSans-43d" transform="translate(1277.587891 0)"/>
      <use xlink:href="#DejaVuSans-20" transform="translate(1342.96875 0)"/>
      <use xlink:href="#DejaVuSans-434" transform="translate(1374.755859 0)"/>
      <use xlink:href="#DejaVuSans-43e" transform="translate(1443.896484 0)"/>
      <use xlink:href="#DejaVuSans-43b" transform="translate(1505.078125 0)"/>
      <use xlink:href="#DejaVuSans-43b" transform="translate(1568.994141 0)"/>
      <use xlink:href="#DejaVuSans-2e" transform="translate(1632.910156 0)"/>
      <use xlink:href="#DejaVuSans-20" transform="translate(1664.697266 0)"/>
      <use xlink:href="#DejaVuSans-421" transform="translate(1696.484375 0)"/>
      <use xlink:href="#DejaVuSans-428" transform="translate(1766.308594 0)"/>
      <use xlink:href="#DejaVuSans-410" transform="translate(1873.242188 0)"/>
     </g>
    </g>
   </g>
   <g id="line2d_19">
    <path d="M 83.423665 360.962996
L 125.748989 329.384882
L 168.074314 360.220239
L 210.399639 365.835533
L 252.724963 368.349283
L 295.050288 367.976806
L 337.375613 369.793423
L 379.700938 368.186071
L 422.026262 362.899408
L 464.351587 365.502614
L 506.676912 368.115989
L 549.002236 362.57309
L 591.327561 344.972833
L 633.652886 356.710044
L 675.97821 366.987619
" clip-path="url(#p3b52a5d8fe)" style="fill: none; stroke: #1f4e79; stroke-width: 1.8; stroke-linecap: square"/>
    <defs>
     <path id="m6d113afbb0" d="M 0 2.5
C 0.663008 2.5 1.29895 2.236584 1.767767 1.767767
C 2.236584 1.29895 2.5 0.663008 2.5 0
C 2.5 -0.663008 2.236584 -1.29895 1.767767 -1.767767
C 1.29895 -2.236584 0.663008 -2.5 0 -2.5
C -0.663008 -2.5 -1.29895 -2.236584 -1.767767 -1.767767
C -2.236584 -1.29895 -2.5 -0.663008 -2.5 0
C -2.5 0.663008 -2.236584 1.29895 -1.767767 1.767767
C -1.29895 2.236584 -0.663008 2.5 0 2.5
z
" style="stroke: #1f4e79"/>
    </defs>
    <g clip-path="url(#p3b52a5d8fe)">
     <use xlink:href="#m6d113afbb0" x="83.423665" y="360.962996" style="fill: #1f4e79; stroke: #1f4e79"/>
     <use xlink:href="#m6d113afbb0" x="125.748989" y="329.384882" style="fill: #1f4e79; stroke: #1f4e79"/>
     <use xlink:href="#m6d113afbb0" x="168.074314" y="360.220239" style="fill: #1f4e79; stroke: #1f4e79"/>
     <use xlink:href="#m6d113afbb0" x="210.399639" y="365.835533" style="fill: #1f4e79; stroke: #1f4e79"/>
     <use xlink:href="#m6d113afbb0" x="252.724963" y="368.349283" style="fill: #1f4e79; stroke: #1f4e79"/>
     <use xlink:href="#m6d113afbb0" x="295.050288" y="367.976806" style="fill: #1f4e79; stroke: #1f4e79"/>
     <use xlink:href="#m6d113afbb0" x="337.375613" y="369.793423" style="fill: #1f4e79; stroke: #1f4e79"/>
     <use xlink:href="#m6d113afbb0" x="379.700938" y="368.186071" style="fill: #1f4e79; stroke: #1f4e79"/>
     <use xlink:href="#m6d113afbb0" x="422.026262" y="362.899408" style="fill: #1f4e79; stroke: #1f4e79"/>
     <use xlink:href="#m6d113afbb0" x="464.351587" y="365.502614" style="fill: #1f4e79; stroke: #1f4e79"/>
     <use xlink:href="#m6d113afbb0" x="506.676912" y="368.115989" style="fill: #1f4e79; stroke: #1f4e79"/>
     <use xlink:href="#m6d113afbb0" x="549.002236" y="362.57309" style="fill: #1f4e79; stroke: #1f4e79"/>
     <use xlink:href="#m6d113afbb0" x="591.327561" y="344.972833" style="fill: #1f4e79; stroke: #1f4e79"/>
     <use xlink:href="#m6d113afbb0" x="633.652886" y="356.710044" style="fill: #1f4e79; stroke: #1f4e79"/>
     <use xlink:href="#m6d113afbb0" x="675.97821" y="366.987619" style="fill: #1f4e79; stroke: #1f4e79"/>
    </g>
   </g>
   <g id="line2d_20">
    <path d="M 83.423665 330.01241
L 125.748989 237.689641
L 168.074314 330.691548
L 210.399639 343.015173
L 252.724963 355.172072
L 295.050288 355.480612
L 337.375613 357.347567
L 379.700938 352.209263
L 422.026262 350.247958
L 464.351587 351.740933
L 506.676912 356.340054
L 549.002236 339.627428
L 591.327561 326.585421
L 633.652886 336.940404
L 675.97821 346.662006
" clip-path="url(#p3b52a5d8fe)" style="fill: none; stroke: #8c5a2b; stroke-width: 1.8; stroke-linecap: square"/>
    <defs>
     <path id="m567c6b4880" d="M 0 2.5
C 0.663008 2.5 1.29895 2.236584 1.767767 1.767767
C 2.236584 1.29895 2.5 0.663008 2.5 0
C 2.5 -0.663008 2.236584 -1.29895 1.767767 -1.767767
C 1.29895 -2.236584 0.663008 -2.5 0 -2.5
C -0.663008 -2.5 -1.29895 -2.236584 -1.767767 -1.767767
C -2.236584 -1.29895 -2.5 -0.663008 -2.5 0
C -2.5 0.663008 -2.236584 1.29895 -1.767767 1.767767
C -1.29895 2.236584 -0.663008 2.5 0 2.5
z
" style="stroke: #8c5a2b"/>
    </defs>
    <g clip-path="url(#p3b52a5d8fe)">
     <use xlink:href="#m567c6b4880" x="83.423665" y="330.01241" style="fill: #8c5a2b; stroke: #8c5a2b"/>
     <use xlink:href="#m567c6b4880" x="125.748989" y="237.689641" style="fill: #8c5a2b; stroke: #8c5a2b"/>
     <use xlink:href="#m567c6b4880" x="168.074314" y="330.691548" style="fill: #8c5a2b; stroke: #8c5a2b"/>
     <use xlink:href="#m567c6b4880" x="210.399639" y="343.015173" style="fill: #8c5a2b; stroke: #8c5a2b"/>
     <use xlink:href="#m567c6b4880" x="252.724963" y="355.172072" style="fill: #8c5a2b; stroke: #8c5a2b"/>
     <use xlink:href="#m567c6b4880" x="295.050288" y="355.480612" style="fill: #8c5a2b; stroke: #8c5a2b"/>
     <use xlink:href="#m567c6b4880" x="337.375613" y="357.347567" style="fill: #8c5a2b; stroke: #8c5a2b"/>
     <use xlink:href="#m567c6b4880" x="379.700938" y="352.209263" style="fill: #8c5a2b; stroke: #8c5a2b"/>
     <use xlink:href="#m567c6b4880" x="422.026262" y="350.247958" style="fill: #8c5a2b; stroke: #8c5a2b"/>
     <use xlink:href="#m567c6b4880" x="464.351587" y="351.740933" style="fill: #8c5a2b; stroke: #8c5a2b"/>
     <use xlink:href="#m567c6b4880" x="506.676912" y="356.340054" style="fill: #8c5a2b; stroke: #8c5a2b"/>
     <use xlink:href="#m567c6b4880" x="549.002236" y="339.627428" style="fill: #8c5a2b; stroke: #8c5a2b"/>
     <use xlink:href="#m567c6b4880" x="591.327561" y="326.585421" style="fill: #8c5a2b; stroke: #8c5a2b"/>
     <use xlink:href="#m567c6b4880" x="633.652886" y="336.940404" style="fill: #8c5a2b; stroke: #8c5a2b"/>
     <use xlink:href="#m567c6b4880" x="675.97821" y="346.662006" style="fill: #8c5a2b; stroke: #8c5a2b"/>
    </g>
   </g>
   <g id="line2d_21">
    <path d="M 83.423665 298.698357
L 125.748989 205.143397
L 168.074314 214.657865
L 210.399639 250.900415
L 252.724963 252.965423
L 295.050288 256.813451
L 337.375613 260.838713
L 379.700938 247.048214
L 422.026262 228.023355
L 464.351587 233.205182
L 506.676912 233.38458
L 549.002236 146.338619
L 591.327561 45.302514
L 633.652886 106.705819
L 675.97821 139.322826
" clip-path="url(#p3b52a5d8fe)" style="fill: none; stroke: #3f7f5f; stroke-width: 1.8; stroke-linecap: square"/>
    <defs>
     <path id="m818ea658e6" d="M 0 2.5
C 0.663008 2.5 1.29895 2.236584 1.767767 1.767767
C 2.236584 1.29895 2.5 0.663008 2.5 0
C 2.5 -0.663008 2.236584 -1.29895 1.767767 -1.767767
C 1.29895 -2.236584 0.663008 -2.5 0 -2.5
C -0.663008 -2.5 -1.29895 -2.236584 -1.767767 -1.767767
C -2.236584 -1.29895 -2.5 -0.663008 -2.5 0
C -2.5 0.663008 -2.236584 1.29895 -1.767767 1.767767
C -1.29895 2.236584 -0.663008 2.5 0 2.5
z
" style="stroke: #3f7f5f"/>
    </defs>
    <g clip-path="url(#p3b52a5d8fe)">
     <use xlink:href="#m818ea658e6" x="83.423665" y="298.698357" style="fill: #3f7f5f; stroke: #3f7f5f"/>
     <use xlink:href="#m818ea658e6" x="125.748989" y="205.143397" style="fill: #3f7f5f; stroke: #3f7f5f"/>
     <use xlink:href="#m818ea658e6" x="168.074314" y="214.657865" style="fill: #3f7f5f; stroke: #3f7f5f"/>
     <use xlink:href="#m818ea658e6" x="210.399639" y="250.900415" style="fill: #3f7f5f; stroke: #3f7f5f"/>
     <use xlink:href="#m818ea658e6" x="252.724963" y="252.965423" style="fill: #3f7f5f; stroke: #3f7f5f"/>
     <use xlink:href="#m818ea658e6" x="295.050288" y="256.813451" style="fill: #3f7f5f; stroke: #3f7f5f"/>
     <use xlink:href="#m818ea658e6" x="337.375613" y="260.838713" style="fill: #3f7f5f; stroke: #3f7f5f"/>
     <use xlink:href="#m818ea658e6" x="379.700938" y="247.048214" style="fill: #3f7f5f; stroke: #3f7f5f"/>
     <use xlink:href="#m818ea658e6" x="422.026262" y="228.023355" style="fill: #3f7f5f; stroke: #3f7f5f"/>
     <use xlink:href="#m818ea658e6" x="464.351587" y="233.205182" style="fill: #3f7f5f; stroke: #3f7f5f"/>
     <use xlink:href="#m818ea658e6" x="506.676912" y="233.38458" style="fill: #3f7f5f; stroke: #3f7f5f"/>
     <use xlink:href="#m818ea658e6" x="549.002236" y="146.338619" style="fill: #3f7f5f; stroke: #3f7f5f"/>
     <use xlink:href="#m818ea658e6" x="591.327561" y="45.302514" style="fill: #3f7f5f; stroke: #3f7f5f"/>
     <use xlink:href="#m818ea658e6" x="633.652886" y="106.705819" style="fill: #3f7f5f; stroke: #3f7f5f"/>
     <use xlink:href="#m818ea658e6" x="675.97821" y="139.322826" style="fill: #3f7f5f; stroke: #3f7f5f"/>
    </g>
   </g>
   <g id="line2d_22">
    <path d="M 295.050288 386.017969
L 295.050288 29.077969
" clip-path="url(#p3b52a5d8fe)" style="fill: none; stroke-dasharray: 3.7,1.6; stroke-dashoffset: 0; stroke: #666666; stroke-opacity: 0.85"/>
   </g>
   <g id="line2d_23">
    <path d="M 337.375613 386.017969
L 337.375613 29.077969
" clip-path="url(#p3b52a5d8fe)" style="fill: none; stroke-dasharray: 1.2,1.98; stroke-dashoffset: 0; stroke: #666666; stroke-opacity: 0.9; stroke-width: 1.2"/>
   </g>
   <g id="patch_3">
    <path d="M 53.795938 386.017969
L 53.795938 29.077969
" style="fill: none; stroke: #333333; stroke-width: 0.8; stroke-linejoin: miter; stroke-linecap: square"/>
   </g>
   <g id="patch_4">
    <path d="M 53.795938 386.017969
L 705.605938 386.017969
" style="fill: none; stroke: #333333; stroke-width: 0.8; stroke-linejoin: miter; stroke-linecap: square"/>
   </g>
   <g id="text_16">
    <!-- Совокупная стоимость экспорта Китая по HS-кодам -->
    <g transform="translate(53.795938 17.077969) scale(0.13 -0.13)">
     <defs>
      <path id="DejaVuSans-432" d="M 1156 1613
L 1156 459
L 1975 459
Q 2369 459 2575 607
Q 2781 756 2781 1038
Q 2781 1319 2575 1466
Q 2369 1613 1975 1613
L 1156 1613
z
M 1156 3041
L 1156 2072
L 1913 2072
Q 2238 2072 2444 2201
Q 2650 2331 2650 2563
Q 2650 2794 2444 2917
Q 2238 3041 1913 3041
L 1156 3041
z
M 581 3500
L 1950 3500
Q 2566 3500 2897 3275
Q 3228 3050 3228 2634
Q 3228 2313 3059 2123
Q 2891 1934 2559 1888
Q 2956 1813 3175 1575
Q 3394 1338 3394 981
Q 3394 513 3033 256
Q 2672 0 2003 0
L 581 0
L 581 3500
z
" transform="scale(0.015625)"/>
      <path id="DejaVuSans-443" d="M 2059 -325
Q 1816 -950 1584 -1140
Q 1353 -1331 966 -1331
L 506 -1331
L 506 -850
L 844 -850
Q 1081 -850 1212 -737
Q 1344 -625 1503 -206
L 1606 56
L 191 3500
L 800 3500
L 1894 763
L 2988 3500
L 3597 3500
L 2059 -325
z
" transform="scale(0.015625)"/>
      <path id="DejaVuSans-44f" d="M 1181 2491
Q 1181 2231 1381 2084
Q 1581 1938 1953 1938
L 2728 1938
L 2728 3041
L 1953 3041
Q 1581 3041 1381 2897
Q 1181 2753 1181 2491
z
M 363 0
L 1431 1534
Q 1069 1616 828 1830
Q 588 2044 588 2491
Q 588 2997 923 3248
Q 1259 3500 1938 3500
L 3306 3500
L 3306 0
L 2728 0
L 2728 1478
L 2013 1478
L 981 0
L 363 0
z
" transform="scale(0.015625)"/>
      <path id="DejaVuSans-41a" d="M 628 4666
L 1259 4666
L 1259 2359
L 3516 4666
L 4325 4666
L 2522 2822
L 4419 0
L 3731 0
L 2113 2403
L 1259 1531
L 1259 0
L 628 0
L 628 4666
z
" transform="scale(0.015625)"/>
      <path id="DejaVuSans-48" d="M 628 4666
L 1259 4666
L 1259 2753
L 3553 2753
L 3553 4666
L 4184 4666
L 4184 0
L 3553 0
L 3553 2222
L 1259 2222
L 1259 0
L 628 0
L 628 4666
z
" transform="scale(0.015625)"/>
      <path id="DejaVuSans-53" d="M 3425 4513
L 3425 3897
Q 3066 4069 2747 4153
Q 2428 4238 2131 4238
Q 1616 4238 1336 4038
Q 1056 3838 1056 3469
Q 1056 3159 1242 3001
Q 1428 2844 1947 2747
L 2328 2669
Q 3034 2534 3370 2195
Q 3706 1856 3706 1288
Q 3706 609 3251 259
Q 2797 -91 1919 -91
Q 1588 -91 1214 -16
Q 841 59 441 206
L 441 856
Q 825 641 1194 531
Q 1563 422 1919 422
Q 2459 422 2753 634
Q 3047 847 3047 1241
Q 3047 1584 2836 1778
Q 2625 1972 2144 2069
L 1759 2144
Q 1053 2284 737 2584
Q 422 2884 422 3419
Q 422 4038 858 4394
Q 1294 4750 2059 4750
Q 2388 4750 2728 4690
Q 3069 4631 3425 4513
z
" transform="scale(0.015625)"/>
      <path id="DejaVuSans-2d" d="M 313 2009
L 1997 2009
L 1997 1497
L 313 1497
L 313 2009
z
" transform="scale(0.015625)"/>
     </defs>
     <use xlink:href="#DejaVuSans-421"/>
     <use xlink:href="#DejaVuSans-43e" transform="translate(69.824219 0)"/>
     <use xlink:href="#DejaVuSans-432" transform="translate(131.005859 0)"/>
     <use xlink:href="#DejaVuSans-43e" transform="translate(189.941406 0)"/>
     <use xlink:href="#DejaVuSans-43a" transform="translate(251.123047 0)"/>
     <use xlink:href="#DejaVuSans-443" transform="translate(311.523438 0)"/>
     <use xlink:href="#DejaVuSans-43f" transform="translate(370.703125 0)"/>
     <use xlink:href="#DejaVuSans-43d" transform="translate(436.083984 0)"/>
     <use xlink:href="#DejaVuSans-430" transform="translate(501.464844 0)"/>
     <use xlink:href="#DejaVuSans-44f" transform="translate(562.744141 0)"/>
     <use xlink:href="#DejaVuSans-20" transform="translate(622.900391 0)"/>
     <use xlink:href="#DejaVuSans-441" transform="translate(654.6875 0)"/>
     <use xlink:href="#DejaVuSans-442" transform="translate(709.667969 0)"/>
     <use xlink:href="#DejaVuSans-43e" transform="translate(767.919922 0)"/>
     <use xlink:href="#DejaVuSans-438" transform="translate(829.101562 0)"/>
     <use xlink:href="#DejaVuSans-43c" transform="translate(894.091797 0)"/>
     <use xlink:href="#DejaVuSans-43e" transform="translate(969.53125 0)"/>
     <use xlink:href="#DejaVuSans-441" transform="translate(1030.712891 0)"/>
     <use xlink:href="#DejaVuSans-442" transform="translate(1085.693359 0)"/>
     <use xlink:href="#DejaVuSans-44c" transform="translate(1143.945312 0)"/>
     <use xlink:href="#DejaVuSans-20" transform="translate(1202.880859 0)"/>
     <use xlink:href="#DejaVuSans-44d" transform="translate(1234.667969 0)"/>
     <use xlink:href="#DejaVuSans-43a" transform="translate(1289.550781 0)"/>
     <use xlink:href="#DejaVuSans-441" transform="translate(1349.951172 0)"/>
     <use xlink:href="#DejaVuSans-43f" transform="translate(1404.931641 0)"/>
     <use xlink:href="#DejaVuSans-43e" transform="translate(1470.3125 0)"/>
     <use xlink:href="#DejaVuSans-440" transform="translate(1531.494141 0)"/>
     <use xlink:href="#DejaVuSans-442" transform="translate(1594.970703 0)"/>
     <use xlink:href="#DejaVuSans-430" transform="translate(1653.222656 0)"/>
     <use xlink:href="#DejaVuSans-20" transform="translate(1714.501953 0)"/>
     <use xlink:href="#DejaVuSans-41a" transform="translate(1746.289062 0)"/>
     <use xlink:href="#DejaVuSans-438" transform="translate(1817.285156 0)"/>
     <use xlink:href="#DejaVuSans-442" transform="translate(1882.275391 0)"/>
     <use xlink:href="#DejaVuSans-430" transform="translate(1940.527344 0)"/>
     <use xlink:href="#DejaVuSans-44f" transform="translate(2001.806641 0)"/>
     <use xlink:href="#DejaVuSans-20" transform="translate(2061.962891 0)"/>
     <use xlink:href="#DejaVuSans-43f" transform="translate(2093.75 0)"/>
     <use xlink:href="#DejaVuSans-43e" transform="translate(2159.130859 0)"/>
     <use xlink:href="#DejaVuSans-20" transform="translate(2220.3125 0)"/>
     <use xlink:href="#DejaVuSans-48" transform="translate(2252.099609 0)"/>
     <use xlink:href="#DejaVuSans-53" transform="translate(2327.294922 0)"/>
     <use xlink:href="#DejaVuSans-2d" transform="translate(2390.771484 0)"/>
     <use xlink:href="#DejaVuSans-43a" transform="translate(2426.855469 0)"/>
     <use xlink:href="#DejaVuSans-43e" transform="translate(2487.255859 0)"/>
     <use xlink:href="#DejaVuSans-434" transform="translate(2548.4375 0)"/>
     <use xlink:href="#DejaVuSans-430" transform="translate(2617.578125 0)"/>
     <use xlink:href="#DejaVuSans-43c" transform="translate(2678.857422 0)"/>
    </g>
   </g>
   <g id="legend_1">
    <g id="line2d_24">
     <path d="M 62.345938 41.521484
L 71.845938 41.521484
L 81.345938 41.521484
" style="fill: none; stroke: #1f4e79; stroke-width: 1.8; stroke-linecap: square"/>
     <g>
      <use xlink:href="#m6d113afbb0" x="71.845938" y="41.521484" style="fill: #1f4e79; stroke: #1f4e79"/>
     </g>
    </g>
    <g id="text_17">
     <!-- HS 280530 -->
     <g transform="translate(88.945938 44.846484) scale(0.095 -0.095)">
      <defs>
       <path id="DejaVuSans-35" d="M 691 4666
L 3169 4666
L 3169 4134
L 1269 4134
L 1269 2991
Q 1406 3038 1543 3061
Q 1681 3084 1819 3084
Q 2600 3084 3056 2656
Q 3513 2228 3513 1497
Q 3513 744 3044 326
Q 2575 -91 1722 -91
Q 1428 -91 1123 -41
Q 819 9 494 109
L 494 744
Q 775 591 1075 516
Q 1375 441 1709 441
Q 2250 441 2565 725
Q 2881 1009 2881 1497
Q 2881 1984 2565 2268
Q 2250 2553 1709 2553
Q 1456 2553 1204 2497
Q 953 2441 691 2322
L 691 4666
z
" transform="scale(0.015625)"/>
      </defs>
      <use xlink:href="#DejaVuSans-48"/>
      <use xlink:href="#DejaVuSans-53" transform="translate(75.195312 0)"/>
      <use xlink:href="#DejaVuSans-20" transform="translate(138.671875 0)"/>
      <use xlink:href="#DejaVuSans-32" transform="translate(170.458984 0)"/>
      <use xlink:href="#DejaVuSans-38" transform="translate(234.082031 0)"/>
      <use xlink:href="#DejaVuSans-30" transform="translate(297.705078 0)"/>
      <use xlink:href="#DejaVuSans-35" transform="translate(361.328125 0)"/>
      <use xlink:href="#DejaVuSans-33" transform="translate(424.951172 0)"/>
      <use xlink:href="#DejaVuSans-30" transform="translate(488.574219 0)"/>
     </g>
    </g>
    <g id="line2d_25">
     <path d="M 62.345938 55.465703
L 71.845938 55.465703
L 81.345938 55.465703
" style="fill: none; stroke: #8c5a2b; stroke-width: 1.8; stroke-linecap: square"/>
     <g>
      <use xlink:href="#m567c6b4880" x="71.845938" y="55.465703" style="fill: #8c5a2b; stroke: #8c5a2b"/>
     </g>
    </g>
    <g id="text_18">
     <!-- HS 284690 -->
     <g transform="translate(88.945938 58.790703) scale(0.095 -0.095)">
      <defs>
       <path id="DejaVuSans-39" d="M 703 97
L 703 672
Q 941 559 1184 500
Q 1428 441 1663 441
Q 2288 441 2617 861
Q 2947 1281 2994 2138
Q 2813 1869 2534 1725
Q 2256 1581 1919 1581
Q 1219 1581 811 2004
Q 403 2428 403 3163
Q 403 3881 828 4315
Q 1253 4750 1959 4750
Q 2769 4750 3195 4129
Q 3622 3509 3622 2328
Q 3622 1225 3098 567
Q 2575 -91 1691 -91
Q 1453 -91 1209 -44
Q 966 3 703 97
z
M 1959 2075
Q 2384 2075 2632 2365
Q 2881 2656 2881 3163
Q 2881 3666 2632 3958
Q 2384 4250 1959 4250
Q 1534 4250 1286 3958
Q 1038 3666 1038 3163
Q 1038 2656 1286 2365
Q 1534 2075 1959 2075
z
" transform="scale(0.015625)"/>
      </defs>
      <use xlink:href="#DejaVuSans-48"/>
      <use xlink:href="#DejaVuSans-53" transform="translate(75.195312 0)"/>
      <use xlink:href="#DejaVuSans-20" transform="translate(138.671875 0)"/>
      <use xlink:href="#DejaVuSans-32" transform="translate(170.458984 0)"/>
      <use xlink:href="#DejaVuSans-38" transform="translate(234.082031 0)"/>
      <use xlink:href="#DejaVuSans-34" transform="translate(297.705078 0)"/>
      <use xlink:href="#DejaVuSans-36" transform="translate(361.328125 0)"/>
      <use xlink:href="#DejaVuSans-39" transform="translate(424.951172 0)"/>
      <use xlink:href="#DejaVuSans-30" transform="translate(488.574219 0)"/>
     </g>
    </g>
    <g id="line2d_26">
     <path d="M 62.345938 69.409922
L 71.845938 69.409922
L 81.345938 69.409922
" style="fill: none; stroke: #3f7f5f; stroke-width: 1.8; stroke-linecap: square"/>
     <g>
      <use xlink:href="#m818ea658e6" x="71.845938" y="69.409922" style="fill: #3f7f5f; stroke: #3f7f5f"/>
     </g>
    </g>
    <g id="text_19">
     <!-- HS 850511 -->
     <g transform="translate(88.945938 72.734922) scale(0.095 -0.095)">
      <use xlink:href="#DejaVuSans-48"/>
      <use xlink:href="#DejaVuSans-53" transform="translate(75.195312 0)"/>
      <use xlink:href="#DejaVuSans-20" transform="translate(138.671875 0)"/>
      <use xlink:href="#DejaVuSans-38" transform="translate(170.458984 0)"/>
      <use xlink:href="#DejaVuSans-35" transform="translate(234.082031 0)"/>
      <use xlink:href="#DejaVuSans-30" transform="translate(297.705078 0)"/>
      <use xlink:href="#DejaVuSans-35" transform="translate(361.328125 0)"/>
      <use xlink:href="#DejaVuSans-31" transform="translate(424.951172 0)"/>
      <use xlink:href="#DejaVuSans-31" transform="translate(488.574219 0)"/>
     </g>
    </g>
   </g>
  </g>
 </g>
 <defs>
  <clipPath id="p3b52a5d8fe">
   <rect x="53.795938" y="29.077969" width="651.81" height="356.94"/>
  </clipPath>
 </defs>
</svg>
