<?xml version="1.0" encoding="utf-8" standalone="no"?>
<!DOCTYPE svg PUBLIC "-//W3C//DTD SVG 1.1//EN"
  "http://www.w3.org/Graphics/SVG/1.1/DTD/svg11.dtd">
<svg xmlns:xlink="http://www.w3.org/1999/xlink" width="712.732187pt" height="424.042031pt" viewBox="0 0 712.732187 424.042031" xmlns="http://www.w3.org/2000/svg" version="1.1">
 <metadata>
  <rdf:RDF xmlns:dc="http://purl.org/dc/elements/1.1/" xmlns:cc="http://creativecommons.org/ns#" xmlns:rdf="http://www.w3.org/1999/02/22-rdf-syntax-ns#">
   <cc:Work>
    <dc:type rdf:resource="http://purl.org/dc/dcmitype/StillImage"/>
    <dc:date>2026-05-10T03:14:24.266177</dc:date>
    <dc:format>image/svg+xml</dc:format>
    <dc:creator>
     <cc:Agent>
      <dc:title>Matplotlib v3.10.8, https://matplotlib.org/</dc:title>
     </cc:Agent>
    </dc:creator>
   </cc:Work>
  </rdf:RDF>
 </metadata>
 <defs>
  <style type="text/css">*{stroke-linejoin: round; stroke-linecap: butt}</style>
 </defs>
 <g id="figure_1">
  <g id="patch_1">
   <path d="M -0 424.042031
L 712.732187 424.042031
L 712.732187 0
L -0 0
z
" style="fill: #ffffff"/>
  </g>
  <g id="axes_1">
   <g id="patch_2">
    <path d="M 47.433438 386.017969
L 705.532188 386.017969
L 705.532188 29.077969
L 47.433438 29.077969
z
" style="fill: #ffffff"/>
   </g>
   <g id="matplotlib.axis_1">
    <g id="xtick_1">
     <g id="line2d_1">
      <defs>
       <path id="mea338cbf21" d="M 0 0
L 0 3
" style="stroke: #333333; stroke-width: 0.8"/>
      </defs>
      <g>
       <use xlink:href="#mea338cbf21" x="77.347017" y="386.017969" style="fill: #333333; stroke: #333333; stroke-width: 0.8"/>
      </g>
     </g>
     <g id="text_1">
      <!-- 2010 -->
      <g style="fill: #333333" transform="translate(64.622017 400.116406) scale(0.1 -0.1)">
       <defs>
        <path id="DejaVuSans-32" d="M 1228 531
L 3431 531
L 3431 0
L 469 0
L 469 531
Q 828 903 1448 1529
Q 2069 2156 2228 2338
Q 2531 2678 2651 2914
Q 2772 3150 2772 3378
Q 2772 3750 2511 3984
Q 2250 4219 1831 4219
Q 1534 4219 1204 4116
Q 875 4013 500 3803
L 500 4441
Q 881 4594 1212 4672
Q 1544 4750 1819 4750
Q 2544 4750 2975 4387
Q 3406 4025 3406 3419
Q 3406 3131 3298 2873
Q 3191 2616 2906 2266
Q 2828 2175 2409 1742
Q 1991 1309 1228 531
z
" transform="scale(0.015625)"/>
        <path id="DejaVuSans-30" d="M 2034 4250
Q 1547 4250 1301 3770
Q 1056 3291 1056 2328
Q 1056 1369 1301 889
Q 1547 409 2034 409
Q 2525 409 2770 889
Q 3016 1369 3016 2328
Q 3016 3291 2770 3770
Q 2525 4250 2034 4250
z
M 2034 4750
Q 2819 4750 3233 4129
Q 3647 3509 3647 2328
Q 3647 1150 3233 529
Q 2819 -91 2034 -91
Q 1250 -91 836 529
Q 422 1150 422 2328
Q 422 3509 836 4129
Q 1250 4750 2034 4750
z
" transform="scale(0.015625)"/>
        <path id="DejaVuSans-31" d="M 794 531
L 1825 531
L 1825 4091
L 703 3866
L 703 4441
L 1819 4666
L 2450 4666
L 2450 531
L 3481 531
L 3481 0
L 794 0
L 794 531
z
" transform="scale(0.015625)"/>
       </defs>
       <use xlink:href="#DejaVuSans-32"/>
       <use xlink:href="#DejaVuSans-30" transform="translate(63.623047 0)"/>
       <use xlink:href="#DejaVuSans-31" transform="translate(127.246094 0)"/>
       <use xlink:href="#DejaVuSans-30" transform="translate(190.869141 0)"/>
      </g>
     </g>
    </g>
    <g id="xtick_2">
     <g id="line2d_2">
      <g>
       <use xlink:href="#mea338cbf21" x="162.814387" y="386.017969" style="fill: #333333; stroke: #333333; stroke-width: 0.8"/>
      </g>
     </g>
     <g id="text_2">
      <!-- 2012 -->
      <g style="fill: #333333" transform="translate(150.089387 400.116406) scale(0.1 -0.1)">
       <use xlink:href="#DejaVuSans-32"/>
       <use xlink:href="#DejaVuSans-30" transform="translate(63.623047 0)"/>
       <use xlink:href="#DejaVuSans-31" transform="translate(127.246094 0)"/>
       <use xlink:href="#DejaVuSans-32" transform="translate(190.869141 0)"/>
      </g>
     </g>
    </g>
    <g id="xtick_3">
     <g id="line2d_3">
      <g>
       <use xlink:href="#mea338cbf21" x="248.281757" y="386.017969" style="fill: #333333; stroke: #333333; stroke-width: 0.8"/>
      </g>
     </g>
     <g id="text_3">
      <!-- 2014 -->
      <g style="fill: #333333" transform="translate(235.556757 400.116406) scale(0.1 -0.1)">
       <defs>
        <path id="DejaVuSans-34" d="M 2419 4116
L 825 1625
L 2419 1625
L 2419 4116
z
M 2253 4666
L 3047 4666
L 3047 1625
L 3713 1625
L 3713 1100
L 3047 1100
L 3047 0
L 2419 0
L 2419 1100
L 313 1100
L 313 1709
L 2253 4666
z
" transform="scale(0.015625)"/>
       </defs>
       <use xlink:href="#DejaVuSans-32"/>
       <use xlink:href="#DejaVuSans-30" transform="translate(63.623047 0)"/>
       <use xlink:href="#DejaVuSans-31" transform="translate(127.246094 0)"/>
       <use xlink:href="#DejaVuSans-34" transform="translate(190.869141 0)"/>
      </g>
     </g>
    </g>
    <g id="xtick_4">
     <g id="line2d_4">
      <g>
       <use xlink:href="#mea338cbf21" x="333.749127" y="386.017969" style="fill: #333333; stroke: #333333; stroke-width: 0.8"/>
      </g>
     </g>
     <g id="text_4">
      <!-- 2016 -->
      <g style="fill: #333333" transform="translate(321.024127 400.116406) scale(0.1 -0.1)">
       <defs>
        <path id="DejaVuSans-36" d="M 2113 2584
Q 1688 2584 1439 2293
Q 1191 2003 1191 1497
Q 1191 994 1439 701
Q 1688 409 2113 409
Q 2538 409 2786 701
Q 3034 994 3034 1497
Q 3034 2003 2786 2293
Q 2538 2584 2113 2584
z
M 3366 4563
L 3366 3988
Q 3128 4100 2886 4159
Q 2644 4219 2406 4219
Q 1781 4219 1451 3797
Q 1122 3375 1075 2522
Q 1259 2794 1537 2939
Q 1816 3084 2150 3084
Q 2853 3084 3261 2657
Q 3669 2231 3669 1497
Q 3669 778 3244 343
Q 2819 -91 2113 -91
Q 1303 -91 875 529
Q 447 1150 447 2328
Q 447 3434 972 4092
Q 1497 4750 2381 4750
Q 2619 4750 2861 4703
Q 3103 4656 3366 4563
z
" transform="scale(0.015625)"/>
       </defs>
       <use xlink:href="#DejaVuSans-32"/>
       <use xlink:href="#DejaVuSans-30" transform="translate(63.623047 0)"/>
       <use xlink:href="#DejaVuSans-31" transform="translate(127.246094 0)"/>
       <use xlink:href="#DejaVuSans-36" transform="translate(190.869141 0)"/>
      </g>
     </g>
    </g>
    <g id="xtick_5">
     <g id="line2d_5">
      <g>
       <use xlink:href="#mea338cbf21" x="419.216498" y="386.017969" style="fill: #333333; stroke: #333333; stroke-width: 0.8"/>
      </g>
     </g>
     <g id="text_5">
      <!-- 2018 -->
      <g style="fill: #333333" transform="translate(406.491498 400.116406) scale(0.1 -0.1)">
       <defs>
        <path id="DejaVuSans-38" d="M 2034 2216
Q 1584 2216 1326 1975
Q 1069 1734 1069 1313
Q 1069 891 1326 650
Q 1584 409 2034 409
Q 2484 409 2743 651
Q 3003 894 3003 1313
Q 3003 1734 2745 1975
Q 2488 2216 2034 2216
z
M 1403 2484
Q 997 2584 770 2862
Q 544 3141 544 3541
Q 544 4100 942 4425
Q 1341 4750 2034 4750
Q 2731 4750 3128 4425
Q 3525 4100 3525 3541
Q 3525 3141 3298 2862
Q 3072 2584 2669 2484
Q 3125 2378 3379 2068
Q 3634 1759 3634 1313
Q 3634 634 3220 271
Q 2806 -91 2034 -91
Q 1263 -91 848 271
Q 434 634 434 1313
Q 434 1759 690 2068
Q 947 2378 1403 2484
z
M 1172 3481
Q 1172 3119 1398 2916
Q 1625 2713 2034 2713
Q 2441 2713 2670 2916
Q 2900 3119 2900 3481
Q 2900 3844 2670 4047
Q 2441 4250 2034 4250
Q 1625 4250 1398 4047
Q 1172 3844 1172 3481
z
" transform="scale(0.015625)"/>
       </defs>
       <use xlink:href="#DejaVuSans-32"/>
       <use xlink:href="#DejaVuSans-30" transform="translate(63.623047 0)"/>
       <use xlink:href="#DejaVuSans-31" transform="translate(127.246094 0)"/>
       <use xlink:href="#DejaVuSans-38" transform="translate(190.869141 0)"/>
      </g>
     </g>
    </g>
    <g id="xtick_6">
     <g id="line2d_6">
      <g>
       <use xlink:href="#mea338cbf21" x="504.683868" y="386.017969" style="fill: #333333; stroke: #333333; stroke-width: 0.8"/>
      </g>
     </g>
     <g id="text_6">
      <!-- 2020 -->
      <g style="fill: #333333" transform="translate(491.958868 400.116406) scale(0.1 -0.1)">
       <use xlink:href="#DejaVuSans-32"/>
       <use xlink:href="#DejaVuSans-30" transform="translate(63.623047 0)"/>
       <use xlink:href="#DejaVuSans-32" transform="translate(127.246094 0)"/>
       <use xlink:href="#DejaVuSans-30" transform="translate(190.869141 0)"/>
      </g>
     </g>
    </g>
    <g id="xtick_7">
     <g id="line2d_7">
      <g>
       <use xlink:href="#mea338cbf21" x="590.151238" y="386.017969" style="fill: #333333; stroke: #333333; stroke-width: 0.8"/>
      </g>
     </g>
     <g id="text_7">
      <!-- 2022 -->
      <g style="fill: #333333" transform="translate(577.426238 400.116406) scale(0.1 -0.1)">
       <use xlink:href="#DejaVuSans-32"/>
       <use xlink:href="#DejaVuSans-30" transform="translate(63.623047 0)"/>
       <use xlink:href="#DejaVuSans-32" transform="translate(127.246094 0)"/>
       <use xlink:href="#DejaVuSans-32" transform="translate(190.869141 0)"/>
      </g>
     </g>
    </g>
    <g id="xtick_8">
     <g id="line2d_8">
      <g>
       <use xlink:href="#mea338cbf21" x="675.618608" y="386.017969" style="fill: #333333; stroke: #333333; stroke-width: 0.8"/>
      </g>
     </g>
     <g id="text_8">
      <!-- 2024 -->
      <g style="fill: #333333" transform="translate(662.893608 400.116406) scale(0.1 -0.1)">
       <use xlink:href="#DejaVuSans-32"/>
       <use xlink:href="#DejaVuSans-30" transform="translate(63.623047 0)"/>
       <use xlink:href="#DejaVuSans-32" transform="translate(127.246094 0)"/>
       <use xlink:href="#DejaVuSans-34" transform="translate(190.869141 0)"/>
      </g>
     </g>
    </g>
    <g id="text_9">
     <!-- Год -->
     <g transform="translate(365.960625 414.554375) scale(0.11 -0.11)">
      <defs>
       <path id="DejaVuSans-413" d="M 628 0
L 628 4666
L 3531 4666
L 3531 4134
L 1259 4134
L 1259 0
L 628 0
z
" transform="scale(0.015625)"/>
       <path id="DejaVuSans-43e" d="M 1959 3097
Q 1497 3097 1228 2736
Q 959 2375 959 1747
Q 959 1119 1226 758
Q 1494 397 1959 397
Q 2419 397 2687 759
Q 2956 1122 2956 1747
Q 2956 2369 2687 2733
Q 2419 3097 1959 3097
z
M 1959 3584
Q 2709 3584 3137 3096
Q 3566 2609 3566 1747
Q 3566 888 3137 398
Q 2709 -91 1959 -91
Q 1206 -91 779 398
Q 353 888 353 1747
Q 353 2609 779 3096
Q 1206 3584 1959 3584
z
" transform="scale(0.015625)"/>
       <path id="DejaVuSans-434" d="M 1384 459
L 3053 459
L 3053 3041
L 1844 3041
L 1844 2603
Q 1844 1316 1475 628
L 1384 459
z
M 550 459
Q 834 584 959 850
Q 1266 1509 1266 2838
L 1266 3500
L 3631 3500
L 3631 459
L 4091 459
L 4091 -884
L 3631 -884
L 3631 0
L 794 0
L 794 -884
L 334 -884
L 334 459
L 550 459
z
" transform="scale(0.015625)"/>
      </defs>
      <use xlink:href="#DejaVuSans-413"/>
      <use xlink:href="#DejaVuSans-43e" transform="translate(60.986328 0)"/>
      <use xlink:href="#DejaVuSans-434" transform="translate(122.167969 0)"/>
     </g>
    </g>
   </g>
   <g id="matplotlib.axis_2">
    <g id="ytick_1">
     <g id="line2d_9">
      <path d="M 47.433438 348.546995
L 705.532188 348.546995
" clip-path="url(#p5dfb256a99)" style="fill: none; stroke: #d9d9d9; stroke-opacity: 0.8; stroke-width: 0.7; stroke-linecap: square"/>
     </g>
     <g id="line2d_10">
      <defs>
       <path id="mc64d197f8c" d="M 0 0
L -3 0
" style="stroke: #333333; stroke-width: 0.8"/>
      </defs>
      <g>
       <use xlink:href="#mc64d197f8c" x="47.433438" y="348.546995" style="fill: #333333; stroke: #333333; stroke-width: 0.8"/>
      </g>
     </g>
     <g id="text_10">
      <!-- 25 -->
      <g style="fill: #333333" transform="translate(28.208438 352.346213) scale(0.1 -0.1)">
       <defs>
        <path id="DejaVuSans-35" d="M 691 4666
L 3169 4666
L 3169 4134
L 1269 4134
L 1269 2991
Q 1406 3038 1543 3061
Q 1681 3084 1819 3084
Q 2600 3084 3056 2656
Q 3513 2228 3513 1497
Q 3513 744 3044 326
Q 2575 -91 1722 -91
Q 1428 -91 1123 -41
Q 819 9 494 109
L 494 744
Q 775 591 1075 516
Q 1375 441 1709 441
Q 2250 441 2565 725
Q 2881 1009 2881 1497
Q 2881 1984 2565 2268
Q 2250 2553 1709 2553
Q 1456 2553 1204 2497
Q 953 2441 691 2322
L 691 4666
z
" transform="scale(0.015625)"/>
       </defs>
       <use xlink:href="#DejaVuSans-32"/>
       <use xlink:href="#DejaVuSans-35" transform="translate(63.623047 0)"/>
      </g>
     </g>
    </g>
    <g id="ytick_2">
     <g id="line2d_11">
      <path d="M 47.433438 300.259657
L 705.532188 300.259657
" clip-path="url(#p5dfb256a99)" style="fill: none; stroke: #d9d9d9; stroke-opacity: 0.8; stroke-width: 0.7; stroke-linecap: square"/>
     </g>
     <g id="line2d_12">
      <g>
       <use xlink:href="#mc64d197f8c" x="47.433438" y="300.259657" style="fill: #333333; stroke: #333333; stroke-width: 0.8"/>
      </g>
     </g>
     <g id="text_11">
      <!-- 50 -->
      <g style="fill: #333333" transform="translate(28.208438 304.058876) scale(0.1 -0.1)">
       <use xlink:href="#DejaVuSans-35"/>
       <use xlink:href="#DejaVuSans-30" transform="translate(63.623047 0)"/>
      </g>
     </g>
    </g>
    <g id="ytick_3">
     <g id="line2d_13">
      <path d="M 47.433438 251.972319
L 705.532188 251.972319
" clip-path="url(#p5dfb256a99)" style="fill: none; stroke: #d9d9d9; stroke-opacity: 0.8; stroke-width: 0.7; stroke-linecap: square"/>
     </g>
     <g id="line2d_14">
      <g>
       <use xlink:href="#mc64d197f8c" x="47.433438" y="251.972319" style="fill: #333333; stroke: #333333; stroke-width: 0.8"/>
      </g>
     </g>
     <g id="text_12">
      <!-- 75 -->
      <g style="fill: #333333" transform="translate(28.208438 255.771538) scale(0.1 -0.1)">
       <defs>
        <path id="DejaVuSans-37" d="M 525 4666
L 3525 4666
L 3525 4397
L 1831 0
L 1172 0
L 2766 4134
L 525 4134
L 525 4666
z
" transform="scale(0.015625)"/>
       </defs>
       <use xlink:href="#DejaVuSans-37"/>
       <use xlink:href="#DejaVuSans-35" transform="translate(63.623047 0)"/>
      </g>
     </g>
    </g>
    <g id="ytick_4">
     <g id="line2d_15">
      <path d="M 47.433438 203.684982
L 705.532188 203.684982
" clip-path="url(#p5dfb256a99)" style="fill: none; stroke: #d9d9d9; stroke-opacity: 0.8; stroke-width: 0.7; stroke-linecap: square"/>
     </g>
     <g id="line2d_16">
      <g>
       <use xlink:href="#mc64d197f8c" x="47.433438" y="203.684982" style="fill: #333333; stroke: #333333; stroke-width: 0.8"/>
      </g>
     </g>
     <g id="text_13">
      <!-- 100 -->
      <g style="fill: #333333" transform="translate(21.845938 207.4842) scale(0.1 -0.1)">
       <use xlink:href="#DejaVuSans-31"/>
       <use xlink:href="#DejaVuSans-30" transform="translate(63.623047 0)"/>
       <use xlink:href="#DejaVuSans-30" transform="translate(127.246094 0)"/>
      </g>
     </g>
    </g>
    <g id="ytick_5">
     <g id="line2d_17">
      <path d="M 47.433438 155.397644
L 705.532188 155.397644
" clip-path="url(#p5dfb256a99)" style="fill: none; stroke: #d9d9d9; stroke-opacity: 0.8; stroke-width: 0.7; stroke-linecap: square"/>
     </g>
     <g id="line2d_18">
      <g>
       <use xlink:href="#mc64d197f8c" x="47.433438" y="155.397644" style="fill: #333333; stroke: #333333; stroke-width: 0.8"/>
      </g>
     </g>
     <g id="text_14">
      <!-- 125 -->
      <g style="fill: #333333" transform="translate(21.845938 159.196863) scale(0.1 -0.1)">
       <use xlink:href="#DejaVuSans-31"/>
       <use xlink:href="#DejaVuSans-32" transform="translate(63.623047 0)"/>
       <use xlink:href="#DejaVuSans-35" transform="translate(127.246094 0)"/>
      </g>
     </g>
    </g>
    <g id="ytick_6">
     <g id="line2d_19">
      <path d="M 47.433438 107.110306
L 705.532188 107.110306
" clip-path="url(#p5dfb256a99)" style="fill: none; stroke: #d9d9d9; stroke-opacity: 0.8; stroke-width: 0.7; stroke-linecap: square"/>
     </g>
     <g id="line2d_20">
      <g>
       <use xlink:href="#mc64d197f8c" x="47.433438" y="107.110306" style="fill: #333333; stroke: #333333; stroke-width: 0.8"/>
      </g>
     </g>
     <g id="text_15">
      <!-- 150 -->
      <g style="fill: #333333" transform="translate(21.845938 110.909525) scale(0.1 -0.1)">
       <use xlink:href="#DejaVuSans-31"/>
       <use xlink:href="#DejaVuSans-35" transform="translate(63.623047 0)"/>
       <use xlink:href="#DejaVuSans-30" transform="translate(127.246094 0)"/>
      </g>
     </g>
    </g>
    <g id="ytick_7">
     <g id="line2d_21">
      <path d="M 47.433438 58.822969
L 705.532188 58.822969
" clip-path="url(#p5dfb256a99)" style="fill: none; stroke: #d9d9d9; stroke-opacity: 0.8; stroke-width: 0.7; stroke-linecap: square"/>
     </g>
     <g id="line2d_22">
      <g>
       <use xlink:href="#mc64d197f8c" x="47.433438" y="58.822969" style="fill: #333333; stroke: #333333; stroke-width: 0.8"/>
      </g>
     </g>
     <g id="text_16">
      <!-- 175 -->
      <g style="fill: #333333" transform="translate(21.845938 62.622187) scale(0.1 -0.1)">
       <use xlink:href="#DejaVuSans-31"/>
       <use xlink:href="#DejaVuSans-37" transform="translate(63.623047 0)"/>
       <use xlink:href="#DejaVuSans-35" transform="translate(127.246094 0)"/>
      </g>
     </g>
    </g>
    <g id="text_17">
     <!-- Количество импортёров -->
     <g transform="translate(15.558281 277.986641) rotate(-90) scale(0.11 -0.11)">
      <defs>
       <path id="DejaVuSans-41a" d="M 628 4666
L 1259 4666
L 1259 2359
L 3516 4666
L 4325 4666
L 2522 2822
L 4419 0
L 3731 0
L 2113 2403
L 1259 1531
L 1259 0
L 628 0
L 628 4666
z
" transform="scale(0.015625)"/>
       <path id="DejaVuSans-43b" d="M 238 0
L 238 478
Q 806 566 981 959
Q 1194 1513 1194 2928
L 1194 3500
L 3559 3500
L 3559 0
L 2984 0
L 2984 3041
L 1769 3041
L 1769 2694
Q 1769 1344 1494 738
Q 1200 91 238 0
z
" transform="scale(0.015625)"/>
       <path id="DejaVuSans-438" d="M 3578 3500
L 3578 0
L 3006 0
L 3006 2809
L 1319 0
L 581 0
L 581 3500
L 1153 3500
L 1153 697
L 2838 3500
L 3578 3500
z
" transform="scale(0.015625)"/>
       <path id="DejaVuSans-447" d="M 2625 0
L 2625 1472
L 1553 1472
Q 1075 1472 756 1769
Q 469 2038 469 2613
L 469 3500
L 1044 3500
L 1044 2666
Q 1044 2300 1206 2116
Q 1372 1931 1697 1931
L 2625 1931
L 2625 3500
L 3200 3500
L 3200 0
L 2625 0
z
" transform="scale(0.015625)"/>
       <path id="DejaVuSans-435" d="M 3597 1894
L 3597 1613
L 953 1613
Q 991 1019 1311 708
Q 1631 397 2203 397
Q 2534 397 2845 478
Q 3156 559 3463 722
L 3463 178
Q 3153 47 2828 -22
Q 2503 -91 2169 -91
Q 1331 -91 842 396
Q 353 884 353 1716
Q 353 2575 817 3079
Q 1281 3584 2069 3584
Q 2775 3584 3186 3129
Q 3597 2675 3597 1894
z
M 3022 2063
Q 3016 2534 2758 2815
Q 2500 3097 2075 3097
Q 1594 3097 1305 2825
Q 1016 2553 972 2059
L 3022 2063
z
" transform="scale(0.015625)"/>
       <path id="DejaVuSans-441" d="M 3122 3366
L 3122 2828
Q 2878 2963 2633 3030
Q 2388 3097 2138 3097
Q 1578 3097 1268 2742
Q 959 2388 959 1747
Q 959 1106 1268 751
Q 1578 397 2138 397
Q 2388 397 2633 464
Q 2878 531 3122 666
L 3122 134
Q 2881 22 2623 -34
Q 2366 -91 2075 -91
Q 1284 -91 818 406
Q 353 903 353 1747
Q 353 2603 823 3093
Q 1294 3584 2113 3584
Q 2378 3584 2631 3529
Q 2884 3475 3122 3366
z
" transform="scale(0.015625)"/>
       <path id="DejaVuSans-442" d="M 188 3500
L 3541 3500
L 3541 3041
L 2147 3041
L 2147 0
L 1581 0
L 1581 3041
L 188 3041
L 188 3500
z
" transform="scale(0.015625)"/>
       <path id="DejaVuSans-432" d="M 1156 1613
L 1156 459
L 1975 459
Q 2369 459 2575 607
Q 2781 756 2781 1038
Q 2781 1319 2575 1466
Q 2369 1613 1975 1613
L 1156 1613
z
M 1156 3041
L 1156 2072
L 1913 2072
Q 2238 2072 2444 2201
Q 2650 2331 2650 2563
Q 2650 2794 2444 2917
Q 2238 3041 1913 3041
L 1156 3041
z
M 581 3500
L 1950 3500
Q 2566 3500 2897 3275
Q 3228 3050 3228 2634
Q 3228 2313 3059 2123
Q 2891 1934 2559 1888
Q 2956 1813 3175 1575
Q 3394 1338 3394 981
Q 3394 513 3033 256
Q 2672 0 2003 0
L 581 0
L 581 3500
z
" transform="scale(0.015625)"/>
       <path id="DejaVuSans-20" transform="scale(0.015625)"/>
       <path id="DejaVuSans-43c" d="M 581 3500
L 1422 3500
L 2416 1156
L 3413 3500
L 4247 3500
L 4247 0
L 3669 0
L 3669 2950
L 2703 672
L 2128 672
L 1159 2950
L 1159 0
L 581 0
L 581 3500
z
" transform="scale(0.015625)"/>
       <path id="DejaVuSans-43f" d="M 3603 3500
L 3603 0
L 3025 0
L 3025 3041
L 1159 3041
L 1159 0
L 581 0
L 581 3500
L 3603 3500
z
" transform="scale(0.015625)"/>
       <path id="DejaVuSans-440" d="M 1159 525
L 1159 -1331
L 581 -1331
L 581 3500
L 1159 3500
L 1159 2969
Q 1341 3281 1617 3432
Q 1894 3584 2278 3584
Q 2916 3584 3314 3078
Q 3713 2572 3713 1747
Q 3713 922 3314 415
Q 2916 -91 2278 -91
Q 1894 -91 1617 61
Q 1341 213 1159 525
z
M 3116 1747
Q 3116 2381 2855 2742
Q 2594 3103 2138 3103
Q 1681 3103 1420 2742
Q 1159 2381 1159 1747
Q 1159 1113 1420 752
Q 1681 391 2138 391
Q 2594 391 2855 752
Q 3116 1113 3116 1747
z
" transform="scale(0.015625)"/>
       <path id="DejaVuSans-451" d="M 3597 1894
L 3597 1613
L 953 1613
Q 991 1019 1311 708
Q 1631 397 2203 397
Q 2534 397 2845 478
Q 3156 559 3463 722
L 3463 178
Q 3153 47 2828 -22
Q 2503 -91 2169 -91
Q 1331 -91 842 396
Q 353 884 353 1716
Q 353 2575 817 3079
Q 1281 3584 2069 3584
Q 2775 3584 3186 3129
Q 3597 2675 3597 1894
z
M 3022 2063
Q 3016 2534 2758 2815
Q 2500 3097 2075 3097
Q 1594 3097 1305 2825
Q 1016 2553 972 2059
L 3022 2063
z
M 2366 4850
L 3000 4850
L 3000 4219
L 2366 4219
L 2366 4850
z
M 1144 4850
L 1778 4850
L 1778 4219
L 1144 4219
L 1144 4850
z
" transform="scale(0.015625)"/>
      </defs>
      <use xlink:href="#DejaVuSans-41a"/>
      <use xlink:href="#DejaVuSans-43e" transform="translate(70.996094 0)"/>
      <use xlink:href="#DejaVuSans-43b" transform="translate(132.177734 0)"/>
      <use xlink:href="#DejaVuSans-438" transform="translate(196.09375 0)"/>
      <use xlink:href="#DejaVuSans-447" transform="translate(261.083984 0)"/>
      <use xlink:href="#DejaVuSans-435" transform="translate(320.166016 0)"/>
      <use xlink:href="#DejaVuSans-441" transform="translate(381.689453 0)"/>
      <use xlink:href="#DejaVuSans-442" transform="translate(436.669922 0)"/>
      <use xlink:href="#DejaVuSans-432" transform="translate(494.921875 0)"/>
      <use xlink:href="#DejaVuSans-43e" transform="translate(553.857422 0)"/>
      <use xlink:href="#DejaVuSans-20" transform="translate(615.039062 0)"/>
      <use xlink:href="#DejaVuSans-438" transform="translate(646.826172 0)"/>
      <use xlink:href="#DejaVuSans-43c" transform="translate(711.816406 0)"/>
      <use xlink:href="#DejaVuSans-43f" transform="translate(787.255859 0)"/>
      <use xlink:href="#DejaVuSans-43e" transform="translate(852.636719 0)"/>
      <use xlink:href="#DejaVuSans-440" transform="translate(913.818359 0)"/>
      <use xlink:href="#DejaVuSans-442" transform="translate(977.294922 0)"/>
      <use xlink:href="#DejaVuSans-451" transform="translate(1035.546875 0)"/>
      <use xlink:href="#DejaVuSans-440" transform="translate(1097.070312 0)"/>
      <use xlink:href="#DejaVuSans-43e" transform="translate(1160.546875 0)"/>
      <use xlink:href="#DejaVuSans-432" transform="translate(1221.728516 0)"/>
     </g>
    </g>
   </g>
   <g id="line2d_23">
    <path d="M 77.347017 358.204462
L 120.080702 369.793423
L 162.814387 367.86193
L 205.548072 362.067449
L 248.281757 367.86193
L 291.015442 348.546995
L 333.749127 352.409982
L 376.482812 352.409982
L 419.216498 352.409982
L 461.950183 348.546995
L 504.683868 346.615501
L 547.417553 342.752514
L 590.151238 348.546995
L 632.884923 342.752514
L 675.618608 340.821021
" clip-path="url(#p5dfb256a99)" style="fill: none; stroke: #1f4e79; stroke-width: 1.8; stroke-linecap: square"/>
    <defs>
     <path id="m916b6dacbe" d="M 0 2.5
C 0.663008 2.5 1.29895 2.236584 1.767767 1.767767
C 2.236584 1.29895 2.5 0.663008 2.5 0
C 2.5 -0.663008 2.236584 -1.29895 1.767767 -1.767767
C 1.29895 -2.236584 0.663008 -2.5 0 -2.5
C -0.663008 -2.5 -1.29895 -2.236584 -1.767767 -1.767767
C -2.236584 -1.29895 -2.5 -0.663008 -2.5 0
C -2.5 0.663008 -2.236584 1.29895 -1.767767 1.767767
C -1.29895 2.236584 -0.663008 2.5 0 2.5
z
" style="stroke: #1f4e79"/>
    </defs>
    <g clip-path="url(#p5dfb256a99)">
     <use xlink:href="#m916b6dacbe" x="77.347017" y="358.204462" style="fill: #1f4e79; stroke: #1f4e79"/>
     <use xlink:href="#m916b6dacbe" x="120.080702" y="369.793423" style="fill: #1f4e79; stroke: #1f4e79"/>
     <use xlink:href="#m916b6dacbe" x="162.814387" y="367.86193" style="fill: #1f4e79; stroke: #1f4e79"/>
     <use xlink:href="#m916b6dacbe" x="205.548072" y="362.067449" style="fill: #1f4e79; stroke: #1f4e79"/>
     <use xlink:href="#m916b6dacbe" x="248.281757" y="367.86193" style="fill: #1f4e79; stroke: #1f4e79"/>
     <use xlink:href="#m916b6dacbe" x="291.015442" y="348.546995" style="fill: #1f4e79; stroke: #1f4e79"/>
     <use xlink:href="#m916b6dacbe" x="333.749127" y="352.409982" style="fill: #1f4e79; stroke: #1f4e79"/>
     <use xlink:href="#m916b6dacbe" x="376.482812" y="352.409982" style="fill: #1f4e79; stroke: #1f4e79"/>
     <use xlink:href="#m916b6dacbe" x="419.216498" y="352.409982" style="fill: #1f4e79; stroke: #1f4e79"/>
     <use xlink:href="#m916b6dacbe" x="461.950183" y="348.546995" style="fill: #1f4e79; stroke: #1f4e79"/>
     <use xlink:href="#m916b6dacbe" x="504.683868" y="346.615501" style="fill: #1f4e79; stroke: #1f4e79"/>
     <use xlink:href="#m916b6dacbe" x="547.417553" y="342.752514" style="fill: #1f4e79; stroke: #1f4e79"/>
     <use xlink:href="#m916b6dacbe" x="590.151238" y="348.546995" style="fill: #1f4e79; stroke: #1f4e79"/>
     <use xlink:href="#m916b6dacbe" x="632.884923" y="342.752514" style="fill: #1f4e79; stroke: #1f4e79"/>
     <use xlink:href="#m916b6dacbe" x="675.618608" y="340.821021" style="fill: #1f4e79; stroke: #1f4e79"/>
    </g>
   </g>
   <g id="line2d_24">
    <path d="M 77.347017 319.574592
L 120.080702 338.889527
L 162.814387 333.095047
L 205.548072 329.23206
L 248.281757 323.437579
L 291.015442 323.437579
L 333.749127 313.780112
L 376.482812 294.465177
L 419.216498 288.670696
L 461.950183 292.533683
L 504.683868 292.533683
L 547.417553 282.876216
L 590.151238 292.533683
L 632.884923 282.876216
L 675.618608 282.876216
" clip-path="url(#p5dfb256a99)" style="fill: none; stroke: #8c5a2b; stroke-width: 1.8; stroke-linecap: square"/>
    <defs>
     <path id="m58acd23250" d="M 0 2.5
C 0.663008 2.5 1.29895 2.236584 1.767767 1.767767
C 2.236584 1.29895 2.5 0.663008 2.5 0
C 2.5 -0.663008 2.236584 -1.29895 1.767767 -1.767767
C 1.29895 -2.236584 0.663008 -2.5 0 -2.5
C -0.663008 -2.5 -1.29895 -2.236584 -1.767767 -1.767767
C -2.236584 -1.29895 -2.5 -0.663008 -2.5 0
C -2.5 0.663008 -2.236584 1.29895 -1.767767 1.767767
C -1.29895 2.236584 -0.663008 2.5 0 2.5
z
" style="stroke: #8c5a2b"/>
    </defs>
    <g clip-path="url(#p5dfb256a99)">
     <use xlink:href="#m58acd23250" x="77.347017" y="319.574592" style="fill: #8c5a2b; stroke: #8c5a2b"/>
     <use xlink:href="#m58acd23250" x="120.080702" y="338.889527" style="fill: #8c5a2b; stroke: #8c5a2b"/>
     <use xlink:href="#m58acd23250" x="162.814387" y="333.095047" style="fill: #8c5a2b; stroke: #8c5a2b"/>
     <use xlink:href="#m58acd23250" x="205.548072" y="329.23206" style="fill: #8c5a2b; stroke: #8c5a2b"/>
     <use xlink:href="#m58acd23250" x="248.281757" y="323.437579" style="fill: #8c5a2b; stroke: #8c5a2b"/>
     <use xlink:href="#m58acd23250" x="291.015442" y="323.437579" style="fill: #8c5a2b; stroke: #8c5a2b"/>
     <use xlink:href="#m58acd23250" x="333.749127" y="313.780112" style="fill: #8c5a2b; stroke: #8c5a2b"/>
     <use xlink:href="#m58acd23250" x="376.482812" y="294.465177" style="fill: #8c5a2b; stroke: #8c5a2b"/>
     <use xlink:href="#m58acd23250" x="419.216498" y="288.670696" style="fill: #8c5a2b; stroke: #8c5a2b"/>
     <use xlink:href="#m58acd23250" x="461.950183" y="292.533683" style="fill: #8c5a2b; stroke: #8c5a2b"/>
     <use xlink:href="#m58acd23250" x="504.683868" y="292.533683" style="fill: #8c5a2b; stroke: #8c5a2b"/>
     <use xlink:href="#m58acd23250" x="547.417553" y="282.876216" style="fill: #8c5a2b; stroke: #8c5a2b"/>
     <use xlink:href="#m58acd23250" x="590.151238" y="292.533683" style="fill: #8c5a2b; stroke: #8c5a2b"/>
     <use xlink:href="#m58acd23250" x="632.884923" y="282.876216" style="fill: #8c5a2b; stroke: #8c5a2b"/>
     <use xlink:href="#m58acd23250" x="675.618608" y="282.876216" style="fill: #8c5a2b; stroke: #8c5a2b"/>
    </g>
   </g>
   <g id="line2d_25">
    <path d="M 77.347017 155.397644
L 120.080702 149.603164
L 162.814387 122.562254
L 205.548072 130.288228
L 248.281757 103.247319
L 291.015442 109.0418
L 333.749127 93.589852
L 376.482812 89.726865
L 419.216498 89.726865
L 461.950183 76.20641
L 504.683868 80.069397
L 547.417553 70.41193
L 590.151238 56.891475
L 632.884923 54.959982
L 675.618608 45.302514
" clip-path="url(#p5dfb256a99)" style="fill: none; stroke: #3f7f5f; stroke-width: 1.8; stroke-linecap: square"/>
    <defs>
     <path id="m106e9654c9" d="M 0 2.5
C 0.663008 2.5 1.29895 2.236584 1.767767 1.767767
C 2.236584 1.29895 2.5 0.663008 2.5 0
C 2.5 -0.663008 2.236584 -1.29895 1.767767 -1.767767
C 1.29895 -2.236584 0.663008 -2.5 0 -2.5
C -0.663008 -2.5 -1.29895 -2.236584 -1.767767 -1.767767
C -2.236584 -1.29895 -2.5 -0.663008 -2.5 0
C -2.5 0.663008 -2.236584 1.29895 -1.767767 1.767767
C -1.29895 2.236584 -0.663008 2.5 0 2.5
z
" style="stroke: #3f7f5f"/>
    </defs>
    <g clip-path="url(#p5dfb256a99)">
     <use xlink:href="#m106e9654c9" x="77.347017" y="155.397644" style="fill: #3f7f5f; stroke: #3f7f5f"/>
     <use xlink:href="#m106e9654c9" x="120.080702" y="149.603164" style="fill: #3f7f5f; stroke: #3f7f5f"/>
     <use xlink:href="#m106e9654c9" x="162.814387" y="122.562254" style="fill: #3f7f5f; stroke: #3f7f5f"/>
     <use xlink:href="#m106e9654c9" x="205.548072" y="130.288228" style="fill: #3f7f5f; stroke: #3f7f5f"/>
     <use xlink:href="#m106e9654c9" x="248.281757" y="103.247319" style="fill: #3f7f5f; stroke: #3f7f5f"/>
     <use xlink:href="#m106e9654c9" x="291.015442" y="109.0418" style="fill: #3f7f5f; stroke: #3f7f5f"/>
     <use xlink:href="#m106e9654c9" x="333.749127" y="93.589852" style="fill: #3f7f5f; stroke: #3f7f5f"/>
     <use xlink:href="#m106e9654c9" x="376.482812" y="89.726865" style="fill: #3f7f5f; stroke: #3f7f5f"/>
     <use xlink:href="#m106e9654c9" x="419.216498" y="89.726865" style="fill: #3f7f5f; stroke: #3f7f5f"/>
     <use xlink:href="#m106e9654c9" x="461.950183" y="76.20641" style="fill: #3f7f5f; stroke: #3f7f5f"/>
     <use xlink:href="#m106e9654c9" x="504.683868" y="80.069397" style="fill: #3f7f5f; stroke: #3f7f5f"/>
     <use xlink:href="#m106e9654c9" x="547.417553" y="70.41193" style="fill: #3f7f5f; stroke: #3f7f5f"/>
     <use xlink:href="#m106e9654c9" x="590.151238" y="56.891475" style="fill: #3f7f5f; stroke: #3f7f5f"/>
     <use xlink:href="#m106e9654c9" x="632.884923" y="54.959982" style="fill: #3f7f5f; stroke: #3f7f5f"/>
     <use xlink:href="#m106e9654c9" x="675.618608" y="45.302514" style="fill: #3f7f5f; stroke: #3f7f5f"/>
    </g>
   </g>
   <g id="line2d_26">
    <path d="M 291.015442 386.017969
L 291.015442 29.077969
" clip-path="url(#p5dfb256a99)" style="fill: none; stroke-dasharray: 3.7,1.6; stroke-dashoffset: 0; stroke: #666666; stroke-opacity: 0.85"/>
   </g>
   <g id="line2d_27">
    <path d="M 333.749127 386.017969
L 333.749127 29.077969
" clip-path="url(#p5dfb256a99)" style="fill: none; stroke-dasharray: 1.2,1.98; stroke-dashoffset: 0; stroke: #666666; stroke-opacity: 0.9; stroke-width: 1.2"/>
   </g>
   <g id="patch_3">
    <path d="M 47.433438 386.017969
L 47.433438 29.077969
" style="fill: none; stroke: #333333; stroke-width: 0.8; stroke-linejoin: miter; stroke-linecap: square"/>
   </g>
   <g id="patch_4">
    <path d="M 47.433438 386.017969
L 705.532187 386.017969
" style="fill: none; stroke: #333333; stroke-width: 0.8; stroke-linejoin: miter; stroke-linecap: square"/>
   </g>
   <g id="text_18">
    <!-- Количество импортёров с положительным экспортом по HS-кодам -->
    <g transform="translate(47.433438 17.077969) scale(0.13 -0.13)">
     <defs>
      <path id="DejaVuSans-436" d="M 2597 3500
L 3169 3500
L 3169 1856
L 4697 3500
L 5366 3500
L 4109 2153
L 5547 0
L 4931 0
L 3753 1769
L 3169 1141
L 3169 0
L 2597 0
L 2597 1141
L 2013 1769
L 834 0
L 219 0
L 1656 2153
L 400 3500
L 1069 3500
L 2597 1856
L 2597 3500
z
" transform="scale(0.015625)"/>
      <path id="DejaVuSans-44c" d="M 2781 1038
Q 2781 1319 2576 1466
Q 2372 1613 1978 1613
L 1159 1613
L 1159 459
L 1978 459
Q 2372 459 2576 607
Q 2781 756 2781 1038
z
M 581 3500
L 1159 3500
L 1159 2072
L 2003 2072
Q 2672 2072 3033 1817
Q 3394 1563 3394 1038
Q 3394 513 3033 256
Q 2672 0 2003 0
L 581 0
L 581 3500
z
" transform="scale(0.015625)"/>
      <path id="DejaVuSans-43d" d="M 581 3500
L 1159 3500
L 1159 2072
L 3025 2072
L 3025 3500
L 3603 3500
L 3603 0
L 3025 0
L 3025 1613
L 1159 1613
L 1159 0
L 581 0
L 581 3500
z
" transform="scale(0.015625)"/>
      <path id="DejaVuSans-44b" d="M 3907 3500
L 4482 3500
L 4482 0
L 3907 0
L 3907 3500
z
M 4195 3584
L 4195 3584
z
M 2781 1038
Q 2781 1319 2576 1466
Q 2372 1613 1978 1613
L 1159 1613
L 1159 459
L 1978 459
Q 2372 459 2576 607
Q 2781 756 2781 1038
z
M 581 3500
L 1159 3500
L 1159 2072
L 2003 2072
Q 2672 2072 3033 1817
Q 3394 1563 3394 1038
Q 3394 513 3033 256
Q 2672 0 2003 0
L 581 0
L 581 3500
z
" transform="scale(0.015625)"/>
      <path id="DejaVuSans-44d" d="M 353 666
Q 847 397 1338 397
Q 1797 397 2125 664
Q 2453 931 2513 1613
L 738 1613
L 738 2072
L 2494 2072
Q 2456 2400 2207 2748
Q 1959 3097 1338 3097
Q 856 3097 353 2828
L 353 3366
Q 844 3584 1363 3584
Q 2181 3584 2651 3089
Q 3122 2594 3122 1747
Q 3122 903 2664 406
Q 2206 -91 1403 -91
Q 813 -91 353 134
L 353 666
z
" transform="scale(0.015625)"/>
      <path id="DejaVuSans-43a" d="M 581 3500
L 1153 3500
L 1153 1856
L 2775 3500
L 3481 3500
L 2144 2147
L 3653 0
L 3009 0
L 1769 1766
L 1153 1141
L 1153 0
L 581 0
L 581 3500
z
" transform="scale(0.015625)"/>
      <path id="DejaVuSans-48" d="M 628 4666
L 1259 4666
L 1259 2753
L 3553 2753
L 3553 4666
L 4184 4666
L 4184 0
L 3553 0
L 3553 2222
L 1259 2222
L 1259 0
L 628 0
L 628 4666
z
" transform="scale(0.015625)"/>
      <path id="DejaVuSans-53" d="M 3425 4513
L 3425 3897
Q 3066 4069 2747 4153
Q 2428 4238 2131 4238
Q 1616 4238 1336 4038
Q 1056 3838 1056 3469
Q 1056 3159 1242 3001
Q 1428 2844 1947 2747
L 2328 2669
Q 3034 2534 3370 2195
Q 3706 1856 3706 1288
Q 3706 609 3251 259
Q 2797 -91 1919 -91
Q 1588 -91 1214 -16
Q 841 59 441 206
L 441 856
Q 825 641 1194 531
Q 1563 422 1919 422
Q 2459 422 2753 634
Q 3047 847 3047 1241
Q 3047 1584 2836 1778
Q 2625 1972 2144 2069
L 1759 2144
Q 1053 2284 737 2584
Q 422 2884 422 3419
Q 422 4038 858 4394
Q 1294 4750 2059 4750
Q 2388 4750 2728 4690
Q 3069 4631 3425 4513
z
" transform="scale(0.015625)"/>
      <path id="DejaVuSans-2d" d="M 313 2009
L 1997 2009
L 1997 1497
L 313 1497
L 313 2009
z
" transform="scale(0.015625)"/>
      <path id="DejaVuSans-430" d="M 2194 1759
Q 1497 1759 1228 1600
Q 959 1441 959 1056
Q 959 750 1161 570
Q 1363 391 1709 391
Q 2188 391 2477 730
Q 2766 1069 2766 1631
L 2766 1759
L 2194 1759
z
M 3341 1997
L 3341 0
L 2766 0
L 2766 531
Q 2569 213 2275 61
Q 1981 -91 1556 -91
Q 1019 -91 701 211
Q 384 513 384 1019
Q 384 1609 779 1909
Q 1175 2209 1959 2209
L 2766 2209
L 2766 2266
Q 2766 2663 2505 2880
Q 2244 3097 1772 3097
Q 1472 3097 1187 3025
Q 903 2953 641 2809
L 641 3341
Q 956 3463 1253 3523
Q 1550 3584 1831 3584
Q 2591 3584 2966 3190
Q 3341 2797 3341 1997
z
" transform="scale(0.015625)"/>
     </defs>
     <use xlink:href="#DejaVuSans-41a"/>
     <use xlink:href="#DejaVuSans-43e" transform="translate(70.996094 0)"/>
     <use xlink:href="#DejaVuSans-43b" transform="translate(132.177734 0)"/>
     <use xlink:href="#DejaVuSans-438" transform="translate(196.09375 0)"/>
     <use xlink:href="#DejaVuSans-447" transform="translate(261.083984 0)"/>
     <use xlink:href="#DejaVuSans-435" transform="translate(320.166016 0)"/>
     <use xlink:href="#DejaVuSans-441" transform="translate(381.689453 0)"/>
     <use xlink:href="#DejaVuSans-442" transform="translate(436.669922 0)"/>
     <use xlink:href="#DejaVuSans-432" transform="translate(494.921875 0)"/>
     <use xlink:href="#DejaVuSans-43e" transform="translate(553.857422 0)"/>
     <use xlink:href="#DejaVuSans-20" transform="translate(615.039062 0)"/>
     <use xlink:href="#DejaVuSans-438" transform="translate(646.826172 0)"/>
     <use xlink:href="#DejaVuSans-43c" transform="translate(711.816406 0)"/>
     <use xlink:href="#DejaVuSans-43f" transform="translate(787.255859 0)"/>
     <use xlink:href="#DejaVuSans-43e" transform="translate(852.636719 0)"/>
     <use xlink:href="#DejaVuSans-440" transform="translate(913.818359 0)"/>
     <use xlink:href="#DejaVuSans-442" transform="translate(977.294922 0)"/>
     <use xlink:href="#DejaVuSans-451" transform="translate(1035.546875 0)"/>
     <use xlink:href="#DejaVuSans-440" transform="translate(1097.070312 0)"/>
     <use xlink:href="#DejaVuSans-43e" transform="translate(1160.546875 0)"/>
     <use xlink:href="#DejaVuSans-432" transform="translate(1221.728516 0)"/>
     <use xlink:href="#DejaVuSans-20" transform="translate(1280.664062 0)"/>
     <use xlink:href="#DejaVuSans-441" transform="translate(1312.451172 0)"/>
     <use xlink:href="#DejaVuSans-20" transform="translate(1367.431641 0)"/>
     <use xlink:href="#DejaVuSans-43f" transform="translate(1399.21875 0)"/>
     <use xlink:href="#DejaVuSans-43e" transform="translate(1464.599609 0)"/>
     <use xlink:href="#DejaVuSans-43b" transform="translate(1525.78125 0)"/>
     <use xlink:href="#DejaVuSans-43e" transform="translate(1589.697266 0)"/>
     <use xlink:href="#DejaVuSans-436" transform="translate(1650.878906 0)"/>
     <use xlink:href="#DejaVuSans-438" transform="translate(1740.966797 0)"/>
     <use xlink:href="#DejaVuSans-442" transform="translate(1805.957031 0)"/>
     <use xlink:href="#DejaVuSans-435" transform="translate(1864.208984 0)"/>
     <use xlink:href="#DejaVuSans-43b" transform="translate(1925.732422 0)"/>
     <use xlink:href="#DejaVuSans-44c" transform="translate(1989.648438 0)"/>
     <use xlink:href="#DejaVuSans-43d" transform="translate(2048.583984 0)"/>
     <use xlink:href="#DejaVuSans-44b" transform="translate(2113.964844 0)"/>
     <use xlink:href="#DejaVuSans-43c" transform="translate(2192.919922 0)"/>
     <use xlink:href="#DejaVuSans-20" transform="translate(2268.359375 0)"/>
     <use xlink:href="#DejaVuSans-44d" transform="translate(2300.146484 0)"/>
     <use xlink:href="#DejaVuSans-43a" transform="translate(2355.029297 0)"/>
     <use xlink:href="#DejaVuSans-441" transform="translate(2415.429688 0)"/>
     <use xlink:href="#DejaVuSans-43f" transform="translate(2470.410156 0)"/>
     <use xlink:href="#DejaVuSans-43e" transform="translate(2535.791016 0)"/>
     <use xlink:href="#DejaVuSans-440" transform="translate(2596.972656 0)"/>
     <use xlink:href="#DejaVuSans-442" transform="translate(2660.449219 0)"/>
     <use xlink:href="#DejaVuSans-43e" transform="translate(2718.701172 0)"/>
     <use xlink:href="#DejaVuSans-43c" transform="translate(2779.882812 0)"/>
     <use xlink:href="#DejaVuSans-20" transform="translate(2855.322266 0)"/>
     <use xlink:href="#DejaVuSans-43f" transform="translate(2887.109375 0)"/>
     <use xlink:href="#DejaVuSans-43e" transform="translate(2952.490234 0)"/>
     <use xlink:href="#DejaVuSans-20" transform="translate(3013.671875 0)"/>
     <use xlink:href="#DejaVuSans-48" transform="translate(3045.458984 0)"/>
     <use xlink:href="#DejaVuSans-53" transform="translate(3120.654297 0)"/>
     <use xlink:href="#DejaVuSans-2d" transform="translate(3184.130859 0)"/>
     <use xlink:href="#DejaVuSans-43a" transform="translate(3220.214844 0)"/>
     <use xlink:href="#DejaVuSans-43e" transform="translate(3280.615234 0)"/>
     <use xlink:href="#DejaVuSans-434" transform="translate(3341.796875 0)"/>
     <use xlink:href="#DejaVuSans-430" transform="translate(3410.9375 0)"/>
     <use xlink:href="#DejaVuSans-43c" transform="translate(3472.216797 0)"/>
    </g>
   </g>
   <g id="legend_1">
    <g id="line2d_28">
     <path d="M 55.983438 41.521484
L 65.483438 41.521484
L 74.983438 41.521484
" style="fill: none; stroke: #1f4e79; stroke-width: 1.8; stroke-linecap: square"/>
     <g>
      <use xlink:href="#m916b6dacbe" x="65.483438" y="41.521484" style="fill: #1f4e79; stroke: #1f4e79"/>
     </g>
    </g>
    <g id="text_19">
     <!-- HS 280530 -->
     <g transform="translate(82.583438 44.846484) scale(0.095 -0.095)">
      <defs>
       <path id="DejaVuSans-33" d="M 2597 2516
Q 3050 2419 3304 2112
Q 3559 1806 3559 1356
Q 3559 666 3084 287
Q 2609 -91 1734 -91
Q 1441 -91 1130 -33
Q 819 25 488 141
L 488 750
Q 750 597 1062 519
Q 1375 441 1716 441
Q 2309 441 2620 675
Q 2931 909 2931 1356
Q 2931 1769 2642 2001
Q 2353 2234 1838 2234
L 1294 2234
L 1294 2753
L 1863 2753
Q 2328 2753 2575 2939
Q 2822 3125 2822 3475
Q 2822 3834 2567 4026
Q 2313 4219 1838 4219
Q 1578 4219 1281 4162
Q 984 4106 628 3988
L 628 4550
Q 988 4650 1302 4700
Q 1616 4750 1894 4750
Q 2613 4750 3031 4423
Q 3450 4097 3450 3541
Q 3450 3153 3228 2886
Q 3006 2619 2597 2516
z
" transform="scale(0.015625)"/>
      </defs>
      <use xlink:href="#DejaVuSans-48"/>
      <use xlink:href="#DejaVuSans-53" transform="translate(75.195312 0)"/>
      <use xlink:href="#DejaVuSans-20" transform="translate(138.671875 0)"/>
      <use xlink:href="#DejaVuSans-32" transform="translate(170.458984 0)"/>
      <use xlink:href="#DejaVuSans-38" transform="translate(234.082031 0)"/>
      <use xlink:href="#DejaVuSans-30" transform="translate(297.705078 0)"/>
      <use xlink:href="#DejaVuSans-35" transform="translate(361.328125 0)"/>
      <use xlink:href="#DejaVuSans-33" transform="translate(424.951172 0)"/>
      <use xlink:href="#DejaVuSans-30" transform="translate(488.574219 0)"/>
     </g>
    </g>
    <g id="line2d_29">
     <path d="M 55.983438 55.465703
L 65.483438 55.465703
L 74.983438 55.465703
" style="fill: none; stroke: #8c5a2b; stroke-width: 1.8; stroke-linecap: square"/>
     <g>
      <use xlink:href="#m58acd23250" x="65.483438" y="55.465703" style="fill: #8c5a2b; stroke: #8c5a2b"/>
     </g>
    </g>
    <g id="text_20">
     <!-- HS 284690 -->
     <g transform="translate(82.583438 58.790703) scale(0.095 -0.095)">
      <defs>
       <path id="DejaVuSans-39" d="M 703 97
L 703 672
Q 941 559 1184 500
Q 1428 441 1663 441
Q 2288 441 2617 861
Q 2947 1281 2994 2138
Q 2813 1869 2534 1725
Q 2256 1581 1919 1581
Q 1219 1581 811 2004
Q 403 2428 403 3163
Q 403 3881 828 4315
Q 1253 4750 1959 4750
Q 2769 4750 3195 4129
Q 3622 3509 3622 2328
Q 3622 1225 3098 567
Q 2575 -91 1691 -91
Q 1453 -91 1209 -44
Q 966 3 703 97
z
M 1959 2075
Q 2384 2075 2632 2365
Q 2881 2656 2881 3163
Q 2881 3666 2632 3958
Q 2384 4250 1959 4250
Q 1534 4250 1286 3958
Q 1038 3666 1038 3163
Q 1038 2656 1286 2365
Q 1534 2075 1959 2075
z
" transform="scale(0.015625)"/>
      </defs>
      <use xlink:href="#DejaVuSans-48"/>
      <use xlink:href="#DejaVuSans-53" transform="translate(75.195312 0)"/>
      <use xlink:href="#DejaVuSans-20" transform="translate(138.671875 0)"/>
      <use xlink:href="#DejaVuSans-32" transform="translate(170.458984 0)"/>
      <use xlink:href="#DejaVuSans-38" transform="translate(234.082031 0)"/>
      <use xlink:href="#DejaVuSans-34" transform="translate(297.705078 0)"/>
      <use xlink:href="#DejaVuSans-36" transform="translate(361.328125 0)"/>
      <use xlink:href="#DejaVuSans-39" transform="translate(424.951172 0)"/>
      <use xlink:href="#DejaVuSans-30" transform="translate(488.574219 0)"/>
     </g>
    </g>
    <g id="line2d_30">
     <path d="M 55.983438 69.409922
L 65.483438 69.409922
L 74.983438 69.409922
" style="fill: none; stroke: #3f7f5f; stroke-width: 1.8; stroke-linecap: square"/>
     <g>
      <use xlink:href="#m106e9654c9" x="65.483438" y="69.409922" style="fill: #3f7f5f; stroke: #3f7f5f"/>
     </g>
    </g>
    <g id="text_21">
     <!-- HS 850511 -->
     <g transform="translate(82.583438 72.734922) scale(0.095 -0.095)">
      <use xlink:href="#DejaVuSans-48"/>
      <use xlink:href="#DejaVuSans-53" transform="translate(75.195312 0)"/>
      <use xlink:href="#DejaVuSans-20" transform="translate(138.671875 0)"/>
      <use xlink:href="#DejaVuSans-38" transform="translate(170.458984 0)"/>
      <use xlink:href="#DejaVuSans-35" transform="translate(234.082031 0)"/>
      <use xlink:href="#DejaVuSans-30" transform="translate(297.705078 0)"/>
      <use xlink:href="#DejaVuSans-35" transform="translate(361.328125 0)"/>
      <use xlink:href="#DejaVuSans-31" transform="translate(424.951172 0)"/>
      <use xlink:href="#DejaVuSans-31" transform="translate(488.574219 0)"/>
     </g>
    </g>
   </g>
  </g>
 </g>
 <defs>
  <clipPath id="p5dfb256a99">
   <rect x="47.433438" y="29.077969" width="658.09875" height="356.94"/>
  </clipPath>
 </defs>
</svg>
