<?xml version="1.0" encoding="utf-8" standalone="no"?>
<!DOCTYPE svg PUBLIC "-//W3C//DTD SVG 1.1//EN"
  "http://www.w3.org/Graphics/SVG/1.1/DTD/svg11.dtd">
<svg xmlns:xlink="http://www.w3.org/1999/xlink" width="712.743437pt" height="424.042031pt" viewBox="0 0 712.743437 424.042031" xmlns="http://www.w3.org/2000/svg" version="1.1">
 <metadata>
  <rdf:RDF xmlns:dc="http://purl.org/dc/elements/1.1/" xmlns:cc="http://creativecommons.org/ns#" xmlns:rdf="http://www.w3.org/1999/02/22-rdf-syntax-ns#">
   <cc:Work>
    <dc:type rdf:resource="http://purl.org/dc/dcmitype/StillImage"/>
    <dc:date>2026-05-10T03:14:25.904376</dc:date>
    <dc:format>image/svg+xml</dc:format>
    <dc:creator>
     <cc:Agent>
      <dc:title>Matplotlib v3.10.8, https://matplotlib.org/</dc:title>
     </cc:Agent>
    </dc:creator>
   </cc:Work>
  </rdf:RDF>
 </metadata>
 <defs>
  <style type="text/css">*{stroke-linejoin: round; stroke-linecap: butt}</style>
 </defs>
 <g id="figure_1">
  <g id="patch_1">
   <path d="M 0 424.042031
L 712.743437 424.042031
L 712.743437 0
L 0 0
z
" style="fill: #ffffff"/>
  </g>
  <g id="axes_1">
   <g id="patch_2">
    <path d="M 47.433438 386.017969
L 705.543438 386.017969
L 705.543438 29.077969
L 47.433438 29.077969
z
" style="fill: #ffffff"/>
   </g>
   <g id="matplotlib.axis_1">
    <g id="xtick_1">
     <g id="line2d_1">
      <defs>
       <path id="mbbffd964de" d="M 0 0
L 0 3
" style="stroke: #333333; stroke-width: 0.8"/>
      </defs>
      <g>
       <use xlink:href="#mbbffd964de" x="77.347528" y="386.017969" style="fill: #333333; stroke: #333333; stroke-width: 0.8"/>
      </g>
     </g>
     <g id="text_1">
      <!-- 2010 -->
      <g style="fill: #333333" transform="translate(64.622528 400.116406) scale(0.1 -0.1)">
       <defs>
        <path id="DejaVuSans-32" d="M 1228 531
L 3431 531
L 3431 0
L 469 0
L 469 531
Q 828 903 1448 1529
Q 2069 2156 2228 2338
Q 2531 2678 2651 2914
Q 2772 3150 2772 3378
Q 2772 3750 2511 3984
Q 2250 4219 1831 4219
Q 1534 4219 1204 4116
Q 875 4013 500 3803
L 500 4441
Q 881 4594 1212 4672
Q 1544 4750 1819 4750
Q 2544 4750 2975 4387
Q 3406 4025 3406 3419
Q 3406 3131 3298 2873
Q 3191 2616 2906 2266
Q 2828 2175 2409 1742
Q 1991 1309 1228 531
z
" transform="scale(0.015625)"/>
        <path id="DejaVuSans-30" d="M 2034 4250
Q 1547 4250 1301 3770
Q 1056 3291 1056 2328
Q 1056 1369 1301 889
Q 1547 409 2034 409
Q 2525 409 2770 889
Q 3016 1369 3016 2328
Q 3016 3291 2770 3770
Q 2525 4250 2034 4250
z
M 2034 4750
Q 2819 4750 3233 4129
Q 3647 3509 3647 2328
Q 3647 1150 3233 529
Q 2819 -91 2034 -91
Q 1250 -91 836 529
Q 422 1150 422 2328
Q 422 3509 836 4129
Q 1250 4750 2034 4750
z
" transform="scale(0.015625)"/>
        <path id="DejaVuSans-31" d="M 794 531
L 1825 531
L 1825 4091
L 703 3866
L 703 4441
L 1819 4666
L 2450 4666
L 2450 531
L 3481 531
L 3481 0
L 794 0
L 794 531
z
" transform="scale(0.015625)"/>
       </defs>
       <use xlink:href="#DejaVuSans-32"/>
       <use xlink:href="#DejaVuSans-30" transform="translate(63.623047 0)"/>
       <use xlink:href="#DejaVuSans-31" transform="translate(127.246094 0)"/>
       <use xlink:href="#DejaVuSans-30" transform="translate(190.869141 0)"/>
      </g>
     </g>
    </g>
    <g id="xtick_2">
     <g id="line2d_2">
      <g>
       <use xlink:href="#mbbffd964de" x="162.81636" y="386.017969" style="fill: #333333; stroke: #333333; stroke-width: 0.8"/>
      </g>
     </g>
     <g id="text_2">
      <!-- 2012 -->
      <g style="fill: #333333" transform="translate(150.09136 400.116406) scale(0.1 -0.1)">
       <use xlink:href="#DejaVuSans-32"/>
       <use xlink:href="#DejaVuSans-30" transform="translate(63.623047 0)"/>
       <use xlink:href="#DejaVuSans-31" transform="translate(127.246094 0)"/>
       <use xlink:href="#DejaVuSans-32" transform="translate(190.869141 0)"/>
      </g>
     </g>
    </g>
    <g id="xtick_3">
     <g id="line2d_3">
      <g>
       <use xlink:href="#mbbffd964de" x="248.285191" y="386.017969" style="fill: #333333; stroke: #333333; stroke-width: 0.8"/>
      </g>
     </g>
     <g id="text_3">
      <!-- 2014 -->
      <g style="fill: #333333" transform="translate(235.560191 400.116406) scale(0.1 -0.1)">
       <defs>
        <path id="DejaVuSans-34" d="M 2419 4116
L 825 1625
L 2419 1625
L 2419 4116
z
M 2253 4666
L 3047 4666
L 3047 1625
L 3713 1625
L 3713 1100
L 3047 1100
L 3047 0
L 2419 0
L 2419 1100
L 313 1100
L 313 1709
L 2253 4666
z
" transform="scale(0.015625)"/>
       </defs>
       <use xlink:href="#DejaVuSans-32"/>
       <use xlink:href="#DejaVuSans-30" transform="translate(63.623047 0)"/>
       <use xlink:href="#DejaVuSans-31" transform="translate(127.246094 0)"/>
       <use xlink:href="#DejaVuSans-34" transform="translate(190.869141 0)"/>
      </g>
     </g>
    </g>
    <g id="xtick_4">
     <g id="line2d_4">
      <g>
       <use xlink:href="#mbbffd964de" x="333.754022" y="386.017969" style="fill: #333333; stroke: #333333; stroke-width: 0.8"/>
      </g>
     </g>
     <g id="text_4">
      <!-- 2016 -->
      <g style="fill: #333333" transform="translate(321.029022 400.116406) scale(0.1 -0.1)">
       <defs>
        <path id="DejaVuSans-36" d="M 2113 2584
Q 1688 2584 1439 2293
Q 1191 2003 1191 1497
Q 1191 994 1439 701
Q 1688 409 2113 409
Q 2538 409 2786 701
Q 3034 994 3034 1497
Q 3034 2003 2786 2293
Q 2538 2584 2113 2584
z
M 3366 4563
L 3366 3988
Q 3128 4100 2886 4159
Q 2644 4219 2406 4219
Q 1781 4219 1451 3797
Q 1122 3375 1075 2522
Q 1259 2794 1537 2939
Q 1816 3084 2150 3084
Q 2853 3084 3261 2657
Q 3669 2231 3669 1497
Q 3669 778 3244 343
Q 2819 -91 2113 -91
Q 1303 -91 875 529
Q 447 1150 447 2328
Q 447 3434 972 4092
Q 1497 4750 2381 4750
Q 2619 4750 2861 4703
Q 3103 4656 3366 4563
z
" transform="scale(0.015625)"/>
       </defs>
       <use xlink:href="#DejaVuSans-32"/>
       <use xlink:href="#DejaVuSans-30" transform="translate(63.623047 0)"/>
       <use xlink:href="#DejaVuSans-31" transform="translate(127.246094 0)"/>
       <use xlink:href="#DejaVuSans-36" transform="translate(190.869141 0)"/>
      </g>
     </g>
    </g>
    <g id="xtick_5">
     <g id="line2d_5">
      <g>
       <use xlink:href="#mbbffd964de" x="419.222853" y="386.017969" style="fill: #333333; stroke: #333333; stroke-width: 0.8"/>
      </g>
     </g>
     <g id="text_5">
      <!-- 2018 -->
      <g style="fill: #333333" transform="translate(406.497853 400.116406) scale(0.1 -0.1)">
       <defs>
        <path id="DejaVuSans-38" d="M 2034 2216
Q 1584 2216 1326 1975
Q 1069 1734 1069 1313
Q 1069 891 1326 650
Q 1584 409 2034 409
Q 2484 409 2743 651
Q 3003 894 3003 1313
Q 3003 1734 2745 1975
Q 2488 2216 2034 2216
z
M 1403 2484
Q 997 2584 770 2862
Q 544 3141 544 3541
Q 544 4100 942 4425
Q 1341 4750 2034 4750
Q 2731 4750 3128 4425
Q 3525 4100 3525 3541
Q 3525 3141 3298 2862
Q 3072 2584 2669 2484
Q 3125 2378 3379 2068
Q 3634 1759 3634 1313
Q 3634 634 3220 271
Q 2806 -91 2034 -91
Q 1263 -91 848 271
Q 434 634 434 1313
Q 434 1759 690 2068
Q 947 2378 1403 2484
z
M 1172 3481
Q 1172 3119 1398 2916
Q 1625 2713 2034 2713
Q 2441 2713 2670 2916
Q 2900 3119 2900 3481
Q 2900 3844 2670 4047
Q 2441 4250 2034 4250
Q 1625 4250 1398 4047
Q 1172 3844 1172 3481
z
" transform="scale(0.015625)"/>
       </defs>
       <use xlink:href="#DejaVuSans-32"/>
       <use xlink:href="#DejaVuSans-30" transform="translate(63.623047 0)"/>
       <use xlink:href="#DejaVuSans-31" transform="translate(127.246094 0)"/>
       <use xlink:href="#DejaVuSans-38" transform="translate(190.869141 0)"/>
      </g>
     </g>
    </g>
    <g id="xtick_6">
     <g id="line2d_6">
      <g>
       <use xlink:href="#mbbffd964de" x="504.691684" y="386.017969" style="fill: #333333; stroke: #333333; stroke-width: 0.8"/>
      </g>
     </g>
     <g id="text_6">
      <!-- 2020 -->
      <g style="fill: #333333" transform="translate(491.966684 400.116406) scale(0.1 -0.1)">
       <use xlink:href="#DejaVuSans-32"/>
       <use xlink:href="#DejaVuSans-30" transform="translate(63.623047 0)"/>
       <use xlink:href="#DejaVuSans-32" transform="translate(127.246094 0)"/>
       <use xlink:href="#DejaVuSans-30" transform="translate(190.869141 0)"/>
      </g>
     </g>
    </g>
    <g id="xtick_7">
     <g id="line2d_7">
      <g>
       <use xlink:href="#mbbffd964de" x="590.160515" y="386.017969" style="fill: #333333; stroke: #333333; stroke-width: 0.8"/>
      </g>
     </g>
     <g id="text_7">
      <!-- 2022 -->
      <g style="fill: #333333" transform="translate(577.435515 400.116406) scale(0.1 -0.1)">
       <use xlink:href="#DejaVuSans-32"/>
       <use xlink:href="#DejaVuSans-30" transform="translate(63.623047 0)"/>
       <use xlink:href="#DejaVuSans-32" transform="translate(127.246094 0)"/>
       <use xlink:href="#DejaVuSans-32" transform="translate(190.869141 0)"/>
      </g>
     </g>
    </g>
    <g id="xtick_8">
     <g id="line2d_8">
      <g>
       <use xlink:href="#mbbffd964de" x="675.629347" y="386.017969" style="fill: #333333; stroke: #333333; stroke-width: 0.8"/>
      </g>
     </g>
     <g id="text_8">
      <!-- 2024 -->
      <g style="fill: #333333" transform="translate(662.904347 400.116406) scale(0.1 -0.1)">
       <use xlink:href="#DejaVuSans-32"/>
       <use xlink:href="#DejaVuSans-30" transform="translate(63.623047 0)"/>
       <use xlink:href="#DejaVuSans-32" transform="translate(127.246094 0)"/>
       <use xlink:href="#DejaVuSans-34" transform="translate(190.869141 0)"/>
      </g>
     </g>
    </g>
    <g id="text_9">
     <!-- Год -->
     <g transform="translate(365.96625 414.554375) scale(0.11 -0.11)">
      <defs>
       <path id="DejaVuSans-413" d="M 628 0
L 628 4666
L 3531 4666
L 3531 4134
L 1259 4134
L 1259 0
L 628 0
z
" transform="scale(0.015625)"/>
       <path id="DejaVuSans-43e" d="M 1959 3097
Q 1497 3097 1228 2736
Q 959 2375 959 1747
Q 959 1119 1226 758
Q 1494 397 1959 397
Q 2419 397 2687 759
Q 2956 1122 2956 1747
Q 2956 2369 2687 2733
Q 2419 3097 1959 3097
z
M 1959 3584
Q 2709 3584 3137 3096
Q 3566 2609 3566 1747
Q 3566 888 3137 398
Q 2709 -91 1959 -91
Q 1206 -91 779 398
Q 353 888 353 1747
Q 353 2609 779 3096
Q 1206 3584 1959 3584
z
" transform="scale(0.015625)"/>
       <path id="DejaVuSans-434" d="M 1384 459
L 3053 459
L 3053 3041
L 1844 3041
L 1844 2603
Q 1844 1316 1475 628
L 1384 459
z
M 550 459
Q 834 584 959 850
Q 1266 1509 1266 2838
L 1266 3500
L 3631 3500
L 3631 459
L 4091 459
L 4091 -884
L 3631 -884
L 3631 0
L 794 0
L 794 -884
L 334 -884
L 334 459
L 550 459
z
" transform="scale(0.015625)"/>
      </defs>
      <use xlink:href="#DejaVuSans-413"/>
      <use xlink:href="#DejaVuSans-43e" transform="translate(60.986328 0)"/>
      <use xlink:href="#DejaVuSans-434" transform="translate(122.167969 0)"/>
     </g>
    </g>
   </g>
   <g id="matplotlib.axis_2">
    <g id="ytick_1">
     <g id="line2d_9">
      <path d="M 47.433438 375.578717
L 705.543438 375.578717
" clip-path="url(#p1c2372eea5)" style="fill: none; stroke: #d9d9d9; stroke-opacity: 0.8; stroke-width: 0.7; stroke-linecap: square"/>
     </g>
     <g id="line2d_10">
      <defs>
       <path id="m3be99cd208" d="M 0 0
L -3 0
" style="stroke: #333333; stroke-width: 0.8"/>
      </defs>
      <g>
       <use xlink:href="#m3be99cd208" x="47.433438" y="375.578717" style="fill: #333333; stroke: #333333; stroke-width: 0.8"/>
      </g>
     </g>
     <g id="text_10">
      <!-- 70 -->
      <g style="fill: #333333" transform="translate(28.208438 379.377936) scale(0.1 -0.1)">
       <defs>
        <path id="DejaVuSans-37" d="M 525 4666
L 3525 4666
L 3525 4397
L 1831 0
L 1172 0
L 2766 4134
L 525 4134
L 525 4666
z
" transform="scale(0.015625)"/>
       </defs>
       <use xlink:href="#DejaVuSans-37"/>
       <use xlink:href="#DejaVuSans-30" transform="translate(63.623047 0)"/>
      </g>
     </g>
    </g>
    <g id="ytick_2">
     <g id="line2d_11">
      <path d="M 47.433438 320.481631
L 705.543438 320.481631
" clip-path="url(#p1c2372eea5)" style="fill: none; stroke: #d9d9d9; stroke-opacity: 0.8; stroke-width: 0.7; stroke-linecap: square"/>
     </g>
     <g id="line2d_12">
      <g>
       <use xlink:href="#m3be99cd208" x="47.433438" y="320.481631" style="fill: #333333; stroke: #333333; stroke-width: 0.8"/>
      </g>
     </g>
     <g id="text_11">
      <!-- 75 -->
      <g style="fill: #333333" transform="translate(28.208438 324.28085) scale(0.1 -0.1)">
       <defs>
        <path id="DejaVuSans-35" d="M 691 4666
L 3169 4666
L 3169 4134
L 1269 4134
L 1269 2991
Q 1406 3038 1543 3061
Q 1681 3084 1819 3084
Q 2600 3084 3056 2656
Q 3513 2228 3513 1497
Q 3513 744 3044 326
Q 2575 -91 1722 -91
Q 1428 -91 1123 -41
Q 819 9 494 109
L 494 744
Q 775 591 1075 516
Q 1375 441 1709 441
Q 2250 441 2565 725
Q 2881 1009 2881 1497
Q 2881 1984 2565 2268
Q 2250 2553 1709 2553
Q 1456 2553 1204 2497
Q 953 2441 691 2322
L 691 4666
z
" transform="scale(0.015625)"/>
       </defs>
       <use xlink:href="#DejaVuSans-37"/>
       <use xlink:href="#DejaVuSans-35" transform="translate(63.623047 0)"/>
      </g>
     </g>
    </g>
    <g id="ytick_3">
     <g id="line2d_13">
      <path d="M 47.433438 265.384545
L 705.543438 265.384545
" clip-path="url(#p1c2372eea5)" style="fill: none; stroke: #d9d9d9; stroke-opacity: 0.8; stroke-width: 0.7; stroke-linecap: square"/>
     </g>
     <g id="line2d_14">
      <g>
       <use xlink:href="#m3be99cd208" x="47.433438" y="265.384545" style="fill: #333333; stroke: #333333; stroke-width: 0.8"/>
      </g>
     </g>
     <g id="text_12">
      <!-- 80 -->
      <g style="fill: #333333" transform="translate(28.208438 269.183764) scale(0.1 -0.1)">
       <use xlink:href="#DejaVuSans-38"/>
       <use xlink:href="#DejaVuSans-30" transform="translate(63.623047 0)"/>
      </g>
     </g>
    </g>
    <g id="ytick_4">
     <g id="line2d_15">
      <path d="M 47.433438 210.287459
L 705.543438 210.287459
" clip-path="url(#p1c2372eea5)" style="fill: none; stroke: #d9d9d9; stroke-opacity: 0.8; stroke-width: 0.7; stroke-linecap: square"/>
     </g>
     <g id="line2d_16">
      <g>
       <use xlink:href="#m3be99cd208" x="47.433438" y="210.287459" style="fill: #333333; stroke: #333333; stroke-width: 0.8"/>
      </g>
     </g>
     <g id="text_13">
      <!-- 85 -->
      <g style="fill: #333333" transform="translate(28.208438 214.086678) scale(0.1 -0.1)">
       <use xlink:href="#DejaVuSans-38"/>
       <use xlink:href="#DejaVuSans-35" transform="translate(63.623047 0)"/>
      </g>
     </g>
    </g>
    <g id="ytick_5">
     <g id="line2d_17">
      <path d="M 47.433438 155.190373
L 705.543438 155.190373
" clip-path="url(#p1c2372eea5)" style="fill: none; stroke: #d9d9d9; stroke-opacity: 0.8; stroke-width: 0.7; stroke-linecap: square"/>
     </g>
     <g id="line2d_18">
      <g>
       <use xlink:href="#m3be99cd208" x="47.433438" y="155.190373" style="fill: #333333; stroke: #333333; stroke-width: 0.8"/>
      </g>
     </g>
     <g id="text_14">
      <!-- 90 -->
      <g style="fill: #333333" transform="translate(28.208438 158.989591) scale(0.1 -0.1)">
       <defs>
        <path id="DejaVuSans-39" d="M 703 97
L 703 672
Q 941 559 1184 500
Q 1428 441 1663 441
Q 2288 441 2617 861
Q 2947 1281 2994 2138
Q 2813 1869 2534 1725
Q 2256 1581 1919 1581
Q 1219 1581 811 2004
Q 403 2428 403 3163
Q 403 3881 828 4315
Q 1253 4750 1959 4750
Q 2769 4750 3195 4129
Q 3622 3509 3622 2328
Q 3622 1225 3098 567
Q 2575 -91 1691 -91
Q 1453 -91 1209 -44
Q 966 3 703 97
z
M 1959 2075
Q 2384 2075 2632 2365
Q 2881 2656 2881 3163
Q 2881 3666 2632 3958
Q 2384 4250 1959 4250
Q 1534 4250 1286 3958
Q 1038 3666 1038 3163
Q 1038 2656 1286 2365
Q 1534 2075 1959 2075
z
" transform="scale(0.015625)"/>
       </defs>
       <use xlink:href="#DejaVuSans-39"/>
       <use xlink:href="#DejaVuSans-30" transform="translate(63.623047 0)"/>
      </g>
     </g>
    </g>
    <g id="ytick_6">
     <g id="line2d_19">
      <path d="M 47.433438 100.093286
L 705.543438 100.093286
" clip-path="url(#p1c2372eea5)" style="fill: none; stroke: #d9d9d9; stroke-opacity: 0.8; stroke-width: 0.7; stroke-linecap: square"/>
     </g>
     <g id="line2d_20">
      <g>
       <use xlink:href="#m3be99cd208" x="47.433438" y="100.093286" style="fill: #333333; stroke: #333333; stroke-width: 0.8"/>
      </g>
     </g>
     <g id="text_15">
      <!-- 95 -->
      <g style="fill: #333333" transform="translate(28.208438 103.892505) scale(0.1 -0.1)">
       <use xlink:href="#DejaVuSans-39"/>
       <use xlink:href="#DejaVuSans-35" transform="translate(63.623047 0)"/>
      </g>
     </g>
    </g>
    <g id="ytick_7">
     <g id="line2d_21">
      <path d="M 47.433438 44.9962
L 705.543438 44.9962
" clip-path="url(#p1c2372eea5)" style="fill: none; stroke: #d9d9d9; stroke-opacity: 0.8; stroke-width: 0.7; stroke-linecap: square"/>
     </g>
     <g id="line2d_22">
      <g>
       <use xlink:href="#m3be99cd208" x="47.433438" y="44.9962" style="fill: #333333; stroke: #333333; stroke-width: 0.8"/>
      </g>
     </g>
     <g id="text_16">
      <!-- 100 -->
      <g style="fill: #333333" transform="translate(21.845938 48.795419) scale(0.1 -0.1)">
       <use xlink:href="#DejaVuSans-31"/>
       <use xlink:href="#DejaVuSans-30" transform="translate(63.623047 0)"/>
       <use xlink:href="#DejaVuSans-30" transform="translate(127.246094 0)"/>
      </g>
     </g>
    </g>
    <g id="text_17">
     <!-- Доля топ-10 направлений, % -->
     <g transform="translate(15.558281 291.709141) rotate(-90) scale(0.11 -0.11)">
      <defs>
       <path id="DejaVuSans-414" d="M 1459 531
L 3522 531
L 3522 4134
L 2006 4134
L 2006 3472
Q 2006 1913 1656 878
Q 1584 666 1459 531
z
M 538 531
Q 956 728 1075 1103
Q 1378 2066 1378 3784
L 1378 4666
L 4153 4666
L 4153 531
L 4684 531
L 4684 -1003
L 4153 -1003
L 4153 0
L 847 0
L 847 -1003
L 316 -1003
L 316 531
L 538 531
z
" transform="scale(0.015625)"/>
       <path id="DejaVuSans-43b" d="M 238 0
L 238 478
Q 806 566 981 959
Q 1194 1513 1194 2928
L 1194 3500
L 3559 3500
L 3559 0
L 2984 0
L 2984 3041
L 1769 3041
L 1769 2694
Q 1769 1344 1494 738
Q 1200 91 238 0
z
" transform="scale(0.015625)"/>
       <path id="DejaVuSans-44f" d="M 1181 2491
Q 1181 2231 1381 2084
Q 1581 1938 1953 1938
L 2728 1938
L 2728 3041
L 1953 3041
Q 1581 3041 1381 2897
Q 1181 2753 1181 2491
z
M 363 0
L 1431 1534
Q 1069 1616 828 1830
Q 588 2044 588 2491
Q 588 2997 923 3248
Q 1259 3500 1938 3500
L 3306 3500
L 3306 0
L 2728 0
L 2728 1478
L 2013 1478
L 981 0
L 363 0
z
" transform="scale(0.015625)"/>
       <path id="DejaVuSans-20" transform="scale(0.015625)"/>
       <path id="DejaVuSans-442" d="M 188 3500
L 3541 3500
L 3541 3041
L 2147 3041
L 2147 0
L 1581 0
L 1581 3041
L 188 3041
L 188 3500
z
" transform="scale(0.015625)"/>
       <path id="DejaVuSans-43f" d="M 3603 3500
L 3603 0
L 3025 0
L 3025 3041
L 1159 3041
L 1159 0
L 581 0
L 581 3500
L 3603 3500
z
" transform="scale(0.015625)"/>
       <path id="DejaVuSans-2d" d="M 313 2009
L 1997 2009
L 1997 1497
L 313 1497
L 313 2009
z
" transform="scale(0.015625)"/>
       <path id="DejaVuSans-43d" d="M 581 3500
L 1159 3500
L 1159 2072
L 3025 2072
L 3025 3500
L 3603 3500
L 3603 0
L 3025 0
L 3025 1613
L 1159 1613
L 1159 0
L 581 0
L 581 3500
z
" transform="scale(0.015625)"/>
       <path id="DejaVuSans-430" d="M 2194 1759
Q 1497 1759 1228 1600
Q 959 1441 959 1056
Q 959 750 1161 570
Q 1363 391 1709 391
Q 2188 391 2477 730
Q 2766 1069 2766 1631
L 2766 1759
L 2194 1759
z
M 3341 1997
L 3341 0
L 2766 0
L 2766 531
Q 2569 213 2275 61
Q 1981 -91 1556 -91
Q 1019 -91 701 211
Q 384 513 384 1019
Q 384 1609 779 1909
Q 1175 2209 1959 2209
L 2766 2209
L 2766 2266
Q 2766 2663 2505 2880
Q 2244 3097 1772 3097
Q 1472 3097 1187 3025
Q 903 2953 641 2809
L 641 3341
Q 956 3463 1253 3523
Q 1550 3584 1831 3584
Q 2591 3584 2966 3190
Q 3341 2797 3341 1997
z
" transform="scale(0.015625)"/>
       <path id="DejaVuSans-440" d="M 1159 525
L 1159 -1331
L 581 -1331
L 581 3500
L 1159 3500
L 1159 2969
Q 1341 3281 1617 3432
Q 1894 3584 2278 3584
Q 2916 3584 3314 3078
Q 3713 2572 3713 1747
Q 3713 922 3314 415
Q 2916 -91 2278 -91
Q 1894 -91 1617 61
Q 1341 213 1159 525
z
M 3116 1747
Q 3116 2381 2855 2742
Q 2594 3103 2138 3103
Q 1681 3103 1420 2742
Q 1159 2381 1159 1747
Q 1159 1113 1420 752
Q 1681 391 2138 391
Q 2594 391 2855 752
Q 3116 1113 3116 1747
z
" transform="scale(0.015625)"/>
       <path id="DejaVuSans-432" d="M 1156 1613
L 1156 459
L 1975 459
Q 2369 459 2575 607
Q 2781 756 2781 1038
Q 2781 1319 2575 1466
Q 2369 1613 1975 1613
L 1156 1613
z
M 1156 3041
L 1156 2072
L 1913 2072
Q 2238 2072 2444 2201
Q 2650 2331 2650 2563
Q 2650 2794 2444 2917
Q 2238 3041 1913 3041
L 1156 3041
z
M 581 3500
L 1950 3500
Q 2566 3500 2897 3275
Q 3228 3050 3228 2634
Q 3228 2313 3059 2123
Q 2891 1934 2559 1888
Q 2956 1813 3175 1575
Q 3394 1338 3394 981
Q 3394 513 3033 256
Q 2672 0 2003 0
L 581 0
L 581 3500
z
" transform="scale(0.015625)"/>
       <path id="DejaVuSans-435" d="M 3597 1894
L 3597 1613
L 953 1613
Q 991 1019 1311 708
Q 1631 397 2203 397
Q 2534 397 2845 478
Q 3156 559 3463 722
L 3463 178
Q 3153 47 2828 -22
Q 2503 -91 2169 -91
Q 1331 -91 842 396
Q 353 884 353 1716
Q 353 2575 817 3079
Q 1281 3584 2069 3584
Q 2775 3584 3186 3129
Q 3597 2675 3597 1894
z
M 3022 2063
Q 3016 2534 2758 2815
Q 2500 3097 2075 3097
Q 1594 3097 1305 2825
Q 1016 2553 972 2059
L 3022 2063
z
" transform="scale(0.015625)"/>
       <path id="DejaVuSans-438" d="M 3578 3500
L 3578 0
L 3006 0
L 3006 2809
L 1319 0
L 581 0
L 581 3500
L 1153 3500
L 1153 697
L 2838 3500
L 3578 3500
z
" transform="scale(0.015625)"/>
       <path id="DejaVuSans-439" d="M 3578 3500
L 3578 0
L 3006 0
L 3006 2809
L 1319 0
L 581 0
L 581 3500
L 1153 3500
L 1153 697
L 2838 3500
L 3578 3500
z
M 1102 4833
L 1471 4833
Q 1505 4599 1656 4481
Q 1808 4364 2080 4364
Q 2349 4364 2499 4480
Q 2649 4596 2689 4833
L 3058 4833
Q 3027 4386 2780 4161
Q 2533 3936 2080 3936
Q 1627 3936 1380 4161
Q 1133 4386 1102 4833
z
" transform="scale(0.015625)"/>
       <path id="DejaVuSans-2c" d="M 750 794
L 1409 794
L 1409 256
L 897 -744
L 494 -744
L 750 256
L 750 794
z
" transform="scale(0.015625)"/>
       <path id="DejaVuSans-25" d="M 4653 2053
Q 4381 2053 4226 1822
Q 4072 1591 4072 1178
Q 4072 772 4226 539
Q 4381 306 4653 306
Q 4919 306 5073 539
Q 5228 772 5228 1178
Q 5228 1588 5073 1820
Q 4919 2053 4653 2053
z
M 4653 2450
Q 5147 2450 5437 2106
Q 5728 1763 5728 1178
Q 5728 594 5436 251
Q 5144 -91 4653 -91
Q 4153 -91 3862 251
Q 3572 594 3572 1178
Q 3572 1766 3864 2108
Q 4156 2450 4653 2450
z
M 1428 4353
Q 1159 4353 1004 4120
Q 850 3888 850 3481
Q 850 3069 1003 2837
Q 1156 2606 1428 2606
Q 1700 2606 1854 2837
Q 2009 3069 2009 3481
Q 2009 3884 1853 4118
Q 1697 4353 1428 4353
z
M 4250 4750
L 4750 4750
L 1831 -91
L 1331 -91
L 4250 4750
z
M 1428 4750
Q 1922 4750 2215 4408
Q 2509 4066 2509 3481
Q 2509 2891 2217 2550
Q 1925 2209 1428 2209
Q 931 2209 642 2551
Q 353 2894 353 3481
Q 353 4063 643 4406
Q 934 4750 1428 4750
z
" transform="scale(0.015625)"/>
      </defs>
      <use xlink:href="#DejaVuSans-414"/>
      <use xlink:href="#DejaVuSans-43e" transform="translate(78.125 0)"/>
      <use xlink:href="#DejaVuSans-43b" transform="translate(139.306641 0)"/>
      <use xlink:href="#DejaVuSans-44f" transform="translate(203.222656 0)"/>
      <use xlink:href="#DejaVuSans-20" transform="translate(263.378906 0)"/>
      <use xlink:href="#DejaVuSans-442" transform="translate(295.166016 0)"/>
      <use xlink:href="#DejaVuSans-43e" transform="translate(353.417969 0)"/>
      <use xlink:href="#DejaVuSans-43f" transform="translate(414.599609 0)"/>
      <use xlink:href="#DejaVuSans-2d" transform="translate(479.980469 0)"/>
      <use xlink:href="#DejaVuSans-31" transform="translate(516.064453 0)"/>
      <use xlink:href="#DejaVuSans-30" transform="translate(579.6875 0)"/>
      <use xlink:href="#DejaVuSans-20" transform="translate(643.310547 0)"/>
      <use xlink:href="#DejaVuSans-43d" transform="translate(675.097656 0)"/>
      <use xlink:href="#DejaVuSans-430" transform="translate(740.478516 0)"/>
      <use xlink:href="#DejaVuSans-43f" transform="translate(801.757812 0)"/>
      <use xlink:href="#DejaVuSans-440" transform="translate(867.138672 0)"/>
      <use xlink:href="#DejaVuSans-430" transform="translate(930.615234 0)"/>
      <use xlink:href="#DejaVuSans-432" transform="translate(991.894531 0)"/>
      <use xlink:href="#DejaVuSans-43b" transform="translate(1050.830078 0)"/>
      <use xlink:href="#DejaVuSans-435" transform="translate(1114.746094 0)"/>
      <use xlink:href="#DejaVuSans-43d" transform="translate(1176.269531 0)"/>
      <use xlink:href="#DejaVuSans-438" transform="translate(1241.650391 0)"/>
      <use xlink:href="#DejaVuSans-439" transform="translate(1306.640625 0)"/>
      <use xlink:href="#DejaVuSans-2c" transform="translate(1371.630859 0)"/>
      <use xlink:href="#DejaVuSans-20" transform="translate(1403.417969 0)"/>
      <use xlink:href="#DejaVuSans-25" transform="translate(1435.205078 0)"/>
     </g>
    </g>
   </g>
   <g id="line2d_23">
    <path d="M 77.347528 55.972359
L 120.081944 45.302514
L 162.81636 46.056713
L 205.550775 50.998203
L 248.285191 49.820933
L 291.019606 65.776027
L 333.754022 88.554969
L 376.488438 73.328295
L 419.222853 67.492073
L 461.957269 64.709993
L 504.691684 74.042805
L 547.4261 86.495681
L 590.160515 54.70952
L 632.894931 58.823092
L 675.629347 81.87359
" clip-path="url(#p1c2372eea5)" style="fill: none; stroke: #1f4e79; stroke-width: 1.8; stroke-linecap: square"/>
    <defs>
     <path id="md787b2f272" d="M 0 2.5
C 0.663008 2.5 1.29895 2.236584 1.767767 1.767767
C 2.236584 1.29895 2.5 0.663008 2.5 0
C 2.5 -0.663008 2.236584 -1.29895 1.767767 -1.767767
C 1.29895 -2.236584 0.663008 -2.5 0 -2.5
C -0.663008 -2.5 -1.29895 -2.236584 -1.767767 -1.767767
C -2.236584 -1.29895 -2.5 -0.663008 -2.5 0
C -2.5 0.663008 -2.236584 1.29895 -1.767767 1.767767
C -1.29895 2.236584 -0.663008 2.5 0 2.5
z
" style="stroke: #1f4e79"/>
    </defs>
    <g clip-path="url(#p1c2372eea5)">
     <use xlink:href="#md787b2f272" x="77.347528" y="55.972359" style="fill: #1f4e79; stroke: #1f4e79"/>
     <use xlink:href="#md787b2f272" x="120.081944" y="45.302514" style="fill: #1f4e79; stroke: #1f4e79"/>
     <use xlink:href="#md787b2f272" x="162.81636" y="46.056713" style="fill: #1f4e79; stroke: #1f4e79"/>
     <use xlink:href="#md787b2f272" x="205.550775" y="50.998203" style="fill: #1f4e79; stroke: #1f4e79"/>
     <use xlink:href="#md787b2f272" x="248.285191" y="49.820933" style="fill: #1f4e79; stroke: #1f4e79"/>
     <use xlink:href="#md787b2f272" x="291.019606" y="65.776027" style="fill: #1f4e79; stroke: #1f4e79"/>
     <use xlink:href="#md787b2f272" x="333.754022" y="88.554969" style="fill: #1f4e79; stroke: #1f4e79"/>
     <use xlink:href="#md787b2f272" x="376.488438" y="73.328295" style="fill: #1f4e79; stroke: #1f4e79"/>
     <use xlink:href="#md787b2f272" x="419.222853" y="67.492073" style="fill: #1f4e79; stroke: #1f4e79"/>
     <use xlink:href="#md787b2f272" x="461.957269" y="64.709993" style="fill: #1f4e79; stroke: #1f4e79"/>
     <use xlink:href="#md787b2f272" x="504.691684" y="74.042805" style="fill: #1f4e79; stroke: #1f4e79"/>
     <use xlink:href="#md787b2f272" x="547.4261" y="86.495681" style="fill: #1f4e79; stroke: #1f4e79"/>
     <use xlink:href="#md787b2f272" x="590.160515" y="54.70952" style="fill: #1f4e79; stroke: #1f4e79"/>
     <use xlink:href="#md787b2f272" x="632.894931" y="58.823092" style="fill: #1f4e79; stroke: #1f4e79"/>
     <use xlink:href="#md787b2f272" x="675.629347" y="81.87359" style="fill: #1f4e79; stroke: #1f4e79"/>
    </g>
   </g>
   <g id="line2d_24">
    <path d="M 77.347528 99.349525
L 120.081944 65.092146
L 162.81636 93.519349
L 205.550775 74.15441
L 248.285191 104.700185
L 291.019606 100.300465
L 333.754022 115.056231
L 376.488438 120.190677
L 419.222853 135.196895
L 461.957269 111.831966
L 504.691684 102.83196
L 547.4261 84.577014
L 590.160515 90.621108
L 632.894931 94.354568
L 675.629347 105.237933
" clip-path="url(#p1c2372eea5)" style="fill: none; stroke: #8c5a2b; stroke-width: 1.8; stroke-linecap: square"/>
    <defs>
     <path id="m0c939b9509" d="M 0 2.5
C 0.663008 2.5 1.29895 2.236584 1.767767 1.767767
C 2.236584 1.29895 2.5 0.663008 2.5 0
C 2.5 -0.663008 2.236584 -1.29895 1.767767 -1.767767
C 1.29895 -2.236584 0.663008 -2.5 0 -2.5
C -0.663008 -2.5 -1.29895 -2.236584 -1.767767 -1.767767
C -2.236584 -1.29895 -2.5 -0.663008 -2.5 0
C -2.5 0.663008 -2.236584 1.29895 -1.767767 1.767767
C -1.29895 2.236584 -0.663008 2.5 0 2.5
z
" style="stroke: #8c5a2b"/>
    </defs>
    <g clip-path="url(#p1c2372eea5)">
     <use xlink:href="#m0c939b9509" x="77.347528" y="99.349525" style="fill: #8c5a2b; stroke: #8c5a2b"/>
     <use xlink:href="#m0c939b9509" x="120.081944" y="65.092146" style="fill: #8c5a2b; stroke: #8c5a2b"/>
     <use xlink:href="#m0c939b9509" x="162.81636" y="93.519349" style="fill: #8c5a2b; stroke: #8c5a2b"/>
     <use xlink:href="#m0c939b9509" x="205.550775" y="74.15441" style="fill: #8c5a2b; stroke: #8c5a2b"/>
     <use xlink:href="#m0c939b9509" x="248.285191" y="104.700185" style="fill: #8c5a2b; stroke: #8c5a2b"/>
     <use xlink:href="#m0c939b9509" x="291.019606" y="100.300465" style="fill: #8c5a2b; stroke: #8c5a2b"/>
     <use xlink:href="#m0c939b9509" x="333.754022" y="115.056231" style="fill: #8c5a2b; stroke: #8c5a2b"/>
     <use xlink:href="#m0c939b9509" x="376.488438" y="120.190677" style="fill: #8c5a2b; stroke: #8c5a2b"/>
     <use xlink:href="#m0c939b9509" x="419.222853" y="135.196895" style="fill: #8c5a2b; stroke: #8c5a2b"/>
     <use xlink:href="#m0c939b9509" x="461.957269" y="111.831966" style="fill: #8c5a2b; stroke: #8c5a2b"/>
     <use xlink:href="#m0c939b9509" x="504.691684" y="102.83196" style="fill: #8c5a2b; stroke: #8c5a2b"/>
     <use xlink:href="#m0c939b9509" x="547.4261" y="84.577014" style="fill: #8c5a2b; stroke: #8c5a2b"/>
     <use xlink:href="#m0c939b9509" x="590.160515" y="90.621108" style="fill: #8c5a2b; stroke: #8c5a2b"/>
     <use xlink:href="#m0c939b9509" x="632.894931" y="94.354568" style="fill: #8c5a2b; stroke: #8c5a2b"/>
     <use xlink:href="#m0c939b9509" x="675.629347" y="105.237933" style="fill: #8c5a2b; stroke: #8c5a2b"/>
    </g>
   </g>
   <g id="line2d_25">
    <path d="M 77.347528 317.142262
L 120.081944 350.173697
L 162.81636 352.118827
L 205.550775 350.406501
L 248.285191 353.602603
L 291.019606 358.6328
L 333.754022 360.573827
L 376.488438 369.793423
L 419.222853 365.359878
L 461.957269 365.372676
L 504.691684 348.29069
L 547.4261 358.047215
L 590.160515 330.061344
L 632.894931 330.77706
L 675.629347 344.100037
" clip-path="url(#p1c2372eea5)" style="fill: none; stroke: #3f7f5f; stroke-width: 1.8; stroke-linecap: square"/>
    <defs>
     <path id="m4a36cd3c4e" d="M 0 2.5
C 0.663008 2.5 1.29895 2.236584 1.767767 1.767767
C 2.236584 1.29895 2.5 0.663008 2.5 0
C 2.5 -0.663008 2.236584 -1.29895 1.767767 -1.767767
C 1.29895 -2.236584 0.663008 -2.5 0 -2.5
C -0.663008 -2.5 -1.29895 -2.236584 -1.767767 -1.767767
C -2.236584 -1.29895 -2.5 -0.663008 -2.5 0
C -2.5 0.663008 -2.236584 1.29895 -1.767767 1.767767
C -1.29895 2.236584 -0.663008 2.5 0 2.5
z
" style="stroke: #3f7f5f"/>
    </defs>
    <g clip-path="url(#p1c2372eea5)">
     <use xlink:href="#m4a36cd3c4e" x="77.347528" y="317.142262" style="fill: #3f7f5f; stroke: #3f7f5f"/>
     <use xlink:href="#m4a36cd3c4e" x="120.081944" y="350.173697" style="fill: #3f7f5f; stroke: #3f7f5f"/>
     <use xlink:href="#m4a36cd3c4e" x="162.81636" y="352.118827" style="fill: #3f7f5f; stroke: #3f7f5f"/>
     <use xlink:href="#m4a36cd3c4e" x="205.550775" y="350.406501" style="fill: #3f7f5f; stroke: #3f7f5f"/>
     <use xlink:href="#m4a36cd3c4e" x="248.285191" y="353.602603" style="fill: #3f7f5f; stroke: #3f7f5f"/>
     <use xlink:href="#m4a36cd3c4e" x="291.019606" y="358.6328" style="fill: #3f7f5f; stroke: #3f7f5f"/>
     <use xlink:href="#m4a36cd3c4e" x="333.754022" y="360.573827" style="fill: #3f7f5f; stroke: #3f7f5f"/>
     <use xlink:href="#m4a36cd3c4e" x="376.488438" y="369.793423" style="fill: #3f7f5f; stroke: #3f7f5f"/>
     <use xlink:href="#m4a36cd3c4e" x="419.222853" y="365.359878" style="fill: #3f7f5f; stroke: #3f7f5f"/>
     <use xlink:href="#m4a36cd3c4e" x="461.957269" y="365.372676" style="fill: #3f7f5f; stroke: #3f7f5f"/>
     <use xlink:href="#m4a36cd3c4e" x="504.691684" y="348.29069" style="fill: #3f7f5f; stroke: #3f7f5f"/>
     <use xlink:href="#m4a36cd3c4e" x="547.4261" y="358.047215" style="fill: #3f7f5f; stroke: #3f7f5f"/>
     <use xlink:href="#m4a36cd3c4e" x="590.160515" y="330.061344" style="fill: #3f7f5f; stroke: #3f7f5f"/>
     <use xlink:href="#m4a36cd3c4e" x="632.894931" y="330.77706" style="fill: #3f7f5f; stroke: #3f7f5f"/>
     <use xlink:href="#m4a36cd3c4e" x="675.629347" y="344.100037" style="fill: #3f7f5f; stroke: #3f7f5f"/>
    </g>
   </g>
   <g id="line2d_26">
    <path d="M 291.019606 386.017969
L 291.019606 29.077969
" clip-path="url(#p1c2372eea5)" style="fill: none; stroke-dasharray: 3.7,1.6; stroke-dashoffset: 0; stroke: #666666; stroke-opacity: 0.85"/>
   </g>
   <g id="line2d_27">
    <path d="M 333.754022 386.017969
L 333.754022 29.077969
" clip-path="url(#p1c2372eea5)" style="fill: none; stroke-dasharray: 1.2,1.98; stroke-dashoffset: 0; stroke: #666666; stroke-opacity: 0.9; stroke-width: 1.2"/>
   </g>
   <g id="patch_3">
    <path d="M 47.433438 386.017969
L 47.433438 29.077969
" style="fill: none; stroke: #333333; stroke-width: 0.8; stroke-linejoin: miter; stroke-linecap: square"/>
   </g>
   <g id="patch_4">
    <path d="M 47.433438 386.017969
L 705.543438 386.017969
" style="fill: none; stroke: #333333; stroke-width: 0.8; stroke-linejoin: miter; stroke-linecap: square"/>
   </g>
   <g id="text_18">
    <!-- Доля топ-10 экспортных направлений по HS-кодам -->
    <g transform="translate(47.433438 17.077969) scale(0.13 -0.13)">
     <defs>
      <path id="DejaVuSans-44d" d="M 353 666
Q 847 397 1338 397
Q 1797 397 2125 664
Q 2453 931 2513 1613
L 738 1613
L 738 2072
L 2494 2072
Q 2456 2400 2207 2748
Q 1959 3097 1338 3097
Q 856 3097 353 2828
L 353 3366
Q 844 3584 1363 3584
Q 2181 3584 2651 3089
Q 3122 2594 3122 1747
Q 3122 903 2664 406
Q 2206 -91 1403 -91
Q 813 -91 353 134
L 353 666
z
" transform="scale(0.015625)"/>
      <path id="DejaVuSans-43a" d="M 581 3500
L 1153 3500
L 1153 1856
L 2775 3500
L 3481 3500
L 2144 2147
L 3653 0
L 3009 0
L 1769 1766
L 1153 1141
L 1153 0
L 581 0
L 581 3500
z
" transform="scale(0.015625)"/>
      <path id="DejaVuSans-441" d="M 3122 3366
L 3122 2828
Q 2878 2963 2633 3030
Q 2388 3097 2138 3097
Q 1578 3097 1268 2742
Q 959 2388 959 1747
Q 959 1106 1268 751
Q 1578 397 2138 397
Q 2388 397 2633 464
Q 2878 531 3122 666
L 3122 134
Q 2881 22 2623 -34
Q 2366 -91 2075 -91
Q 1284 -91 818 406
Q 353 903 353 1747
Q 353 2603 823 3093
Q 1294 3584 2113 3584
Q 2378 3584 2631 3529
Q 2884 3475 3122 3366
z
" transform="scale(0.015625)"/>
      <path id="DejaVuSans-44b" d="M 3907 3500
L 4482 3500
L 4482 0
L 3907 0
L 3907 3500
z
M 4195 3584
L 4195 3584
z
M 2781 1038
Q 2781 1319 2576 1466
Q 2372 1613 1978 1613
L 1159 1613
L 1159 459
L 1978 459
Q 2372 459 2576 607
Q 2781 756 2781 1038
z
M 581 3500
L 1159 3500
L 1159 2072
L 2003 2072
Q 2672 2072 3033 1817
Q 3394 1563 3394 1038
Q 3394 513 3033 256
Q 2672 0 2003 0
L 581 0
L 581 3500
z
" transform="scale(0.015625)"/>
      <path id="DejaVuSans-445" d="M 3513 3500
L 2247 1797
L 3578 0
L 2900 0
L 1881 1375
L 863 0
L 184 0
L 1544 1831
L 300 3500
L 978 3500
L 1906 2253
L 2834 3500
L 3513 3500
z
" transform="scale(0.015625)"/>
      <path id="DejaVuSans-48" d="M 628 4666
L 1259 4666
L 1259 2753
L 3553 2753
L 3553 4666
L 4184 4666
L 4184 0
L 3553 0
L 3553 2222
L 1259 2222
L 1259 0
L 628 0
L 628 4666
z
" transform="scale(0.015625)"/>
      <path id="DejaVuSans-53" d="M 3425 4513
L 3425 3897
Q 3066 4069 2747 4153
Q 2428 4238 2131 4238
Q 1616 4238 1336 4038
Q 1056 3838 1056 3469
Q 1056 3159 1242 3001
Q 1428 2844 1947 2747
L 2328 2669
Q 3034 2534 3370 2195
Q 3706 1856 3706 1288
Q 3706 609 3251 259
Q 2797 -91 1919 -91
Q 1588 -91 1214 -16
Q 841 59 441 206
L 441 856
Q 825 641 1194 531
Q 1563 422 1919 422
Q 2459 422 2753 634
Q 3047 847 3047 1241
Q 3047 1584 2836 1778
Q 2625 1972 2144 2069
L 1759 2144
Q 1053 2284 737 2584
Q 422 2884 422 3419
Q 422 4038 858 4394
Q 1294 4750 2059 4750
Q 2388 4750 2728 4690
Q 3069 4631 3425 4513
z
" transform="scale(0.015625)"/>
      <path id="DejaVuSans-43c" d="M 581 3500
L 1422 3500
L 2416 1156
L 3413 3500
L 4247 3500
L 4247 0
L 3669 0
L 3669 2950
L 2703 672
L 2128 672
L 1159 2950
L 1159 0
L 581 0
L 581 3500
z
" transform="scale(0.015625)"/>
     </defs>
     <use xlink:href="#DejaVuSans-414"/>
     <use xlink:href="#DejaVuSans-43e" transform="translate(78.125 0)"/>
     <use xlink:href="#DejaVuSans-43b" transform="translate(139.306641 0)"/>
     <use xlink:href="#DejaVuSans-44f" transform="translate(203.222656 0)"/>
     <use xlink:href="#DejaVuSans-20" transform="translate(263.378906 0)"/>
     <use xlink:href="#DejaVuSans-442" transform="translate(295.166016 0)"/>
     <use xlink:href="#DejaVuSans-43e" transform="translate(353.417969 0)"/>
     <use xlink:href="#DejaVuSans-43f" transform="translate(414.599609 0)"/>
     <use xlink:href="#DejaVuSans-2d" transform="translate(479.980469 0)"/>
     <use xlink:href="#DejaVuSans-31" transform="translate(516.064453 0)"/>
     <use xlink:href="#DejaVuSans-30" transform="translate(579.6875 0)"/>
     <use xlink:href="#DejaVuSans-20" transform="translate(643.310547 0)"/>
     <use xlink:href="#DejaVuSans-44d" transform="translate(675.097656 0)"/>
     <use xlink:href="#DejaVuSans-43a" transform="translate(729.980469 0)"/>
     <use xlink:href="#DejaVuSans-441" transform="translate(790.380859 0)"/>
     <use xlink:href="#DejaVuSans-43f" transform="translate(845.361328 0)"/>
     <use xlink:href="#DejaVuSans-43e" transform="translate(910.742188 0)"/>
     <use xlink:href="#DejaVuSans-440" transform="translate(971.923828 0)"/>
     <use xlink:href="#DejaVuSans-442" transform="translate(1035.400391 0)"/>
     <use xlink:href="#DejaVuSans-43d" transform="translate(1093.652344 0)"/>
     <use xlink:href="#DejaVuSans-44b" transform="translate(1159.033203 0)"/>
     <use xlink:href="#DejaVuSans-445" transform="translate(1237.988281 0)"/>
     <use xlink:href="#DejaVuSans-20" transform="translate(1297.167969 0)"/>
     <use xlink:href="#DejaVuSans-43d" transform="translate(1328.955078 0)"/>
     <use xlink:href="#DejaVuSans-430" transform="translate(1394.335938 0)"/>
     <use xlink:href="#DejaVuSans-43f" transform="translate(1455.615234 0)"/>
     <use xlink:href="#DejaVuSans-440" transform="translate(1520.996094 0)"/>
     <use xlink:href="#DejaVuSans-430" transform="translate(1584.472656 0)"/>
     <use xlink:href="#DejaVuSans-432" transform="translate(1645.751953 0)"/>
     <use xlink:href="#DejaVuSans-43b" transform="translate(1704.6875 0)"/>
     <use xlink:href="#DejaVuSans-435" transform="translate(1768.603516 0)"/>
     <use xlink:href="#DejaVuSans-43d" transform="translate(1830.126953 0)"/>
     <use xlink:href="#DejaVuSans-438" transform="translate(1895.507812 0)"/>
     <use xlink:href="#DejaVuSans-439" transform="translate(1960.498047 0)"/>
     <use xlink:href="#DejaVuSans-20" transform="translate(2025.488281 0)"/>
     <use xlink:href="#DejaVuSans-43f" transform="translate(2057.275391 0)"/>
     <use xlink:href="#DejaVuSans-43e" transform="translate(2122.65625 0)"/>
     <use xlink:href="#DejaVuSans-20" transform="translate(2183.837891 0)"/>
     <use xlink:href="#DejaVuSans-48" transform="translate(2215.625 0)"/>
     <use xlink:href="#DejaVuSans-53" transform="translate(2290.820312 0)"/>
     <use xlink:href="#DejaVuSans-2d" transform="translate(2354.296875 0)"/>
     <use xlink:href="#DejaVuSans-43a" transform="translate(2390.380859 0)"/>
     <use xlink:href="#DejaVuSans-43e" transform="translate(2450.78125 0)"/>
     <use xlink:href="#DejaVuSans-434" transform="translate(2511.962891 0)"/>
     <use xlink:href="#DejaVuSans-430" transform="translate(2581.103516 0)"/>
     <use xlink:href="#DejaVuSans-43c" transform="translate(2642.382812 0)"/>
    </g>
   </g>
   <g id="legend_1">
    <g id="line2d_28">
     <path d="M 617.932656 192.900156
L 627.432656 192.900156
L 636.932656 192.900156
" style="fill: none; stroke: #1f4e79; stroke-width: 1.8; stroke-linecap: square"/>
     <g>
      <use xlink:href="#md787b2f272" x="627.432656" y="192.900156" style="fill: #1f4e79; stroke: #1f4e79"/>
     </g>
    </g>
    <g id="text_19">
     <!-- HS 280530 -->
     <g transform="translate(644.532656 196.225156) scale(0.095 -0.095)">
      <defs>
       <path id="DejaVuSans-33" d="M 2597 2516
Q 3050 2419 3304 2112
Q 3559 1806 3559 1356
Q 3559 666 3084 287
Q 2609 -91 1734 -91
Q 1441 -91 1130 -33
Q 819 25 488 141
L 488 750
Q 750 597 1062 519
Q 1375 441 1716 441
Q 2309 441 2620 675
Q 2931 909 2931 1356
Q 2931 1769 2642 2001
Q 2353 2234 1838 2234
L 1294 2234
L 1294 2753
L 1863 2753
Q 2328 2753 2575 2939
Q 2822 3125 2822 3475
Q 2822 3834 2567 4026
Q 2313 4219 1838 4219
Q 1578 4219 1281 4162
Q 984 4106 628 3988
L 628 4550
Q 988 4650 1302 4700
Q 1616 4750 1894 4750
Q 2613 4750 3031 4423
Q 3450 4097 3450 3541
Q 3450 3153 3228 2886
Q 3006 2619 2597 2516
z
" transform="scale(0.015625)"/>
      </defs>
      <use xlink:href="#DejaVuSans-48"/>
      <use xlink:href="#DejaVuSans-53" transform="translate(75.195312 0)"/>
      <use xlink:href="#DejaVuSans-20" transform="translate(138.671875 0)"/>
      <use xlink:href="#DejaVuSans-32" transform="translate(170.458984 0)"/>
      <use xlink:href="#DejaVuSans-38" transform="translate(234.082031 0)"/>
      <use xlink:href="#DejaVuSans-30" transform="translate(297.705078 0)"/>
      <use xlink:href="#DejaVuSans-35" transform="translate(361.328125 0)"/>
      <use xlink:href="#DejaVuSans-33" transform="translate(424.951172 0)"/>
      <use xlink:href="#DejaVuSans-30" transform="translate(488.574219 0)"/>
     </g>
    </g>
    <g id="line2d_29">
     <path d="M 617.932656 206.844375
L 627.432656 206.844375
L 636.932656 206.844375
" style="fill: none; stroke: #8c5a2b; stroke-width: 1.8; stroke-linecap: square"/>
     <g>
      <use xlink:href="#m0c939b9509" x="627.432656" y="206.844375" style="fill: #8c5a2b; stroke: #8c5a2b"/>
     </g>
    </g>
    <g id="text_20">
     <!-- HS 284690 -->
     <g transform="translate(644.532656 210.169375) scale(0.095 -0.095)">
      <use xlink:href="#DejaVuSans-48"/>
      <use xlink:href="#DejaVuSans-53" transform="translate(75.195312 0)"/>
      <use xlink:href="#DejaVuSans-20" transform="translate(138.671875 0)"/>
      <use xlink:href="#DejaVuSans-32" transform="translate(170.458984 0)"/>
      <use xlink:href="#DejaVuSans-38" transform="translate(234.082031 0)"/>
      <use xlink:href="#DejaVuSans-34" transform="translate(297.705078 0)"/>
      <use xlink:href="#DejaVuSans-36" transform="translate(361.328125 0)"/>
      <use xlink:href="#DejaVuSans-39" transform="translate(424.951172 0)"/>
      <use xlink:href="#DejaVuSans-30" transform="translate(488.574219 0)"/>
     </g>
    </g>
    <g id="line2d_30">
     <path d="M 617.932656 220.788594
L 627.432656 220.788594
L 636.932656 220.788594
" style="fill: none; stroke: #3f7f5f; stroke-width: 1.8; stroke-linecap: square"/>
     <g>
      <use xlink:href="#m4a36cd3c4e" x="627.432656" y="220.788594" style="fill: #3f7f5f; stroke: #3f7f5f"/>
     </g>
    </g>
    <g id="text_21">
     <!-- HS 850511 -->
     <g transform="translate(644.532656 224.113594) scale(0.095 -0.095)">
      <use xlink:href="#DejaVuSans-48"/>
      <use xlink:href="#DejaVuSans-53" transform="translate(75.195312 0)"/>
      <use xlink:href="#DejaVuSans-20" transform="translate(138.671875 0)"/>
      <use xlink:href="#DejaVuSans-38" transform="translate(170.458984 0)"/>
      <use xlink:href="#DejaVuSans-35" transform="translate(234.082031 0)"/>
      <use xlink:href="#DejaVuSans-30" transform="translate(297.705078 0)"/>
      <use xlink:href="#DejaVuSans-35" transform="translate(361.328125 0)"/>
      <use xlink:href="#DejaVuSans-31" transform="translate(424.951172 0)"/>
      <use xlink:href="#DejaVuSans-31" transform="translate(488.574219 0)"/>
     </g>
    </g>
   </g>
  </g>
 </g>
 <defs>
  <clipPath id="p1c2372eea5">
   <rect x="47.433438" y="29.077969" width="658.11" height="356.94"/>
  </clipPath>
 </defs>
</svg>
