<?xml version="1.0" encoding="utf-8" standalone="no"?>
<!DOCTYPE svg PUBLIC "-//W3C//DTD SVG 1.1//EN"
  "http://www.w3.org/Graphics/SVG/1.1/DTD/svg11.dtd">
<svg xmlns:xlink="http://www.w3.org/1999/xlink" width="712.834063pt" height="424.042031pt" viewBox="0 0 712.834063 424.042031" xmlns="http://www.w3.org/2000/svg" version="1.1">
 <metadata>
  <rdf:RDF xmlns:dc="http://purl.org/dc/elements/1.1/" xmlns:cc="http://creativecommons.org/ns#" xmlns:rdf="http://www.w3.org/1999/02/22-rdf-syntax-ns#">
   <cc:Work>
    <dc:type rdf:resource="http://purl.org/dc/dcmitype/StillImage"/>
    <dc:date>2026-05-10T03:14:22.097984</dc:date>
    <dc:format>image/svg+xml</dc:format>
    <dc:creator>
     <cc:Agent>
      <dc:title>Matplotlib v3.10.8, https://matplotlib.org/</dc:title>
     </cc:Agent>
    </dc:creator>
   </cc:Work>
  </rdf:RDF>
 </metadata>
 <defs>
  <style type="text/css">*{stroke-linejoin: round; stroke-linecap: butt}</style>
 </defs>
 <g id="figure_1">
  <g id="patch_1">
   <path d="M -0 424.042031
L 712.834063 424.042031
L 712.834063 0
L -0 0
z
" style="fill: #ffffff"/>
  </g>
  <g id="axes_1">
   <g id="patch_2">
    <path d="M 56.974063 386.017969
L 705.634063 386.017969
L 705.634063 29.077969
L 56.974063 29.077969
z
" style="fill: #ffffff"/>
   </g>
   <g id="matplotlib.axis_1">
    <g id="xtick_1">
     <g id="line2d_1">
      <defs>
       <path id="ma3338658a5" d="M 0 0
L 0 3
" style="stroke: #333333; stroke-width: 0.8"/>
      </defs>
      <g>
       <use xlink:href="#ma3338658a5" x="86.458608" y="386.017969" style="fill: #333333; stroke: #333333; stroke-width: 0.8"/>
      </g>
     </g>
     <g id="text_1">
      <!-- 2010 -->
      <g style="fill: #333333" transform="translate(73.733608 400.116406) scale(0.1 -0.1)">
       <defs>
        <path id="DejaVuSans-32" d="M 1228 531
L 3431 531
L 3431 0
L 469 0
L 469 531
Q 828 903 1448 1529
Q 2069 2156 2228 2338
Q 2531 2678 2651 2914
Q 2772 3150 2772 3378
Q 2772 3750 2511 3984
Q 2250 4219 1831 4219
Q 1534 4219 1204 4116
Q 875 4013 500 3803
L 500 4441
Q 881 4594 1212 4672
Q 1544 4750 1819 4750
Q 2544 4750 2975 4387
Q 3406 4025 3406 3419
Q 3406 3131 3298 2873
Q 3191 2616 2906 2266
Q 2828 2175 2409 1742
Q 1991 1309 1228 531
z
" transform="scale(0.015625)"/>
        <path id="DejaVuSans-30" d="M 2034 4250
Q 1547 4250 1301 3770
Q 1056 3291 1056 2328
Q 1056 1369 1301 889
Q 1547 409 2034 409
Q 2525 409 2770 889
Q 3016 1369 3016 2328
Q 3016 3291 2770 3770
Q 2525 4250 2034 4250
z
M 2034 4750
Q 2819 4750 3233 4129
Q 3647 3509 3647 2328
Q 3647 1150 3233 529
Q 2819 -91 2034 -91
Q 1250 -91 836 529
Q 422 1150 422 2328
Q 422 3509 836 4129
Q 1250 4750 2034 4750
z
" transform="scale(0.015625)"/>
        <path id="DejaVuSans-31" d="M 794 531
L 1825 531
L 1825 4091
L 703 3866
L 703 4441
L 1819 4666
L 2450 4666
L 2450 531
L 3481 531
L 3481 0
L 794 0
L 794 531
z
" transform="scale(0.015625)"/>
       </defs>
       <use xlink:href="#DejaVuSans-32"/>
       <use xlink:href="#DejaVuSans-30" transform="translate(63.623047 0)"/>
       <use xlink:href="#DejaVuSans-31" transform="translate(127.246094 0)"/>
       <use xlink:href="#DejaVuSans-30" transform="translate(190.869141 0)"/>
      </g>
     </g>
    </g>
    <g id="xtick_2">
     <g id="line2d_2">
      <g>
       <use xlink:href="#ma3338658a5" x="170.700166" y="386.017969" style="fill: #333333; stroke: #333333; stroke-width: 0.8"/>
      </g>
     </g>
     <g id="text_2">
      <!-- 2012 -->
      <g style="fill: #333333" transform="translate(157.975166 400.116406) scale(0.1 -0.1)">
       <use xlink:href="#DejaVuSans-32"/>
       <use xlink:href="#DejaVuSans-30" transform="translate(63.623047 0)"/>
       <use xlink:href="#DejaVuSans-31" transform="translate(127.246094 0)"/>
       <use xlink:href="#DejaVuSans-32" transform="translate(190.869141 0)"/>
      </g>
     </g>
    </g>
    <g id="xtick_3">
     <g id="line2d_3">
      <g>
       <use xlink:href="#ma3338658a5" x="254.941725" y="386.017969" style="fill: #333333; stroke: #333333; stroke-width: 0.8"/>
      </g>
     </g>
     <g id="text_3">
      <!-- 2014 -->
      <g style="fill: #333333" transform="translate(242.216725 400.116406) scale(0.1 -0.1)">
       <defs>
        <path id="DejaVuSans-34" d="M 2419 4116
L 825 1625
L 2419 1625
L 2419 4116
z
M 2253 4666
L 3047 4666
L 3047 1625
L 3713 1625
L 3713 1100
L 3047 1100
L 3047 0
L 2419 0
L 2419 1100
L 313 1100
L 313 1709
L 2253 4666
z
" transform="scale(0.015625)"/>
       </defs>
       <use xlink:href="#DejaVuSans-32"/>
       <use xlink:href="#DejaVuSans-30" transform="translate(63.623047 0)"/>
       <use xlink:href="#DejaVuSans-31" transform="translate(127.246094 0)"/>
       <use xlink:href="#DejaVuSans-34" transform="translate(190.869141 0)"/>
      </g>
     </g>
    </g>
    <g id="xtick_4">
     <g id="line2d_4">
      <g>
       <use xlink:href="#ma3338658a5" x="339.183283" y="386.017969" style="fill: #333333; stroke: #333333; stroke-width: 0.8"/>
      </g>
     </g>
     <g id="text_4">
      <!-- 2016 -->
      <g style="fill: #333333" transform="translate(326.458283 400.116406) scale(0.1 -0.1)">
       <defs>
        <path id="DejaVuSans-36" d="M 2113 2584
Q 1688 2584 1439 2293
Q 1191 2003 1191 1497
Q 1191 994 1439 701
Q 1688 409 2113 409
Q 2538 409 2786 701
Q 3034 994 3034 1497
Q 3034 2003 2786 2293
Q 2538 2584 2113 2584
z
M 3366 4563
L 3366 3988
Q 3128 4100 2886 4159
Q 2644 4219 2406 4219
Q 1781 4219 1451 3797
Q 1122 3375 1075 2522
Q 1259 2794 1537 2939
Q 1816 3084 2150 3084
Q 2853 3084 3261 2657
Q 3669 2231 3669 1497
Q 3669 778 3244 343
Q 2819 -91 2113 -91
Q 1303 -91 875 529
Q 447 1150 447 2328
Q 447 3434 972 4092
Q 1497 4750 2381 4750
Q 2619 4750 2861 4703
Q 3103 4656 3366 4563
z
" transform="scale(0.015625)"/>
       </defs>
       <use xlink:href="#DejaVuSans-32"/>
       <use xlink:href="#DejaVuSans-30" transform="translate(63.623047 0)"/>
       <use xlink:href="#DejaVuSans-31" transform="translate(127.246094 0)"/>
       <use xlink:href="#DejaVuSans-36" transform="translate(190.869141 0)"/>
      </g>
     </g>
    </g>
    <g id="xtick_5">
     <g id="line2d_5">
      <g>
       <use xlink:href="#ma3338658a5" x="423.424842" y="386.017969" style="fill: #333333; stroke: #333333; stroke-width: 0.8"/>
      </g>
     </g>
     <g id="text_5">
      <!-- 2018 -->
      <g style="fill: #333333" transform="translate(410.699842 400.116406) scale(0.1 -0.1)">
       <defs>
        <path id="DejaVuSans-38" d="M 2034 2216
Q 1584 2216 1326 1975
Q 1069 1734 1069 1313
Q 1069 891 1326 650
Q 1584 409 2034 409
Q 2484 409 2743 651
Q 3003 894 3003 1313
Q 3003 1734 2745 1975
Q 2488 2216 2034 2216
z
M 1403 2484
Q 997 2584 770 2862
Q 544 3141 544 3541
Q 544 4100 942 4425
Q 1341 4750 2034 4750
Q 2731 4750 3128 4425
Q 3525 4100 3525 3541
Q 3525 3141 3298 2862
Q 3072 2584 2669 2484
Q 3125 2378 3379 2068
Q 3634 1759 3634 1313
Q 3634 634 3220 271
Q 2806 -91 2034 -91
Q 1263 -91 848 271
Q 434 634 434 1313
Q 434 1759 690 2068
Q 947 2378 1403 2484
z
M 1172 3481
Q 1172 3119 1398 2916
Q 1625 2713 2034 2713
Q 2441 2713 2670 2916
Q 2900 3119 2900 3481
Q 2900 3844 2670 4047
Q 2441 4250 2034 4250
Q 1625 4250 1398 4047
Q 1172 3844 1172 3481
z
" transform="scale(0.015625)"/>
       </defs>
       <use xlink:href="#DejaVuSans-32"/>
       <use xlink:href="#DejaVuSans-30" transform="translate(63.623047 0)"/>
       <use xlink:href="#DejaVuSans-31" transform="translate(127.246094 0)"/>
       <use xlink:href="#DejaVuSans-38" transform="translate(190.869141 0)"/>
      </g>
     </g>
    </g>
    <g id="xtick_6">
     <g id="line2d_6">
      <g>
       <use xlink:href="#ma3338658a5" x="507.6664" y="386.017969" style="fill: #333333; stroke: #333333; stroke-width: 0.8"/>
      </g>
     </g>
     <g id="text_6">
      <!-- 2020 -->
      <g style="fill: #333333" transform="translate(494.9414 400.116406) scale(0.1 -0.1)">
       <use xlink:href="#DejaVuSans-32"/>
       <use xlink:href="#DejaVuSans-30" transform="translate(63.623047 0)"/>
       <use xlink:href="#DejaVuSans-32" transform="translate(127.246094 0)"/>
       <use xlink:href="#DejaVuSans-30" transform="translate(190.869141 0)"/>
      </g>
     </g>
    </g>
    <g id="xtick_7">
     <g id="line2d_7">
      <g>
       <use xlink:href="#ma3338658a5" x="591.907959" y="386.017969" style="fill: #333333; stroke: #333333; stroke-width: 0.8"/>
      </g>
     </g>
     <g id="text_7">
      <!-- 2022 -->
      <g style="fill: #333333" transform="translate(579.182959 400.116406) scale(0.1 -0.1)">
       <use xlink:href="#DejaVuSans-32"/>
       <use xlink:href="#DejaVuSans-30" transform="translate(63.623047 0)"/>
       <use xlink:href="#DejaVuSans-32" transform="translate(127.246094 0)"/>
       <use xlink:href="#DejaVuSans-32" transform="translate(190.869141 0)"/>
      </g>
     </g>
    </g>
    <g id="xtick_8">
     <g id="line2d_8">
      <g>
       <use xlink:href="#ma3338658a5" x="676.149517" y="386.017969" style="fill: #333333; stroke: #333333; stroke-width: 0.8"/>
      </g>
     </g>
     <g id="text_8">
      <!-- 2024 -->
      <g style="fill: #333333" transform="translate(663.424517 400.116406) scale(0.1 -0.1)">
       <use xlink:href="#DejaVuSans-32"/>
       <use xlink:href="#DejaVuSans-30" transform="translate(63.623047 0)"/>
       <use xlink:href="#DejaVuSans-32" transform="translate(127.246094 0)"/>
       <use xlink:href="#DejaVuSans-34" transform="translate(190.869141 0)"/>
      </g>
     </g>
    </g>
    <g id="text_9">
     <!-- Год -->
     <g transform="translate(370.781875 414.554375) scale(0.11 -0.11)">
      <defs>
       <path id="DejaVuSans-413" d="M 628 0
L 628 4666
L 3531 4666
L 3531 4134
L 1259 4134
L 1259 0
L 628 0
z
" transform="scale(0.015625)"/>
       <path id="DejaVuSans-43e" d="M 1959 3097
Q 1497 3097 1228 2736
Q 959 2375 959 1747
Q 959 1119 1226 758
Q 1494 397 1959 397
Q 2419 397 2687 759
Q 2956 1122 2956 1747
Q 2956 2369 2687 2733
Q 2419 3097 1959 3097
z
M 1959 3584
Q 2709 3584 3137 3096
Q 3566 2609 3566 1747
Q 3566 888 3137 398
Q 2709 -91 1959 -91
Q 1206 -91 779 398
Q 353 888 353 1747
Q 353 2609 779 3096
Q 1206 3584 1959 3584
z
" transform="scale(0.015625)"/>
       <path id="DejaVuSans-434" d="M 1384 459
L 3053 459
L 3053 3041
L 1844 3041
L 1844 2603
Q 1844 1316 1475 628
L 1384 459
z
M 550 459
Q 834 584 959 850
Q 1266 1509 1266 2838
L 1266 3500
L 3631 3500
L 3631 459
L 4091 459
L 4091 -884
L 3631 -884
L 3631 0
L 794 0
L 794 -884
L 334 -884
L 334 459
L 550 459
z
" transform="scale(0.015625)"/>
      </defs>
      <use xlink:href="#DejaVuSans-413"/>
      <use xlink:href="#DejaVuSans-43e" transform="translate(60.986328 0)"/>
      <use xlink:href="#DejaVuSans-434" transform="translate(122.167969 0)"/>
     </g>
    </g>
   </g>
   <g id="matplotlib.axis_2">
    <g id="ytick_1">
     <g id="line2d_9">
      <path d="M 56.974063 373.570027
L 705.634063 373.570027
" clip-path="url(#p74e049223c)" style="fill: none; stroke: #d9d9d9; stroke-opacity: 0.8; stroke-width: 0.7; stroke-linecap: square"/>
     </g>
     <g id="line2d_10">
      <defs>
       <path id="m7c4b7ed41c" d="M 0 0
L -3 0
" style="stroke: #333333; stroke-width: 0.8"/>
      </defs>
      <g>
       <use xlink:href="#m7c4b7ed41c" x="56.974063" y="373.570027" style="fill: #333333; stroke: #333333; stroke-width: 0.8"/>
      </g>
     </g>
     <g id="text_10">
      <!-- 0.065 -->
      <g style="fill: #333333" transform="translate(21.845938 377.369245) scale(0.1 -0.1)">
       <defs>
        <path id="DejaVuSans-2e" d="M 684 794
L 1344 794
L 1344 0
L 684 0
L 684 794
z
" transform="scale(0.015625)"/>
        <path id="DejaVuSans-35" d="M 691 4666
L 3169 4666
L 3169 4134
L 1269 4134
L 1269 2991
Q 1406 3038 1543 3061
Q 1681 3084 1819 3084
Q 2600 3084 3056 2656
Q 3513 2228 3513 1497
Q 3513 744 3044 326
Q 2575 -91 1722 -91
Q 1428 -91 1123 -41
Q 819 9 494 109
L 494 744
Q 775 591 1075 516
Q 1375 441 1709 441
Q 2250 441 2565 725
Q 2881 1009 2881 1497
Q 2881 1984 2565 2268
Q 2250 2553 1709 2553
Q 1456 2553 1204 2497
Q 953 2441 691 2322
L 691 4666
z
" transform="scale(0.015625)"/>
       </defs>
       <use xlink:href="#DejaVuSans-30"/>
       <use xlink:href="#DejaVuSans-2e" transform="translate(63.623047 0)"/>
       <use xlink:href="#DejaVuSans-30" transform="translate(95.410156 0)"/>
       <use xlink:href="#DejaVuSans-36" transform="translate(159.033203 0)"/>
       <use xlink:href="#DejaVuSans-35" transform="translate(222.65625 0)"/>
      </g>
     </g>
    </g>
    <g id="ytick_2">
     <g id="line2d_11">
      <path d="M 56.974063 302.581009
L 705.634063 302.581009
" clip-path="url(#p74e049223c)" style="fill: none; stroke: #d9d9d9; stroke-opacity: 0.8; stroke-width: 0.7; stroke-linecap: square"/>
     </g>
     <g id="line2d_12">
      <g>
       <use xlink:href="#m7c4b7ed41c" x="56.974063" y="302.581009" style="fill: #333333; stroke: #333333; stroke-width: 0.8"/>
      </g>
     </g>
     <g id="text_11">
      <!-- 0.070 -->
      <g style="fill: #333333" transform="translate(21.845938 306.380228) scale(0.1 -0.1)">
       <defs>
        <path id="DejaVuSans-37" d="M 525 4666
L 3525 4666
L 3525 4397
L 1831 0
L 1172 0
L 2766 4134
L 525 4134
L 525 4666
z
" transform="scale(0.015625)"/>
       </defs>
       <use xlink:href="#DejaVuSans-30"/>
       <use xlink:href="#DejaVuSans-2e" transform="translate(63.623047 0)"/>
       <use xlink:href="#DejaVuSans-30" transform="translate(95.410156 0)"/>
       <use xlink:href="#DejaVuSans-37" transform="translate(159.033203 0)"/>
       <use xlink:href="#DejaVuSans-30" transform="translate(222.65625 0)"/>
      </g>
     </g>
    </g>
    <g id="ytick_3">
     <g id="line2d_13">
      <path d="M 56.974063 231.591992
L 705.634063 231.591992
" clip-path="url(#p74e049223c)" style="fill: none; stroke: #d9d9d9; stroke-opacity: 0.8; stroke-width: 0.7; stroke-linecap: square"/>
     </g>
     <g id="line2d_14">
      <g>
       <use xlink:href="#m7c4b7ed41c" x="56.974063" y="231.591992" style="fill: #333333; stroke: #333333; stroke-width: 0.8"/>
      </g>
     </g>
     <g id="text_12">
      <!-- 0.075 -->
      <g style="fill: #333333" transform="translate(21.845938 235.39121) scale(0.1 -0.1)">
       <use xlink:href="#DejaVuSans-30"/>
       <use xlink:href="#DejaVuSans-2e" transform="translate(63.623047 0)"/>
       <use xlink:href="#DejaVuSans-30" transform="translate(95.410156 0)"/>
       <use xlink:href="#DejaVuSans-37" transform="translate(159.033203 0)"/>
       <use xlink:href="#DejaVuSans-35" transform="translate(222.65625 0)"/>
      </g>
     </g>
    </g>
    <g id="ytick_4">
     <g id="line2d_15">
      <path d="M 56.974063 160.602974
L 705.634063 160.602974
" clip-path="url(#p74e049223c)" style="fill: none; stroke: #d9d9d9; stroke-opacity: 0.8; stroke-width: 0.7; stroke-linecap: square"/>
     </g>
     <g id="line2d_16">
      <g>
       <use xlink:href="#m7c4b7ed41c" x="56.974063" y="160.602974" style="fill: #333333; stroke: #333333; stroke-width: 0.8"/>
      </g>
     </g>
     <g id="text_13">
      <!-- 0.080 -->
      <g style="fill: #333333" transform="translate(21.845938 164.402193) scale(0.1 -0.1)">
       <use xlink:href="#DejaVuSans-30"/>
       <use xlink:href="#DejaVuSans-2e" transform="translate(63.623047 0)"/>
       <use xlink:href="#DejaVuSans-30" transform="translate(95.410156 0)"/>
       <use xlink:href="#DejaVuSans-38" transform="translate(159.033203 0)"/>
       <use xlink:href="#DejaVuSans-30" transform="translate(222.65625 0)"/>
      </g>
     </g>
    </g>
    <g id="ytick_5">
     <g id="line2d_17">
      <path d="M 56.974063 89.613957
L 705.634063 89.613957
" clip-path="url(#p74e049223c)" style="fill: none; stroke: #d9d9d9; stroke-opacity: 0.8; stroke-width: 0.7; stroke-linecap: square"/>
     </g>
     <g id="line2d_18">
      <g>
       <use xlink:href="#m7c4b7ed41c" x="56.974063" y="89.613957" style="fill: #333333; stroke: #333333; stroke-width: 0.8"/>
      </g>
     </g>
     <g id="text_14">
      <!-- 0.085 -->
      <g style="fill: #333333" transform="translate(21.845938 93.413175) scale(0.1 -0.1)">
       <use xlink:href="#DejaVuSans-30"/>
       <use xlink:href="#DejaVuSans-2e" transform="translate(63.623047 0)"/>
       <use xlink:href="#DejaVuSans-30" transform="translate(95.410156 0)"/>
       <use xlink:href="#DejaVuSans-38" transform="translate(159.033203 0)"/>
       <use xlink:href="#DejaVuSans-35" transform="translate(222.65625 0)"/>
      </g>
     </g>
    </g>
    <g id="text_15">
     <!-- Индекс Херфиндаля-Хиршмана (HHI) -->
     <g transform="translate(15.558281 315.323047) rotate(-90) scale(0.11 -0.11)">
      <defs>
       <path id="DejaVuSans-418" d="M 4159 4666
L 4159 0
L 3547 0
L 3547 3903
L 1478 0
L 628 0
L 628 4666
L 1241 4666
L 1241 763
L 3309 4666
L 4159 4666
z
" transform="scale(0.015625)"/>
       <path id="DejaVuSans-43d" d="M 581 3500
L 1159 3500
L 1159 2072
L 3025 2072
L 3025 3500
L 3603 3500
L 3603 0
L 3025 0
L 3025 1613
L 1159 1613
L 1159 0
L 581 0
L 581 3500
z
" transform="scale(0.015625)"/>
       <path id="DejaVuSans-435" d="M 3597 1894
L 3597 1613
L 953 1613
Q 991 1019 1311 708
Q 1631 397 2203 397
Q 2534 397 2845 478
Q 3156 559 3463 722
L 3463 178
Q 3153 47 2828 -22
Q 2503 -91 2169 -91
Q 1331 -91 842 396
Q 353 884 353 1716
Q 353 2575 817 3079
Q 1281 3584 2069 3584
Q 2775 3584 3186 3129
Q 3597 2675 3597 1894
z
M 3022 2063
Q 3016 2534 2758 2815
Q 2500 3097 2075 3097
Q 1594 3097 1305 2825
Q 1016 2553 972 2059
L 3022 2063
z
" transform="scale(0.015625)"/>
       <path id="DejaVuSans-43a" d="M 581 3500
L 1153 3500
L 1153 1856
L 2775 3500
L 3481 3500
L 2144 2147
L 3653 0
L 3009 0
L 1769 1766
L 1153 1141
L 1153 0
L 581 0
L 581 3500
z
" transform="scale(0.015625)"/>
       <path id="DejaVuSans-441" d="M 3122 3366
L 3122 2828
Q 2878 2963 2633 3030
Q 2388 3097 2138 3097
Q 1578 3097 1268 2742
Q 959 2388 959 1747
Q 959 1106 1268 751
Q 1578 397 2138 397
Q 2388 397 2633 464
Q 2878 531 3122 666
L 3122 134
Q 2881 22 2623 -34
Q 2366 -91 2075 -91
Q 1284 -91 818 406
Q 353 903 353 1747
Q 353 2603 823 3093
Q 1294 3584 2113 3584
Q 2378 3584 2631 3529
Q 2884 3475 3122 3366
z
" transform="scale(0.015625)"/>
       <path id="DejaVuSans-20" transform="scale(0.015625)"/>
       <path id="DejaVuSans-425" d="M 403 4666
L 1081 4666
L 2241 2931
L 3406 4666
L 4084 4666
L 2584 2425
L 4184 0
L 3506 0
L 2194 1984
L 872 0
L 191 0
L 1856 2491
L 403 4666
z
" transform="scale(0.015625)"/>
       <path id="DejaVuSans-440" d="M 1159 525
L 1159 -1331
L 581 -1331
L 581 3500
L 1159 3500
L 1159 2969
Q 1341 3281 1617 3432
Q 1894 3584 2278 3584
Q 2916 3584 3314 3078
Q 3713 2572 3713 1747
Q 3713 922 3314 415
Q 2916 -91 2278 -91
Q 1894 -91 1617 61
Q 1341 213 1159 525
z
M 3116 1747
Q 3116 2381 2855 2742
Q 2594 3103 2138 3103
Q 1681 3103 1420 2742
Q 1159 2381 1159 1747
Q 1159 1113 1420 752
Q 1681 391 2138 391
Q 2594 391 2855 752
Q 3116 1113 3116 1747
z
" transform="scale(0.015625)"/>
       <path id="DejaVuSans-444" d="M 947 1747
Q 947 1013 1173 702
Q 1400 391 1784 391
Q 2091 391 2447 916
L 2447 2578
Q 2091 3103 1784 3103
Q 1400 3103 1173 2792
Q 947 2481 947 1747
z
M 2447 -1331
L 2447 447
Q 2269 153 2064 31
Q 1859 -91 1600 -91
Q 1078 -91 714 392
Q 350 875 350 1734
Q 350 2594 714 3089
Q 1078 3584 1600 3584
Q 1859 3584 2064 3465
Q 2269 3347 2447 3053
L 2447 4666
L 3025 4666
L 3025 3053
Q 3203 3347 3408 3465
Q 3613 3584 3872 3584
Q 4394 3584 4758 3089
Q 5122 2594 5122 1734
Q 5122 875 4758 392
Q 4394 -91 3872 -91
Q 3613 -91 3408 31
Q 3203 153 3025 447
L 3025 -1331
L 2447 -1331
z
M 4525 1747
Q 4525 2481 4298 2792
Q 4072 3103 3688 3103
Q 3381 3103 3025 2578
L 3025 916
Q 3381 391 3688 391
Q 4072 391 4298 702
Q 4525 1013 4525 1747
z
" transform="scale(0.015625)"/>
       <path id="DejaVuSans-438" d="M 3578 3500
L 3578 0
L 3006 0
L 3006 2809
L 1319 0
L 581 0
L 581 3500
L 1153 3500
L 1153 697
L 2838 3500
L 3578 3500
z
" transform="scale(0.015625)"/>
       <path id="DejaVuSans-430" d="M 2194 1759
Q 1497 1759 1228 1600
Q 959 1441 959 1056
Q 959 750 1161 570
Q 1363 391 1709 391
Q 2188 391 2477 730
Q 2766 1069 2766 1631
L 2766 1759
L 2194 1759
z
M 3341 1997
L 3341 0
L 2766 0
L 2766 531
Q 2569 213 2275 61
Q 1981 -91 1556 -91
Q 1019 -91 701 211
Q 384 513 384 1019
Q 384 1609 779 1909
Q 1175 2209 1959 2209
L 2766 2209
L 2766 2266
Q 2766 2663 2505 2880
Q 2244 3097 1772 3097
Q 1472 3097 1187 3025
Q 903 2953 641 2809
L 641 3341
Q 956 3463 1253 3523
Q 1550 3584 1831 3584
Q 2591 3584 2966 3190
Q 3341 2797 3341 1997
z
" transform="scale(0.015625)"/>
       <path id="DejaVuSans-43b" d="M 238 0
L 238 478
Q 806 566 981 959
Q 1194 1513 1194 2928
L 1194 3500
L 3559 3500
L 3559 0
L 2984 0
L 2984 3041
L 1769 3041
L 1769 2694
Q 1769 1344 1494 738
Q 1200 91 238 0
z
" transform="scale(0.015625)"/>
       <path id="DejaVuSans-44f" d="M 1181 2491
Q 1181 2231 1381 2084
Q 1581 1938 1953 1938
L 2728 1938
L 2728 3041
L 1953 3041
Q 1581 3041 1381 2897
Q 1181 2753 1181 2491
z
M 363 0
L 1431 1534
Q 1069 1616 828 1830
Q 588 2044 588 2491
Q 588 2997 923 3248
Q 1259 3500 1938 3500
L 3306 3500
L 3306 0
L 2728 0
L 2728 1478
L 2013 1478
L 981 0
L 363 0
z
" transform="scale(0.015625)"/>
       <path id="DejaVuSans-2d" d="M 313 2009
L 1997 2009
L 1997 1497
L 313 1497
L 313 2009
z
" transform="scale(0.015625)"/>
       <path id="DejaVuSans-448" d="M 3216 459
L 4697 459
L 4697 3500
L 5275 3500
L 5275 0
L 581 0
L 581 3500
L 1159 3500
L 1159 459
L 2638 459
L 2638 3500
L 3216 3500
L 3216 459
z
" transform="scale(0.015625)"/>
       <path id="DejaVuSans-43c" d="M 581 3500
L 1422 3500
L 2416 1156
L 3413 3500
L 4247 3500
L 4247 0
L 3669 0
L 3669 2950
L 2703 672
L 2128 672
L 1159 2950
L 1159 0
L 581 0
L 581 3500
z
" transform="scale(0.015625)"/>
       <path id="DejaVuSans-28" d="M 1984 4856
Q 1566 4138 1362 3434
Q 1159 2731 1159 2009
Q 1159 1288 1364 580
Q 1569 -128 1984 -844
L 1484 -844
Q 1016 -109 783 600
Q 550 1309 550 2009
Q 550 2706 781 3412
Q 1013 4119 1484 4856
L 1984 4856
z
" transform="scale(0.015625)"/>
       <path id="DejaVuSans-48" d="M 628 4666
L 1259 4666
L 1259 2753
L 3553 2753
L 3553 4666
L 4184 4666
L 4184 0
L 3553 0
L 3553 2222
L 1259 2222
L 1259 0
L 628 0
L 628 4666
z
" transform="scale(0.015625)"/>
       <path id="DejaVuSans-49" d="M 628 4666
L 1259 4666
L 1259 0
L 628 0
L 628 4666
z
" transform="scale(0.015625)"/>
       <path id="DejaVuSans-29" d="M 513 4856
L 1013 4856
Q 1481 4119 1714 3412
Q 1947 2706 1947 2009
Q 1947 1309 1714 600
Q 1481 -109 1013 -844
L 513 -844
Q 928 -128 1133 580
Q 1338 1288 1338 2009
Q 1338 2731 1133 3434
Q 928 4138 513 4856
z
" transform="scale(0.015625)"/>
      </defs>
      <use xlink:href="#DejaVuSans-418"/>
      <use xlink:href="#DejaVuSans-43d" transform="translate(74.804688 0)"/>
      <use xlink:href="#DejaVuSans-434" transform="translate(140.185547 0)"/>
      <use xlink:href="#DejaVuSans-435" transform="translate(209.326172 0)"/>
      <use xlink:href="#DejaVuSans-43a" transform="translate(270.849609 0)"/>
      <use xlink:href="#DejaVuSans-441" transform="translate(331.25 0)"/>
      <use xlink:href="#DejaVuSans-20" transform="translate(386.230469 0)"/>
      <use xlink:href="#DejaVuSans-425" transform="translate(418.017578 0)"/>
      <use xlink:href="#DejaVuSans-435" transform="translate(486.523438 0)"/>
      <use xlink:href="#DejaVuSans-440" transform="translate(548.046875 0)"/>
      <use xlink:href="#DejaVuSans-444" transform="translate(611.523438 0)"/>
      <use xlink:href="#DejaVuSans-438" transform="translate(697.021484 0)"/>
      <use xlink:href="#DejaVuSans-43d" transform="translate(762.011719 0)"/>
      <use xlink:href="#DejaVuSans-434" transform="translate(827.392578 0)"/>
      <use xlink:href="#DejaVuSans-430" transform="translate(896.533203 0)"/>
      <use xlink:href="#DejaVuSans-43b" transform="translate(957.8125 0)"/>
      <use xlink:href="#DejaVuSans-44f" transform="translate(1021.728516 0)"/>
      <use xlink:href="#DejaVuSans-2d" transform="translate(1081.884766 0)"/>
      <use xlink:href="#DejaVuSans-425" transform="translate(1117.96875 0)"/>
      <use xlink:href="#DejaVuSans-438" transform="translate(1186.474609 0)"/>
      <use xlink:href="#DejaVuSans-440" transform="translate(1251.464844 0)"/>
      <use xlink:href="#DejaVuSans-448" transform="translate(1314.941406 0)"/>
      <use xlink:href="#DejaVuSans-43c" transform="translate(1406.445312 0)"/>
      <use xlink:href="#DejaVuSans-430" transform="translate(1481.884766 0)"/>
      <use xlink:href="#DejaVuSans-43d" transform="translate(1543.164062 0)"/>
      <use xlink:href="#DejaVuSans-430" transform="translate(1608.544922 0)"/>
      <use xlink:href="#DejaVuSans-20" transform="translate(1669.824219 0)"/>
      <use xlink:href="#DejaVuSans-28" transform="translate(1701.611328 0)"/>
      <use xlink:href="#DejaVuSans-48" transform="translate(1740.625 0)"/>
      <use xlink:href="#DejaVuSans-48" transform="translate(1815.820312 0)"/>
      <use xlink:href="#DejaVuSans-49" transform="translate(1891.015625 0)"/>
      <use xlink:href="#DejaVuSans-29" transform="translate(1920.507812 0)"/>
     </g>
    </g>
   </g>
   <g id="line2d_19">
    <path d="M 86.458608 45.302514
L 128.579387 240.237538
L 170.700166 234.13204
L 212.820946 228.923249
L 254.941725 280.80907
L 297.062504 311.153382
L 339.183283 347.359946
L 381.304062 369.793423
L 423.424842 328.949395
L 465.545621 252.117948
L 507.6664 253.806809
L 549.787179 257.846511
L 591.907959 181.634615
L 634.028738 179.065162
L 676.149517 189.127231
" clip-path="url(#p74e049223c)" style="fill: none; stroke: #1f4e79; stroke-width: 1.8; stroke-linecap: square"/>
    <defs>
     <path id="m20930f199d" d="M 0 2.5
C 0.663008 2.5 1.29895 2.236584 1.767767 1.767767
C 2.236584 1.29895 2.5 0.663008 2.5 0
C 2.5 -0.663008 2.236584 -1.29895 1.767767 -1.767767
C 1.29895 -2.236584 0.663008 -2.5 0 -2.5
C -0.663008 -2.5 -1.29895 -2.236584 -1.767767 -1.767767
C -2.236584 -1.29895 -2.5 -0.663008 -2.5 0
C -2.5 0.663008 -2.236584 1.29895 -1.767767 1.767767
C -1.29895 2.236584 -0.663008 2.5 0 2.5
z
" style="stroke: #1f4e79"/>
    </defs>
    <g clip-path="url(#p74e049223c)">
     <use xlink:href="#m20930f199d" x="86.458608" y="45.302514" style="fill: #1f4e79; stroke: #1f4e79"/>
     <use xlink:href="#m20930f199d" x="128.579387" y="240.237538" style="fill: #1f4e79; stroke: #1f4e79"/>
     <use xlink:href="#m20930f199d" x="170.700166" y="234.13204" style="fill: #1f4e79; stroke: #1f4e79"/>
     <use xlink:href="#m20930f199d" x="212.820946" y="228.923249" style="fill: #1f4e79; stroke: #1f4e79"/>
     <use xlink:href="#m20930f199d" x="254.941725" y="280.80907" style="fill: #1f4e79; stroke: #1f4e79"/>
     <use xlink:href="#m20930f199d" x="297.062504" y="311.153382" style="fill: #1f4e79; stroke: #1f4e79"/>
     <use xlink:href="#m20930f199d" x="339.183283" y="347.359946" style="fill: #1f4e79; stroke: #1f4e79"/>
     <use xlink:href="#m20930f199d" x="381.304062" y="369.793423" style="fill: #1f4e79; stroke: #1f4e79"/>
     <use xlink:href="#m20930f199d" x="423.424842" y="328.949395" style="fill: #1f4e79; stroke: #1f4e79"/>
     <use xlink:href="#m20930f199d" x="465.545621" y="252.117948" style="fill: #1f4e79; stroke: #1f4e79"/>
     <use xlink:href="#m20930f199d" x="507.6664" y="253.806809" style="fill: #1f4e79; stroke: #1f4e79"/>
     <use xlink:href="#m20930f199d" x="549.787179" y="257.846511" style="fill: #1f4e79; stroke: #1f4e79"/>
     <use xlink:href="#m20930f199d" x="591.907959" y="181.634615" style="fill: #1f4e79; stroke: #1f4e79"/>
     <use xlink:href="#m20930f199d" x="634.028738" y="179.065162" style="fill: #1f4e79; stroke: #1f4e79"/>
     <use xlink:href="#m20930f199d" x="676.149517" y="189.127231" style="fill: #1f4e79; stroke: #1f4e79"/>
    </g>
   </g>
   <g id="line2d_20">
    <path d="M 297.062504 386.017969
L 297.062504 29.077969
" clip-path="url(#p74e049223c)" style="fill: none; stroke-dasharray: 3.7,1.6; stroke-dashoffset: 0; stroke: #666666; stroke-opacity: 0.85"/>
   </g>
   <g id="line2d_21">
    <path d="M 339.183283 386.017969
L 339.183283 29.077969
" clip-path="url(#p74e049223c)" style="fill: none; stroke-dasharray: 1.2,1.98; stroke-dashoffset: 0; stroke: #666666; stroke-opacity: 0.9; stroke-width: 1.2"/>
   </g>
   <g id="patch_3">
    <path d="M 56.974063 386.017969
L 56.974063 29.077969
" style="fill: none; stroke: #333333; stroke-width: 0.8; stroke-linejoin: miter; stroke-linecap: square"/>
   </g>
   <g id="patch_4">
    <path d="M 56.974062 386.017969
L 705.634062 386.017969
" style="fill: none; stroke: #333333; stroke-width: 0.8; stroke-linejoin: miter; stroke-linecap: square"/>
   </g>
   <g id="text_16">
    <!-- Концентрация экспортных направлений, HS 850511: постоянные магниты -->
    <g transform="translate(56.974063 17.077969) scale(0.13 -0.13)">
     <defs>
      <path id="DejaVuSans-41a" d="M 628 4666
L 1259 4666
L 1259 2359
L 3516 4666
L 4325 4666
L 2522 2822
L 4419 0
L 3731 0
L 2113 2403
L 1259 1531
L 1259 0
L 628 0
L 628 4666
z
" transform="scale(0.015625)"/>
      <path id="DejaVuSans-446" d="M 3603 0
L 581 0
L 581 3500
L 1159 3500
L 1159 459
L 3025 459
L 3025 3500
L 3603 3500
L 3603 459
L 4063 459
L 4063 -884
L 3603 -884
L 3603 0
z
" transform="scale(0.015625)"/>
      <path id="DejaVuSans-442" d="M 188 3500
L 3541 3500
L 3541 3041
L 2147 3041
L 2147 0
L 1581 0
L 1581 3041
L 188 3041
L 188 3500
z
" transform="scale(0.015625)"/>
      <path id="DejaVuSans-44d" d="M 353 666
Q 847 397 1338 397
Q 1797 397 2125 664
Q 2453 931 2513 1613
L 738 1613
L 738 2072
L 2494 2072
Q 2456 2400 2207 2748
Q 1959 3097 1338 3097
Q 856 3097 353 2828
L 353 3366
Q 844 3584 1363 3584
Q 2181 3584 2651 3089
Q 3122 2594 3122 1747
Q 3122 903 2664 406
Q 2206 -91 1403 -91
Q 813 -91 353 134
L 353 666
z
" transform="scale(0.015625)"/>
      <path id="DejaVuSans-43f" d="M 3603 3500
L 3603 0
L 3025 0
L 3025 3041
L 1159 3041
L 1159 0
L 581 0
L 581 3500
L 3603 3500
z
" transform="scale(0.015625)"/>
      <path id="DejaVuSans-44b" d="M 3907 3500
L 4482 3500
L 4482 0
L 3907 0
L 3907 3500
z
M 4195 3584
L 4195 3584
z
M 2781 1038
Q 2781 1319 2576 1466
Q 2372 1613 1978 1613
L 1159 1613
L 1159 459
L 1978 459
Q 2372 459 2576 607
Q 2781 756 2781 1038
z
M 581 3500
L 1159 3500
L 1159 2072
L 2003 2072
Q 2672 2072 3033 1817
Q 3394 1563 3394 1038
Q 3394 513 3033 256
Q 2672 0 2003 0
L 581 0
L 581 3500
z
" transform="scale(0.015625)"/>
      <path id="DejaVuSans-445" d="M 3513 3500
L 2247 1797
L 3578 0
L 2900 0
L 1881 1375
L 863 0
L 184 0
L 1544 1831
L 300 3500
L 978 3500
L 1906 2253
L 2834 3500
L 3513 3500
z
" transform="scale(0.015625)"/>
      <path id="DejaVuSans-432" d="M 1156 1613
L 1156 459
L 1975 459
Q 2369 459 2575 607
Q 2781 756 2781 1038
Q 2781 1319 2575 1466
Q 2369 1613 1975 1613
L 1156 1613
z
M 1156 3041
L 1156 2072
L 1913 2072
Q 2238 2072 2444 2201
Q 2650 2331 2650 2563
Q 2650 2794 2444 2917
Q 2238 3041 1913 3041
L 1156 3041
z
M 581 3500
L 1950 3500
Q 2566 3500 2897 3275
Q 3228 3050 3228 2634
Q 3228 2313 3059 2123
Q 2891 1934 2559 1888
Q 2956 1813 3175 1575
Q 3394 1338 3394 981
Q 3394 513 3033 256
Q 2672 0 2003 0
L 581 0
L 581 3500
z
" transform="scale(0.015625)"/>
      <path id="DejaVuSans-439" d="M 3578 3500
L 3578 0
L 3006 0
L 3006 2809
L 1319 0
L 581 0
L 581 3500
L 1153 3500
L 1153 697
L 2838 3500
L 3578 3500
z
M 1102 4833
L 1471 4833
Q 1505 4599 1656 4481
Q 1808 4364 2080 4364
Q 2349 4364 2499 4480
Q 2649 4596 2689 4833
L 3058 4833
Q 3027 4386 2780 4161
Q 2533 3936 2080 3936
Q 1627 3936 1380 4161
Q 1133 4386 1102 4833
z
" transform="scale(0.015625)"/>
      <path id="DejaVuSans-2c" d="M 750 794
L 1409 794
L 1409 256
L 897 -744
L 494 -744
L 750 256
L 750 794
z
" transform="scale(0.015625)"/>
      <path id="DejaVuSans-53" d="M 3425 4513
L 3425 3897
Q 3066 4069 2747 4153
Q 2428 4238 2131 4238
Q 1616 4238 1336 4038
Q 1056 3838 1056 3469
Q 1056 3159 1242 3001
Q 1428 2844 1947 2747
L 2328 2669
Q 3034 2534 3370 2195
Q 3706 1856 3706 1288
Q 3706 609 3251 259
Q 2797 -91 1919 -91
Q 1588 -91 1214 -16
Q 841 59 441 206
L 441 856
Q 825 641 1194 531
Q 1563 422 1919 422
Q 2459 422 2753 634
Q 3047 847 3047 1241
Q 3047 1584 2836 1778
Q 2625 1972 2144 2069
L 1759 2144
Q 1053 2284 737 2584
Q 422 2884 422 3419
Q 422 4038 858 4394
Q 1294 4750 2059 4750
Q 2388 4750 2728 4690
Q 3069 4631 3425 4513
z
" transform="scale(0.015625)"/>
      <path id="DejaVuSans-3a" d="M 750 794
L 1409 794
L 1409 0
L 750 0
L 750 794
z
M 750 3309
L 1409 3309
L 1409 2516
L 750 2516
L 750 3309
z
" transform="scale(0.015625)"/>
      <path id="DejaVuSans-433" d="M 581 0
L 581 3500
L 3050 3500
L 3050 3041
L 1159 3041
L 1159 0
L 581 0
z
" transform="scale(0.015625)"/>
     </defs>
     <use xlink:href="#DejaVuSans-41a"/>
     <use xlink:href="#DejaVuSans-43e" transform="translate(70.996094 0)"/>
     <use xlink:href="#DejaVuSans-43d" transform="translate(132.177734 0)"/>
     <use xlink:href="#DejaVuSans-446" transform="translate(197.558594 0)"/>
     <use xlink:href="#DejaVuSans-435" transform="translate(265.625 0)"/>
     <use xlink:href="#DejaVuSans-43d" transform="translate(327.148438 0)"/>
     <use xlink:href="#DejaVuSans-442" transform="translate(392.529297 0)"/>
     <use xlink:href="#DejaVuSans-440" transform="translate(450.78125 0)"/>
     <use xlink:href="#DejaVuSans-430" transform="translate(514.257812 0)"/>
     <use xlink:href="#DejaVuSans-446" transform="translate(575.537109 0)"/>
     <use xlink:href="#DejaVuSans-438" transform="translate(643.603516 0)"/>
     <use xlink:href="#DejaVuSans-44f" transform="translate(708.59375 0)"/>
     <use xlink:href="#DejaVuSans-20" transform="translate(768.75 0)"/>
     <use xlink:href="#DejaVuSans-44d" transform="translate(800.537109 0)"/>
     <use xlink:href="#DejaVuSans-43a" transform="translate(855.419922 0)"/>
     <use xlink:href="#DejaVuSans-441" transform="translate(915.820312 0)"/>
     <use xlink:href="#DejaVuSans-43f" transform="translate(970.800781 0)"/>
     <use xlink:href="#DejaVuSans-43e" transform="translate(1036.181641 0)"/>
     <use xlink:href="#DejaVuSans-440" transform="translate(1097.363281 0)"/>
     <use xlink:href="#DejaVuSans-442" transform="translate(1160.839844 0)"/>
     <use xlink:href="#DejaVuSans-43d" transform="translate(1219.091797 0)"/>
     <use xlink:href="#DejaVuSans-44b" transform="translate(1284.472656 0)"/>
     <use xlink:href="#DejaVuSans-445" transform="translate(1363.427734 0)"/>
     <use xlink:href="#DejaVuSans-20" transform="translate(1422.607422 0)"/>
     <use xlink:href="#DejaVuSans-43d" transform="translate(1454.394531 0)"/>
     <use xlink:href="#DejaVuSans-430" transform="translate(1519.775391 0)"/>
     <use xlink:href="#DejaVuSans-43f" transform="translate(1581.054688 0)"/>
     <use xlink:href="#DejaVuSans-440" transform="translate(1646.435547 0)"/>
     <use xlink:href="#DejaVuSans-430" transform="translate(1709.912109 0)"/>
     <use xlink:href="#DejaVuSans-432" transform="translate(1771.191406 0)"/>
     <use xlink:href="#DejaVuSans-43b" transform="translate(1830.126953 0)"/>
     <use xlink:href="#DejaVuSans-435" transform="translate(1894.042969 0)"/>
     <use xlink:href="#DejaVuSans-43d" transform="translate(1955.566406 0)"/>
     <use xlink:href="#DejaVuSans-438" transform="translate(2020.947266 0)"/>
     <use xlink:href="#DejaVuSans-439" transform="translate(2085.9375 0)"/>
     <use xlink:href="#DejaVuSans-2c" transform="translate(2150.927734 0)"/>
     <use xlink:href="#DejaVuSans-20" transform="translate(2182.714844 0)"/>
     <use xlink:href="#DejaVuSans-48" transform="translate(2214.501953 0)"/>
     <use xlink:href="#DejaVuSans-53" transform="translate(2289.697266 0)"/>
     <use xlink:href="#DejaVuSans-20" transform="translate(2353.173828 0)"/>
     <use xlink:href="#DejaVuSans-38" transform="translate(2384.960938 0)"/>
     <use xlink:href="#DejaVuSans-35" transform="translate(2448.583984 0)"/>
     <use xlink:href="#DejaVuSans-30" transform="translate(2512.207031 0)"/>
     <use xlink:href="#DejaVuSans-35" transform="translate(2575.830078 0)"/>
     <use xlink:href="#DejaVuSans-31" transform="translate(2639.453125 0)"/>
     <use xlink:href="#DejaVuSans-31" transform="translate(2703.076172 0)"/>
     <use xlink:href="#DejaVuSans-3a" transform="translate(2766.699219 0)"/>
     <use xlink:href="#DejaVuSans-20" transform="translate(2800.390625 0)"/>
     <use xlink:href="#DejaVuSans-43f" transform="translate(2832.177734 0)"/>
     <use xlink:href="#DejaVuSans-43e" transform="translate(2897.558594 0)"/>
     <use xlink:href="#DejaVuSans-441" transform="translate(2958.740234 0)"/>
     <use xlink:href="#DejaVuSans-442" transform="translate(3013.720703 0)"/>
     <use xlink:href="#DejaVuSans-43e" transform="translate(3071.972656 0)"/>
     <use xlink:href="#DejaVuSans-44f" transform="translate(3133.154297 0)"/>
     <use xlink:href="#DejaVuSans-43d" transform="translate(3193.310547 0)"/>
     <use xlink:href="#DejaVuSans-43d" transform="translate(3258.691406 0)"/>
     <use xlink:href="#DejaVuSans-44b" transform="translate(3324.072266 0)"/>
     <use xlink:href="#DejaVuSans-435" transform="translate(3403.027344 0)"/>
     <use xlink:href="#DejaVuSans-20" transform="translate(3464.550781 0)"/>
     <use xlink:href="#DejaVuSans-43c" transform="translate(3496.337891 0)"/>
     <use xlink:href="#DejaVuSans-430" transform="translate(3571.777344 0)"/>
     <use xlink:href="#DejaVuSans-433" transform="translate(3633.056641 0)"/>
     <use xlink:href="#DejaVuSans-43d" transform="translate(3685.595703 0)"/>
     <use xlink:href="#DejaVuSans-438" transform="translate(3750.976562 0)"/>
     <use xlink:href="#DejaVuSans-442" transform="translate(3815.966797 0)"/>
     <use xlink:href="#DejaVuSans-44b" transform="translate(3874.21875 0)"/>
    </g>
   </g>
   <g id="legend_1">
    <g id="line2d_22">
     <path d="M 653.392969 41.521484
L 662.892969 41.521484
L 672.392969 41.521484
" style="fill: none; stroke: #1f4e79; stroke-width: 1.8; stroke-linecap: square"/>
     <g>
      <use xlink:href="#m20930f199d" x="662.892969" y="41.521484" style="fill: #1f4e79; stroke: #1f4e79"/>
     </g>
    </g>
    <g id="text_17">
     <!-- HHI -->
     <g transform="translate(679.992969 44.846484) scale(0.095 -0.095)">
      <use xlink:href="#DejaVuSans-48"/>
      <use xlink:href="#DejaVuSans-48" transform="translate(75.195312 0)"/>
      <use xlink:href="#DejaVuSans-49" transform="translate(150.390625 0)"/>
     </g>
    </g>
   </g>
  </g>
 </g>
 <defs>
  <clipPath id="p74e049223c">
   <rect x="56.974063" y="29.077969" width="648.66" height="356.94"/>
  </clipPath>
 </defs>
</svg>
