<?xml version="1.0" encoding="utf-8" standalone="no"?>
<!DOCTYPE svg PUBLIC "-//W3C//DTD SVG 1.1//EN"
  "http://www.w3.org/Graphics/SVG/1.1/DTD/svg11.dtd">
<svg xmlns:xlink="http://www.w3.org/1999/xlink" width="793.318906pt" height="352.083437pt" viewBox="0 0 793.318906 352.083437" xmlns="http://www.w3.org/2000/svg" version="1.1">
 <metadata>
  <rdf:RDF xmlns:dc="http://purl.org/dc/elements/1.1/" xmlns:cc="http://creativecommons.org/ns#" xmlns:rdf="http://www.w3.org/1999/02/22-rdf-syntax-ns#">
   <cc:Work>
    <dc:type rdf:resource="http://purl.org/dc/dcmitype/StillImage"/>
    <dc:date>2026-05-06T17:17:22.137958</dc:date>
    <dc:format>image/svg+xml</dc:format>
    <dc:creator>
     <cc:Agent>
      <dc:title>Matplotlib v3.10.8, https://matplotlib.org/</dc:title>
     </cc:Agent>
    </dc:creator>
   </cc:Work>
  </rdf:RDF>
 </metadata>
 <defs>
  <style type="text/css">*{stroke-linejoin: round; stroke-linecap: butt}</style>
 </defs>
 <g id="figure_1">
  <g id="patch_1">
   <path d="M 0 352.083437
L 793.318906 352.083437
L 793.318906 0
L 0 0
z
" style="fill: #ffffff"/>
  </g>
  <g id="axes_1">
   <g id="patch_2">
    <path d="M 38.31625 314.059375
L 633.51625 314.059375
L 633.51625 29.299375
L 38.31625 29.299375
z
" style="fill: #ffffff"/>
   </g>
   <g id="matplotlib.axis_1">
    <g id="xtick_1">
     <g id="line2d_1">
      <defs>
       <path id="m8f87e7e2e9" d="M 0 0
L 0 3
" style="stroke: #333333; stroke-width: 0.8"/>
      </defs>
      <g>
       <use xlink:href="#m8f87e7e2e9" x="65.370795" y="314.059375" style="fill: #333333; stroke: #333333; stroke-width: 0.8"/>
      </g>
     </g>
     <g id="text_1">
      <!-- 2010 -->
      <g style="fill: #333333" transform="translate(52.645795 328.157812) scale(0.1 -0.1)">
       <defs>
        <path id="DejaVuSans-32" d="M 1228 531
L 3431 531
L 3431 0
L 469 0
L 469 531
Q 828 903 1448 1529
Q 2069 2156 2228 2338
Q 2531 2678 2651 2914
Q 2772 3150 2772 3378
Q 2772 3750 2511 3984
Q 2250 4219 1831 4219
Q 1534 4219 1204 4116
Q 875 4013 500 3803
L 500 4441
Q 881 4594 1212 4672
Q 1544 4750 1819 4750
Q 2544 4750 2975 4387
Q 3406 4025 3406 3419
Q 3406 3131 3298 2873
Q 3191 2616 2906 2266
Q 2828 2175 2409 1742
Q 1991 1309 1228 531
z
" transform="scale(0.015625)"/>
        <path id="DejaVuSans-30" d="M 2034 4250
Q 1547 4250 1301 3770
Q 1056 3291 1056 2328
Q 1056 1369 1301 889
Q 1547 409 2034 409
Q 2525 409 2770 889
Q 3016 1369 3016 2328
Q 3016 3291 2770 3770
Q 2525 4250 2034 4250
z
M 2034 4750
Q 2819 4750 3233 4129
Q 3647 3509 3647 2328
Q 3647 1150 3233 529
Q 2819 -91 2034 -91
Q 1250 -91 836 529
Q 422 1150 422 2328
Q 422 3509 836 4129
Q 1250 4750 2034 4750
z
" transform="scale(0.015625)"/>
        <path id="DejaVuSans-31" d="M 794 531
L 1825 531
L 1825 4091
L 703 3866
L 703 4441
L 1819 4666
L 2450 4666
L 2450 531
L 3481 531
L 3481 0
L 794 0
L 794 531
z
" transform="scale(0.015625)"/>
       </defs>
       <use xlink:href="#DejaVuSans-32"/>
       <use xlink:href="#DejaVuSans-30" transform="translate(63.623047 0)"/>
       <use xlink:href="#DejaVuSans-31" transform="translate(127.246094 0)"/>
       <use xlink:href="#DejaVuSans-30" transform="translate(190.869141 0)"/>
      </g>
     </g>
    </g>
    <g id="xtick_2">
     <g id="line2d_2">
      <g>
       <use xlink:href="#m8f87e7e2e9" x="142.669497" y="314.059375" style="fill: #333333; stroke: #333333; stroke-width: 0.8"/>
      </g>
     </g>
     <g id="text_2">
      <!-- 2012 -->
      <g style="fill: #333333" transform="translate(129.944497 328.157812) scale(0.1 -0.1)">
       <use xlink:href="#DejaVuSans-32"/>
       <use xlink:href="#DejaVuSans-30" transform="translate(63.623047 0)"/>
       <use xlink:href="#DejaVuSans-31" transform="translate(127.246094 0)"/>
       <use xlink:href="#DejaVuSans-32" transform="translate(190.869141 0)"/>
      </g>
     </g>
    </g>
    <g id="xtick_3">
     <g id="line2d_3">
      <g>
       <use xlink:href="#m8f87e7e2e9" x="219.968198" y="314.059375" style="fill: #333333; stroke: #333333; stroke-width: 0.8"/>
      </g>
     </g>
     <g id="text_3">
      <!-- 2014 -->
      <g style="fill: #333333" transform="translate(207.243198 328.157812) scale(0.1 -0.1)">
       <defs>
        <path id="DejaVuSans-34" d="M 2419 4116
L 825 1625
L 2419 1625
L 2419 4116
z
M 2253 4666
L 3047 4666
L 3047 1625
L 3713 1625
L 3713 1100
L 3047 1100
L 3047 0
L 2419 0
L 2419 1100
L 313 1100
L 313 1709
L 2253 4666
z
" transform="scale(0.015625)"/>
       </defs>
       <use xlink:href="#DejaVuSans-32"/>
       <use xlink:href="#DejaVuSans-30" transform="translate(63.623047 0)"/>
       <use xlink:href="#DejaVuSans-31" transform="translate(127.246094 0)"/>
       <use xlink:href="#DejaVuSans-34" transform="translate(190.869141 0)"/>
      </g>
     </g>
    </g>
    <g id="xtick_4">
     <g id="line2d_4">
      <g>
       <use xlink:href="#m8f87e7e2e9" x="297.266899" y="314.059375" style="fill: #333333; stroke: #333333; stroke-width: 0.8"/>
      </g>
     </g>
     <g id="text_4">
      <!-- 2016 -->
      <g style="fill: #333333" transform="translate(284.541899 328.157812) scale(0.1 -0.1)">
       <defs>
        <path id="DejaVuSans-36" d="M 2113 2584
Q 1688 2584 1439 2293
Q 1191 2003 1191 1497
Q 1191 994 1439 701
Q 1688 409 2113 409
Q 2538 409 2786 701
Q 3034 994 3034 1497
Q 3034 2003 2786 2293
Q 2538 2584 2113 2584
z
M 3366 4563
L 3366 3988
Q 3128 4100 2886 4159
Q 2644 4219 2406 4219
Q 1781 4219 1451 3797
Q 1122 3375 1075 2522
Q 1259 2794 1537 2939
Q 1816 3084 2150 3084
Q 2853 3084 3261 2657
Q 3669 2231 3669 1497
Q 3669 778 3244 343
Q 2819 -91 2113 -91
Q 1303 -91 875 529
Q 447 1150 447 2328
Q 447 3434 972 4092
Q 1497 4750 2381 4750
Q 2619 4750 2861 4703
Q 3103 4656 3366 4563
z
" transform="scale(0.015625)"/>
       </defs>
       <use xlink:href="#DejaVuSans-32"/>
       <use xlink:href="#DejaVuSans-30" transform="translate(63.623047 0)"/>
       <use xlink:href="#DejaVuSans-31" transform="translate(127.246094 0)"/>
       <use xlink:href="#DejaVuSans-36" transform="translate(190.869141 0)"/>
      </g>
     </g>
    </g>
    <g id="xtick_5">
     <g id="line2d_5">
      <g>
       <use xlink:href="#m8f87e7e2e9" x="374.565601" y="314.059375" style="fill: #333333; stroke: #333333; stroke-width: 0.8"/>
      </g>
     </g>
     <g id="text_5">
      <!-- 2018 -->
      <g style="fill: #333333" transform="translate(361.840601 328.157812) scale(0.1 -0.1)">
       <defs>
        <path id="DejaVuSans-38" d="M 2034 2216
Q 1584 2216 1326 1975
Q 1069 1734 1069 1313
Q 1069 891 1326 650
Q 1584 409 2034 409
Q 2484 409 2743 651
Q 3003 894 3003 1313
Q 3003 1734 2745 1975
Q 2488 2216 2034 2216
z
M 1403 2484
Q 997 2584 770 2862
Q 544 3141 544 3541
Q 544 4100 942 4425
Q 1341 4750 2034 4750
Q 2731 4750 3128 4425
Q 3525 4100 3525 3541
Q 3525 3141 3298 2862
Q 3072 2584 2669 2484
Q 3125 2378 3379 2068
Q 3634 1759 3634 1313
Q 3634 634 3220 271
Q 2806 -91 2034 -91
Q 1263 -91 848 271
Q 434 634 434 1313
Q 434 1759 690 2068
Q 947 2378 1403 2484
z
M 1172 3481
Q 1172 3119 1398 2916
Q 1625 2713 2034 2713
Q 2441 2713 2670 2916
Q 2900 3119 2900 3481
Q 2900 3844 2670 4047
Q 2441 4250 2034 4250
Q 1625 4250 1398 4047
Q 1172 3844 1172 3481
z
" transform="scale(0.015625)"/>
       </defs>
       <use xlink:href="#DejaVuSans-32"/>
       <use xlink:href="#DejaVuSans-30" transform="translate(63.623047 0)"/>
       <use xlink:href="#DejaVuSans-31" transform="translate(127.246094 0)"/>
       <use xlink:href="#DejaVuSans-38" transform="translate(190.869141 0)"/>
      </g>
     </g>
    </g>
    <g id="xtick_6">
     <g id="line2d_6">
      <g>
       <use xlink:href="#m8f87e7e2e9" x="451.864302" y="314.059375" style="fill: #333333; stroke: #333333; stroke-width: 0.8"/>
      </g>
     </g>
     <g id="text_6">
      <!-- 2020 -->
      <g style="fill: #333333" transform="translate(439.139302 328.157812) scale(0.1 -0.1)">
       <use xlink:href="#DejaVuSans-32"/>
       <use xlink:href="#DejaVuSans-30" transform="translate(63.623047 0)"/>
       <use xlink:href="#DejaVuSans-32" transform="translate(127.246094 0)"/>
       <use xlink:href="#DejaVuSans-30" transform="translate(190.869141 0)"/>
      </g>
     </g>
    </g>
    <g id="xtick_7">
     <g id="line2d_7">
      <g>
       <use xlink:href="#m8f87e7e2e9" x="529.163003" y="314.059375" style="fill: #333333; stroke: #333333; stroke-width: 0.8"/>
      </g>
     </g>
     <g id="text_7">
      <!-- 2022 -->
      <g style="fill: #333333" transform="translate(516.438003 328.157812) scale(0.1 -0.1)">
       <use xlink:href="#DejaVuSans-32"/>
       <use xlink:href="#DejaVuSans-30" transform="translate(63.623047 0)"/>
       <use xlink:href="#DejaVuSans-32" transform="translate(127.246094 0)"/>
       <use xlink:href="#DejaVuSans-32" transform="translate(190.869141 0)"/>
      </g>
     </g>
    </g>
    <g id="xtick_8">
     <g id="line2d_8">
      <g>
       <use xlink:href="#m8f87e7e2e9" x="606.461705" y="314.059375" style="fill: #333333; stroke: #333333; stroke-width: 0.8"/>
      </g>
     </g>
     <g id="text_8">
      <!-- 2024 -->
      <g style="fill: #333333" transform="translate(593.736705 328.157812) scale(0.1 -0.1)">
       <use xlink:href="#DejaVuSans-32"/>
       <use xlink:href="#DejaVuSans-30" transform="translate(63.623047 0)"/>
       <use xlink:href="#DejaVuSans-32" transform="translate(127.246094 0)"/>
       <use xlink:href="#DejaVuSans-34" transform="translate(190.869141 0)"/>
      </g>
     </g>
    </g>
    <g id="text_9">
     <!-- Год -->
     <g transform="translate(325.394063 342.595781) scale(0.11 -0.11)">
      <defs>
       <path id="DejaVuSans-413" d="M 628 0
L 628 4666
L 3531 4666
L 3531 4134
L 1259 4134
L 1259 0
L 628 0
z
" transform="scale(0.015625)"/>
       <path id="DejaVuSans-43e" d="M 1959 3097
Q 1497 3097 1228 2736
Q 959 2375 959 1747
Q 959 1119 1226 758
Q 1494 397 1959 397
Q 2419 397 2687 759
Q 2956 1122 2956 1747
Q 2956 2369 2687 2733
Q 2419 3097 1959 3097
z
M 1959 3584
Q 2709 3584 3137 3096
Q 3566 2609 3566 1747
Q 3566 888 3137 398
Q 2709 -91 1959 -91
Q 1206 -91 779 398
Q 353 888 353 1747
Q 353 2609 779 3096
Q 1206 3584 1959 3584
z
" transform="scale(0.015625)"/>
       <path id="DejaVuSans-434" d="M 1384 459
L 3053 459
L 3053 3041
L 1844 3041
L 1844 2603
Q 1844 1316 1475 628
L 1384 459
z
M 550 459
Q 834 584 959 850
Q 1266 1509 1266 2838
L 1266 3500
L 3631 3500
L 3631 459
L 4091 459
L 4091 -884
L 3631 -884
L 3631 0
L 794 0
L 794 -884
L 334 -884
L 334 459
L 550 459
z
" transform="scale(0.015625)"/>
      </defs>
      <use xlink:href="#DejaVuSans-413"/>
      <use xlink:href="#DejaVuSans-43e" transform="translate(60.986328 0)"/>
      <use xlink:href="#DejaVuSans-434" transform="translate(122.167969 0)"/>
     </g>
    </g>
   </g>
   <g id="matplotlib.axis_2">
    <g id="ytick_1">
     <g id="line2d_9">
      <path d="M 38.31625 291.005374
L 633.51625 291.005374
" clip-path="url(#p96ace0858b)" style="fill: none; stroke: #d9d9d9; stroke-opacity: 0.8; stroke-width: 0.7; stroke-linecap: square"/>
     </g>
     <g id="line2d_10">
      <defs>
       <path id="m0710b405eb" d="M 0 0
L -3 0
" style="stroke: #333333; stroke-width: 0.8"/>
      </defs>
      <g>
       <use xlink:href="#m0710b405eb" x="38.31625" y="291.005374" style="fill: #333333; stroke: #333333; stroke-width: 0.8"/>
      </g>
     </g>
     <g id="text_10">
      <!-- -2 -->
      <g style="fill: #333333" transform="translate(21.845938 294.804592) scale(0.1 -0.1)">
       <defs>
        <path id="DejaVuSans-2d" d="M 313 2009
L 1997 2009
L 1997 1497
L 313 1497
L 313 2009
z
" transform="scale(0.015625)"/>
       </defs>
       <use xlink:href="#DejaVuSans-2d"/>
       <use xlink:href="#DejaVuSans-32" transform="translate(36.083984 0)"/>
      </g>
     </g>
    </g>
    <g id="ytick_2">
     <g id="line2d_11">
      <path d="M 38.31625 230.710438
L 633.51625 230.710438
" clip-path="url(#p96ace0858b)" style="fill: none; stroke: #d9d9d9; stroke-opacity: 0.8; stroke-width: 0.7; stroke-linecap: square"/>
     </g>
     <g id="line2d_12">
      <g>
       <use xlink:href="#m0710b405eb" x="38.31625" y="230.710438" style="fill: #333333; stroke: #333333; stroke-width: 0.8"/>
      </g>
     </g>
     <g id="text_11">
      <!-- -1 -->
      <g style="fill: #333333" transform="translate(21.845938 234.509656) scale(0.1 -0.1)">
       <use xlink:href="#DejaVuSans-2d"/>
       <use xlink:href="#DejaVuSans-31" transform="translate(36.083984 0)"/>
      </g>
     </g>
    </g>
    <g id="ytick_3">
     <g id="line2d_13">
      <path d="M 38.31625 170.415502
L 633.51625 170.415502
" clip-path="url(#p96ace0858b)" style="fill: none; stroke: #d9d9d9; stroke-opacity: 0.8; stroke-width: 0.7; stroke-linecap: square"/>
     </g>
     <g id="line2d_14">
      <g>
       <use xlink:href="#m0710b405eb" x="38.31625" y="170.415502" style="fill: #333333; stroke: #333333; stroke-width: 0.8"/>
      </g>
     </g>
     <g id="text_12">
      <!-- 0 -->
      <g style="fill: #333333" transform="translate(25.45375 174.21472) scale(0.1 -0.1)">
       <use xlink:href="#DejaVuSans-30"/>
      </g>
     </g>
    </g>
    <g id="ytick_4">
     <g id="line2d_15">
      <path d="M 38.31625 110.120565
L 633.51625 110.120565
" clip-path="url(#p96ace0858b)" style="fill: none; stroke: #d9d9d9; stroke-opacity: 0.8; stroke-width: 0.7; stroke-linecap: square"/>
     </g>
     <g id="line2d_16">
      <g>
       <use xlink:href="#m0710b405eb" x="38.31625" y="110.120565" style="fill: #333333; stroke: #333333; stroke-width: 0.8"/>
      </g>
     </g>
     <g id="text_13">
      <!-- 1 -->
      <g style="fill: #333333" transform="translate(25.45375 113.919784) scale(0.1 -0.1)">
       <use xlink:href="#DejaVuSans-31"/>
      </g>
     </g>
    </g>
    <g id="ytick_5">
     <g id="line2d_17">
      <path d="M 38.31625 49.825629
L 633.51625 49.825629
" clip-path="url(#p96ace0858b)" style="fill: none; stroke: #d9d9d9; stroke-opacity: 0.8; stroke-width: 0.7; stroke-linecap: square"/>
     </g>
     <g id="line2d_18">
      <g>
       <use xlink:href="#m0710b405eb" x="38.31625" y="49.825629" style="fill: #333333; stroke: #333333; stroke-width: 0.8"/>
      </g>
     </g>
     <g id="text_14">
      <!-- 2 -->
      <g style="fill: #333333" transform="translate(25.45375 53.624848) scale(0.1 -0.1)">
       <use xlink:href="#DejaVuSans-32"/>
      </g>
     </g>
    </g>
    <g id="text_15">
     <!-- Коэффициент -->
     <g transform="translate(15.558281 212.448984) rotate(-90) scale(0.11 -0.11)">
      <defs>
       <path id="DejaVuSans-41a" d="M 628 4666
L 1259 4666
L 1259 2359
L 3516 4666
L 4325 4666
L 2522 2822
L 4419 0
L 3731 0
L 2113 2403
L 1259 1531
L 1259 0
L 628 0
L 628 4666
z
" transform="scale(0.015625)"/>
       <path id="DejaVuSans-44d" d="M 353 666
Q 847 397 1338 397
Q 1797 397 2125 664
Q 2453 931 2513 1613
L 738 1613
L 738 2072
L 2494 2072
Q 2456 2400 2207 2748
Q 1959 3097 1338 3097
Q 856 3097 353 2828
L 353 3366
Q 844 3584 1363 3584
Q 2181 3584 2651 3089
Q 3122 2594 3122 1747
Q 3122 903 2664 406
Q 2206 -91 1403 -91
Q 813 -91 353 134
L 353 666
z
" transform="scale(0.015625)"/>
       <path id="DejaVuSans-444" d="M 947 1747
Q 947 1013 1173 702
Q 1400 391 1784 391
Q 2091 391 2447 916
L 2447 2578
Q 2091 3103 1784 3103
Q 1400 3103 1173 2792
Q 947 2481 947 1747
z
M 2447 -1331
L 2447 447
Q 2269 153 2064 31
Q 1859 -91 1600 -91
Q 1078 -91 714 392
Q 350 875 350 1734
Q 350 2594 714 3089
Q 1078 3584 1600 3584
Q 1859 3584 2064 3465
Q 2269 3347 2447 3053
L 2447 4666
L 3025 4666
L 3025 3053
Q 3203 3347 3408 3465
Q 3613 3584 3872 3584
Q 4394 3584 4758 3089
Q 5122 2594 5122 1734
Q 5122 875 4758 392
Q 4394 -91 3872 -91
Q 3613 -91 3408 31
Q 3203 153 3025 447
L 3025 -1331
L 2447 -1331
z
M 4525 1747
Q 4525 2481 4298 2792
Q 4072 3103 3688 3103
Q 3381 3103 3025 2578
L 3025 916
Q 3381 391 3688 391
Q 4072 391 4298 702
Q 4525 1013 4525 1747
z
" transform="scale(0.015625)"/>
       <path id="DejaVuSans-438" d="M 3578 3500
L 3578 0
L 3006 0
L 3006 2809
L 1319 0
L 581 0
L 581 3500
L 1153 3500
L 1153 697
L 2838 3500
L 3578 3500
z
" transform="scale(0.015625)"/>
       <path id="DejaVuSans-446" d="M 3603 0
L 581 0
L 581 3500
L 1159 3500
L 1159 459
L 3025 459
L 3025 3500
L 3603 3500
L 3603 459
L 4063 459
L 4063 -884
L 3603 -884
L 3603 0
z
" transform="scale(0.015625)"/>
       <path id="DejaVuSans-435" d="M 3597 1894
L 3597 1613
L 953 1613
Q 991 1019 1311 708
Q 1631 397 2203 397
Q 2534 397 2845 478
Q 3156 559 3463 722
L 3463 178
Q 3153 47 2828 -22
Q 2503 -91 2169 -91
Q 1331 -91 842 396
Q 353 884 353 1716
Q 353 2575 817 3079
Q 1281 3584 2069 3584
Q 2775 3584 3186 3129
Q 3597 2675 3597 1894
z
M 3022 2063
Q 3016 2534 2758 2815
Q 2500 3097 2075 3097
Q 1594 3097 1305 2825
Q 1016 2553 972 2059
L 3022 2063
z
" transform="scale(0.015625)"/>
       <path id="DejaVuSans-43d" d="M 581 3500
L 1159 3500
L 1159 2072
L 3025 2072
L 3025 3500
L 3603 3500
L 3603 0
L 3025 0
L 3025 1613
L 1159 1613
L 1159 0
L 581 0
L 581 3500
z
" transform="scale(0.015625)"/>
       <path id="DejaVuSans-442" d="M 188 3500
L 3541 3500
L 3541 3041
L 2147 3041
L 2147 0
L 1581 0
L 1581 3041
L 188 3041
L 188 3500
z
" transform="scale(0.015625)"/>
      </defs>
      <use xlink:href="#DejaVuSans-41a"/>
      <use xlink:href="#DejaVuSans-43e" transform="translate(70.996094 0)"/>
      <use xlink:href="#DejaVuSans-44d" transform="translate(132.177734 0)"/>
      <use xlink:href="#DejaVuSans-444" transform="translate(187.060547 0)"/>
      <use xlink:href="#DejaVuSans-444" transform="translate(272.558594 0)"/>
      <use xlink:href="#DejaVuSans-438" transform="translate(358.056641 0)"/>
      <use xlink:href="#DejaVuSans-446" transform="translate(423.046875 0)"/>
      <use xlink:href="#DejaVuSans-438" transform="translate(491.113281 0)"/>
      <use xlink:href="#DejaVuSans-435" transform="translate(556.103516 0)"/>
      <use xlink:href="#DejaVuSans-43d" transform="translate(617.626953 0)"/>
      <use xlink:href="#DejaVuSans-442" transform="translate(683.007812 0)"/>
     </g>
    </g>
   </g>
   <g id="LineCollection_1">
    <path d="M 65.370795 151.771919
L 65.370795 81.733154
" clip-path="url(#p96ace0858b)" style="fill: none; stroke: #666666"/>
    <path d="M 104.020146 111.868614
L 104.020146 42.243011
" clip-path="url(#p96ace0858b)" style="fill: none; stroke: #666666"/>
    <path d="M 142.669497 161.763111
L 142.669497 100.524359
" clip-path="url(#p96ace0858b)" style="fill: none; stroke: #666666"/>
    <path d="M 181.318847 175.071178
L 181.318847 118.937621
" clip-path="url(#p96ace0858b)" style="fill: none; stroke: #666666"/>
    <path d="M 219.968198 170.415502
L 219.968198 170.415502
" clip-path="url(#p96ace0858b)" style="fill: none; stroke: #666666"/>
    <path d="M 258.617549 198.315046
L 258.617549 140.893024
" clip-path="url(#p96ace0858b)" style="fill: none; stroke: #666666"/>
    <path d="M 297.266899 217.582557
L 297.266899 164.73543
" clip-path="url(#p96ace0858b)" style="fill: none; stroke: #666666"/>
    <path d="M 335.91625 231.047287
L 335.91625 174.337195
" clip-path="url(#p96ace0858b)" style="fill: none; stroke: #666666"/>
    <path d="M 374.565601 218.59902
L 374.565601 158.647195
" clip-path="url(#p96ace0858b)" style="fill: none; stroke: #666666"/>
    <path d="M 413.214951 259.528922
L 413.214951 197.141117
" clip-path="url(#p96ace0858b)" style="fill: none; stroke: #666666"/>
    <path d="M 451.864302 244.990314
L 451.864302 179.682072
" clip-path="url(#p96ace0858b)" style="fill: none; stroke: #666666"/>
    <path d="M 490.513653 261.013485
L 490.513653 193.524375
" clip-path="url(#p96ace0858b)" style="fill: none; stroke: #666666"/>
    <path d="M 529.163003 263.26012
L 529.163003 189.909574
" clip-path="url(#p96ace0858b)" style="fill: none; stroke: #666666"/>
    <path d="M 567.812354 277.778651
L 567.812354 201.986913
" clip-path="url(#p96ace0858b)" style="fill: none; stroke: #666666"/>
    <path d="M 606.461705 301.115739
L 606.461705 222.937615
" clip-path="url(#p96ace0858b)" style="fill: none; stroke: #666666"/>
   </g>
   <g id="line2d_19">
    <defs>
     <path id="m56b1a7b3ee" d="M 3 0
L -3 -0
" style="stroke: #666666"/>
    </defs>
    <g clip-path="url(#p96ace0858b)">
     <use xlink:href="#m56b1a7b3ee" x="65.370795" y="151.771919" style="fill: #1f4e79; stroke: #666666"/>
     <use xlink:href="#m56b1a7b3ee" x="104.020146" y="111.868614" style="fill: #1f4e79; stroke: #666666"/>
     <use xlink:href="#m56b1a7b3ee" x="142.669497" y="161.763111" style="fill: #1f4e79; stroke: #666666"/>
     <use xlink:href="#m56b1a7b3ee" x="181.318847" y="175.071178" style="fill: #1f4e79; stroke: #666666"/>
     <use xlink:href="#m56b1a7b3ee" x="219.968198" y="170.415502" style="fill: #1f4e79; stroke: #666666"/>
     <use xlink:href="#m56b1a7b3ee" x="258.617549" y="198.315046" style="fill: #1f4e79; stroke: #666666"/>
     <use xlink:href="#m56b1a7b3ee" x="297.266899" y="217.582557" style="fill: #1f4e79; stroke: #666666"/>
     <use xlink:href="#m56b1a7b3ee" x="335.91625" y="231.047287" style="fill: #1f4e79; stroke: #666666"/>
     <use xlink:href="#m56b1a7b3ee" x="374.565601" y="218.59902" style="fill: #1f4e79; stroke: #666666"/>
     <use xlink:href="#m56b1a7b3ee" x="413.214951" y="259.528922" style="fill: #1f4e79; stroke: #666666"/>
     <use xlink:href="#m56b1a7b3ee" x="451.864302" y="244.990314" style="fill: #1f4e79; stroke: #666666"/>
     <use xlink:href="#m56b1a7b3ee" x="490.513653" y="261.013485" style="fill: #1f4e79; stroke: #666666"/>
     <use xlink:href="#m56b1a7b3ee" x="529.163003" y="263.26012" style="fill: #1f4e79; stroke: #666666"/>
     <use xlink:href="#m56b1a7b3ee" x="567.812354" y="277.778651" style="fill: #1f4e79; stroke: #666666"/>
     <use xlink:href="#m56b1a7b3ee" x="606.461705" y="301.115739" style="fill: #1f4e79; stroke: #666666"/>
    </g>
   </g>
   <g id="line2d_20">
    <g clip-path="url(#p96ace0858b)">
     <use xlink:href="#m56b1a7b3ee" x="65.370795" y="81.733154" style="fill: #1f4e79; stroke: #666666"/>
     <use xlink:href="#m56b1a7b3ee" x="104.020146" y="42.243011" style="fill: #1f4e79; stroke: #666666"/>
     <use xlink:href="#m56b1a7b3ee" x="142.669497" y="100.524359" style="fill: #1f4e79; stroke: #666666"/>
     <use xlink:href="#m56b1a7b3ee" x="181.318847" y="118.937621" style="fill: #1f4e79; stroke: #666666"/>
     <use xlink:href="#m56b1a7b3ee" x="219.968198" y="170.415502" style="fill: #1f4e79; stroke: #666666"/>
     <use xlink:href="#m56b1a7b3ee" x="258.617549" y="140.893024" style="fill: #1f4e79; stroke: #666666"/>
     <use xlink:href="#m56b1a7b3ee" x="297.266899" y="164.73543" style="fill: #1f4e79; stroke: #666666"/>
     <use xlink:href="#m56b1a7b3ee" x="335.91625" y="174.337195" style="fill: #1f4e79; stroke: #666666"/>
     <use xlink:href="#m56b1a7b3ee" x="374.565601" y="158.647195" style="fill: #1f4e79; stroke: #666666"/>
     <use xlink:href="#m56b1a7b3ee" x="413.214951" y="197.141117" style="fill: #1f4e79; stroke: #666666"/>
     <use xlink:href="#m56b1a7b3ee" x="451.864302" y="179.682072" style="fill: #1f4e79; stroke: #666666"/>
     <use xlink:href="#m56b1a7b3ee" x="490.513653" y="193.524375" style="fill: #1f4e79; stroke: #666666"/>
     <use xlink:href="#m56b1a7b3ee" x="529.163003" y="189.909574" style="fill: #1f4e79; stroke: #666666"/>
     <use xlink:href="#m56b1a7b3ee" x="567.812354" y="201.986913" style="fill: #1f4e79; stroke: #666666"/>
     <use xlink:href="#m56b1a7b3ee" x="606.461705" y="222.937615" style="fill: #1f4e79; stroke: #666666"/>
    </g>
   </g>
   <g id="line2d_21">
    <path d="M 38.31625 170.415502
L 633.51625 170.415502
" clip-path="url(#p96ace0858b)" style="fill: none; stroke-dasharray: 3.7,1.6; stroke-dashoffset: 0; stroke: #555555"/>
   </g>
   <g id="line2d_22">
    <path d="M 258.617549 314.059375
L 258.617549 29.299375
" clip-path="url(#p96ace0858b)" style="fill: none; stroke-dasharray: 3.7,1.6; stroke-dashoffset: 0; stroke: #666666; stroke-opacity: 0.85"/>
   </g>
   <g id="line2d_23">
    <path d="M 297.266899 314.059375
L 297.266899 29.299375
" clip-path="url(#p96ace0858b)" style="fill: none; stroke-dasharray: 1.2,1.98; stroke-dashoffset: 0; stroke: #666666; stroke-opacity: 0.9; stroke-width: 1.2"/>
   </g>
   <g id="line2d_24">
    <path d="M 65.370795 116.752536
L 104.020146 77.055813
L 142.669497 131.143735
L 181.318847 147.0044
L 219.968198 170.415502
L 258.617549 169.604035
L 297.266899 191.158993
L 335.91625 202.692241
L 374.565601 188.623107
L 413.214951 228.335019
L 451.864302 212.336193
L 490.513653 227.26893
L 529.163003 226.584847
L 567.812354 239.882782
L 606.461705 262.026677
" clip-path="url(#p96ace0858b)" style="fill: none; stroke: #1f4e79; stroke-width: 1.8; stroke-linecap: square"/>
    <defs>
     <path id="mc45f46b944" d="M 0 2.5
C 0.663008 2.5 1.29895 2.236584 1.767767 1.767767
C 2.236584 1.29895 2.5 0.663008 2.5 0
C 2.5 -0.663008 2.236584 -1.29895 1.767767 -1.767767
C 1.29895 -2.236584 0.663008 -2.5 0 -2.5
C -0.663008 -2.5 -1.29895 -2.236584 -1.767767 -1.767767
C -2.236584 -1.29895 -2.5 -0.663008 -2.5 0
C -2.5 0.663008 -2.236584 1.29895 -1.767767 1.767767
C -1.29895 2.236584 -0.663008 2.5 0 2.5
z
" style="stroke: #1f4e79"/>
    </defs>
    <g clip-path="url(#p96ace0858b)">
     <use xlink:href="#mc45f46b944" x="65.370795" y="116.752536" style="fill: #1f4e79; stroke: #1f4e79"/>
     <use xlink:href="#mc45f46b944" x="104.020146" y="77.055813" style="fill: #1f4e79; stroke: #1f4e79"/>
     <use xlink:href="#mc45f46b944" x="142.669497" y="131.143735" style="fill: #1f4e79; stroke: #1f4e79"/>
     <use xlink:href="#mc45f46b944" x="181.318847" y="147.0044" style="fill: #1f4e79; stroke: #1f4e79"/>
     <use xlink:href="#mc45f46b944" x="219.968198" y="170.415502" style="fill: #1f4e79; stroke: #1f4e79"/>
     <use xlink:href="#mc45f46b944" x="258.617549" y="169.604035" style="fill: #1f4e79; stroke: #1f4e79"/>
     <use xlink:href="#mc45f46b944" x="297.266899" y="191.158993" style="fill: #1f4e79; stroke: #1f4e79"/>
     <use xlink:href="#mc45f46b944" x="335.91625" y="202.692241" style="fill: #1f4e79; stroke: #1f4e79"/>
     <use xlink:href="#mc45f46b944" x="374.565601" y="188.623107" style="fill: #1f4e79; stroke: #1f4e79"/>
     <use xlink:href="#mc45f46b944" x="413.214951" y="228.335019" style="fill: #1f4e79; stroke: #1f4e79"/>
     <use xlink:href="#mc45f46b944" x="451.864302" y="212.336193" style="fill: #1f4e79; stroke: #1f4e79"/>
     <use xlink:href="#mc45f46b944" x="490.513653" y="227.26893" style="fill: #1f4e79; stroke: #1f4e79"/>
     <use xlink:href="#mc45f46b944" x="529.163003" y="226.584847" style="fill: #1f4e79; stroke: #1f4e79"/>
     <use xlink:href="#mc45f46b944" x="567.812354" y="239.882782" style="fill: #1f4e79; stroke: #1f4e79"/>
     <use xlink:href="#mc45f46b944" x="606.461705" y="262.026677" style="fill: #1f4e79; stroke: #1f4e79"/>
    </g>
   </g>
   <g id="patch_3">
    <path d="M 38.31625 314.059375
L 38.31625 29.299375
" style="fill: none; stroke: #333333; stroke-width: 0.8; stroke-linejoin: miter; stroke-linecap: square"/>
   </g>
   <g id="patch_4">
    <path d="M 38.31625 314.059375
L 633.51625 314.059375
" style="fill: none; stroke: #333333; stroke-width: 0.8; stroke-linejoin: miter; stroke-linecap: square"/>
   </g>
   <g id="text_16">
    <!-- Событийный анализ: группа высокой экспозиции относительно 2014 года, HS 850511: постоянные магниты -->
    <g transform="translate(38.31625 17.299375) scale(0.13 -0.13)">
     <defs>
      <path id="DejaVuSans-421" d="M 4122 4306
L 4122 3641
Q 3803 3938 3442 4084
Q 3081 4231 2675 4231
Q 1875 4231 1450 3742
Q 1025 3253 1025 2328
Q 1025 1406 1450 917
Q 1875 428 2675 428
Q 3081 428 3442 575
Q 3803 722 4122 1019
L 4122 359
Q 3791 134 3420 21
Q 3050 -91 2638 -91
Q 1578 -91 968 557
Q 359 1206 359 2328
Q 359 3453 968 4101
Q 1578 4750 2638 4750
Q 3056 4750 3426 4639
Q 3797 4528 4122 4306
z
" transform="scale(0.015625)"/>
      <path id="DejaVuSans-431" d="M 1991 3584
Q 2741 3584 3169 3096
Q 3597 2609 3597 1747
Q 3597 888 3169 398
Q 2741 -91 1991 -91
Q 1238 -91 822 384
Q 406 859 384 1747
L 366 2463
Q 350 2834 350 2963
Q 350 3463 531 3831
Q 816 4409 1308 4659
Q 1800 4909 2625 4916
Q 3006 4919 3175 4972
L 3334 4516
Q 3181 4453 3041 4450
L 2259 4397
Q 1866 4369 1628 4231
Q 1006 3866 947 3388
L 925 3213
Q 1331 3584 1991 3584
z
M 1991 3097
Q 1528 3097 1259 2736
Q 991 2375 991 1747
Q 991 1119 1258 758
Q 1525 397 1991 397
Q 2450 397 2719 759
Q 2988 1122 2988 1747
Q 2988 2369 2719 2733
Q 2450 3097 1991 3097
z
" transform="scale(0.015625)"/>
      <path id="DejaVuSans-44b" d="M 3907 3500
L 4482 3500
L 4482 0
L 3907 0
L 3907 3500
z
M 4195 3584
L 4195 3584
z
M 2781 1038
Q 2781 1319 2576 1466
Q 2372 1613 1978 1613
L 1159 1613
L 1159 459
L 1978 459
Q 2372 459 2576 607
Q 2781 756 2781 1038
z
M 581 3500
L 1159 3500
L 1159 2072
L 2003 2072
Q 2672 2072 3033 1817
Q 3394 1563 3394 1038
Q 3394 513 3033 256
Q 2672 0 2003 0
L 581 0
L 581 3500
z
" transform="scale(0.015625)"/>
      <path id="DejaVuSans-439" d="M 3578 3500
L 3578 0
L 3006 0
L 3006 2809
L 1319 0
L 581 0
L 581 3500
L 1153 3500
L 1153 697
L 2838 3500
L 3578 3500
z
M 1102 4833
L 1471 4833
Q 1505 4599 1656 4481
Q 1808 4364 2080 4364
Q 2349 4364 2499 4480
Q 2649 4596 2689 4833
L 3058 4833
Q 3027 4386 2780 4161
Q 2533 3936 2080 3936
Q 1627 3936 1380 4161
Q 1133 4386 1102 4833
z
" transform="scale(0.015625)"/>
      <path id="DejaVuSans-20" transform="scale(0.015625)"/>
      <path id="DejaVuSans-430" d="M 2194 1759
Q 1497 1759 1228 1600
Q 959 1441 959 1056
Q 959 750 1161 570
Q 1363 391 1709 391
Q 2188 391 2477 730
Q 2766 1069 2766 1631
L 2766 1759
L 2194 1759
z
M 3341 1997
L 3341 0
L 2766 0
L 2766 531
Q 2569 213 2275 61
Q 1981 -91 1556 -91
Q 1019 -91 701 211
Q 384 513 384 1019
Q 384 1609 779 1909
Q 1175 2209 1959 2209
L 2766 2209
L 2766 2266
Q 2766 2663 2505 2880
Q 2244 3097 1772 3097
Q 1472 3097 1187 3025
Q 903 2953 641 2809
L 641 3341
Q 956 3463 1253 3523
Q 1550 3584 1831 3584
Q 2591 3584 2966 3190
Q 3341 2797 3341 1997
z
" transform="scale(0.015625)"/>
      <path id="DejaVuSans-43b" d="M 238 0
L 238 478
Q 806 566 981 959
Q 1194 1513 1194 2928
L 1194 3500
L 3559 3500
L 3559 0
L 2984 0
L 2984 3041
L 1769 3041
L 1769 2694
Q 1769 1344 1494 738
Q 1200 91 238 0
z
" transform="scale(0.015625)"/>
      <path id="DejaVuSans-437" d="M 2206 1888
Q 2594 1813 2809 1584
Q 3025 1356 3025 1019
Q 3025 478 2622 193
Q 2219 -91 1475 -91
Q 1225 -91 961 -47
Q 697 -3 416 84
L 416 619
Q 638 503 903 445
Q 1169 388 1459 388
Q 1931 388 2195 563
Q 2459 738 2459 1019
Q 2459 1294 2225 1461
Q 1991 1628 1563 1628
L 1100 1628
L 1100 2103
L 1584 2103
Q 1947 2103 2158 2242
Q 2369 2381 2369 2600
Q 2369 2800 2151 2944
Q 1934 3088 1563 3088
Q 1341 3088 1089 3047
Q 838 3006 534 2916
L 534 3438
Q 841 3513 1106 3550
Q 1372 3588 1609 3588
Q 2222 3588 2576 3342
Q 2931 3097 2931 2656
Q 2931 2366 2743 2164
Q 2556 1963 2206 1888
z
" transform="scale(0.015625)"/>
      <path id="DejaVuSans-3a" d="M 750 794
L 1409 794
L 1409 0
L 750 0
L 750 794
z
M 750 3309
L 1409 3309
L 1409 2516
L 750 2516
L 750 3309
z
" transform="scale(0.015625)"/>
      <path id="DejaVuSans-433" d="M 581 0
L 581 3500
L 3050 3500
L 3050 3041
L 1159 3041
L 1159 0
L 581 0
z
" transform="scale(0.015625)"/>
      <path id="DejaVuSans-440" d="M 1159 525
L 1159 -1331
L 581 -1331
L 581 3500
L 1159 3500
L 1159 2969
Q 1341 3281 1617 3432
Q 1894 3584 2278 3584
Q 2916 3584 3314 3078
Q 3713 2572 3713 1747
Q 3713 922 3314 415
Q 2916 -91 2278 -91
Q 1894 -91 1617 61
Q 1341 213 1159 525
z
M 3116 1747
Q 3116 2381 2855 2742
Q 2594 3103 2138 3103
Q 1681 3103 1420 2742
Q 1159 2381 1159 1747
Q 1159 1113 1420 752
Q 1681 391 2138 391
Q 2594 391 2855 752
Q 3116 1113 3116 1747
z
" transform="scale(0.015625)"/>
      <path id="DejaVuSans-443" d="M 2059 -325
Q 1816 -950 1584 -1140
Q 1353 -1331 966 -1331
L 506 -1331
L 506 -850
L 844 -850
Q 1081 -850 1212 -737
Q 1344 -625 1503 -206
L 1606 56
L 191 3500
L 800 3500
L 1894 763
L 2988 3500
L 3597 3500
L 2059 -325
z
" transform="scale(0.015625)"/>
      <path id="DejaVuSans-43f" d="M 3603 3500
L 3603 0
L 3025 0
L 3025 3041
L 1159 3041
L 1159 0
L 581 0
L 581 3500
L 3603 3500
z
" transform="scale(0.015625)"/>
      <path id="DejaVuSans-432" d="M 1156 1613
L 1156 459
L 1975 459
Q 2369 459 2575 607
Q 2781 756 2781 1038
Q 2781 1319 2575 1466
Q 2369 1613 1975 1613
L 1156 1613
z
M 1156 3041
L 1156 2072
L 1913 2072
Q 2238 2072 2444 2201
Q 2650 2331 2650 2563
Q 2650 2794 2444 2917
Q 2238 3041 1913 3041
L 1156 3041
z
M 581 3500
L 1950 3500
Q 2566 3500 2897 3275
Q 3228 3050 3228 2634
Q 3228 2313 3059 2123
Q 2891 1934 2559 1888
Q 2956 1813 3175 1575
Q 3394 1338 3394 981
Q 3394 513 3033 256
Q 2672 0 2003 0
L 581 0
L 581 3500
z
" transform="scale(0.015625)"/>
      <path id="DejaVuSans-441" d="M 3122 3366
L 3122 2828
Q 2878 2963 2633 3030
Q 2388 3097 2138 3097
Q 1578 3097 1268 2742
Q 959 2388 959 1747
Q 959 1106 1268 751
Q 1578 397 2138 397
Q 2388 397 2633 464
Q 2878 531 3122 666
L 3122 134
Q 2881 22 2623 -34
Q 2366 -91 2075 -91
Q 1284 -91 818 406
Q 353 903 353 1747
Q 353 2603 823 3093
Q 1294 3584 2113 3584
Q 2378 3584 2631 3529
Q 2884 3475 3122 3366
z
" transform="scale(0.015625)"/>
      <path id="DejaVuSans-43a" d="M 581 3500
L 1153 3500
L 1153 1856
L 2775 3500
L 3481 3500
L 2144 2147
L 3653 0
L 3009 0
L 1769 1766
L 1153 1141
L 1153 0
L 581 0
L 581 3500
z
" transform="scale(0.015625)"/>
      <path id="DejaVuSans-44c" d="M 2781 1038
Q 2781 1319 2576 1466
Q 2372 1613 1978 1613
L 1159 1613
L 1159 459
L 1978 459
Q 2372 459 2576 607
Q 2781 756 2781 1038
z
M 581 3500
L 1159 3500
L 1159 2072
L 2003 2072
Q 2672 2072 3033 1817
Q 3394 1563 3394 1038
Q 3394 513 3033 256
Q 2672 0 2003 0
L 581 0
L 581 3500
z
" transform="scale(0.015625)"/>
      <path id="DejaVuSans-2c" d="M 750 794
L 1409 794
L 1409 256
L 897 -744
L 494 -744
L 750 256
L 750 794
z
" transform="scale(0.015625)"/>
      <path id="DejaVuSans-48" d="M 628 4666
L 1259 4666
L 1259 2753
L 3553 2753
L 3553 4666
L 4184 4666
L 4184 0
L 3553 0
L 3553 2222
L 1259 2222
L 1259 0
L 628 0
L 628 4666
z
" transform="scale(0.015625)"/>
      <path id="DejaVuSans-53" d="M 3425 4513
L 3425 3897
Q 3066 4069 2747 4153
Q 2428 4238 2131 4238
Q 1616 4238 1336 4038
Q 1056 3838 1056 3469
Q 1056 3159 1242 3001
Q 1428 2844 1947 2747
L 2328 2669
Q 3034 2534 3370 2195
Q 3706 1856 3706 1288
Q 3706 609 3251 259
Q 2797 -91 1919 -91
Q 1588 -91 1214 -16
Q 841 59 441 206
L 441 856
Q 825 641 1194 531
Q 1563 422 1919 422
Q 2459 422 2753 634
Q 3047 847 3047 1241
Q 3047 1584 2836 1778
Q 2625 1972 2144 2069
L 1759 2144
Q 1053 2284 737 2584
Q 422 2884 422 3419
Q 422 4038 858 4394
Q 1294 4750 2059 4750
Q 2388 4750 2728 4690
Q 3069 4631 3425 4513
z
" transform="scale(0.015625)"/>
      <path id="DejaVuSans-35" d="M 691 4666
L 3169 4666
L 3169 4134
L 1269 4134
L 1269 2991
Q 1406 3038 1543 3061
Q 1681 3084 1819 3084
Q 2600 3084 3056 2656
Q 3513 2228 3513 1497
Q 3513 744 3044 326
Q 2575 -91 1722 -91
Q 1428 -91 1123 -41
Q 819 9 494 109
L 494 744
Q 775 591 1075 516
Q 1375 441 1709 441
Q 2250 441 2565 725
Q 2881 1009 2881 1497
Q 2881 1984 2565 2268
Q 2250 2553 1709 2553
Q 1456 2553 1204 2497
Q 953 2441 691 2322
L 691 4666
z
" transform="scale(0.015625)"/>
      <path id="DejaVuSans-44f" d="M 1181 2491
Q 1181 2231 1381 2084
Q 1581 1938 1953 1938
L 2728 1938
L 2728 3041
L 1953 3041
Q 1581 3041 1381 2897
Q 1181 2753 1181 2491
z
M 363 0
L 1431 1534
Q 1069 1616 828 1830
Q 588 2044 588 2491
Q 588 2997 923 3248
Q 1259 3500 1938 3500
L 3306 3500
L 3306 0
L 2728 0
L 2728 1478
L 2013 1478
L 981 0
L 363 0
z
" transform="scale(0.015625)"/>
      <path id="DejaVuSans-43c" d="M 581 3500
L 1422 3500
L 2416 1156
L 3413 3500
L 4247 3500
L 4247 0
L 3669 0
L 3669 2950
L 2703 672
L 2128 672
L 1159 2950
L 1159 0
L 581 0
L 581 3500
z
" transform="scale(0.015625)"/>
     </defs>
     <use xlink:href="#DejaVuSans-421"/>
     <use xlink:href="#DejaVuSans-43e" transform="translate(69.824219 0)"/>
     <use xlink:href="#DejaVuSans-431" transform="translate(131.005859 0)"/>
     <use xlink:href="#DejaVuSans-44b" transform="translate(192.675781 0)"/>
     <use xlink:href="#DejaVuSans-442" transform="translate(271.630859 0)"/>
     <use xlink:href="#DejaVuSans-438" transform="translate(329.882812 0)"/>
     <use xlink:href="#DejaVuSans-439" transform="translate(394.873047 0)"/>
     <use xlink:href="#DejaVuSans-43d" transform="translate(459.863281 0)"/>
     <use xlink:href="#DejaVuSans-44b" transform="translate(525.244141 0)"/>
     <use xlink:href="#DejaVuSans-439" transform="translate(604.199219 0)"/>
     <use xlink:href="#DejaVuSans-20" transform="translate(669.189453 0)"/>
     <use xlink:href="#DejaVuSans-430" transform="translate(700.976562 0)"/>
     <use xlink:href="#DejaVuSans-43d" transform="translate(762.255859 0)"/>
     <use xlink:href="#DejaVuSans-430" transform="translate(827.636719 0)"/>
     <use xlink:href="#DejaVuSans-43b" transform="translate(888.916016 0)"/>
     <use xlink:href="#DejaVuSans-438" transform="translate(952.832031 0)"/>
     <use xlink:href="#DejaVuSans-437" transform="translate(1017.822266 0)"/>
     <use xlink:href="#DejaVuSans-3a" transform="translate(1070.996094 0)"/>
     <use xlink:href="#DejaVuSans-20" transform="translate(1104.6875 0)"/>
     <use xlink:href="#DejaVuSans-433" transform="translate(1136.474609 0)"/>
     <use xlink:href="#DejaVuSans-440" transform="translate(1189.013672 0)"/>
     <use xlink:href="#DejaVuSans-443" transform="translate(1252.490234 0)"/>
     <use xlink:href="#DejaVuSans-43f" transform="translate(1311.669922 0)"/>
     <use xlink:href="#DejaVuSans-43f" transform="translate(1377.050781 0)"/>
     <use xlink:href="#DejaVuSans-430" transform="translate(1442.431641 0)"/>
     <use xlink:href="#DejaVuSans-20" transform="translate(1503.710938 0)"/>
     <use xlink:href="#DejaVuSans-432" transform="translate(1535.498047 0)"/>
     <use xlink:href="#DejaVuSans-44b" transform="translate(1594.433594 0)"/>
     <use xlink:href="#DejaVuSans-441" transform="translate(1673.388672 0)"/>
     <use xlink:href="#DejaVuSans-43e" transform="translate(1728.369141 0)"/>
     <use xlink:href="#DejaVuSans-43a" transform="translate(1789.550781 0)"/>
     <use xlink:href="#DejaVuSans-43e" transform="translate(1849.951172 0)"/>
     <use xlink:href="#DejaVuSans-439" transform="translate(1911.132812 0)"/>
     <use xlink:href="#DejaVuSans-20" transform="translate(1976.123047 0)"/>
     <use xlink:href="#DejaVuSans-44d" transform="translate(2007.910156 0)"/>
     <use xlink:href="#DejaVuSans-43a" transform="translate(2062.792969 0)"/>
     <use xlink:href="#DejaVuSans-441" transform="translate(2123.193359 0)"/>
     <use xlink:href="#DejaVuSans-43f" transform="translate(2178.173828 0)"/>
     <use xlink:href="#DejaVuSans-43e" transform="translate(2243.554688 0)"/>
     <use xlink:href="#DejaVuSans-437" transform="translate(2304.736328 0)"/>
     <use xlink:href="#DejaVuSans-438" transform="translate(2357.910156 0)"/>
     <use xlink:href="#DejaVuSans-446" transform="translate(2422.900391 0)"/>
     <use xlink:href="#DejaVuSans-438" transform="translate(2490.966797 0)"/>
     <use xlink:href="#DejaVuSans-438" transform="translate(2555.957031 0)"/>
     <use xlink:href="#DejaVuSans-20" transform="translate(2620.947266 0)"/>
     <use xlink:href="#DejaVuSans-43e" transform="translate(2652.734375 0)"/>
     <use xlink:href="#DejaVuSans-442" transform="translate(2713.916016 0)"/>
     <use xlink:href="#DejaVuSans-43d" transform="translate(2772.167969 0)"/>
     <use xlink:href="#DejaVuSans-43e" transform="translate(2837.548828 0)"/>
     <use xlink:href="#DejaVuSans-441" transform="translate(2898.730469 0)"/>
     <use xlink:href="#DejaVuSans-438" transform="translate(2953.710938 0)"/>
     <use xlink:href="#DejaVuSans-442" transform="translate(3018.701172 0)"/>
     <use xlink:href="#DejaVuSans-435" transform="translate(3076.953125 0)"/>
     <use xlink:href="#DejaVuSans-43b" transform="translate(3138.476562 0)"/>
     <use xlink:href="#DejaVuSans-44c" transform="translate(3202.392578 0)"/>
     <use xlink:href="#DejaVuSans-43d" transform="translate(3261.328125 0)"/>
     <use xlink:href="#DejaVuSans-43e" transform="translate(3326.708984 0)"/>
     <use xlink:href="#DejaVuSans-20" transform="translate(3387.890625 0)"/>
     <use xlink:href="#DejaVuSans-32" transform="translate(3419.677734 0)"/>
     <use xlink:href="#DejaVuSans-30" transform="translate(3483.300781 0)"/>
     <use xlink:href="#DejaVuSans-31" transform="translate(3546.923828 0)"/>
     <use xlink:href="#DejaVuSans-34" transform="translate(3610.546875 0)"/>
     <use xlink:href="#DejaVuSans-20" transform="translate(3674.169922 0)"/>
     <use xlink:href="#DejaVuSans-433" transform="translate(3705.957031 0)"/>
     <use xlink:href="#DejaVuSans-43e" transform="translate(3758.496094 0)"/>
     <use xlink:href="#DejaVuSans-434" transform="translate(3819.677734 0)"/>
     <use xlink:href="#DejaVuSans-430" transform="translate(3888.818359 0)"/>
     <use xlink:href="#DejaVuSans-2c" transform="translate(3950.097656 0)"/>
     <use xlink:href="#DejaVuSans-20" transform="translate(3981.884766 0)"/>
     <use xlink:href="#DejaVuSans-48" transform="translate(4013.671875 0)"/>
     <use xlink:href="#DejaVuSans-53" transform="translate(4088.867188 0)"/>
     <use xlink:href="#DejaVuSans-20" transform="translate(4152.34375 0)"/>
     <use xlink:href="#DejaVuSans-38" transform="translate(4184.130859 0)"/>
     <use xlink:href="#DejaVuSans-35" transform="translate(4247.753906 0)"/>
     <use xlink:href="#DejaVuSans-30" transform="translate(4311.376953 0)"/>
     <use xlink:href="#DejaVuSans-35" transform="translate(4375 0)"/>
     <use xlink:href="#DejaVuSans-31" transform="translate(4438.623047 0)"/>
     <use xlink:href="#DejaVuSans-31" transform="translate(4502.246094 0)"/>
     <use xlink:href="#DejaVuSans-3a" transform="translate(4565.869141 0)"/>
     <use xlink:href="#DejaVuSans-20" transform="translate(4599.560547 0)"/>
     <use xlink:href="#DejaVuSans-43f" transform="translate(4631.347656 0)"/>
     <use xlink:href="#DejaVuSans-43e" transform="translate(4696.728516 0)"/>
     <use xlink:href="#DejaVuSans-441" transform="translate(4757.910156 0)"/>
     <use xlink:href="#DejaVuSans-442" transform="translate(4812.890625 0)"/>
     <use xlink:href="#DejaVuSans-43e" transform="translate(4871.142578 0)"/>
     <use xlink:href="#DejaVuSans-44f" transform="translate(4932.324219 0)"/>
     <use xlink:href="#DejaVuSans-43d" transform="translate(4992.480469 0)"/>
     <use xlink:href="#DejaVuSans-43d" transform="translate(5057.861328 0)"/>
     <use xlink:href="#DejaVuSans-44b" transform="translate(5123.242188 0)"/>
     <use xlink:href="#DejaVuSans-435" transform="translate(5202.197266 0)"/>
     <use xlink:href="#DejaVuSans-20" transform="translate(5263.720703 0)"/>
     <use xlink:href="#DejaVuSans-43c" transform="translate(5295.507812 0)"/>
     <use xlink:href="#DejaVuSans-430" transform="translate(5370.947266 0)"/>
     <use xlink:href="#DejaVuSans-433" transform="translate(5432.226562 0)"/>
     <use xlink:href="#DejaVuSans-43d" transform="translate(5484.765625 0)"/>
     <use xlink:href="#DejaVuSans-438" transform="translate(5550.146484 0)"/>
     <use xlink:href="#DejaVuSans-442" transform="translate(5615.136719 0)"/>
     <use xlink:href="#DejaVuSans-44b" transform="translate(5673.388672 0)"/>
    </g>
   </g>
  </g>
 </g>
 <defs>
  <clipPath id="p96ace0858b">
   <rect x="38.31625" y="29.299375" width="595.2" height="284.76"/>
  </clipPath>
 </defs>
</svg>
