<?xml version="1.0" encoding="utf-8" standalone="no"?>
<!DOCTYPE svg PUBLIC "-//W3C//DTD SVG 1.1//EN"
  "http://www.w3.org/Graphics/SVG/1.1/DTD/svg11.dtd">
<svg xmlns:xlink="http://www.w3.org/1999/xlink" width="640.590937pt" height="352.042031pt" viewBox="0 0 640.590937 352.042031" xmlns="http://www.w3.org/2000/svg" version="1.1">
 <metadata>
  <rdf:RDF xmlns:dc="http://purl.org/dc/elements/1.1/" xmlns:cc="http://creativecommons.org/ns#" xmlns:rdf="http://www.w3.org/1999/02/22-rdf-syntax-ns#">
   <cc:Work>
    <dc:type rdf:resource="http://purl.org/dc/dcmitype/StillImage"/>
    <dc:date>2026-05-06T17:17:21.292073</dc:date>
    <dc:format>image/svg+xml</dc:format>
    <dc:creator>
     <cc:Agent>
      <dc:title>Matplotlib v3.10.8, https://matplotlib.org/</dc:title>
     </cc:Agent>
    </dc:creator>
   </cc:Work>
  </rdf:RDF>
 </metadata>
 <defs>
  <style type="text/css">*{stroke-linejoin: round; stroke-linecap: butt}</style>
 </defs>
 <g id="figure_1">
  <g id="patch_1">
   <path d="M -0 352.042031
L 640.590937 352.042031
L 640.590937 0
L -0 0
z
" style="fill: #ffffff"/>
  </g>
  <g id="axes_1">
   <g id="patch_2">
    <path d="M 41.070938 314.017969
L 633.390937 314.017969
L 633.390937 29.077969
L 41.070938 29.077969
z
" style="fill: #ffffff"/>
   </g>
   <g id="matplotlib.axis_1">
    <g id="xtick_1">
     <g id="line2d_1">
      <defs>
       <path id="m45d2a732e0" d="M 0 0
L 0 3
" style="stroke: #333333; stroke-width: 0.8"/>
      </defs>
      <g>
       <use xlink:href="#m45d2a732e0" x="67.994574" y="314.017969" style="fill: #333333; stroke: #333333; stroke-width: 0.8"/>
      </g>
     </g>
     <g id="text_1">
      <!-- 2010 -->
      <g style="fill: #333333" transform="translate(55.269574 328.116406) scale(0.1 -0.1)">
       <defs>
        <path id="DejaVuSans-32" d="M 1228 531
L 3431 531
L 3431 0
L 469 0
L 469 531
Q 828 903 1448 1529
Q 2069 2156 2228 2338
Q 2531 2678 2651 2914
Q 2772 3150 2772 3378
Q 2772 3750 2511 3984
Q 2250 4219 1831 4219
Q 1534 4219 1204 4116
Q 875 4013 500 3803
L 500 4441
Q 881 4594 1212 4672
Q 1544 4750 1819 4750
Q 2544 4750 2975 4387
Q 3406 4025 3406 3419
Q 3406 3131 3298 2873
Q 3191 2616 2906 2266
Q 2828 2175 2409 1742
Q 1991 1309 1228 531
z
" transform="scale(0.015625)"/>
        <path id="DejaVuSans-30" d="M 2034 4250
Q 1547 4250 1301 3770
Q 1056 3291 1056 2328
Q 1056 1369 1301 889
Q 1547 409 2034 409
Q 2525 409 2770 889
Q 3016 1369 3016 2328
Q 3016 3291 2770 3770
Q 2525 4250 2034 4250
z
M 2034 4750
Q 2819 4750 3233 4129
Q 3647 3509 3647 2328
Q 3647 1150 3233 529
Q 2819 -91 2034 -91
Q 1250 -91 836 529
Q 422 1150 422 2328
Q 422 3509 836 4129
Q 1250 4750 2034 4750
z
" transform="scale(0.015625)"/>
        <path id="DejaVuSans-31" d="M 794 531
L 1825 531
L 1825 4091
L 703 3866
L 703 4441
L 1819 4666
L 2450 4666
L 2450 531
L 3481 531
L 3481 0
L 794 0
L 794 531
z
" transform="scale(0.015625)"/>
       </defs>
       <use xlink:href="#DejaVuSans-32"/>
       <use xlink:href="#DejaVuSans-30" transform="translate(63.623047 0)"/>
       <use xlink:href="#DejaVuSans-31" transform="translate(127.246094 0)"/>
       <use xlink:href="#DejaVuSans-30" transform="translate(190.869141 0)"/>
      </g>
     </g>
    </g>
    <g id="xtick_2">
     <g id="line2d_2">
      <g>
       <use xlink:href="#m45d2a732e0" x="144.919249" y="314.017969" style="fill: #333333; stroke: #333333; stroke-width: 0.8"/>
      </g>
     </g>
     <g id="text_2">
      <!-- 2012 -->
      <g style="fill: #333333" transform="translate(132.194249 328.116406) scale(0.1 -0.1)">
       <use xlink:href="#DejaVuSans-32"/>
       <use xlink:href="#DejaVuSans-30" transform="translate(63.623047 0)"/>
       <use xlink:href="#DejaVuSans-31" transform="translate(127.246094 0)"/>
       <use xlink:href="#DejaVuSans-32" transform="translate(190.869141 0)"/>
      </g>
     </g>
    </g>
    <g id="xtick_3">
     <g id="line2d_3">
      <g>
       <use xlink:href="#m45d2a732e0" x="221.843925" y="314.017969" style="fill: #333333; stroke: #333333; stroke-width: 0.8"/>
      </g>
     </g>
     <g id="text_3">
      <!-- 2014 -->
      <g style="fill: #333333" transform="translate(209.118925 328.116406) scale(0.1 -0.1)">
       <defs>
        <path id="DejaVuSans-34" d="M 2419 4116
L 825 1625
L 2419 1625
L 2419 4116
z
M 2253 4666
L 3047 4666
L 3047 1625
L 3713 1625
L 3713 1100
L 3047 1100
L 3047 0
L 2419 0
L 2419 1100
L 313 1100
L 313 1709
L 2253 4666
z
" transform="scale(0.015625)"/>
       </defs>
       <use xlink:href="#DejaVuSans-32"/>
       <use xlink:href="#DejaVuSans-30" transform="translate(63.623047 0)"/>
       <use xlink:href="#DejaVuSans-31" transform="translate(127.246094 0)"/>
       <use xlink:href="#DejaVuSans-34" transform="translate(190.869141 0)"/>
      </g>
     </g>
    </g>
    <g id="xtick_4">
     <g id="line2d_4">
      <g>
       <use xlink:href="#m45d2a732e0" x="298.7686" y="314.017969" style="fill: #333333; stroke: #333333; stroke-width: 0.8"/>
      </g>
     </g>
     <g id="text_4">
      <!-- 2016 -->
      <g style="fill: #333333" transform="translate(286.0436 328.116406) scale(0.1 -0.1)">
       <defs>
        <path id="DejaVuSans-36" d="M 2113 2584
Q 1688 2584 1439 2293
Q 1191 2003 1191 1497
Q 1191 994 1439 701
Q 1688 409 2113 409
Q 2538 409 2786 701
Q 3034 994 3034 1497
Q 3034 2003 2786 2293
Q 2538 2584 2113 2584
z
M 3366 4563
L 3366 3988
Q 3128 4100 2886 4159
Q 2644 4219 2406 4219
Q 1781 4219 1451 3797
Q 1122 3375 1075 2522
Q 1259 2794 1537 2939
Q 1816 3084 2150 3084
Q 2853 3084 3261 2657
Q 3669 2231 3669 1497
Q 3669 778 3244 343
Q 2819 -91 2113 -91
Q 1303 -91 875 529
Q 447 1150 447 2328
Q 447 3434 972 4092
Q 1497 4750 2381 4750
Q 2619 4750 2861 4703
Q 3103 4656 3366 4563
z
" transform="scale(0.015625)"/>
       </defs>
       <use xlink:href="#DejaVuSans-32"/>
       <use xlink:href="#DejaVuSans-30" transform="translate(63.623047 0)"/>
       <use xlink:href="#DejaVuSans-31" transform="translate(127.246094 0)"/>
       <use xlink:href="#DejaVuSans-36" transform="translate(190.869141 0)"/>
      </g>
     </g>
    </g>
    <g id="xtick_5">
     <g id="line2d_5">
      <g>
       <use xlink:href="#m45d2a732e0" x="375.693275" y="314.017969" style="fill: #333333; stroke: #333333; stroke-width: 0.8"/>
      </g>
     </g>
     <g id="text_5">
      <!-- 2018 -->
      <g style="fill: #333333" transform="translate(362.968275 328.116406) scale(0.1 -0.1)">
       <defs>
        <path id="DejaVuSans-38" d="M 2034 2216
Q 1584 2216 1326 1975
Q 1069 1734 1069 1313
Q 1069 891 1326 650
Q 1584 409 2034 409
Q 2484 409 2743 651
Q 3003 894 3003 1313
Q 3003 1734 2745 1975
Q 2488 2216 2034 2216
z
M 1403 2484
Q 997 2584 770 2862
Q 544 3141 544 3541
Q 544 4100 942 4425
Q 1341 4750 2034 4750
Q 2731 4750 3128 4425
Q 3525 4100 3525 3541
Q 3525 3141 3298 2862
Q 3072 2584 2669 2484
Q 3125 2378 3379 2068
Q 3634 1759 3634 1313
Q 3634 634 3220 271
Q 2806 -91 2034 -91
Q 1263 -91 848 271
Q 434 634 434 1313
Q 434 1759 690 2068
Q 947 2378 1403 2484
z
M 1172 3481
Q 1172 3119 1398 2916
Q 1625 2713 2034 2713
Q 2441 2713 2670 2916
Q 2900 3119 2900 3481
Q 2900 3844 2670 4047
Q 2441 4250 2034 4250
Q 1625 4250 1398 4047
Q 1172 3844 1172 3481
z
" transform="scale(0.015625)"/>
       </defs>
       <use xlink:href="#DejaVuSans-32"/>
       <use xlink:href="#DejaVuSans-30" transform="translate(63.623047 0)"/>
       <use xlink:href="#DejaVuSans-31" transform="translate(127.246094 0)"/>
       <use xlink:href="#DejaVuSans-38" transform="translate(190.869141 0)"/>
      </g>
     </g>
    </g>
    <g id="xtick_6">
     <g id="line2d_6">
      <g>
       <use xlink:href="#m45d2a732e0" x="452.61795" y="314.017969" style="fill: #333333; stroke: #333333; stroke-width: 0.8"/>
      </g>
     </g>
     <g id="text_6">
      <!-- 2020 -->
      <g style="fill: #333333" transform="translate(439.89295 328.116406) scale(0.1 -0.1)">
       <use xlink:href="#DejaVuSans-32"/>
       <use xlink:href="#DejaVuSans-30" transform="translate(63.623047 0)"/>
       <use xlink:href="#DejaVuSans-32" transform="translate(127.246094 0)"/>
       <use xlink:href="#DejaVuSans-30" transform="translate(190.869141 0)"/>
      </g>
     </g>
    </g>
    <g id="xtick_7">
     <g id="line2d_7">
      <g>
       <use xlink:href="#m45d2a732e0" x="529.542626" y="314.017969" style="fill: #333333; stroke: #333333; stroke-width: 0.8"/>
      </g>
     </g>
     <g id="text_7">
      <!-- 2022 -->
      <g style="fill: #333333" transform="translate(516.817626 328.116406) scale(0.1 -0.1)">
       <use xlink:href="#DejaVuSans-32"/>
       <use xlink:href="#DejaVuSans-30" transform="translate(63.623047 0)"/>
       <use xlink:href="#DejaVuSans-32" transform="translate(127.246094 0)"/>
       <use xlink:href="#DejaVuSans-32" transform="translate(190.869141 0)"/>
      </g>
     </g>
    </g>
    <g id="xtick_8">
     <g id="line2d_8">
      <g>
       <use xlink:href="#m45d2a732e0" x="606.467301" y="314.017969" style="fill: #333333; stroke: #333333; stroke-width: 0.8"/>
      </g>
     </g>
     <g id="text_8">
      <!-- 2024 -->
      <g style="fill: #333333" transform="translate(593.742301 328.116406) scale(0.1 -0.1)">
       <use xlink:href="#DejaVuSans-32"/>
       <use xlink:href="#DejaVuSans-30" transform="translate(63.623047 0)"/>
       <use xlink:href="#DejaVuSans-32" transform="translate(127.246094 0)"/>
       <use xlink:href="#DejaVuSans-34" transform="translate(190.869141 0)"/>
      </g>
     </g>
    </g>
    <g id="text_9">
     <!-- Год -->
     <g transform="translate(326.70875 342.554375) scale(0.11 -0.11)">
      <defs>
       <path id="DejaVuSans-413" d="M 628 0
L 628 4666
L 3531 4666
L 3531 4134
L 1259 4134
L 1259 0
L 628 0
z
" transform="scale(0.015625)"/>
       <path id="DejaVuSans-43e" d="M 1959 3097
Q 1497 3097 1228 2736
Q 959 2375 959 1747
Q 959 1119 1226 758
Q 1494 397 1959 397
Q 2419 397 2687 759
Q 2956 1122 2956 1747
Q 2956 2369 2687 2733
Q 2419 3097 1959 3097
z
M 1959 3584
Q 2709 3584 3137 3096
Q 3566 2609 3566 1747
Q 3566 888 3137 398
Q 2709 -91 1959 -91
Q 1206 -91 779 398
Q 353 888 353 1747
Q 353 2609 779 3096
Q 1206 3584 1959 3584
z
" transform="scale(0.015625)"/>
       <path id="DejaVuSans-434" d="M 1384 459
L 3053 459
L 3053 3041
L 1844 3041
L 1844 2603
Q 1844 1316 1475 628
L 1384 459
z
M 550 459
Q 834 584 959 850
Q 1266 1509 1266 2838
L 1266 3500
L 3631 3500
L 3631 459
L 4091 459
L 4091 -884
L 3631 -884
L 3631 0
L 794 0
L 794 -884
L 334 -884
L 334 459
L 550 459
z
" transform="scale(0.015625)"/>
      </defs>
      <use xlink:href="#DejaVuSans-413"/>
      <use xlink:href="#DejaVuSans-43e" transform="translate(60.986328 0)"/>
      <use xlink:href="#DejaVuSans-434" transform="translate(122.167969 0)"/>
     </g>
    </g>
   </g>
   <g id="matplotlib.axis_2">
    <g id="ytick_1">
     <g id="line2d_9">
      <path d="M 41.070938 312.598193
L 633.390937 312.598193
" clip-path="url(#p12cd81cad4)" style="fill: none; stroke: #d9d9d9; stroke-opacity: 0.8; stroke-width: 0.7; stroke-linecap: square"/>
     </g>
     <g id="line2d_10">
      <defs>
       <path id="m04231d3819" d="M 0 0
L -3 0
" style="stroke: #333333; stroke-width: 0.8"/>
      </defs>
      <g>
       <use xlink:href="#m04231d3819" x="41.070938" y="312.598193" style="fill: #333333; stroke: #333333; stroke-width: 0.8"/>
      </g>
     </g>
     <g id="text_10">
      <!-- 6 -->
      <g style="fill: #333333" transform="translate(28.208438 316.397412) scale(0.1 -0.1)">
       <use xlink:href="#DejaVuSans-36"/>
      </g>
     </g>
    </g>
    <g id="ytick_2">
     <g id="line2d_11">
      <path d="M 41.070938 270.622256
L 633.390937 270.622256
" clip-path="url(#p12cd81cad4)" style="fill: none; stroke: #d9d9d9; stroke-opacity: 0.8; stroke-width: 0.7; stroke-linecap: square"/>
     </g>
     <g id="line2d_12">
      <g>
       <use xlink:href="#m04231d3819" x="41.070938" y="270.622256" style="fill: #333333; stroke: #333333; stroke-width: 0.8"/>
      </g>
     </g>
     <g id="text_11">
      <!-- 8 -->
      <g style="fill: #333333" transform="translate(28.208438 274.421474) scale(0.1 -0.1)">
       <use xlink:href="#DejaVuSans-38"/>
      </g>
     </g>
    </g>
    <g id="ytick_3">
     <g id="line2d_13">
      <path d="M 41.070938 228.646319
L 633.390937 228.646319
" clip-path="url(#p12cd81cad4)" style="fill: none; stroke: #d9d9d9; stroke-opacity: 0.8; stroke-width: 0.7; stroke-linecap: square"/>
     </g>
     <g id="line2d_14">
      <g>
       <use xlink:href="#m04231d3819" x="41.070938" y="228.646319" style="fill: #333333; stroke: #333333; stroke-width: 0.8"/>
      </g>
     </g>
     <g id="text_12">
      <!-- 10 -->
      <g style="fill: #333333" transform="translate(21.845938 232.445537) scale(0.1 -0.1)">
       <use xlink:href="#DejaVuSans-31"/>
       <use xlink:href="#DejaVuSans-30" transform="translate(63.623047 0)"/>
      </g>
     </g>
    </g>
    <g id="ytick_4">
     <g id="line2d_15">
      <path d="M 41.070938 186.670381
L 633.390937 186.670381
" clip-path="url(#p12cd81cad4)" style="fill: none; stroke: #d9d9d9; stroke-opacity: 0.8; stroke-width: 0.7; stroke-linecap: square"/>
     </g>
     <g id="line2d_16">
      <g>
       <use xlink:href="#m04231d3819" x="41.070938" y="186.670381" style="fill: #333333; stroke: #333333; stroke-width: 0.8"/>
      </g>
     </g>
     <g id="text_13">
      <!-- 12 -->
      <g style="fill: #333333" transform="translate(21.845938 190.4696) scale(0.1 -0.1)">
       <use xlink:href="#DejaVuSans-31"/>
       <use xlink:href="#DejaVuSans-32" transform="translate(63.623047 0)"/>
      </g>
     </g>
    </g>
    <g id="ytick_5">
     <g id="line2d_17">
      <path d="M 41.070938 144.694444
L 633.390937 144.694444
" clip-path="url(#p12cd81cad4)" style="fill: none; stroke: #d9d9d9; stroke-opacity: 0.8; stroke-width: 0.7; stroke-linecap: square"/>
     </g>
     <g id="line2d_18">
      <g>
       <use xlink:href="#m04231d3819" x="41.070938" y="144.694444" style="fill: #333333; stroke: #333333; stroke-width: 0.8"/>
      </g>
     </g>
     <g id="text_14">
      <!-- 14 -->
      <g style="fill: #333333" transform="translate(21.845938 148.493663) scale(0.1 -0.1)">
       <use xlink:href="#DejaVuSans-31"/>
       <use xlink:href="#DejaVuSans-34" transform="translate(63.623047 0)"/>
      </g>
     </g>
    </g>
    <g id="ytick_6">
     <g id="line2d_19">
      <path d="M 41.070938 102.718507
L 633.390937 102.718507
" clip-path="url(#p12cd81cad4)" style="fill: none; stroke: #d9d9d9; stroke-opacity: 0.8; stroke-width: 0.7; stroke-linecap: square"/>
     </g>
     <g id="line2d_20">
      <g>
       <use xlink:href="#m04231d3819" x="41.070938" y="102.718507" style="fill: #333333; stroke: #333333; stroke-width: 0.8"/>
      </g>
     </g>
     <g id="text_15">
      <!-- 16 -->
      <g style="fill: #333333" transform="translate(21.845938 106.517726) scale(0.1 -0.1)">
       <use xlink:href="#DejaVuSans-31"/>
       <use xlink:href="#DejaVuSans-36" transform="translate(63.623047 0)"/>
      </g>
     </g>
    </g>
    <g id="ytick_7">
     <g id="line2d_21">
      <path d="M 41.070938 60.74257
L 633.390937 60.74257
" clip-path="url(#p12cd81cad4)" style="fill: none; stroke: #d9d9d9; stroke-opacity: 0.8; stroke-width: 0.7; stroke-linecap: square"/>
     </g>
     <g id="line2d_22">
      <g>
       <use xlink:href="#m04231d3819" x="41.070938" y="60.74257" style="fill: #333333; stroke: #333333; stroke-width: 0.8"/>
      </g>
     </g>
     <g id="text_16">
      <!-- 18 -->
      <g style="fill: #333333" transform="translate(21.845938 64.541789) scale(0.1 -0.1)">
       <use xlink:href="#DejaVuSans-31"/>
       <use xlink:href="#DejaVuSans-38" transform="translate(63.623047 0)"/>
      </g>
     </g>
    </g>
    <g id="text_17">
     <!-- Среднее ln(1 + стоимость экспорта, долл. США) -->
     <g transform="translate(15.558281 312.055781) rotate(-90) scale(0.11 -0.11)">
      <defs>
       <path id="DejaVuSans-421" d="M 4122 4306
L 4122 3641
Q 3803 3938 3442 4084
Q 3081 4231 2675 4231
Q 1875 4231 1450 3742
Q 1025 3253 1025 2328
Q 1025 1406 1450 917
Q 1875 428 2675 428
Q 3081 428 3442 575
Q 3803 722 4122 1019
L 4122 359
Q 3791 134 3420 21
Q 3050 -91 2638 -91
Q 1578 -91 968 557
Q 359 1206 359 2328
Q 359 3453 968 4101
Q 1578 4750 2638 4750
Q 3056 4750 3426 4639
Q 3797 4528 4122 4306
z
" transform="scale(0.015625)"/>
       <path id="DejaVuSans-440" d="M 1159 525
L 1159 -1331
L 581 -1331
L 581 3500
L 1159 3500
L 1159 2969
Q 1341 3281 1617 3432
Q 1894 3584 2278 3584
Q 2916 3584 3314 3078
Q 3713 2572 3713 1747
Q 3713 922 3314 415
Q 2916 -91 2278 -91
Q 1894 -91 1617 61
Q 1341 213 1159 525
z
M 3116 1747
Q 3116 2381 2855 2742
Q 2594 3103 2138 3103
Q 1681 3103 1420 2742
Q 1159 2381 1159 1747
Q 1159 1113 1420 752
Q 1681 391 2138 391
Q 2594 391 2855 752
Q 3116 1113 3116 1747
z
" transform="scale(0.015625)"/>
       <path id="DejaVuSans-435" d="M 3597 1894
L 3597 1613
L 953 1613
Q 991 1019 1311 708
Q 1631 397 2203 397
Q 2534 397 2845 478
Q 3156 559 3463 722
L 3463 178
Q 3153 47 2828 -22
Q 2503 -91 2169 -91
Q 1331 -91 842 396
Q 353 884 353 1716
Q 353 2575 817 3079
Q 1281 3584 2069 3584
Q 2775 3584 3186 3129
Q 3597 2675 3597 1894
z
M 3022 2063
Q 3016 2534 2758 2815
Q 2500 3097 2075 3097
Q 1594 3097 1305 2825
Q 1016 2553 972 2059
L 3022 2063
z
" transform="scale(0.015625)"/>
       <path id="DejaVuSans-43d" d="M 581 3500
L 1159 3500
L 1159 2072
L 3025 2072
L 3025 3500
L 3603 3500
L 3603 0
L 3025 0
L 3025 1613
L 1159 1613
L 1159 0
L 581 0
L 581 3500
z
" transform="scale(0.015625)"/>
       <path id="DejaVuSans-20" transform="scale(0.015625)"/>
       <path id="DejaVuSans-6c" d="M 603 4863
L 1178 4863
L 1178 0
L 603 0
L 603 4863
z
" transform="scale(0.015625)"/>
       <path id="DejaVuSans-6e" d="M 3513 2113
L 3513 0
L 2938 0
L 2938 2094
Q 2938 2591 2744 2837
Q 2550 3084 2163 3084
Q 1697 3084 1428 2787
Q 1159 2491 1159 1978
L 1159 0
L 581 0
L 581 3500
L 1159 3500
L 1159 2956
Q 1366 3272 1645 3428
Q 1925 3584 2291 3584
Q 2894 3584 3203 3211
Q 3513 2838 3513 2113
z
" transform="scale(0.015625)"/>
       <path id="DejaVuSans-28" d="M 1984 4856
Q 1566 4138 1362 3434
Q 1159 2731 1159 2009
Q 1159 1288 1364 580
Q 1569 -128 1984 -844
L 1484 -844
Q 1016 -109 783 600
Q 550 1309 550 2009
Q 550 2706 781 3412
Q 1013 4119 1484 4856
L 1984 4856
z
" transform="scale(0.015625)"/>
       <path id="DejaVuSans-2b" d="M 2944 4013
L 2944 2272
L 4684 2272
L 4684 1741
L 2944 1741
L 2944 0
L 2419 0
L 2419 1741
L 678 1741
L 678 2272
L 2419 2272
L 2419 4013
L 2944 4013
z
" transform="scale(0.015625)"/>
       <path id="DejaVuSans-441" d="M 3122 3366
L 3122 2828
Q 2878 2963 2633 3030
Q 2388 3097 2138 3097
Q 1578 3097 1268 2742
Q 959 2388 959 1747
Q 959 1106 1268 751
Q 1578 397 2138 397
Q 2388 397 2633 464
Q 2878 531 3122 666
L 3122 134
Q 2881 22 2623 -34
Q 2366 -91 2075 -91
Q 1284 -91 818 406
Q 353 903 353 1747
Q 353 2603 823 3093
Q 1294 3584 2113 3584
Q 2378 3584 2631 3529
Q 2884 3475 3122 3366
z
" transform="scale(0.015625)"/>
       <path id="DejaVuSans-442" d="M 188 3500
L 3541 3500
L 3541 3041
L 2147 3041
L 2147 0
L 1581 0
L 1581 3041
L 188 3041
L 188 3500
z
" transform="scale(0.015625)"/>
       <path id="DejaVuSans-438" d="M 3578 3500
L 3578 0
L 3006 0
L 3006 2809
L 1319 0
L 581 0
L 581 3500
L 1153 3500
L 1153 697
L 2838 3500
L 3578 3500
z
" transform="scale(0.015625)"/>
       <path id="DejaVuSans-43c" d="M 581 3500
L 1422 3500
L 2416 1156
L 3413 3500
L 4247 3500
L 4247 0
L 3669 0
L 3669 2950
L 2703 672
L 2128 672
L 1159 2950
L 1159 0
L 581 0
L 581 3500
z
" transform="scale(0.015625)"/>
       <path id="DejaVuSans-44c" d="M 2781 1038
Q 2781 1319 2576 1466
Q 2372 1613 1978 1613
L 1159 1613
L 1159 459
L 1978 459
Q 2372 459 2576 607
Q 2781 756 2781 1038
z
M 581 3500
L 1159 3500
L 1159 2072
L 2003 2072
Q 2672 2072 3033 1817
Q 3394 1563 3394 1038
Q 3394 513 3033 256
Q 2672 0 2003 0
L 581 0
L 581 3500
z
" transform="scale(0.015625)"/>
       <path id="DejaVuSans-44d" d="M 353 666
Q 847 397 1338 397
Q 1797 397 2125 664
Q 2453 931 2513 1613
L 738 1613
L 738 2072
L 2494 2072
Q 2456 2400 2207 2748
Q 1959 3097 1338 3097
Q 856 3097 353 2828
L 353 3366
Q 844 3584 1363 3584
Q 2181 3584 2651 3089
Q 3122 2594 3122 1747
Q 3122 903 2664 406
Q 2206 -91 1403 -91
Q 813 -91 353 134
L 353 666
z
" transform="scale(0.015625)"/>
       <path id="DejaVuSans-43a" d="M 581 3500
L 1153 3500
L 1153 1856
L 2775 3500
L 3481 3500
L 2144 2147
L 3653 0
L 3009 0
L 1769 1766
L 1153 1141
L 1153 0
L 581 0
L 581 3500
z
" transform="scale(0.015625)"/>
       <path id="DejaVuSans-43f" d="M 3603 3500
L 3603 0
L 3025 0
L 3025 3041
L 1159 3041
L 1159 0
L 581 0
L 581 3500
L 3603 3500
z
" transform="scale(0.015625)"/>
       <path id="DejaVuSans-430" d="M 2194 1759
Q 1497 1759 1228 1600
Q 959 1441 959 1056
Q 959 750 1161 570
Q 1363 391 1709 391
Q 2188 391 2477 730
Q 2766 1069 2766 1631
L 2766 1759
L 2194 1759
z
M 3341 1997
L 3341 0
L 2766 0
L 2766 531
Q 2569 213 2275 61
Q 1981 -91 1556 -91
Q 1019 -91 701 211
Q 384 513 384 1019
Q 384 1609 779 1909
Q 1175 2209 1959 2209
L 2766 2209
L 2766 2266
Q 2766 2663 2505 2880
Q 2244 3097 1772 3097
Q 1472 3097 1187 3025
Q 903 2953 641 2809
L 641 3341
Q 956 3463 1253 3523
Q 1550 3584 1831 3584
Q 2591 3584 2966 3190
Q 3341 2797 3341 1997
z
" transform="scale(0.015625)"/>
       <path id="DejaVuSans-2c" d="M 750 794
L 1409 794
L 1409 256
L 897 -744
L 494 -744
L 750 256
L 750 794
z
" transform="scale(0.015625)"/>
       <path id="DejaVuSans-43b" d="M 238 0
L 238 478
Q 806 566 981 959
Q 1194 1513 1194 2928
L 1194 3500
L 3559 3500
L 3559 0
L 2984 0
L 2984 3041
L 1769 3041
L 1769 2694
Q 1769 1344 1494 738
Q 1200 91 238 0
z
" transform="scale(0.015625)"/>
       <path id="DejaVuSans-2e" d="M 684 794
L 1344 794
L 1344 0
L 684 0
L 684 794
z
" transform="scale(0.015625)"/>
       <path id="DejaVuSans-428" d="M 3738 531
L 5584 531
L 5584 4666
L 6216 4666
L 6216 0
L 628 0
L 628 4666
L 1259 4666
L 1259 531
L 3106 531
L 3106 4666
L 3738 4666
L 3738 531
z
" transform="scale(0.015625)"/>
       <path id="DejaVuSans-410" d="M 2188 4044
L 1331 1722
L 3047 1722
L 2188 4044
z
M 1831 4666
L 2547 4666
L 4325 0
L 3669 0
L 3244 1197
L 1141 1197
L 716 0
L 50 0
L 1831 4666
z
" transform="scale(0.015625)"/>
       <path id="DejaVuSans-29" d="M 513 4856
L 1013 4856
Q 1481 4119 1714 3412
Q 1947 2706 1947 2009
Q 1947 1309 1714 600
Q 1481 -109 1013 -844
L 513 -844
Q 928 -128 1133 580
Q 1338 1288 1338 2009
Q 1338 2731 1133 3434
Q 928 4138 513 4856
z
" transform="scale(0.015625)"/>
      </defs>
      <use xlink:href="#DejaVuSans-421"/>
      <use xlink:href="#DejaVuSans-440" transform="translate(69.824219 0)"/>
      <use xlink:href="#DejaVuSans-435" transform="translate(133.300781 0)"/>
      <use xlink:href="#DejaVuSans-434" transform="translate(194.824219 0)"/>
      <use xlink:href="#DejaVuSans-43d" transform="translate(263.964844 0)"/>
      <use xlink:href="#DejaVuSans-435" transform="translate(329.345703 0)"/>
      <use xlink:href="#DejaVuSans-435" transform="translate(390.869141 0)"/>
      <use xlink:href="#DejaVuSans-20" transform="translate(452.392578 0)"/>
      <use xlink:href="#DejaVuSans-6c" transform="translate(484.179688 0)"/>
      <use xlink:href="#DejaVuSans-6e" transform="translate(511.962891 0)"/>
      <use xlink:href="#DejaVuSans-28" transform="translate(575.341797 0)"/>
      <use xlink:href="#DejaVuSans-31" transform="translate(614.355469 0)"/>
      <use xlink:href="#DejaVuSans-20" transform="translate(677.978516 0)"/>
      <use xlink:href="#DejaVuSans-2b" transform="translate(709.765625 0)"/>
      <use xlink:href="#DejaVuSans-20" transform="translate(793.554688 0)"/>
      <use xlink:href="#DejaVuSans-441" transform="translate(825.341797 0)"/>
      <use xlink:href="#DejaVuSans-442" transform="translate(880.322266 0)"/>
      <use xlink:href="#DejaVuSans-43e" transform="translate(938.574219 0)"/>
      <use xlink:href="#DejaVuSans-438" transform="translate(999.755859 0)"/>
      <use xlink:href="#DejaVuSans-43c" transform="translate(1064.746094 0)"/>
      <use xlink:href="#DejaVuSans-43e" transform="translate(1140.185547 0)"/>
      <use xlink:href="#DejaVuSans-441" transform="translate(1201.367188 0)"/>
      <use xlink:href="#DejaVuSans-442" transform="translate(1256.347656 0)"/>
      <use xlink:href="#DejaVuSans-44c" transform="translate(1314.599609 0)"/>
      <use xlink:href="#DejaVuSans-20" transform="translate(1373.535156 0)"/>
      <use xlink:href="#DejaVuSans-44d" transform="translate(1405.322266 0)"/>
      <use xlink:href="#DejaVuSans-43a" transform="translate(1460.205078 0)"/>
      <use xlink:href="#DejaVuSans-441" transform="translate(1520.605469 0)"/>
      <use xlink:href="#DejaVuSans-43f" transform="translate(1575.585938 0)"/>
      <use xlink:href="#DejaVuSans-43e" transform="translate(1640.966797 0)"/>
      <use xlink:href="#DejaVuSans-440" transform="translate(1702.148438 0)"/>
      <use xlink:href="#DejaVuSans-442" transform="translate(1765.625 0)"/>
      <use xlink:href="#DejaVuSans-430" transform="translate(1823.876953 0)"/>
      <use xlink:href="#DejaVuSans-2c" transform="translate(1885.15625 0)"/>
      <use xlink:href="#DejaVuSans-20" transform="translate(1916.943359 0)"/>
      <use xlink:href="#DejaVuSans-434" transform="translate(1948.730469 0)"/>
      <use xlink:href="#DejaVuSans-43e" transform="translate(2017.871094 0)"/>
      <use xlink:href="#DejaVuSans-43b" transform="translate(2079.052734 0)"/>
      <use xlink:href="#DejaVuSans-43b" transform="translate(2142.96875 0)"/>
      <use xlink:href="#DejaVuSans-2e" transform="translate(2206.884766 0)"/>
      <use xlink:href="#DejaVuSans-20" transform="translate(2238.671875 0)"/>
      <use xlink:href="#DejaVuSans-421" transform="translate(2270.458984 0)"/>
      <use xlink:href="#DejaVuSans-428" transform="translate(2340.283203 0)"/>
      <use xlink:href="#DejaVuSans-410" transform="translate(2447.216797 0)"/>
      <use xlink:href="#DejaVuSans-29" transform="translate(2515.625 0)"/>
     </g>
    </g>
   </g>
   <g id="line2d_23">
    <path d="M 67.994574 69.451622
L 106.456912 50.638678
L 144.919249 51.674844
L 183.381587 59.198859
L 221.843925 59.373747
L 260.306262 60.53441
L 298.7686 61.990638
L 337.230938 59.292435
L 375.693275 55.581317
L 414.155613 58.116779
L 452.61795 58.507726
L 491.080288 48.626347
L 529.542626 42.029787
L 568.004963 46.608111
L 606.467301 49.984725
" clip-path="url(#p12cd81cad4)" style="fill: none; stroke: #1f4e79; stroke-width: 1.8; stroke-linecap: square"/>
    <defs>
     <path id="m835c78ef38" d="M 0 2.5
C 0.663008 2.5 1.29895 2.236584 1.767767 1.767767
C 2.236584 1.29895 2.5 0.663008 2.5 0
C 2.5 -0.663008 2.236584 -1.29895 1.767767 -1.767767
C 1.29895 -2.236584 0.663008 -2.5 0 -2.5
C -0.663008 -2.5 -1.29895 -2.236584 -1.767767 -1.767767
C -2.236584 -1.29895 -2.5 -0.663008 -2.5 0
C -2.5 0.663008 -2.236584 1.29895 -1.767767 1.767767
C -1.29895 2.236584 -0.663008 2.5 0 2.5
z
" style="stroke: #1f4e79"/>
    </defs>
    <g clip-path="url(#p12cd81cad4)">
     <use xlink:href="#m835c78ef38" x="67.994574" y="69.451622" style="fill: #1f4e79; stroke: #1f4e79"/>
     <use xlink:href="#m835c78ef38" x="106.456912" y="50.638678" style="fill: #1f4e79; stroke: #1f4e79"/>
     <use xlink:href="#m835c78ef38" x="144.919249" y="51.674844" style="fill: #1f4e79; stroke: #1f4e79"/>
     <use xlink:href="#m835c78ef38" x="183.381587" y="59.198859" style="fill: #1f4e79; stroke: #1f4e79"/>
     <use xlink:href="#m835c78ef38" x="221.843925" y="59.373747" style="fill: #1f4e79; stroke: #1f4e79"/>
     <use xlink:href="#m835c78ef38" x="260.306262" y="60.53441" style="fill: #1f4e79; stroke: #1f4e79"/>
     <use xlink:href="#m835c78ef38" x="298.7686" y="61.990638" style="fill: #1f4e79; stroke: #1f4e79"/>
     <use xlink:href="#m835c78ef38" x="337.230938" y="59.292435" style="fill: #1f4e79; stroke: #1f4e79"/>
     <use xlink:href="#m835c78ef38" x="375.693275" y="55.581317" style="fill: #1f4e79; stroke: #1f4e79"/>
     <use xlink:href="#m835c78ef38" x="414.155613" y="58.116779" style="fill: #1f4e79; stroke: #1f4e79"/>
     <use xlink:href="#m835c78ef38" x="452.61795" y="58.507726" style="fill: #1f4e79; stroke: #1f4e79"/>
     <use xlink:href="#m835c78ef38" x="491.080288" y="48.626347" style="fill: #1f4e79; stroke: #1f4e79"/>
     <use xlink:href="#m835c78ef38" x="529.542626" y="42.029787" style="fill: #1f4e79; stroke: #1f4e79"/>
     <use xlink:href="#m835c78ef38" x="568.004963" y="46.608111" style="fill: #1f4e79; stroke: #1f4e79"/>
     <use xlink:href="#m835c78ef38" x="606.467301" y="49.984725" style="fill: #1f4e79; stroke: #1f4e79"/>
    </g>
   </g>
   <g id="line2d_24">
    <path d="M 67.994574 301.066151
L 106.456912 296.071175
L 144.919249 278.279963
L 183.381587 280.283064
L 221.843925 272.308819
L 260.306262 273.751944
L 298.7686 267.70514
L 337.230938 260.992348
L 375.693275 262.178533
L 414.155613 250.890738
L 452.61795 256.85069
L 491.080288 241.771399
L 529.542626 235.41296
L 568.004963 235.362428
L 606.467301 231.031008
" clip-path="url(#p12cd81cad4)" style="fill: none; stroke: #8c5a2b; stroke-width: 1.8; stroke-linecap: square"/>
    <defs>
     <path id="m9352beae10" d="M 0 2.5
C 0.663008 2.5 1.29895 2.236584 1.767767 1.767767
C 2.236584 1.29895 2.5 0.663008 2.5 0
C 2.5 -0.663008 2.236584 -1.29895 1.767767 -1.767767
C 1.29895 -2.236584 0.663008 -2.5 0 -2.5
C -0.663008 -2.5 -1.29895 -2.236584 -1.767767 -1.767767
C -2.236584 -1.29895 -2.5 -0.663008 -2.5 0
C -2.5 0.663008 -2.236584 1.29895 -1.767767 1.767767
C -1.29895 2.236584 -0.663008 2.5 0 2.5
z
" style="stroke: #8c5a2b"/>
    </defs>
    <g clip-path="url(#p12cd81cad4)">
     <use xlink:href="#m9352beae10" x="67.994574" y="301.066151" style="fill: #8c5a2b; stroke: #8c5a2b"/>
     <use xlink:href="#m9352beae10" x="106.456912" y="296.071175" style="fill: #8c5a2b; stroke: #8c5a2b"/>
     <use xlink:href="#m9352beae10" x="144.919249" y="278.279963" style="fill: #8c5a2b; stroke: #8c5a2b"/>
     <use xlink:href="#m9352beae10" x="183.381587" y="280.283064" style="fill: #8c5a2b; stroke: #8c5a2b"/>
     <use xlink:href="#m9352beae10" x="221.843925" y="272.308819" style="fill: #8c5a2b; stroke: #8c5a2b"/>
     <use xlink:href="#m9352beae10" x="260.306262" y="273.751944" style="fill: #8c5a2b; stroke: #8c5a2b"/>
     <use xlink:href="#m9352beae10" x="298.7686" y="267.70514" style="fill: #8c5a2b; stroke: #8c5a2b"/>
     <use xlink:href="#m9352beae10" x="337.230938" y="260.992348" style="fill: #8c5a2b; stroke: #8c5a2b"/>
     <use xlink:href="#m9352beae10" x="375.693275" y="262.178533" style="fill: #8c5a2b; stroke: #8c5a2b"/>
     <use xlink:href="#m9352beae10" x="414.155613" y="250.890738" style="fill: #8c5a2b; stroke: #8c5a2b"/>
     <use xlink:href="#m9352beae10" x="452.61795" y="256.85069" style="fill: #8c5a2b; stroke: #8c5a2b"/>
     <use xlink:href="#m9352beae10" x="491.080288" y="241.771399" style="fill: #8c5a2b; stroke: #8c5a2b"/>
     <use xlink:href="#m9352beae10" x="529.542626" y="235.41296" style="fill: #8c5a2b; stroke: #8c5a2b"/>
     <use xlink:href="#m9352beae10" x="568.004963" y="235.362428" style="fill: #8c5a2b; stroke: #8c5a2b"/>
     <use xlink:href="#m9352beae10" x="606.467301" y="231.031008" style="fill: #8c5a2b; stroke: #8c5a2b"/>
    </g>
   </g>
   <g id="line2d_25">
    <path d="M 260.306262 314.017969
L 260.306262 29.077969
" clip-path="url(#p12cd81cad4)" style="fill: none; stroke-dasharray: 3.7,1.6; stroke-dashoffset: 0; stroke: #666666; stroke-opacity: 0.85"/>
   </g>
   <g id="line2d_26">
    <path d="M 298.7686 314.017969
L 298.7686 29.077969
" clip-path="url(#p12cd81cad4)" style="fill: none; stroke-dasharray: 1.2,1.98; stroke-dashoffset: 0; stroke: #666666; stroke-opacity: 0.9; stroke-width: 1.2"/>
   </g>
   <g id="patch_3">
    <path d="M 41.070938 314.017969
L 41.070938 29.077969
" style="fill: none; stroke: #333333; stroke-width: 0.8; stroke-linejoin: miter; stroke-linecap: square"/>
   </g>
   <g id="patch_4">
    <path d="M 41.070938 314.017969
L 633.390937 314.017969
" style="fill: none; stroke: #333333; stroke-width: 0.8; stroke-linejoin: miter; stroke-linecap: square"/>
   </g>
   <g id="text_18">
    <!-- Динамика до и после реформы, HS 850511: постоянные магниты -->
    <g transform="translate(41.070938 17.077969) scale(0.13 -0.13)">
     <defs>
      <path id="DejaVuSans-414" d="M 1459 531
L 3522 531
L 3522 4134
L 2006 4134
L 2006 3472
Q 2006 1913 1656 878
Q 1584 666 1459 531
z
M 538 531
Q 956 728 1075 1103
Q 1378 2066 1378 3784
L 1378 4666
L 4153 4666
L 4153 531
L 4684 531
L 4684 -1003
L 4153 -1003
L 4153 0
L 847 0
L 847 -1003
L 316 -1003
L 316 531
L 538 531
z
" transform="scale(0.015625)"/>
      <path id="DejaVuSans-444" d="M 947 1747
Q 947 1013 1173 702
Q 1400 391 1784 391
Q 2091 391 2447 916
L 2447 2578
Q 2091 3103 1784 3103
Q 1400 3103 1173 2792
Q 947 2481 947 1747
z
M 2447 -1331
L 2447 447
Q 2269 153 2064 31
Q 1859 -91 1600 -91
Q 1078 -91 714 392
Q 350 875 350 1734
Q 350 2594 714 3089
Q 1078 3584 1600 3584
Q 1859 3584 2064 3465
Q 2269 3347 2447 3053
L 2447 4666
L 3025 4666
L 3025 3053
Q 3203 3347 3408 3465
Q 3613 3584 3872 3584
Q 4394 3584 4758 3089
Q 5122 2594 5122 1734
Q 5122 875 4758 392
Q 4394 -91 3872 -91
Q 3613 -91 3408 31
Q 3203 153 3025 447
L 3025 -1331
L 2447 -1331
z
M 4525 1747
Q 4525 2481 4298 2792
Q 4072 3103 3688 3103
Q 3381 3103 3025 2578
L 3025 916
Q 3381 391 3688 391
Q 4072 391 4298 702
Q 4525 1013 4525 1747
z
" transform="scale(0.015625)"/>
      <path id="DejaVuSans-44b" d="M 3907 3500
L 4482 3500
L 4482 0
L 3907 0
L 3907 3500
z
M 4195 3584
L 4195 3584
z
M 2781 1038
Q 2781 1319 2576 1466
Q 2372 1613 1978 1613
L 1159 1613
L 1159 459
L 1978 459
Q 2372 459 2576 607
Q 2781 756 2781 1038
z
M 581 3500
L 1159 3500
L 1159 2072
L 2003 2072
Q 2672 2072 3033 1817
Q 3394 1563 3394 1038
Q 3394 513 3033 256
Q 2672 0 2003 0
L 581 0
L 581 3500
z
" transform="scale(0.015625)"/>
      <path id="DejaVuSans-48" d="M 628 4666
L 1259 4666
L 1259 2753
L 3553 2753
L 3553 4666
L 4184 4666
L 4184 0
L 3553 0
L 3553 2222
L 1259 2222
L 1259 0
L 628 0
L 628 4666
z
" transform="scale(0.015625)"/>
      <path id="DejaVuSans-53" d="M 3425 4513
L 3425 3897
Q 3066 4069 2747 4153
Q 2428 4238 2131 4238
Q 1616 4238 1336 4038
Q 1056 3838 1056 3469
Q 1056 3159 1242 3001
Q 1428 2844 1947 2747
L 2328 2669
Q 3034 2534 3370 2195
Q 3706 1856 3706 1288
Q 3706 609 3251 259
Q 2797 -91 1919 -91
Q 1588 -91 1214 -16
Q 841 59 441 206
L 441 856
Q 825 641 1194 531
Q 1563 422 1919 422
Q 2459 422 2753 634
Q 3047 847 3047 1241
Q 3047 1584 2836 1778
Q 2625 1972 2144 2069
L 1759 2144
Q 1053 2284 737 2584
Q 422 2884 422 3419
Q 422 4038 858 4394
Q 1294 4750 2059 4750
Q 2388 4750 2728 4690
Q 3069 4631 3425 4513
z
" transform="scale(0.015625)"/>
      <path id="DejaVuSans-35" d="M 691 4666
L 3169 4666
L 3169 4134
L 1269 4134
L 1269 2991
Q 1406 3038 1543 3061
Q 1681 3084 1819 3084
Q 2600 3084 3056 2656
Q 3513 2228 3513 1497
Q 3513 744 3044 326
Q 2575 -91 1722 -91
Q 1428 -91 1123 -41
Q 819 9 494 109
L 494 744
Q 775 591 1075 516
Q 1375 441 1709 441
Q 2250 441 2565 725
Q 2881 1009 2881 1497
Q 2881 1984 2565 2268
Q 2250 2553 1709 2553
Q 1456 2553 1204 2497
Q 953 2441 691 2322
L 691 4666
z
" transform="scale(0.015625)"/>
      <path id="DejaVuSans-3a" d="M 750 794
L 1409 794
L 1409 0
L 750 0
L 750 794
z
M 750 3309
L 1409 3309
L 1409 2516
L 750 2516
L 750 3309
z
" transform="scale(0.015625)"/>
      <path id="DejaVuSans-44f" d="M 1181 2491
Q 1181 2231 1381 2084
Q 1581 1938 1953 1938
L 2728 1938
L 2728 3041
L 1953 3041
Q 1581 3041 1381 2897
Q 1181 2753 1181 2491
z
M 363 0
L 1431 1534
Q 1069 1616 828 1830
Q 588 2044 588 2491
Q 588 2997 923 3248
Q 1259 3500 1938 3500
L 3306 3500
L 3306 0
L 2728 0
L 2728 1478
L 2013 1478
L 981 0
L 363 0
z
" transform="scale(0.015625)"/>
      <path id="DejaVuSans-433" d="M 581 0
L 581 3500
L 3050 3500
L 3050 3041
L 1159 3041
L 1159 0
L 581 0
z
" transform="scale(0.015625)"/>
     </defs>
     <use xlink:href="#DejaVuSans-414"/>
     <use xlink:href="#DejaVuSans-438" transform="translate(78.125 0)"/>
     <use xlink:href="#DejaVuSans-43d" transform="translate(143.115234 0)"/>
     <use xlink:href="#DejaVuSans-430" transform="translate(208.496094 0)"/>
     <use xlink:href="#DejaVuSans-43c" transform="translate(269.775391 0)"/>
     <use xlink:href="#DejaVuSans-438" transform="translate(345.214844 0)"/>
     <use xlink:href="#DejaVuSans-43a" transform="translate(410.205078 0)"/>
     <use xlink:href="#DejaVuSans-430" transform="translate(470.605469 0)"/>
     <use xlink:href="#DejaVuSans-20" transform="translate(531.884766 0)"/>
     <use xlink:href="#DejaVuSans-434" transform="translate(563.671875 0)"/>
     <use xlink:href="#DejaVuSans-43e" transform="translate(632.8125 0)"/>
     <use xlink:href="#DejaVuSans-20" transform="translate(693.994141 0)"/>
     <use xlink:href="#DejaVuSans-438" transform="translate(725.78125 0)"/>
     <use xlink:href="#DejaVuSans-20" transform="translate(790.771484 0)"/>
     <use xlink:href="#DejaVuSans-43f" transform="translate(822.558594 0)"/>
     <use xlink:href="#DejaVuSans-43e" transform="translate(887.939453 0)"/>
     <use xlink:href="#DejaVuSans-441" transform="translate(949.121094 0)"/>
     <use xlink:href="#DejaVuSans-43b" transform="translate(1004.101562 0)"/>
     <use xlink:href="#DejaVuSans-435" transform="translate(1068.017578 0)"/>
     <use xlink:href="#DejaVuSans-20" transform="translate(1129.541016 0)"/>
     <use xlink:href="#DejaVuSans-440" transform="translate(1161.328125 0)"/>
     <use xlink:href="#DejaVuSans-435" transform="translate(1224.804688 0)"/>
     <use xlink:href="#DejaVuSans-444" transform="translate(1286.328125 0)"/>
     <use xlink:href="#DejaVuSans-43e" transform="translate(1371.826172 0)"/>
     <use xlink:href="#DejaVuSans-440" transform="translate(1433.007812 0)"/>
     <use xlink:href="#DejaVuSans-43c" transform="translate(1496.484375 0)"/>
     <use xlink:href="#DejaVuSans-44b" transform="translate(1571.923828 0)"/>
     <use xlink:href="#DejaVuSans-2c" transform="translate(1650.878906 0)"/>
     <use xlink:href="#DejaVuSans-20" transform="translate(1682.666016 0)"/>
     <use xlink:href="#DejaVuSans-48" transform="translate(1714.453125 0)"/>
     <use xlink:href="#DejaVuSans-53" transform="translate(1789.648438 0)"/>
     <use xlink:href="#DejaVuSans-20" transform="translate(1853.125 0)"/>
     <use xlink:href="#DejaVuSans-38" transform="translate(1884.912109 0)"/>
     <use xlink:href="#DejaVuSans-35" transform="translate(1948.535156 0)"/>
     <use xlink:href="#DejaVuSans-30" transform="translate(2012.158203 0)"/>
     <use xlink:href="#DejaVuSans-35" transform="translate(2075.78125 0)"/>
     <use xlink:href="#DejaVuSans-31" transform="translate(2139.404297 0)"/>
     <use xlink:href="#DejaVuSans-31" transform="translate(2203.027344 0)"/>
     <use xlink:href="#DejaVuSans-3a" transform="translate(2266.650391 0)"/>
     <use xlink:href="#DejaVuSans-20" transform="translate(2300.341797 0)"/>
     <use xlink:href="#DejaVuSans-43f" transform="translate(2332.128906 0)"/>
     <use xlink:href="#DejaVuSans-43e" transform="translate(2397.509766 0)"/>
     <use xlink:href="#DejaVuSans-441" transform="translate(2458.691406 0)"/>
     <use xlink:href="#DejaVuSans-442" transform="translate(2513.671875 0)"/>
     <use xlink:href="#DejaVuSans-43e" transform="translate(2571.923828 0)"/>
     <use xlink:href="#DejaVuSans-44f" transform="translate(2633.105469 0)"/>
     <use xlink:href="#DejaVuSans-43d" transform="translate(2693.261719 0)"/>
     <use xlink:href="#DejaVuSans-43d" transform="translate(2758.642578 0)"/>
     <use xlink:href="#DejaVuSans-44b" transform="translate(2824.023438 0)"/>
     <use xlink:href="#DejaVuSans-435" transform="translate(2902.978516 0)"/>
     <use xlink:href="#DejaVuSans-20" transform="translate(2964.501953 0)"/>
     <use xlink:href="#DejaVuSans-43c" transform="translate(2996.289062 0)"/>
     <use xlink:href="#DejaVuSans-430" transform="translate(3071.728516 0)"/>
     <use xlink:href="#DejaVuSans-433" transform="translate(3133.007812 0)"/>
     <use xlink:href="#DejaVuSans-43d" transform="translate(3185.546875 0)"/>
     <use xlink:href="#DejaVuSans-438" transform="translate(3250.927734 0)"/>
     <use xlink:href="#DejaVuSans-442" transform="translate(3315.917969 0)"/>
     <use xlink:href="#DejaVuSans-44b" transform="translate(3374.169922 0)"/>
    </g>
   </g>
   <g id="legend_1">
    <g id="line2d_27">
     <path d="M 362.290625 286.223047
L 371.790625 286.223047
L 381.290625 286.223047
" style="fill: none; stroke: #1f4e79; stroke-width: 1.8; stroke-linecap: square"/>
     <g>
      <use xlink:href="#m835c78ef38" x="371.790625" y="286.223047" style="fill: #1f4e79; stroke: #1f4e79"/>
     </g>
    </g>
    <g id="text_19">
     <!-- Группа высокой исходной экспозиции (топ-15) -->
     <g transform="translate(388.890625 289.548047) scale(0.095 -0.095)">
      <defs>
       <path id="DejaVuSans-443" d="M 2059 -325
Q 1816 -950 1584 -1140
Q 1353 -1331 966 -1331
L 506 -1331
L 506 -850
L 844 -850
Q 1081 -850 1212 -737
Q 1344 -625 1503 -206
L 1606 56
L 191 3500
L 800 3500
L 1894 763
L 2988 3500
L 3597 3500
L 2059 -325
z
" transform="scale(0.015625)"/>
       <path id="DejaVuSans-432" d="M 1156 1613
L 1156 459
L 1975 459
Q 2369 459 2575 607
Q 2781 756 2781 1038
Q 2781 1319 2575 1466
Q 2369 1613 1975 1613
L 1156 1613
z
M 1156 3041
L 1156 2072
L 1913 2072
Q 2238 2072 2444 2201
Q 2650 2331 2650 2563
Q 2650 2794 2444 2917
Q 2238 3041 1913 3041
L 1156 3041
z
M 581 3500
L 1950 3500
Q 2566 3500 2897 3275
Q 3228 3050 3228 2634
Q 3228 2313 3059 2123
Q 2891 1934 2559 1888
Q 2956 1813 3175 1575
Q 3394 1338 3394 981
Q 3394 513 3033 256
Q 2672 0 2003 0
L 581 0
L 581 3500
z
" transform="scale(0.015625)"/>
       <path id="DejaVuSans-439" d="M 3578 3500
L 3578 0
L 3006 0
L 3006 2809
L 1319 0
L 581 0
L 581 3500
L 1153 3500
L 1153 697
L 2838 3500
L 3578 3500
z
M 1102 4833
L 1471 4833
Q 1505 4599 1656 4481
Q 1808 4364 2080 4364
Q 2349 4364 2499 4480
Q 2649 4596 2689 4833
L 3058 4833
Q 3027 4386 2780 4161
Q 2533 3936 2080 3936
Q 1627 3936 1380 4161
Q 1133 4386 1102 4833
z
" transform="scale(0.015625)"/>
       <path id="DejaVuSans-445" d="M 3513 3500
L 2247 1797
L 3578 0
L 2900 0
L 1881 1375
L 863 0
L 184 0
L 1544 1831
L 300 3500
L 978 3500
L 1906 2253
L 2834 3500
L 3513 3500
z
" transform="scale(0.015625)"/>
       <path id="DejaVuSans-437" d="M 2206 1888
Q 2594 1813 2809 1584
Q 3025 1356 3025 1019
Q 3025 478 2622 193
Q 2219 -91 1475 -91
Q 1225 -91 961 -47
Q 697 -3 416 84
L 416 619
Q 638 503 903 445
Q 1169 388 1459 388
Q 1931 388 2195 563
Q 2459 738 2459 1019
Q 2459 1294 2225 1461
Q 1991 1628 1563 1628
L 1100 1628
L 1100 2103
L 1584 2103
Q 1947 2103 2158 2242
Q 2369 2381 2369 2600
Q 2369 2800 2151 2944
Q 1934 3088 1563 3088
Q 1341 3088 1089 3047
Q 838 3006 534 2916
L 534 3438
Q 841 3513 1106 3550
Q 1372 3588 1609 3588
Q 2222 3588 2576 3342
Q 2931 3097 2931 2656
Q 2931 2366 2743 2164
Q 2556 1963 2206 1888
z
" transform="scale(0.015625)"/>
       <path id="DejaVuSans-446" d="M 3603 0
L 581 0
L 581 3500
L 1159 3500
L 1159 459
L 3025 459
L 3025 3500
L 3603 3500
L 3603 459
L 4063 459
L 4063 -884
L 3603 -884
L 3603 0
z
" transform="scale(0.015625)"/>
       <path id="DejaVuSans-2d" d="M 313 2009
L 1997 2009
L 1997 1497
L 313 1497
L 313 2009
z
" transform="scale(0.015625)"/>
      </defs>
      <use xlink:href="#DejaVuSans-413"/>
      <use xlink:href="#DejaVuSans-440" transform="translate(60.986328 0)"/>
      <use xlink:href="#DejaVuSans-443" transform="translate(124.462891 0)"/>
      <use xlink:href="#DejaVuSans-43f" transform="translate(183.642578 0)"/>
      <use xlink:href="#DejaVuSans-43f" transform="translate(249.023438 0)"/>
      <use xlink:href="#DejaVuSans-430" transform="translate(314.404297 0)"/>
      <use xlink:href="#DejaVuSans-20" transform="translate(375.683594 0)"/>
      <use xlink:href="#DejaVuSans-432" transform="translate(407.470703 0)"/>
      <use xlink:href="#DejaVuSans-44b" transform="translate(466.40625 0)"/>
      <use xlink:href="#DejaVuSans-441" transform="translate(545.361328 0)"/>
      <use xlink:href="#DejaVuSans-43e" transform="translate(600.341797 0)"/>
      <use xlink:href="#DejaVuSans-43a" transform="translate(661.523438 0)"/>
      <use xlink:href="#DejaVuSans-43e" transform="translate(721.923828 0)"/>
      <use xlink:href="#DejaVuSans-439" transform="translate(783.105469 0)"/>
      <use xlink:href="#DejaVuSans-20" transform="translate(848.095703 0)"/>
      <use xlink:href="#DejaVuSans-438" transform="translate(879.882812 0)"/>
      <use xlink:href="#DejaVuSans-441" transform="translate(944.873047 0)"/>
      <use xlink:href="#DejaVuSans-445" transform="translate(999.853516 0)"/>
      <use xlink:href="#DejaVuSans-43e" transform="translate(1059.033203 0)"/>
      <use xlink:href="#DejaVuSans-434" transform="translate(1120.214844 0)"/>
      <use xlink:href="#DejaVuSans-43d" transform="translate(1189.355469 0)"/>
      <use xlink:href="#DejaVuSans-43e" transform="translate(1254.736328 0)"/>
      <use xlink:href="#DejaVuSans-439" transform="translate(1315.917969 0)"/>
      <use xlink:href="#DejaVuSans-20" transform="translate(1380.908203 0)"/>
      <use xlink:href="#DejaVuSans-44d" transform="translate(1412.695312 0)"/>
      <use xlink:href="#DejaVuSans-43a" transform="translate(1467.578125 0)"/>
      <use xlink:href="#DejaVuSans-441" transform="translate(1527.978516 0)"/>
      <use xlink:href="#DejaVuSans-43f" transform="translate(1582.958984 0)"/>
      <use xlink:href="#DejaVuSans-43e" transform="translate(1648.339844 0)"/>
      <use xlink:href="#DejaVuSans-437" transform="translate(1709.521484 0)"/>
      <use xlink:href="#DejaVuSans-438" transform="translate(1762.695312 0)"/>
      <use xlink:href="#DejaVuSans-446" transform="translate(1827.685547 0)"/>
      <use xlink:href="#DejaVuSans-438" transform="translate(1895.751953 0)"/>
      <use xlink:href="#DejaVuSans-438" transform="translate(1960.742188 0)"/>
      <use xlink:href="#DejaVuSans-20" transform="translate(2025.732422 0)"/>
      <use xlink:href="#DejaVuSans-28" transform="translate(2057.519531 0)"/>
      <use xlink:href="#DejaVuSans-442" transform="translate(2096.533203 0)"/>
      <use xlink:href="#DejaVuSans-43e" transform="translate(2154.785156 0)"/>
      <use xlink:href="#DejaVuSans-43f" transform="translate(2215.966797 0)"/>
      <use xlink:href="#DejaVuSans-2d" transform="translate(2281.347656 0)"/>
      <use xlink:href="#DejaVuSans-31" transform="translate(2317.431641 0)"/>
      <use xlink:href="#DejaVuSans-35" transform="translate(2381.054688 0)"/>
      <use xlink:href="#DejaVuSans-29" transform="translate(2444.677734 0)"/>
     </g>
    </g>
    <g id="line2d_28">
     <path d="M 362.290625 300.167266
L 371.790625 300.167266
L 381.290625 300.167266
" style="fill: none; stroke: #8c5a2b; stroke-width: 1.8; stroke-linecap: square"/>
     <g>
      <use xlink:href="#m9352beae10" x="371.790625" y="300.167266" style="fill: #8c5a2b; stroke: #8c5a2b"/>
     </g>
    </g>
    <g id="text_20">
     <!-- Прочие страны -->
     <g transform="translate(388.890625 303.492266) scale(0.095 -0.095)">
      <defs>
       <path id="DejaVuSans-41f" d="M 4184 4666
L 4184 0
L 3553 0
L 3553 4134
L 1259 4134
L 1259 0
L 628 0
L 628 4666
L 4184 4666
z
" transform="scale(0.015625)"/>
       <path id="DejaVuSans-447" d="M 2625 0
L 2625 1472
L 1553 1472
Q 1075 1472 756 1769
Q 469 2038 469 2613
L 469 3500
L 1044 3500
L 1044 2666
Q 1044 2300 1206 2116
Q 1372 1931 1697 1931
L 2625 1931
L 2625 3500
L 3200 3500
L 3200 0
L 2625 0
z
" transform="scale(0.015625)"/>
      </defs>
      <use xlink:href="#DejaVuSans-41f"/>
      <use xlink:href="#DejaVuSans-440" transform="translate(75.195312 0)"/>
      <use xlink:href="#DejaVuSans-43e" transform="translate(138.671875 0)"/>
      <use xlink:href="#DejaVuSans-447" transform="translate(199.853516 0)"/>
      <use xlink:href="#DejaVuSans-438" transform="translate(258.935547 0)"/>
      <use xlink:href="#DejaVuSans-435" transform="translate(323.925781 0)"/>
      <use xlink:href="#DejaVuSans-20" transform="translate(385.449219 0)"/>
      <use xlink:href="#DejaVuSans-441" transform="translate(417.236328 0)"/>
      <use xlink:href="#DejaVuSans-442" transform="translate(472.216797 0)"/>
      <use xlink:href="#DejaVuSans-440" transform="translate(530.46875 0)"/>
      <use xlink:href="#DejaVuSans-430" transform="translate(593.945312 0)"/>
      <use xlink:href="#DejaVuSans-43d" transform="translate(655.224609 0)"/>
      <use xlink:href="#DejaVuSans-44b" transform="translate(720.605469 0)"/>
     </g>
    </g>
   </g>
  </g>
 </g>
 <defs>
  <clipPath id="p12cd81cad4">
   <rect x="41.070938" y="29.077969" width="592.32" height="284.94"/>
  </clipPath>
 </defs>
</svg>
