<?xml version="1.0" encoding="utf-8" standalone="no"?>
<!DOCTYPE svg PUBLIC "-//W3C//DTD SVG 1.1//EN"
  "http://www.w3.org/Graphics/SVG/1.1/DTD/svg11.dtd">
<svg xmlns:xlink="http://www.w3.org/1999/xlink" width="712.669687pt" height="424.083437pt" viewBox="0 0 712.669687 424.083437" xmlns="http://www.w3.org/2000/svg" version="1.1">
 <metadata>
  <rdf:RDF xmlns:dc="http://purl.org/dc/elements/1.1/" xmlns:cc="http://creativecommons.org/ns#" xmlns:rdf="http://www.w3.org/1999/02/22-rdf-syntax-ns#">
   <cc:Work>
    <dc:type rdf:resource="http://purl.org/dc/dcmitype/StillImage"/>
    <dc:date>2026-05-10T03:14:20.404673</dc:date>
    <dc:format>image/svg+xml</dc:format>
    <dc:creator>
     <cc:Agent>
      <dc:title>Matplotlib v3.10.8, https://matplotlib.org/</dc:title>
     </cc:Agent>
    </dc:creator>
   </cc:Work>
  </rdf:RDF>
 </metadata>
 <defs>
  <style type="text/css">*{stroke-linejoin: round; stroke-linecap: butt}</style>
 </defs>
 <g id="figure_1">
  <g id="patch_1">
   <path d="M 0 424.083437
L 712.669687 424.083437
L 712.669687 -0
L 0 -0
z
" style="fill: #ffffff"/>
  </g>
  <g id="axes_1">
   <g id="patch_2">
    <path d="M 41.070938 386.059375
L 705.469687 386.059375
L 705.469687 29.299375
L 41.070938 29.299375
z
" style="fill: #ffffff"/>
   </g>
   <g id="matplotlib.axis_1">
    <g id="xtick_1">
     <g id="line2d_1">
      <defs>
       <path id="md64262b279" d="M 0 0
L 0 3
" style="stroke: #333333; stroke-width: 0.8"/>
      </defs>
      <g>
       <use xlink:href="#md64262b279" x="71.270881" y="386.059375" style="fill: #333333; stroke: #333333; stroke-width: 0.8"/>
      </g>
     </g>
     <g id="text_1">
      <!-- 2010 -->
      <g style="fill: #333333" transform="translate(58.545881 400.157812) scale(0.1 -0.1)">
       <defs>
        <path id="DejaVuSans-32" d="M 1228 531
L 3431 531
L 3431 0
L 469 0
L 469 531
Q 828 903 1448 1529
Q 2069 2156 2228 2338
Q 2531 2678 2651 2914
Q 2772 3150 2772 3378
Q 2772 3750 2511 3984
Q 2250 4219 1831 4219
Q 1534 4219 1204 4116
Q 875 4013 500 3803
L 500 4441
Q 881 4594 1212 4672
Q 1544 4750 1819 4750
Q 2544 4750 2975 4387
Q 3406 4025 3406 3419
Q 3406 3131 3298 2873
Q 3191 2616 2906 2266
Q 2828 2175 2409 1742
Q 1991 1309 1228 531
z
" transform="scale(0.015625)"/>
        <path id="DejaVuSans-30" d="M 2034 4250
Q 1547 4250 1301 3770
Q 1056 3291 1056 2328
Q 1056 1369 1301 889
Q 1547 409 2034 409
Q 2525 409 2770 889
Q 3016 1369 3016 2328
Q 3016 3291 2770 3770
Q 2525 4250 2034 4250
z
M 2034 4750
Q 2819 4750 3233 4129
Q 3647 3509 3647 2328
Q 3647 1150 3233 529
Q 2819 -91 2034 -91
Q 1250 -91 836 529
Q 422 1150 422 2328
Q 422 3509 836 4129
Q 1250 4750 2034 4750
z
" transform="scale(0.015625)"/>
        <path id="DejaVuSans-31" d="M 794 531
L 1825 531
L 1825 4091
L 703 3866
L 703 4441
L 1819 4666
L 2450 4666
L 2450 531
L 3481 531
L 3481 0
L 794 0
L 794 531
z
" transform="scale(0.015625)"/>
       </defs>
       <use xlink:href="#DejaVuSans-32"/>
       <use xlink:href="#DejaVuSans-30" transform="translate(63.623047 0)"/>
       <use xlink:href="#DejaVuSans-31" transform="translate(127.246094 0)"/>
       <use xlink:href="#DejaVuSans-30" transform="translate(190.869141 0)"/>
      </g>
     </g>
    </g>
    <g id="xtick_2">
     <g id="line2d_2">
      <g>
       <use xlink:href="#md64262b279" x="157.556433" y="386.059375" style="fill: #333333; stroke: #333333; stroke-width: 0.8"/>
      </g>
     </g>
     <g id="text_2">
      <!-- 2012 -->
      <g style="fill: #333333" transform="translate(144.831433 400.157812) scale(0.1 -0.1)">
       <use xlink:href="#DejaVuSans-32"/>
       <use xlink:href="#DejaVuSans-30" transform="translate(63.623047 0)"/>
       <use xlink:href="#DejaVuSans-31" transform="translate(127.246094 0)"/>
       <use xlink:href="#DejaVuSans-32" transform="translate(190.869141 0)"/>
      </g>
     </g>
    </g>
    <g id="xtick_3">
     <g id="line2d_3">
      <g>
       <use xlink:href="#md64262b279" x="243.841985" y="386.059375" style="fill: #333333; stroke: #333333; stroke-width: 0.8"/>
      </g>
     </g>
     <g id="text_3">
      <!-- 2014 -->
      <g style="fill: #333333" transform="translate(231.116985 400.157812) scale(0.1 -0.1)">
       <defs>
        <path id="DejaVuSans-34" d="M 2419 4116
L 825 1625
L 2419 1625
L 2419 4116
z
M 2253 4666
L 3047 4666
L 3047 1625
L 3713 1625
L 3713 1100
L 3047 1100
L 3047 0
L 2419 0
L 2419 1100
L 313 1100
L 313 1709
L 2253 4666
z
" transform="scale(0.015625)"/>
       </defs>
       <use xlink:href="#DejaVuSans-32"/>
       <use xlink:href="#DejaVuSans-30" transform="translate(63.623047 0)"/>
       <use xlink:href="#DejaVuSans-31" transform="translate(127.246094 0)"/>
       <use xlink:href="#DejaVuSans-34" transform="translate(190.869141 0)"/>
      </g>
     </g>
    </g>
    <g id="xtick_4">
     <g id="line2d_4">
      <g>
       <use xlink:href="#md64262b279" x="330.127537" y="386.059375" style="fill: #333333; stroke: #333333; stroke-width: 0.8"/>
      </g>
     </g>
     <g id="text_4">
      <!-- 2016 -->
      <g style="fill: #333333" transform="translate(317.402537 400.157812) scale(0.1 -0.1)">
       <defs>
        <path id="DejaVuSans-36" d="M 2113 2584
Q 1688 2584 1439 2293
Q 1191 2003 1191 1497
Q 1191 994 1439 701
Q 1688 409 2113 409
Q 2538 409 2786 701
Q 3034 994 3034 1497
Q 3034 2003 2786 2293
Q 2538 2584 2113 2584
z
M 3366 4563
L 3366 3988
Q 3128 4100 2886 4159
Q 2644 4219 2406 4219
Q 1781 4219 1451 3797
Q 1122 3375 1075 2522
Q 1259 2794 1537 2939
Q 1816 3084 2150 3084
Q 2853 3084 3261 2657
Q 3669 2231 3669 1497
Q 3669 778 3244 343
Q 2819 -91 2113 -91
Q 1303 -91 875 529
Q 447 1150 447 2328
Q 447 3434 972 4092
Q 1497 4750 2381 4750
Q 2619 4750 2861 4703
Q 3103 4656 3366 4563
z
" transform="scale(0.015625)"/>
       </defs>
       <use xlink:href="#DejaVuSans-32"/>
       <use xlink:href="#DejaVuSans-30" transform="translate(63.623047 0)"/>
       <use xlink:href="#DejaVuSans-31" transform="translate(127.246094 0)"/>
       <use xlink:href="#DejaVuSans-36" transform="translate(190.869141 0)"/>
      </g>
     </g>
    </g>
    <g id="xtick_5">
     <g id="line2d_5">
      <g>
       <use xlink:href="#md64262b279" x="416.413088" y="386.059375" style="fill: #333333; stroke: #333333; stroke-width: 0.8"/>
      </g>
     </g>
     <g id="text_5">
      <!-- 2018 -->
      <g style="fill: #333333" transform="translate(403.688088 400.157812) scale(0.1 -0.1)">
       <defs>
        <path id="DejaVuSans-38" d="M 2034 2216
Q 1584 2216 1326 1975
Q 1069 1734 1069 1313
Q 1069 891 1326 650
Q 1584 409 2034 409
Q 2484 409 2743 651
Q 3003 894 3003 1313
Q 3003 1734 2745 1975
Q 2488 2216 2034 2216
z
M 1403 2484
Q 997 2584 770 2862
Q 544 3141 544 3541
Q 544 4100 942 4425
Q 1341 4750 2034 4750
Q 2731 4750 3128 4425
Q 3525 4100 3525 3541
Q 3525 3141 3298 2862
Q 3072 2584 2669 2484
Q 3125 2378 3379 2068
Q 3634 1759 3634 1313
Q 3634 634 3220 271
Q 2806 -91 2034 -91
Q 1263 -91 848 271
Q 434 634 434 1313
Q 434 1759 690 2068
Q 947 2378 1403 2484
z
M 1172 3481
Q 1172 3119 1398 2916
Q 1625 2713 2034 2713
Q 2441 2713 2670 2916
Q 2900 3119 2900 3481
Q 2900 3844 2670 4047
Q 2441 4250 2034 4250
Q 1625 4250 1398 4047
Q 1172 3844 1172 3481
z
" transform="scale(0.015625)"/>
       </defs>
       <use xlink:href="#DejaVuSans-32"/>
       <use xlink:href="#DejaVuSans-30" transform="translate(63.623047 0)"/>
       <use xlink:href="#DejaVuSans-31" transform="translate(127.246094 0)"/>
       <use xlink:href="#DejaVuSans-38" transform="translate(190.869141 0)"/>
      </g>
     </g>
    </g>
    <g id="xtick_6">
     <g id="line2d_6">
      <g>
       <use xlink:href="#md64262b279" x="502.69864" y="386.059375" style="fill: #333333; stroke: #333333; stroke-width: 0.8"/>
      </g>
     </g>
     <g id="text_6">
      <!-- 2020 -->
      <g style="fill: #333333" transform="translate(489.97364 400.157812) scale(0.1 -0.1)">
       <use xlink:href="#DejaVuSans-32"/>
       <use xlink:href="#DejaVuSans-30" transform="translate(63.623047 0)"/>
       <use xlink:href="#DejaVuSans-32" transform="translate(127.246094 0)"/>
       <use xlink:href="#DejaVuSans-30" transform="translate(190.869141 0)"/>
      </g>
     </g>
    </g>
    <g id="xtick_7">
     <g id="line2d_7">
      <g>
       <use xlink:href="#md64262b279" x="588.984192" y="386.059375" style="fill: #333333; stroke: #333333; stroke-width: 0.8"/>
      </g>
     </g>
     <g id="text_7">
      <!-- 2022 -->
      <g style="fill: #333333" transform="translate(576.259192 400.157812) scale(0.1 -0.1)">
       <use xlink:href="#DejaVuSans-32"/>
       <use xlink:href="#DejaVuSans-30" transform="translate(63.623047 0)"/>
       <use xlink:href="#DejaVuSans-32" transform="translate(127.246094 0)"/>
       <use xlink:href="#DejaVuSans-32" transform="translate(190.869141 0)"/>
      </g>
     </g>
    </g>
    <g id="xtick_8">
     <g id="line2d_8">
      <g>
       <use xlink:href="#md64262b279" x="675.269744" y="386.059375" style="fill: #333333; stroke: #333333; stroke-width: 0.8"/>
      </g>
     </g>
     <g id="text_8">
      <!-- 2024 -->
      <g style="fill: #333333" transform="translate(662.544744 400.157812) scale(0.1 -0.1)">
       <use xlink:href="#DejaVuSans-32"/>
       <use xlink:href="#DejaVuSans-30" transform="translate(63.623047 0)"/>
       <use xlink:href="#DejaVuSans-32" transform="translate(127.246094 0)"/>
       <use xlink:href="#DejaVuSans-34" transform="translate(190.869141 0)"/>
      </g>
     </g>
    </g>
    <g id="text_9">
     <!-- Год -->
     <g transform="translate(362.748125 414.595781) scale(0.11 -0.11)">
      <defs>
       <path id="DejaVuSans-413" d="M 628 0
L 628 4666
L 3531 4666
L 3531 4134
L 1259 4134
L 1259 0
L 628 0
z
" transform="scale(0.015625)"/>
       <path id="DejaVuSans-43e" d="M 1959 3097
Q 1497 3097 1228 2736
Q 959 2375 959 1747
Q 959 1119 1226 758
Q 1494 397 1959 397
Q 2419 397 2687 759
Q 2956 1122 2956 1747
Q 2956 2369 2687 2733
Q 2419 3097 1959 3097
z
M 1959 3584
Q 2709 3584 3137 3096
Q 3566 2609 3566 1747
Q 3566 888 3137 398
Q 2709 -91 1959 -91
Q 1206 -91 779 398
Q 353 888 353 1747
Q 353 2609 779 3096
Q 1206 3584 1959 3584
z
" transform="scale(0.015625)"/>
       <path id="DejaVuSans-434" d="M 1384 459
L 3053 459
L 3053 3041
L 1844 3041
L 1844 2603
Q 1844 1316 1475 628
L 1384 459
z
M 550 459
Q 834 584 959 850
Q 1266 1509 1266 2838
L 1266 3500
L 3631 3500
L 3631 459
L 4091 459
L 4091 -884
L 3631 -884
L 3631 0
L 794 0
L 794 -884
L 334 -884
L 334 459
L 550 459
z
" transform="scale(0.015625)"/>
      </defs>
      <use xlink:href="#DejaVuSans-413"/>
      <use xlink:href="#DejaVuSans-43e" transform="translate(60.986328 0)"/>
      <use xlink:href="#DejaVuSans-434" transform="translate(122.167969 0)"/>
     </g>
    </g>
   </g>
   <g id="matplotlib.axis_2">
    <g id="ytick_1">
     <g id="line2d_9">
      <path d="M 41.070938 369.843011
L 705.469687 369.843011
" clip-path="url(#pd4519d9551)" style="fill: none; stroke: #d9d9d9; stroke-opacity: 0.8; stroke-width: 0.7; stroke-linecap: square"/>
     </g>
     <g id="line2d_10">
      <defs>
       <path id="m2a66d600bd" d="M 0 0
L -3 0
" style="stroke: #333333; stroke-width: 0.8"/>
      </defs>
      <g>
       <use xlink:href="#m2a66d600bd" x="41.070938" y="369.843011" style="fill: #333333; stroke: #333333; stroke-width: 0.8"/>
      </g>
     </g>
     <g id="text_10">
      <!-- 0 -->
      <g style="fill: #333333" transform="translate(28.208438 373.64223) scale(0.1 -0.1)">
       <use xlink:href="#DejaVuSans-30"/>
      </g>
     </g>
    </g>
    <g id="ytick_2">
     <g id="line2d_11">
      <path d="M 41.070938 304.977557
L 705.469687 304.977557
" clip-path="url(#pd4519d9551)" style="fill: none; stroke: #d9d9d9; stroke-opacity: 0.8; stroke-width: 0.7; stroke-linecap: square"/>
     </g>
     <g id="line2d_12">
      <g>
       <use xlink:href="#m2a66d600bd" x="41.070938" y="304.977557" style="fill: #333333; stroke: #333333; stroke-width: 0.8"/>
      </g>
     </g>
     <g id="text_11">
      <!-- 2 -->
      <g style="fill: #333333" transform="translate(28.208438 308.776776) scale(0.1 -0.1)">
       <use xlink:href="#DejaVuSans-32"/>
      </g>
     </g>
    </g>
    <g id="ytick_3">
     <g id="line2d_13">
      <path d="M 41.070938 240.112102
L 705.469687 240.112102
" clip-path="url(#pd4519d9551)" style="fill: none; stroke: #d9d9d9; stroke-opacity: 0.8; stroke-width: 0.7; stroke-linecap: square"/>
     </g>
     <g id="line2d_14">
      <g>
       <use xlink:href="#m2a66d600bd" x="41.070938" y="240.112102" style="fill: #333333; stroke: #333333; stroke-width: 0.8"/>
      </g>
     </g>
     <g id="text_12">
      <!-- 4 -->
      <g style="fill: #333333" transform="translate(28.208438 243.911321) scale(0.1 -0.1)">
       <use xlink:href="#DejaVuSans-34"/>
      </g>
     </g>
    </g>
    <g id="ytick_4">
     <g id="line2d_15">
      <path d="M 41.070938 175.246648
L 705.469687 175.246648
" clip-path="url(#pd4519d9551)" style="fill: none; stroke: #d9d9d9; stroke-opacity: 0.8; stroke-width: 0.7; stroke-linecap: square"/>
     </g>
     <g id="line2d_16">
      <g>
       <use xlink:href="#m2a66d600bd" x="41.070938" y="175.246648" style="fill: #333333; stroke: #333333; stroke-width: 0.8"/>
      </g>
     </g>
     <g id="text_13">
      <!-- 6 -->
      <g style="fill: #333333" transform="translate(28.208438 179.045866) scale(0.1 -0.1)">
       <use xlink:href="#DejaVuSans-36"/>
      </g>
     </g>
    </g>
    <g id="ytick_5">
     <g id="line2d_17">
      <path d="M 41.070938 110.381193
L 705.469687 110.381193
" clip-path="url(#pd4519d9551)" style="fill: none; stroke: #d9d9d9; stroke-opacity: 0.8; stroke-width: 0.7; stroke-linecap: square"/>
     </g>
     <g id="line2d_18">
      <g>
       <use xlink:href="#m2a66d600bd" x="41.070938" y="110.381193" style="fill: #333333; stroke: #333333; stroke-width: 0.8"/>
      </g>
     </g>
     <g id="text_14">
      <!-- 8 -->
      <g style="fill: #333333" transform="translate(28.208438 114.180412) scale(0.1 -0.1)">
       <use xlink:href="#DejaVuSans-38"/>
      </g>
     </g>
    </g>
    <g id="ytick_6">
     <g id="line2d_19">
      <path d="M 41.070938 45.515739
L 705.469687 45.515739
" clip-path="url(#pd4519d9551)" style="fill: none; stroke: #d9d9d9; stroke-opacity: 0.8; stroke-width: 0.7; stroke-linecap: square"/>
     </g>
     <g id="line2d_20">
      <g>
       <use xlink:href="#m2a66d600bd" x="41.070938" y="45.515739" style="fill: #333333; stroke: #333333; stroke-width: 0.8"/>
      </g>
     </g>
     <g id="text_15">
      <!-- 10 -->
      <g style="fill: #333333" transform="translate(21.845938 49.314957) scale(0.1 -0.1)">
       <use xlink:href="#DejaVuSans-31"/>
       <use xlink:href="#DejaVuSans-30" transform="translate(63.623047 0)"/>
      </g>
     </g>
    </g>
    <g id="text_16">
     <!-- Количество партнёров -->
     <g transform="translate(15.558281 273.995625) rotate(-90) scale(0.11 -0.11)">
      <defs>
       <path id="DejaVuSans-41a" d="M 628 4666
L 1259 4666
L 1259 2359
L 3516 4666
L 4325 4666
L 2522 2822
L 4419 0
L 3731 0
L 2113 2403
L 1259 1531
L 1259 0
L 628 0
L 628 4666
z
" transform="scale(0.015625)"/>
       <path id="DejaVuSans-43b" d="M 238 0
L 238 478
Q 806 566 981 959
Q 1194 1513 1194 2928
L 1194 3500
L 3559 3500
L 3559 0
L 2984 0
L 2984 3041
L 1769 3041
L 1769 2694
Q 1769 1344 1494 738
Q 1200 91 238 0
z
" transform="scale(0.015625)"/>
       <path id="DejaVuSans-438" d="M 3578 3500
L 3578 0
L 3006 0
L 3006 2809
L 1319 0
L 581 0
L 581 3500
L 1153 3500
L 1153 697
L 2838 3500
L 3578 3500
z
" transform="scale(0.015625)"/>
       <path id="DejaVuSans-447" d="M 2625 0
L 2625 1472
L 1553 1472
Q 1075 1472 756 1769
Q 469 2038 469 2613
L 469 3500
L 1044 3500
L 1044 2666
Q 1044 2300 1206 2116
Q 1372 1931 1697 1931
L 2625 1931
L 2625 3500
L 3200 3500
L 3200 0
L 2625 0
z
" transform="scale(0.015625)"/>
       <path id="DejaVuSans-435" d="M 3597 1894
L 3597 1613
L 953 1613
Q 991 1019 1311 708
Q 1631 397 2203 397
Q 2534 397 2845 478
Q 3156 559 3463 722
L 3463 178
Q 3153 47 2828 -22
Q 2503 -91 2169 -91
Q 1331 -91 842 396
Q 353 884 353 1716
Q 353 2575 817 3079
Q 1281 3584 2069 3584
Q 2775 3584 3186 3129
Q 3597 2675 3597 1894
z
M 3022 2063
Q 3016 2534 2758 2815
Q 2500 3097 2075 3097
Q 1594 3097 1305 2825
Q 1016 2553 972 2059
L 3022 2063
z
" transform="scale(0.015625)"/>
       <path id="DejaVuSans-441" d="M 3122 3366
L 3122 2828
Q 2878 2963 2633 3030
Q 2388 3097 2138 3097
Q 1578 3097 1268 2742
Q 959 2388 959 1747
Q 959 1106 1268 751
Q 1578 397 2138 397
Q 2388 397 2633 464
Q 2878 531 3122 666
L 3122 134
Q 2881 22 2623 -34
Q 2366 -91 2075 -91
Q 1284 -91 818 406
Q 353 903 353 1747
Q 353 2603 823 3093
Q 1294 3584 2113 3584
Q 2378 3584 2631 3529
Q 2884 3475 3122 3366
z
" transform="scale(0.015625)"/>
       <path id="DejaVuSans-442" d="M 188 3500
L 3541 3500
L 3541 3041
L 2147 3041
L 2147 0
L 1581 0
L 1581 3041
L 188 3041
L 188 3500
z
" transform="scale(0.015625)"/>
       <path id="DejaVuSans-432" d="M 1156 1613
L 1156 459
L 1975 459
Q 2369 459 2575 607
Q 2781 756 2781 1038
Q 2781 1319 2575 1466
Q 2369 1613 1975 1613
L 1156 1613
z
M 1156 3041
L 1156 2072
L 1913 2072
Q 2238 2072 2444 2201
Q 2650 2331 2650 2563
Q 2650 2794 2444 2917
Q 2238 3041 1913 3041
L 1156 3041
z
M 581 3500
L 1950 3500
Q 2566 3500 2897 3275
Q 3228 3050 3228 2634
Q 3228 2313 3059 2123
Q 2891 1934 2559 1888
Q 2956 1813 3175 1575
Q 3394 1338 3394 981
Q 3394 513 3033 256
Q 2672 0 2003 0
L 581 0
L 581 3500
z
" transform="scale(0.015625)"/>
       <path id="DejaVuSans-20" transform="scale(0.015625)"/>
       <path id="DejaVuSans-43f" d="M 3603 3500
L 3603 0
L 3025 0
L 3025 3041
L 1159 3041
L 1159 0
L 581 0
L 581 3500
L 3603 3500
z
" transform="scale(0.015625)"/>
       <path id="DejaVuSans-430" d="M 2194 1759
Q 1497 1759 1228 1600
Q 959 1441 959 1056
Q 959 750 1161 570
Q 1363 391 1709 391
Q 2188 391 2477 730
Q 2766 1069 2766 1631
L 2766 1759
L 2194 1759
z
M 3341 1997
L 3341 0
L 2766 0
L 2766 531
Q 2569 213 2275 61
Q 1981 -91 1556 -91
Q 1019 -91 701 211
Q 384 513 384 1019
Q 384 1609 779 1909
Q 1175 2209 1959 2209
L 2766 2209
L 2766 2266
Q 2766 2663 2505 2880
Q 2244 3097 1772 3097
Q 1472 3097 1187 3025
Q 903 2953 641 2809
L 641 3341
Q 956 3463 1253 3523
Q 1550 3584 1831 3584
Q 2591 3584 2966 3190
Q 3341 2797 3341 1997
z
" transform="scale(0.015625)"/>
       <path id="DejaVuSans-440" d="M 1159 525
L 1159 -1331
L 581 -1331
L 581 3500
L 1159 3500
L 1159 2969
Q 1341 3281 1617 3432
Q 1894 3584 2278 3584
Q 2916 3584 3314 3078
Q 3713 2572 3713 1747
Q 3713 922 3314 415
Q 2916 -91 2278 -91
Q 1894 -91 1617 61
Q 1341 213 1159 525
z
M 3116 1747
Q 3116 2381 2855 2742
Q 2594 3103 2138 3103
Q 1681 3103 1420 2742
Q 1159 2381 1159 1747
Q 1159 1113 1420 752
Q 1681 391 2138 391
Q 2594 391 2855 752
Q 3116 1113 3116 1747
z
" transform="scale(0.015625)"/>
       <path id="DejaVuSans-43d" d="M 581 3500
L 1159 3500
L 1159 2072
L 3025 2072
L 3025 3500
L 3603 3500
L 3603 0
L 3025 0
L 3025 1613
L 1159 1613
L 1159 0
L 581 0
L 581 3500
z
" transform="scale(0.015625)"/>
       <path id="DejaVuSans-451" d="M 3597 1894
L 3597 1613
L 953 1613
Q 991 1019 1311 708
Q 1631 397 2203 397
Q 2534 397 2845 478
Q 3156 559 3463 722
L 3463 178
Q 3153 47 2828 -22
Q 2503 -91 2169 -91
Q 1331 -91 842 396
Q 353 884 353 1716
Q 353 2575 817 3079
Q 1281 3584 2069 3584
Q 2775 3584 3186 3129
Q 3597 2675 3597 1894
z
M 3022 2063
Q 3016 2534 2758 2815
Q 2500 3097 2075 3097
Q 1594 3097 1305 2825
Q 1016 2553 972 2059
L 3022 2063
z
M 2366 4850
L 3000 4850
L 3000 4219
L 2366 4219
L 2366 4850
z
M 1144 4850
L 1778 4850
L 1778 4219
L 1144 4219
L 1144 4850
z
" transform="scale(0.015625)"/>
      </defs>
      <use xlink:href="#DejaVuSans-41a"/>
      <use xlink:href="#DejaVuSans-43e" transform="translate(70.996094 0)"/>
      <use xlink:href="#DejaVuSans-43b" transform="translate(132.177734 0)"/>
      <use xlink:href="#DejaVuSans-438" transform="translate(196.09375 0)"/>
      <use xlink:href="#DejaVuSans-447" transform="translate(261.083984 0)"/>
      <use xlink:href="#DejaVuSans-435" transform="translate(320.166016 0)"/>
      <use xlink:href="#DejaVuSans-441" transform="translate(381.689453 0)"/>
      <use xlink:href="#DejaVuSans-442" transform="translate(436.669922 0)"/>
      <use xlink:href="#DejaVuSans-432" transform="translate(494.921875 0)"/>
      <use xlink:href="#DejaVuSans-43e" transform="translate(553.857422 0)"/>
      <use xlink:href="#DejaVuSans-20" transform="translate(615.039062 0)"/>
      <use xlink:href="#DejaVuSans-43f" transform="translate(646.826172 0)"/>
      <use xlink:href="#DejaVuSans-430" transform="translate(712.207031 0)"/>
      <use xlink:href="#DejaVuSans-440" transform="translate(773.486328 0)"/>
      <use xlink:href="#DejaVuSans-442" transform="translate(836.962891 0)"/>
      <use xlink:href="#DejaVuSans-43d" transform="translate(895.214844 0)"/>
      <use xlink:href="#DejaVuSans-451" transform="translate(960.595703 0)"/>
      <use xlink:href="#DejaVuSans-440" transform="translate(1022.119141 0)"/>
      <use xlink:href="#DejaVuSans-43e" transform="translate(1085.595703 0)"/>
      <use xlink:href="#DejaVuSans-432" transform="translate(1146.777344 0)"/>
     </g>
    </g>
   </g>
   <g id="line2d_21">
    <path d="M 71.270881 45.515739
L 114.413657 304.977557
L 157.556433 272.54483
L 200.699209 337.410284
L 243.841985 337.410284
L 286.984761 369.843011
L 330.127537 337.410284
L 373.270312 337.410284
L 416.413088 304.977557
L 459.555864 304.977557
L 502.69864 337.410284
L 545.841416 304.977557
L 588.984192 337.410284
L 632.126968 337.410284
L 675.269744 304.977557
" clip-path="url(#pd4519d9551)" style="fill: none; stroke: #1f4e79; stroke-width: 1.8; stroke-linecap: square"/>
    <defs>
     <path id="m3a24fcd114" d="M 0 2.5
C 0.663008 2.5 1.29895 2.236584 1.767767 1.767767
C 2.236584 1.29895 2.5 0.663008 2.5 0
C 2.5 -0.663008 2.236584 -1.29895 1.767767 -1.767767
C 1.29895 -2.236584 0.663008 -2.5 0 -2.5
C -0.663008 -2.5 -1.29895 -2.236584 -1.767767 -1.767767
C -2.236584 -1.29895 -2.5 -0.663008 -2.5 0
C -2.5 0.663008 -2.236584 1.29895 -1.767767 1.767767
C -1.29895 2.236584 -0.663008 2.5 0 2.5
z
" style="stroke: #1f4e79"/>
    </defs>
    <g clip-path="url(#pd4519d9551)">
     <use xlink:href="#m3a24fcd114" x="71.270881" y="45.515739" style="fill: #1f4e79; stroke: #1f4e79"/>
     <use xlink:href="#m3a24fcd114" x="114.413657" y="304.977557" style="fill: #1f4e79; stroke: #1f4e79"/>
     <use xlink:href="#m3a24fcd114" x="157.556433" y="272.54483" style="fill: #1f4e79; stroke: #1f4e79"/>
     <use xlink:href="#m3a24fcd114" x="200.699209" y="337.410284" style="fill: #1f4e79; stroke: #1f4e79"/>
     <use xlink:href="#m3a24fcd114" x="243.841985" y="337.410284" style="fill: #1f4e79; stroke: #1f4e79"/>
     <use xlink:href="#m3a24fcd114" x="286.984761" y="369.843011" style="fill: #1f4e79; stroke: #1f4e79"/>
     <use xlink:href="#m3a24fcd114" x="330.127537" y="337.410284" style="fill: #1f4e79; stroke: #1f4e79"/>
     <use xlink:href="#m3a24fcd114" x="373.270312" y="337.410284" style="fill: #1f4e79; stroke: #1f4e79"/>
     <use xlink:href="#m3a24fcd114" x="416.413088" y="304.977557" style="fill: #1f4e79; stroke: #1f4e79"/>
     <use xlink:href="#m3a24fcd114" x="459.555864" y="304.977557" style="fill: #1f4e79; stroke: #1f4e79"/>
     <use xlink:href="#m3a24fcd114" x="502.69864" y="337.410284" style="fill: #1f4e79; stroke: #1f4e79"/>
     <use xlink:href="#m3a24fcd114" x="545.841416" y="304.977557" style="fill: #1f4e79; stroke: #1f4e79"/>
     <use xlink:href="#m3a24fcd114" x="588.984192" y="337.410284" style="fill: #1f4e79; stroke: #1f4e79"/>
     <use xlink:href="#m3a24fcd114" x="632.126968" y="337.410284" style="fill: #1f4e79; stroke: #1f4e79"/>
     <use xlink:href="#m3a24fcd114" x="675.269744" y="304.977557" style="fill: #1f4e79; stroke: #1f4e79"/>
    </g>
   </g>
   <g id="line2d_22">
    <path d="M 71.270881 369.843011
L 114.413657 304.977557
L 157.556433 272.54483
L 200.699209 337.410284
L 243.841985 337.410284
L 286.984761 369.843011
L 330.127537 337.410284
L 373.270312 337.410284
L 416.413088 304.977557
L 459.555864 304.977557
L 502.69864 337.410284
L 545.841416 304.977557
L 588.984192 337.410284
L 632.126968 337.410284
L 675.269744 304.977557
" clip-path="url(#pd4519d9551)" style="fill: none; stroke: #8c5a2b; stroke-width: 1.8; stroke-linecap: square"/>
    <defs>
     <path id="m68424a151d" d="M 0 2.5
C 0.663008 2.5 1.29895 2.236584 1.767767 1.767767
C 2.236584 1.29895 2.5 0.663008 2.5 0
C 2.5 -0.663008 2.236584 -1.29895 1.767767 -1.767767
C 1.29895 -2.236584 0.663008 -2.5 0 -2.5
C -0.663008 -2.5 -1.29895 -2.236584 -1.767767 -1.767767
C -2.236584 -1.29895 -2.5 -0.663008 -2.5 0
C -2.5 0.663008 -2.236584 1.29895 -1.767767 1.767767
C -1.29895 2.236584 -0.663008 2.5 0 2.5
z
" style="stroke: #8c5a2b"/>
    </defs>
    <g clip-path="url(#pd4519d9551)">
     <use xlink:href="#m68424a151d" x="71.270881" y="369.843011" style="fill: #8c5a2b; stroke: #8c5a2b"/>
     <use xlink:href="#m68424a151d" x="114.413657" y="304.977557" style="fill: #8c5a2b; stroke: #8c5a2b"/>
     <use xlink:href="#m68424a151d" x="157.556433" y="272.54483" style="fill: #8c5a2b; stroke: #8c5a2b"/>
     <use xlink:href="#m68424a151d" x="200.699209" y="337.410284" style="fill: #8c5a2b; stroke: #8c5a2b"/>
     <use xlink:href="#m68424a151d" x="243.841985" y="337.410284" style="fill: #8c5a2b; stroke: #8c5a2b"/>
     <use xlink:href="#m68424a151d" x="286.984761" y="369.843011" style="fill: #8c5a2b; stroke: #8c5a2b"/>
     <use xlink:href="#m68424a151d" x="330.127537" y="337.410284" style="fill: #8c5a2b; stroke: #8c5a2b"/>
     <use xlink:href="#m68424a151d" x="373.270312" y="337.410284" style="fill: #8c5a2b; stroke: #8c5a2b"/>
     <use xlink:href="#m68424a151d" x="416.413088" y="304.977557" style="fill: #8c5a2b; stroke: #8c5a2b"/>
     <use xlink:href="#m68424a151d" x="459.555864" y="304.977557" style="fill: #8c5a2b; stroke: #8c5a2b"/>
     <use xlink:href="#m68424a151d" x="502.69864" y="337.410284" style="fill: #8c5a2b; stroke: #8c5a2b"/>
     <use xlink:href="#m68424a151d" x="545.841416" y="304.977557" style="fill: #8c5a2b; stroke: #8c5a2b"/>
     <use xlink:href="#m68424a151d" x="588.984192" y="337.410284" style="fill: #8c5a2b; stroke: #8c5a2b"/>
     <use xlink:href="#m68424a151d" x="632.126968" y="337.410284" style="fill: #8c5a2b; stroke: #8c5a2b"/>
     <use xlink:href="#m68424a151d" x="675.269744" y="304.977557" style="fill: #8c5a2b; stroke: #8c5a2b"/>
    </g>
   </g>
   <g id="line2d_23">
    <path d="M 286.984761 386.059375
L 286.984761 29.299375
" clip-path="url(#pd4519d9551)" style="fill: none; stroke-dasharray: 3.7,1.6; stroke-dashoffset: 0; stroke: #666666; stroke-opacity: 0.85"/>
   </g>
   <g id="line2d_24">
    <path d="M 330.127537 386.059375
L 330.127537 29.299375
" clip-path="url(#pd4519d9551)" style="fill: none; stroke-dasharray: 1.2,1.98; stroke-dashoffset: 0; stroke: #666666; stroke-opacity: 0.9; stroke-width: 1.2"/>
   </g>
   <g id="patch_3">
    <path d="M 41.070938 386.059375
L 41.070938 29.299375
" style="fill: none; stroke: #333333; stroke-width: 0.8; stroke-linejoin: miter; stroke-linecap: square"/>
   </g>
   <g id="patch_4">
    <path d="M 41.070938 386.059375
L 705.469687 386.059375
" style="fill: none; stroke: #333333; stroke-width: 0.8; stroke-linejoin: miter; stroke-linecap: square"/>
   </g>
   <g id="text_17">
    <!-- Обновление состава топ-10 импортёров, HS 850511: постоянные магниты -->
    <g transform="translate(41.070938 17.299375) scale(0.13 -0.13)">
     <defs>
      <path id="DejaVuSans-41e" d="M 2522 4238
Q 1834 4238 1429 3725
Q 1025 3213 1025 2328
Q 1025 1447 1429 934
Q 1834 422 2522 422
Q 3209 422 3611 934
Q 4013 1447 4013 2328
Q 4013 3213 3611 3725
Q 3209 4238 2522 4238
z
M 2522 4750
Q 3503 4750 4090 4092
Q 4678 3434 4678 2328
Q 4678 1225 4090 567
Q 3503 -91 2522 -91
Q 1538 -91 948 565
Q 359 1222 359 2328
Q 359 3434 948 4092
Q 1538 4750 2522 4750
z
" transform="scale(0.015625)"/>
      <path id="DejaVuSans-431" d="M 1991 3584
Q 2741 3584 3169 3096
Q 3597 2609 3597 1747
Q 3597 888 3169 398
Q 2741 -91 1991 -91
Q 1238 -91 822 384
Q 406 859 384 1747
L 366 2463
Q 350 2834 350 2963
Q 350 3463 531 3831
Q 816 4409 1308 4659
Q 1800 4909 2625 4916
Q 3006 4919 3175 4972
L 3334 4516
Q 3181 4453 3041 4450
L 2259 4397
Q 1866 4369 1628 4231
Q 1006 3866 947 3388
L 925 3213
Q 1331 3584 1991 3584
z
M 1991 3097
Q 1528 3097 1259 2736
Q 991 2375 991 1747
Q 991 1119 1258 758
Q 1525 397 1991 397
Q 2450 397 2719 759
Q 2988 1122 2988 1747
Q 2988 2369 2719 2733
Q 2450 3097 1991 3097
z
" transform="scale(0.015625)"/>
      <path id="DejaVuSans-2d" d="M 313 2009
L 1997 2009
L 1997 1497
L 313 1497
L 313 2009
z
" transform="scale(0.015625)"/>
      <path id="DejaVuSans-43c" d="M 581 3500
L 1422 3500
L 2416 1156
L 3413 3500
L 4247 3500
L 4247 0
L 3669 0
L 3669 2950
L 2703 672
L 2128 672
L 1159 2950
L 1159 0
L 581 0
L 581 3500
z
" transform="scale(0.015625)"/>
      <path id="DejaVuSans-2c" d="M 750 794
L 1409 794
L 1409 256
L 897 -744
L 494 -744
L 750 256
L 750 794
z
" transform="scale(0.015625)"/>
      <path id="DejaVuSans-48" d="M 628 4666
L 1259 4666
L 1259 2753
L 3553 2753
L 3553 4666
L 4184 4666
L 4184 0
L 3553 0
L 3553 2222
L 1259 2222
L 1259 0
L 628 0
L 628 4666
z
" transform="scale(0.015625)"/>
      <path id="DejaVuSans-53" d="M 3425 4513
L 3425 3897
Q 3066 4069 2747 4153
Q 2428 4238 2131 4238
Q 1616 4238 1336 4038
Q 1056 3838 1056 3469
Q 1056 3159 1242 3001
Q 1428 2844 1947 2747
L 2328 2669
Q 3034 2534 3370 2195
Q 3706 1856 3706 1288
Q 3706 609 3251 259
Q 2797 -91 1919 -91
Q 1588 -91 1214 -16
Q 841 59 441 206
L 441 856
Q 825 641 1194 531
Q 1563 422 1919 422
Q 2459 422 2753 634
Q 3047 847 3047 1241
Q 3047 1584 2836 1778
Q 2625 1972 2144 2069
L 1759 2144
Q 1053 2284 737 2584
Q 422 2884 422 3419
Q 422 4038 858 4394
Q 1294 4750 2059 4750
Q 2388 4750 2728 4690
Q 3069 4631 3425 4513
z
" transform="scale(0.015625)"/>
      <path id="DejaVuSans-35" d="M 691 4666
L 3169 4666
L 3169 4134
L 1269 4134
L 1269 2991
Q 1406 3038 1543 3061
Q 1681 3084 1819 3084
Q 2600 3084 3056 2656
Q 3513 2228 3513 1497
Q 3513 744 3044 326
Q 2575 -91 1722 -91
Q 1428 -91 1123 -41
Q 819 9 494 109
L 494 744
Q 775 591 1075 516
Q 1375 441 1709 441
Q 2250 441 2565 725
Q 2881 1009 2881 1497
Q 2881 1984 2565 2268
Q 2250 2553 1709 2553
Q 1456 2553 1204 2497
Q 953 2441 691 2322
L 691 4666
z
" transform="scale(0.015625)"/>
      <path id="DejaVuSans-3a" d="M 750 794
L 1409 794
L 1409 0
L 750 0
L 750 794
z
M 750 3309
L 1409 3309
L 1409 2516
L 750 2516
L 750 3309
z
" transform="scale(0.015625)"/>
      <path id="DejaVuSans-44f" d="M 1181 2491
Q 1181 2231 1381 2084
Q 1581 1938 1953 1938
L 2728 1938
L 2728 3041
L 1953 3041
Q 1581 3041 1381 2897
Q 1181 2753 1181 2491
z
M 363 0
L 1431 1534
Q 1069 1616 828 1830
Q 588 2044 588 2491
Q 588 2997 923 3248
Q 1259 3500 1938 3500
L 3306 3500
L 3306 0
L 2728 0
L 2728 1478
L 2013 1478
L 981 0
L 363 0
z
" transform="scale(0.015625)"/>
      <path id="DejaVuSans-44b" d="M 3907 3500
L 4482 3500
L 4482 0
L 3907 0
L 3907 3500
z
M 4195 3584
L 4195 3584
z
M 2781 1038
Q 2781 1319 2576 1466
Q 2372 1613 1978 1613
L 1159 1613
L 1159 459
L 1978 459
Q 2372 459 2576 607
Q 2781 756 2781 1038
z
M 581 3500
L 1159 3500
L 1159 2072
L 2003 2072
Q 2672 2072 3033 1817
Q 3394 1563 3394 1038
Q 3394 513 3033 256
Q 2672 0 2003 0
L 581 0
L 581 3500
z
" transform="scale(0.015625)"/>
      <path id="DejaVuSans-433" d="M 581 0
L 581 3500
L 3050 3500
L 3050 3041
L 1159 3041
L 1159 0
L 581 0
z
" transform="scale(0.015625)"/>
     </defs>
     <use xlink:href="#DejaVuSans-41e"/>
     <use xlink:href="#DejaVuSans-431" transform="translate(78.710938 0)"/>
     <use xlink:href="#DejaVuSans-43d" transform="translate(140.380859 0)"/>
     <use xlink:href="#DejaVuSans-43e" transform="translate(205.761719 0)"/>
     <use xlink:href="#DejaVuSans-432" transform="translate(266.943359 0)"/>
     <use xlink:href="#DejaVuSans-43b" transform="translate(325.878906 0)"/>
     <use xlink:href="#DejaVuSans-435" transform="translate(389.794922 0)"/>
     <use xlink:href="#DejaVuSans-43d" transform="translate(451.318359 0)"/>
     <use xlink:href="#DejaVuSans-438" transform="translate(516.699219 0)"/>
     <use xlink:href="#DejaVuSans-435" transform="translate(581.689453 0)"/>
     <use xlink:href="#DejaVuSans-20" transform="translate(643.212891 0)"/>
     <use xlink:href="#DejaVuSans-441" transform="translate(675 0)"/>
     <use xlink:href="#DejaVuSans-43e" transform="translate(729.980469 0)"/>
     <use xlink:href="#DejaVuSans-441" transform="translate(791.162109 0)"/>
     <use xlink:href="#DejaVuSans-442" transform="translate(846.142578 0)"/>
     <use xlink:href="#DejaVuSans-430" transform="translate(904.394531 0)"/>
     <use xlink:href="#DejaVuSans-432" transform="translate(965.673828 0)"/>
     <use xlink:href="#DejaVuSans-430" transform="translate(1024.609375 0)"/>
     <use xlink:href="#DejaVuSans-20" transform="translate(1085.888672 0)"/>
     <use xlink:href="#DejaVuSans-442" transform="translate(1117.675781 0)"/>
     <use xlink:href="#DejaVuSans-43e" transform="translate(1175.927734 0)"/>
     <use xlink:href="#DejaVuSans-43f" transform="translate(1237.109375 0)"/>
     <use xlink:href="#DejaVuSans-2d" transform="translate(1302.490234 0)"/>
     <use xlink:href="#DejaVuSans-31" transform="translate(1338.574219 0)"/>
     <use xlink:href="#DejaVuSans-30" transform="translate(1402.197266 0)"/>
     <use xlink:href="#DejaVuSans-20" transform="translate(1465.820312 0)"/>
     <use xlink:href="#DejaVuSans-438" transform="translate(1497.607422 0)"/>
     <use xlink:href="#DejaVuSans-43c" transform="translate(1562.597656 0)"/>
     <use xlink:href="#DejaVuSans-43f" transform="translate(1638.037109 0)"/>
     <use xlink:href="#DejaVuSans-43e" transform="translate(1703.417969 0)"/>
     <use xlink:href="#DejaVuSans-440" transform="translate(1764.599609 0)"/>
     <use xlink:href="#DejaVuSans-442" transform="translate(1828.076172 0)"/>
     <use xlink:href="#DejaVuSans-451" transform="translate(1886.328125 0)"/>
     <use xlink:href="#DejaVuSans-440" transform="translate(1947.851562 0)"/>
     <use xlink:href="#DejaVuSans-43e" transform="translate(2011.328125 0)"/>
     <use xlink:href="#DejaVuSans-432" transform="translate(2072.509766 0)"/>
     <use xlink:href="#DejaVuSans-2c" transform="translate(2131.445312 0)"/>
     <use xlink:href="#DejaVuSans-20" transform="translate(2163.232422 0)"/>
     <use xlink:href="#DejaVuSans-48" transform="translate(2195.019531 0)"/>
     <use xlink:href="#DejaVuSans-53" transform="translate(2270.214844 0)"/>
     <use xlink:href="#DejaVuSans-20" transform="translate(2333.691406 0)"/>
     <use xlink:href="#DejaVuSans-38" transform="translate(2365.478516 0)"/>
     <use xlink:href="#DejaVuSans-35" transform="translate(2429.101562 0)"/>
     <use xlink:href="#DejaVuSans-30" transform="translate(2492.724609 0)"/>
     <use xlink:href="#DejaVuSans-35" transform="translate(2556.347656 0)"/>
     <use xlink:href="#DejaVuSans-31" transform="translate(2619.970703 0)"/>
     <use xlink:href="#DejaVuSans-31" transform="translate(2683.59375 0)"/>
     <use xlink:href="#DejaVuSans-3a" transform="translate(2747.216797 0)"/>
     <use xlink:href="#DejaVuSans-20" transform="translate(2780.908203 0)"/>
     <use xlink:href="#DejaVuSans-43f" transform="translate(2812.695312 0)"/>
     <use xlink:href="#DejaVuSans-43e" transform="translate(2878.076172 0)"/>
     <use xlink:href="#DejaVuSans-441" transform="translate(2939.257812 0)"/>
     <use xlink:href="#DejaVuSans-442" transform="translate(2994.238281 0)"/>
     <use xlink:href="#DejaVuSans-43e" transform="translate(3052.490234 0)"/>
     <use xlink:href="#DejaVuSans-44f" transform="translate(3113.671875 0)"/>
     <use xlink:href="#DejaVuSans-43d" transform="translate(3173.828125 0)"/>
     <use xlink:href="#DejaVuSans-43d" transform="translate(3239.208984 0)"/>
     <use xlink:href="#DejaVuSans-44b" transform="translate(3304.589844 0)"/>
     <use xlink:href="#DejaVuSans-435" transform="translate(3383.544922 0)"/>
     <use xlink:href="#DejaVuSans-20" transform="translate(3445.068359 0)"/>
     <use xlink:href="#DejaVuSans-43c" transform="translate(3476.855469 0)"/>
     <use xlink:href="#DejaVuSans-430" transform="translate(3552.294922 0)"/>
     <use xlink:href="#DejaVuSans-433" transform="translate(3613.574219 0)"/>
     <use xlink:href="#DejaVuSans-43d" transform="translate(3666.113281 0)"/>
     <use xlink:href="#DejaVuSans-438" transform="translate(3731.494141 0)"/>
     <use xlink:href="#DejaVuSans-442" transform="translate(3796.484375 0)"/>
     <use xlink:href="#DejaVuSans-44b" transform="translate(3854.736328 0)"/>
    </g>
   </g>
   <g id="legend_1">
    <g id="line2d_25">
     <path d="M 587.960625 41.742891
L 597.460625 41.742891
L 606.960625 41.742891
" style="fill: none; stroke: #1f4e79; stroke-width: 1.8; stroke-linecap: square"/>
     <g>
      <use xlink:href="#m3a24fcd114" x="597.460625" y="41.742891" style="fill: #1f4e79; stroke: #1f4e79"/>
     </g>
    </g>
    <g id="text_18">
     <!-- Вход в топ-10 -->
     <g transform="translate(614.560625 45.067891) scale(0.095 -0.095)">
      <defs>
       <path id="DejaVuSans-412" d="M 1259 2228
L 1259 519
L 2272 519
Q 2781 519 3026 730
Q 3272 941 3272 1375
Q 3272 1813 3026 2020
Q 2781 2228 2272 2228
L 1259 2228
z
M 1259 4147
L 1259 2741
L 2194 2741
Q 2656 2741 2882 2914
Q 3109 3088 3109 3444
Q 3109 3797 2882 3972
Q 2656 4147 2194 4147
L 1259 4147
z
M 628 4666
L 2241 4666
Q 2963 4666 3353 4366
Q 3744 4066 3744 3513
Q 3744 3084 3544 2831
Q 3344 2578 2956 2516
Q 3422 2416 3680 2098
Q 3938 1781 3938 1306
Q 3938 681 3513 340
Q 3088 0 2303 0
L 628 0
L 628 4666
z
" transform="scale(0.015625)"/>
       <path id="DejaVuSans-445" d="M 3513 3500
L 2247 1797
L 3578 0
L 2900 0
L 1881 1375
L 863 0
L 184 0
L 1544 1831
L 300 3500
L 978 3500
L 1906 2253
L 2834 3500
L 3513 3500
z
" transform="scale(0.015625)"/>
      </defs>
      <use xlink:href="#DejaVuSans-412"/>
      <use xlink:href="#DejaVuSans-445" transform="translate(68.603516 0)"/>
      <use xlink:href="#DejaVuSans-43e" transform="translate(127.783203 0)"/>
      <use xlink:href="#DejaVuSans-434" transform="translate(188.964844 0)"/>
      <use xlink:href="#DejaVuSans-20" transform="translate(258.105469 0)"/>
      <use xlink:href="#DejaVuSans-432" transform="translate(289.892578 0)"/>
      <use xlink:href="#DejaVuSans-20" transform="translate(348.828125 0)"/>
      <use xlink:href="#DejaVuSans-442" transform="translate(380.615234 0)"/>
      <use xlink:href="#DejaVuSans-43e" transform="translate(438.867188 0)"/>
      <use xlink:href="#DejaVuSans-43f" transform="translate(500.048828 0)"/>
      <use xlink:href="#DejaVuSans-2d" transform="translate(565.429688 0)"/>
      <use xlink:href="#DejaVuSans-31" transform="translate(601.513672 0)"/>
      <use xlink:href="#DejaVuSans-30" transform="translate(665.136719 0)"/>
     </g>
    </g>
    <g id="line2d_26">
     <path d="M 587.960625 55.687109
L 597.460625 55.687109
L 606.960625 55.687109
" style="fill: none; stroke: #8c5a2b; stroke-width: 1.8; stroke-linecap: square"/>
     <g>
      <use xlink:href="#m68424a151d" x="597.460625" y="55.687109" style="fill: #8c5a2b; stroke: #8c5a2b"/>
     </g>
    </g>
    <g id="text_19">
     <!-- Выход из топ-10 -->
     <g transform="translate(614.560625 59.012109) scale(0.095 -0.095)">
      <defs>
       <path id="DejaVuSans-437" d="M 2206 1888
Q 2594 1813 2809 1584
Q 3025 1356 3025 1019
Q 3025 478 2622 193
Q 2219 -91 1475 -91
Q 1225 -91 961 -47
Q 697 -3 416 84
L 416 619
Q 638 503 903 445
Q 1169 388 1459 388
Q 1931 388 2195 563
Q 2459 738 2459 1019
Q 2459 1294 2225 1461
Q 1991 1628 1563 1628
L 1100 1628
L 1100 2103
L 1584 2103
Q 1947 2103 2158 2242
Q 2369 2381 2369 2600
Q 2369 2800 2151 2944
Q 1934 3088 1563 3088
Q 1341 3088 1089 3047
Q 838 3006 534 2916
L 534 3438
Q 841 3513 1106 3550
Q 1372 3588 1609 3588
Q 2222 3588 2576 3342
Q 2931 3097 2931 2656
Q 2931 2366 2743 2164
Q 2556 1963 2206 1888
z
" transform="scale(0.015625)"/>
      </defs>
      <use xlink:href="#DejaVuSans-412"/>
      <use xlink:href="#DejaVuSans-44b" transform="translate(68.603516 0)"/>
      <use xlink:href="#DejaVuSans-445" transform="translate(147.558594 0)"/>
      <use xlink:href="#DejaVuSans-43e" transform="translate(206.738281 0)"/>
      <use xlink:href="#DejaVuSans-434" transform="translate(267.919922 0)"/>
      <use xlink:href="#DejaVuSans-20" transform="translate(337.060547 0)"/>
      <use xlink:href="#DejaVuSans-438" transform="translate(368.847656 0)"/>
      <use xlink:href="#DejaVuSans-437" transform="translate(433.837891 0)"/>
      <use xlink:href="#DejaVuSans-20" transform="translate(487.011719 0)"/>
      <use xlink:href="#DejaVuSans-442" transform="translate(518.798828 0)"/>
      <use xlink:href="#DejaVuSans-43e" transform="translate(577.050781 0)"/>
      <use xlink:href="#DejaVuSans-43f" transform="translate(638.232422 0)"/>
      <use xlink:href="#DejaVuSans-2d" transform="translate(703.613281 0)"/>
      <use xlink:href="#DejaVuSans-31" transform="translate(739.697266 0)"/>
      <use xlink:href="#DejaVuSans-30" transform="translate(803.320312 0)"/>
     </g>
    </g>
   </g>
  </g>
 </g>
 <defs>
  <clipPath id="pd4519d9551">
   <rect x="41.070938" y="29.299375" width="664.39875" height="356.76"/>
  </clipPath>
 </defs>
</svg>
