<?xml version="1.0" encoding="utf-8" standalone="no"?>
<!DOCTYPE svg PUBLIC "-//W3C//DTD SVG 1.1//EN"
  "http://www.w3.org/Graphics/SVG/1.1/DTD/svg11.dtd">
<svg xmlns:xlink="http://www.w3.org/1999/xlink" width="783.389236pt" height="496.083438pt" viewBox="0 0 783.389236 496.083438" xmlns="http://www.w3.org/2000/svg" version="1.1">
 <metadata>
  <rdf:RDF xmlns:dc="http://purl.org/dc/elements/1.1/" xmlns:cc="http://creativecommons.org/ns#" xmlns:rdf="http://www.w3.org/1999/02/22-rdf-syntax-ns#">
   <cc:Work>
    <dc:type rdf:resource="http://purl.org/dc/dcmitype/StillImage"/>
    <dc:date>2026-05-10T03:14:07.983403</dc:date>
    <dc:format>image/svg+xml</dc:format>
    <dc:creator>
     <cc:Agent>
      <dc:title>Matplotlib v3.10.8, https://matplotlib.org/</dc:title>
     </cc:Agent>
    </dc:creator>
   </cc:Work>
  </rdf:RDF>
 </metadata>
 <defs>
  <style type="text/css">*{stroke-linejoin: round; stroke-linecap: butt}</style>
 </defs>
 <g id="figure_1">
  <g id="patch_1">
   <path d="M 0 496.083438
L 783.389236 496.083438
L 783.389236 0
L 0 0
z
" style="fill: #ffffff"/>
  </g>
  <g id="axes_1">
   <g id="patch_2">
    <path d="M 41.070938 458.059375
L 638.574937 458.059375
L 638.574937 29.299375
L 41.070938 29.299375
z
" style="fill: #ffffff"/>
   </g>
   <g id="matplotlib.axis_1">
    <g id="xtick_1">
     <g id="line2d_1">
      <defs>
       <path id="m28b8740289" d="M 0 0
L 0 3
" style="stroke: #333333; stroke-width: 0.8"/>
      </defs>
      <g>
       <use xlink:href="#m28b8740289" x="68.23021" y="458.059375" style="fill: #333333; stroke: #333333; stroke-width: 0.8"/>
      </g>
     </g>
     <g id="text_1">
      <!-- 2010 -->
      <g style="fill: #333333" transform="translate(55.50521 472.157812) scale(0.1 -0.1)">
       <defs>
        <path id="DejaVuSans-32" d="M 1228 531
L 3431 531
L 3431 0
L 469 0
L 469 531
Q 828 903 1448 1529
Q 2069 2156 2228 2338
Q 2531 2678 2651 2914
Q 2772 3150 2772 3378
Q 2772 3750 2511 3984
Q 2250 4219 1831 4219
Q 1534 4219 1204 4116
Q 875 4013 500 3803
L 500 4441
Q 881 4594 1212 4672
Q 1544 4750 1819 4750
Q 2544 4750 2975 4387
Q 3406 4025 3406 3419
Q 3406 3131 3298 2873
Q 3191 2616 2906 2266
Q 2828 2175 2409 1742
Q 1991 1309 1228 531
z
" transform="scale(0.015625)"/>
        <path id="DejaVuSans-30" d="M 2034 4250
Q 1547 4250 1301 3770
Q 1056 3291 1056 2328
Q 1056 1369 1301 889
Q 1547 409 2034 409
Q 2525 409 2770 889
Q 3016 1369 3016 2328
Q 3016 3291 2770 3770
Q 2525 4250 2034 4250
z
M 2034 4750
Q 2819 4750 3233 4129
Q 3647 3509 3647 2328
Q 3647 1150 3233 529
Q 2819 -91 2034 -91
Q 1250 -91 836 529
Q 422 1150 422 2328
Q 422 3509 836 4129
Q 1250 4750 2034 4750
z
" transform="scale(0.015625)"/>
        <path id="DejaVuSans-31" d="M 794 531
L 1825 531
L 1825 4091
L 703 3866
L 703 4441
L 1819 4666
L 2450 4666
L 2450 531
L 3481 531
L 3481 0
L 794 0
L 794 531
z
" transform="scale(0.015625)"/>
       </defs>
       <use xlink:href="#DejaVuSans-32"/>
       <use xlink:href="#DejaVuSans-30" transform="translate(63.623047 0)"/>
       <use xlink:href="#DejaVuSans-31" transform="translate(127.246094 0)"/>
       <use xlink:href="#DejaVuSans-30" transform="translate(190.869141 0)"/>
      </g>
     </g>
    </g>
    <g id="xtick_2">
     <g id="line2d_2">
      <g>
       <use xlink:href="#m28b8740289" x="145.828132" y="458.059375" style="fill: #333333; stroke: #333333; stroke-width: 0.8"/>
      </g>
     </g>
     <g id="text_2">
      <!-- 2012 -->
      <g style="fill: #333333" transform="translate(133.103132 472.157812) scale(0.1 -0.1)">
       <use xlink:href="#DejaVuSans-32"/>
       <use xlink:href="#DejaVuSans-30" transform="translate(63.623047 0)"/>
       <use xlink:href="#DejaVuSans-31" transform="translate(127.246094 0)"/>
       <use xlink:href="#DejaVuSans-32" transform="translate(190.869141 0)"/>
      </g>
     </g>
    </g>
    <g id="xtick_3">
     <g id="line2d_3">
      <g>
       <use xlink:href="#m28b8740289" x="223.426054" y="458.059375" style="fill: #333333; stroke: #333333; stroke-width: 0.8"/>
      </g>
     </g>
     <g id="text_3">
      <!-- 2014 -->
      <g style="fill: #333333" transform="translate(210.701054 472.157812) scale(0.1 -0.1)">
       <defs>
        <path id="DejaVuSans-34" d="M 2419 4116
L 825 1625
L 2419 1625
L 2419 4116
z
M 2253 4666
L 3047 4666
L 3047 1625
L 3713 1625
L 3713 1100
L 3047 1100
L 3047 0
L 2419 0
L 2419 1100
L 313 1100
L 313 1709
L 2253 4666
z
" transform="scale(0.015625)"/>
       </defs>
       <use xlink:href="#DejaVuSans-32"/>
       <use xlink:href="#DejaVuSans-30" transform="translate(63.623047 0)"/>
       <use xlink:href="#DejaVuSans-31" transform="translate(127.246094 0)"/>
       <use xlink:href="#DejaVuSans-34" transform="translate(190.869141 0)"/>
      </g>
     </g>
    </g>
    <g id="xtick_4">
     <g id="line2d_4">
      <g>
       <use xlink:href="#m28b8740289" x="301.023976" y="458.059375" style="fill: #333333; stroke: #333333; stroke-width: 0.8"/>
      </g>
     </g>
     <g id="text_4">
      <!-- 2016 -->
      <g style="fill: #333333" transform="translate(288.298976 472.157812) scale(0.1 -0.1)">
       <defs>
        <path id="DejaVuSans-36" d="M 2113 2584
Q 1688 2584 1439 2293
Q 1191 2003 1191 1497
Q 1191 994 1439 701
Q 1688 409 2113 409
Q 2538 409 2786 701
Q 3034 994 3034 1497
Q 3034 2003 2786 2293
Q 2538 2584 2113 2584
z
M 3366 4563
L 3366 3988
Q 3128 4100 2886 4159
Q 2644 4219 2406 4219
Q 1781 4219 1451 3797
Q 1122 3375 1075 2522
Q 1259 2794 1537 2939
Q 1816 3084 2150 3084
Q 2853 3084 3261 2657
Q 3669 2231 3669 1497
Q 3669 778 3244 343
Q 2819 -91 2113 -91
Q 1303 -91 875 529
Q 447 1150 447 2328
Q 447 3434 972 4092
Q 1497 4750 2381 4750
Q 2619 4750 2861 4703
Q 3103 4656 3366 4563
z
" transform="scale(0.015625)"/>
       </defs>
       <use xlink:href="#DejaVuSans-32"/>
       <use xlink:href="#DejaVuSans-30" transform="translate(63.623047 0)"/>
       <use xlink:href="#DejaVuSans-31" transform="translate(127.246094 0)"/>
       <use xlink:href="#DejaVuSans-36" transform="translate(190.869141 0)"/>
      </g>
     </g>
    </g>
    <g id="xtick_5">
     <g id="line2d_5">
      <g>
       <use xlink:href="#m28b8740289" x="378.621899" y="458.059375" style="fill: #333333; stroke: #333333; stroke-width: 0.8"/>
      </g>
     </g>
     <g id="text_5">
      <!-- 2018 -->
      <g style="fill: #333333" transform="translate(365.896899 472.157812) scale(0.1 -0.1)">
       <defs>
        <path id="DejaVuSans-38" d="M 2034 2216
Q 1584 2216 1326 1975
Q 1069 1734 1069 1313
Q 1069 891 1326 650
Q 1584 409 2034 409
Q 2484 409 2743 651
Q 3003 894 3003 1313
Q 3003 1734 2745 1975
Q 2488 2216 2034 2216
z
M 1403 2484
Q 997 2584 770 2862
Q 544 3141 544 3541
Q 544 4100 942 4425
Q 1341 4750 2034 4750
Q 2731 4750 3128 4425
Q 3525 4100 3525 3541
Q 3525 3141 3298 2862
Q 3072 2584 2669 2484
Q 3125 2378 3379 2068
Q 3634 1759 3634 1313
Q 3634 634 3220 271
Q 2806 -91 2034 -91
Q 1263 -91 848 271
Q 434 634 434 1313
Q 434 1759 690 2068
Q 947 2378 1403 2484
z
M 1172 3481
Q 1172 3119 1398 2916
Q 1625 2713 2034 2713
Q 2441 2713 2670 2916
Q 2900 3119 2900 3481
Q 2900 3844 2670 4047
Q 2441 4250 2034 4250
Q 1625 4250 1398 4047
Q 1172 3844 1172 3481
z
" transform="scale(0.015625)"/>
       </defs>
       <use xlink:href="#DejaVuSans-32"/>
       <use xlink:href="#DejaVuSans-30" transform="translate(63.623047 0)"/>
       <use xlink:href="#DejaVuSans-31" transform="translate(127.246094 0)"/>
       <use xlink:href="#DejaVuSans-38" transform="translate(190.869141 0)"/>
      </g>
     </g>
    </g>
    <g id="xtick_6">
     <g id="line2d_6">
      <g>
       <use xlink:href="#m28b8740289" x="456.219821" y="458.059375" style="fill: #333333; stroke: #333333; stroke-width: 0.8"/>
      </g>
     </g>
     <g id="text_6">
      <!-- 2020 -->
      <g style="fill: #333333" transform="translate(443.494821 472.157812) scale(0.1 -0.1)">
       <use xlink:href="#DejaVuSans-32"/>
       <use xlink:href="#DejaVuSans-30" transform="translate(63.623047 0)"/>
       <use xlink:href="#DejaVuSans-32" transform="translate(127.246094 0)"/>
       <use xlink:href="#DejaVuSans-30" transform="translate(190.869141 0)"/>
      </g>
     </g>
    </g>
    <g id="xtick_7">
     <g id="line2d_7">
      <g>
       <use xlink:href="#m28b8740289" x="533.817743" y="458.059375" style="fill: #333333; stroke: #333333; stroke-width: 0.8"/>
      </g>
     </g>
     <g id="text_7">
      <!-- 2022 -->
      <g style="fill: #333333" transform="translate(521.092743 472.157812) scale(0.1 -0.1)">
       <use xlink:href="#DejaVuSans-32"/>
       <use xlink:href="#DejaVuSans-30" transform="translate(63.623047 0)"/>
       <use xlink:href="#DejaVuSans-32" transform="translate(127.246094 0)"/>
       <use xlink:href="#DejaVuSans-32" transform="translate(190.869141 0)"/>
      </g>
     </g>
    </g>
    <g id="xtick_8">
     <g id="line2d_8">
      <g>
       <use xlink:href="#m28b8740289" x="611.415665" y="458.059375" style="fill: #333333; stroke: #333333; stroke-width: 0.8"/>
      </g>
     </g>
     <g id="text_8">
      <!-- 2024 -->
      <g style="fill: #333333" transform="translate(598.690665 472.157812) scale(0.1 -0.1)">
       <use xlink:href="#DejaVuSans-32"/>
       <use xlink:href="#DejaVuSans-30" transform="translate(63.623047 0)"/>
       <use xlink:href="#DejaVuSans-32" transform="translate(127.246094 0)"/>
       <use xlink:href="#DejaVuSans-34" transform="translate(190.869141 0)"/>
      </g>
     </g>
    </g>
    <g id="text_9">
     <!-- Год -->
     <g transform="translate(329.30075 486.595781) scale(0.11 -0.11)">
      <defs>
       <path id="DejaVuSans-413" d="M 628 0
L 628 4666
L 3531 4666
L 3531 4134
L 1259 4134
L 1259 0
L 628 0
z
" transform="scale(0.015625)"/>
       <path id="DejaVuSans-43e" d="M 1959 3097
Q 1497 3097 1228 2736
Q 959 2375 959 1747
Q 959 1119 1226 758
Q 1494 397 1959 397
Q 2419 397 2687 759
Q 2956 1122 2956 1747
Q 2956 2369 2687 2733
Q 2419 3097 1959 3097
z
M 1959 3584
Q 2709 3584 3137 3096
Q 3566 2609 3566 1747
Q 3566 888 3137 398
Q 2709 -91 1959 -91
Q 1206 -91 779 398
Q 353 888 353 1747
Q 353 2609 779 3096
Q 1206 3584 1959 3584
z
" transform="scale(0.015625)"/>
       <path id="DejaVuSans-434" d="M 1384 459
L 3053 459
L 3053 3041
L 1844 3041
L 1844 2603
Q 1844 1316 1475 628
L 1384 459
z
M 550 459
Q 834 584 959 850
Q 1266 1509 1266 2838
L 1266 3500
L 3631 3500
L 3631 459
L 4091 459
L 4091 -884
L 3631 -884
L 3631 0
L 794 0
L 794 -884
L 334 -884
L 334 459
L 550 459
z
" transform="scale(0.015625)"/>
      </defs>
      <use xlink:href="#DejaVuSans-413"/>
      <use xlink:href="#DejaVuSans-43e" transform="translate(60.986328 0)"/>
      <use xlink:href="#DejaVuSans-434" transform="translate(122.167969 0)"/>
     </g>
    </g>
   </g>
   <g id="matplotlib.axis_2">
    <g id="ytick_1">
     <g id="line2d_9">
      <path d="M 41.070938 48.788466
L 638.574937 48.788466
" clip-path="url(#p7cbe626d39)" style="fill: none; stroke: #d9d9d9; stroke-opacity: 0.8; stroke-width: 0.7; stroke-linecap: square"/>
     </g>
     <g id="line2d_10">
      <defs>
       <path id="m351ded40ae" d="M 0 0
L -3 0
" style="stroke: #333333; stroke-width: 0.8"/>
      </defs>
      <g>
       <use xlink:href="#m351ded40ae" x="41.070938" y="48.788466" style="fill: #333333; stroke: #333333; stroke-width: 0.8"/>
      </g>
     </g>
     <g id="text_10">
      <!-- 1 -->
      <g style="fill: #333333" transform="translate(28.208438 52.587685) scale(0.1 -0.1)">
       <use xlink:href="#DejaVuSans-31"/>
      </g>
     </g>
    </g>
    <g id="ytick_2">
     <g id="line2d_11">
      <path d="M 41.070938 56.14284
L 638.574937 56.14284
" clip-path="url(#p7cbe626d39)" style="fill: none; stroke: #d9d9d9; stroke-opacity: 0.8; stroke-width: 0.7; stroke-linecap: square"/>
     </g>
     <g id="line2d_12">
      <g>
       <use xlink:href="#m351ded40ae" x="41.070938" y="56.14284" style="fill: #333333; stroke: #333333; stroke-width: 0.8"/>
      </g>
     </g>
     <g id="text_11">
      <!-- 2 -->
      <g style="fill: #333333" transform="translate(28.208438 59.942059) scale(0.1 -0.1)">
       <use xlink:href="#DejaVuSans-32"/>
      </g>
     </g>
    </g>
    <g id="ytick_3">
     <g id="line2d_13">
      <path d="M 41.070938 63.497214
L 638.574937 63.497214
" clip-path="url(#p7cbe626d39)" style="fill: none; stroke: #d9d9d9; stroke-opacity: 0.8; stroke-width: 0.7; stroke-linecap: square"/>
     </g>
     <g id="line2d_14">
      <g>
       <use xlink:href="#m351ded40ae" x="41.070938" y="63.497214" style="fill: #333333; stroke: #333333; stroke-width: 0.8"/>
      </g>
     </g>
     <g id="text_12">
      <!-- 3 -->
      <g style="fill: #333333" transform="translate(28.208438 67.296433) scale(0.1 -0.1)">
       <defs>
        <path id="DejaVuSans-33" d="M 2597 2516
Q 3050 2419 3304 2112
Q 3559 1806 3559 1356
Q 3559 666 3084 287
Q 2609 -91 1734 -91
Q 1441 -91 1130 -33
Q 819 25 488 141
L 488 750
Q 750 597 1062 519
Q 1375 441 1716 441
Q 2309 441 2620 675
Q 2931 909 2931 1356
Q 2931 1769 2642 2001
Q 2353 2234 1838 2234
L 1294 2234
L 1294 2753
L 1863 2753
Q 2328 2753 2575 2939
Q 2822 3125 2822 3475
Q 2822 3834 2567 4026
Q 2313 4219 1838 4219
Q 1578 4219 1281 4162
Q 984 4106 628 3988
L 628 4550
Q 988 4650 1302 4700
Q 1616 4750 1894 4750
Q 2613 4750 3031 4423
Q 3450 4097 3450 3541
Q 3450 3153 3228 2886
Q 3006 2619 2597 2516
z
" transform="scale(0.015625)"/>
       </defs>
       <use xlink:href="#DejaVuSans-33"/>
      </g>
     </g>
    </g>
    <g id="ytick_4">
     <g id="line2d_15">
      <path d="M 41.070938 70.851588
L 638.574937 70.851588
" clip-path="url(#p7cbe626d39)" style="fill: none; stroke: #d9d9d9; stroke-opacity: 0.8; stroke-width: 0.7; stroke-linecap: square"/>
     </g>
     <g id="line2d_16">
      <g>
       <use xlink:href="#m351ded40ae" x="41.070938" y="70.851588" style="fill: #333333; stroke: #333333; stroke-width: 0.8"/>
      </g>
     </g>
     <g id="text_13">
      <!-- 4 -->
      <g style="fill: #333333" transform="translate(28.208438 74.650806) scale(0.1 -0.1)">
       <use xlink:href="#DejaVuSans-34"/>
      </g>
     </g>
    </g>
    <g id="ytick_5">
     <g id="line2d_17">
      <path d="M 41.070938 78.205962
L 638.574937 78.205962
" clip-path="url(#p7cbe626d39)" style="fill: none; stroke: #d9d9d9; stroke-opacity: 0.8; stroke-width: 0.7; stroke-linecap: square"/>
     </g>
     <g id="line2d_18">
      <g>
       <use xlink:href="#m351ded40ae" x="41.070938" y="78.205962" style="fill: #333333; stroke: #333333; stroke-width: 0.8"/>
      </g>
     </g>
     <g id="text_14">
      <!-- 5 -->
      <g style="fill: #333333" transform="translate(28.208438 82.00518) scale(0.1 -0.1)">
       <defs>
        <path id="DejaVuSans-35" d="M 691 4666
L 3169 4666
L 3169 4134
L 1269 4134
L 1269 2991
Q 1406 3038 1543 3061
Q 1681 3084 1819 3084
Q 2600 3084 3056 2656
Q 3513 2228 3513 1497
Q 3513 744 3044 326
Q 2575 -91 1722 -91
Q 1428 -91 1123 -41
Q 819 9 494 109
L 494 744
Q 775 591 1075 516
Q 1375 441 1709 441
Q 2250 441 2565 725
Q 2881 1009 2881 1497
Q 2881 1984 2565 2268
Q 2250 2553 1709 2553
Q 1456 2553 1204 2497
Q 953 2441 691 2322
L 691 4666
z
" transform="scale(0.015625)"/>
       </defs>
       <use xlink:href="#DejaVuSans-35"/>
      </g>
     </g>
    </g>
    <g id="ytick_6">
     <g id="line2d_19">
      <path d="M 41.070938 85.560336
L 638.574937 85.560336
" clip-path="url(#p7cbe626d39)" style="fill: none; stroke: #d9d9d9; stroke-opacity: 0.8; stroke-width: 0.7; stroke-linecap: square"/>
     </g>
     <g id="line2d_20">
      <g>
       <use xlink:href="#m351ded40ae" x="41.070938" y="85.560336" style="fill: #333333; stroke: #333333; stroke-width: 0.8"/>
      </g>
     </g>
     <g id="text_15">
      <!-- 6 -->
      <g style="fill: #333333" transform="translate(28.208438 89.359554) scale(0.1 -0.1)">
       <use xlink:href="#DejaVuSans-36"/>
      </g>
     </g>
    </g>
    <g id="ytick_7">
     <g id="line2d_21">
      <path d="M 41.070938 92.914709
L 638.574937 92.914709
" clip-path="url(#p7cbe626d39)" style="fill: none; stroke: #d9d9d9; stroke-opacity: 0.8; stroke-width: 0.7; stroke-linecap: square"/>
     </g>
     <g id="line2d_22">
      <g>
       <use xlink:href="#m351ded40ae" x="41.070938" y="92.914709" style="fill: #333333; stroke: #333333; stroke-width: 0.8"/>
      </g>
     </g>
     <g id="text_16">
      <!-- 7 -->
      <g style="fill: #333333" transform="translate(28.208438 96.713928) scale(0.1 -0.1)">
       <defs>
        <path id="DejaVuSans-37" d="M 525 4666
L 3525 4666
L 3525 4397
L 1831 0
L 1172 0
L 2766 4134
L 525 4134
L 525 4666
z
" transform="scale(0.015625)"/>
       </defs>
       <use xlink:href="#DejaVuSans-37"/>
      </g>
     </g>
    </g>
    <g id="ytick_8">
     <g id="line2d_23">
      <path d="M 41.070938 100.269083
L 638.574937 100.269083
" clip-path="url(#p7cbe626d39)" style="fill: none; stroke: #d9d9d9; stroke-opacity: 0.8; stroke-width: 0.7; stroke-linecap: square"/>
     </g>
     <g id="line2d_24">
      <g>
       <use xlink:href="#m351ded40ae" x="41.070938" y="100.269083" style="fill: #333333; stroke: #333333; stroke-width: 0.8"/>
      </g>
     </g>
     <g id="text_17">
      <!-- 8 -->
      <g style="fill: #333333" transform="translate(28.208438 104.068302) scale(0.1 -0.1)">
       <use xlink:href="#DejaVuSans-38"/>
      </g>
     </g>
    </g>
    <g id="ytick_9">
     <g id="line2d_25">
      <path d="M 41.070938 107.623457
L 638.574937 107.623457
" clip-path="url(#p7cbe626d39)" style="fill: none; stroke: #d9d9d9; stroke-opacity: 0.8; stroke-width: 0.7; stroke-linecap: square"/>
     </g>
     <g id="line2d_26">
      <g>
       <use xlink:href="#m351ded40ae" x="41.070938" y="107.623457" style="fill: #333333; stroke: #333333; stroke-width: 0.8"/>
      </g>
     </g>
     <g id="text_18">
      <!-- 9 -->
      <g style="fill: #333333" transform="translate(28.208438 111.422676) scale(0.1 -0.1)">
       <defs>
        <path id="DejaVuSans-39" d="M 703 97
L 703 672
Q 941 559 1184 500
Q 1428 441 1663 441
Q 2288 441 2617 861
Q 2947 1281 2994 2138
Q 2813 1869 2534 1725
Q 2256 1581 1919 1581
Q 1219 1581 811 2004
Q 403 2428 403 3163
Q 403 3881 828 4315
Q 1253 4750 1959 4750
Q 2769 4750 3195 4129
Q 3622 3509 3622 2328
Q 3622 1225 3098 567
Q 2575 -91 1691 -91
Q 1453 -91 1209 -44
Q 966 3 703 97
z
M 1959 2075
Q 2384 2075 2632 2365
Q 2881 2656 2881 3163
Q 2881 3666 2632 3958
Q 2384 4250 1959 4250
Q 1534 4250 1286 3958
Q 1038 3666 1038 3163
Q 1038 2656 1286 2365
Q 1534 2075 1959 2075
z
" transform="scale(0.015625)"/>
       </defs>
       <use xlink:href="#DejaVuSans-39"/>
      </g>
     </g>
    </g>
    <g id="ytick_10">
     <g id="line2d_27">
      <path d="M 41.070938 114.977831
L 638.574937 114.977831
" clip-path="url(#p7cbe626d39)" style="fill: none; stroke: #d9d9d9; stroke-opacity: 0.8; stroke-width: 0.7; stroke-linecap: square"/>
     </g>
     <g id="line2d_28">
      <g>
       <use xlink:href="#m351ded40ae" x="41.070938" y="114.977831" style="fill: #333333; stroke: #333333; stroke-width: 0.8"/>
      </g>
     </g>
     <g id="text_19">
      <!-- 10 -->
      <g style="fill: #333333" transform="translate(21.845938 118.77705) scale(0.1 -0.1)">
       <use xlink:href="#DejaVuSans-31"/>
       <use xlink:href="#DejaVuSans-30" transform="translate(63.623047 0)"/>
      </g>
     </g>
    </g>
    <g id="ytick_11">
     <g id="line2d_29">
      <path d="M 41.070938 122.332205
L 638.574937 122.332205
" clip-path="url(#p7cbe626d39)" style="fill: none; stroke: #d9d9d9; stroke-opacity: 0.8; stroke-width: 0.7; stroke-linecap: square"/>
     </g>
     <g id="line2d_30">
      <g>
       <use xlink:href="#m351ded40ae" x="41.070938" y="122.332205" style="fill: #333333; stroke: #333333; stroke-width: 0.8"/>
      </g>
     </g>
     <g id="text_20">
      <!-- 11 -->
      <g style="fill: #333333" transform="translate(21.845938 126.131424) scale(0.1 -0.1)">
       <use xlink:href="#DejaVuSans-31"/>
       <use xlink:href="#DejaVuSans-31" transform="translate(63.623047 0)"/>
      </g>
     </g>
    </g>
    <g id="ytick_12">
     <g id="line2d_31">
      <path d="M 41.070938 129.686579
L 638.574937 129.686579
" clip-path="url(#p7cbe626d39)" style="fill: none; stroke: #d9d9d9; stroke-opacity: 0.8; stroke-width: 0.7; stroke-linecap: square"/>
     </g>
     <g id="line2d_32">
      <g>
       <use xlink:href="#m351ded40ae" x="41.070938" y="129.686579" style="fill: #333333; stroke: #333333; stroke-width: 0.8"/>
      </g>
     </g>
     <g id="text_21">
      <!-- 12 -->
      <g style="fill: #333333" transform="translate(21.845938 133.485798) scale(0.1 -0.1)">
       <use xlink:href="#DejaVuSans-31"/>
       <use xlink:href="#DejaVuSans-32" transform="translate(63.623047 0)"/>
      </g>
     </g>
    </g>
    <g id="ytick_13">
     <g id="line2d_33">
      <path d="M 41.070938 137.040953
L 638.574937 137.040953
" clip-path="url(#p7cbe626d39)" style="fill: none; stroke: #d9d9d9; stroke-opacity: 0.8; stroke-width: 0.7; stroke-linecap: square"/>
     </g>
     <g id="line2d_34">
      <g>
       <use xlink:href="#m351ded40ae" x="41.070938" y="137.040953" style="fill: #333333; stroke: #333333; stroke-width: 0.8"/>
      </g>
     </g>
     <g id="text_22">
      <!-- 13 -->
      <g style="fill: #333333" transform="translate(21.845938 140.840172) scale(0.1 -0.1)">
       <use xlink:href="#DejaVuSans-31"/>
       <use xlink:href="#DejaVuSans-33" transform="translate(63.623047 0)"/>
      </g>
     </g>
    </g>
    <g id="ytick_14">
     <g id="line2d_35">
      <path d="M 41.070938 144.395327
L 638.574937 144.395327
" clip-path="url(#p7cbe626d39)" style="fill: none; stroke: #d9d9d9; stroke-opacity: 0.8; stroke-width: 0.7; stroke-linecap: square"/>
     </g>
     <g id="line2d_36">
      <g>
       <use xlink:href="#m351ded40ae" x="41.070938" y="144.395327" style="fill: #333333; stroke: #333333; stroke-width: 0.8"/>
      </g>
     </g>
     <g id="text_23">
      <!-- 14 -->
      <g style="fill: #333333" transform="translate(21.845938 148.194546) scale(0.1 -0.1)">
       <use xlink:href="#DejaVuSans-31"/>
       <use xlink:href="#DejaVuSans-34" transform="translate(63.623047 0)"/>
      </g>
     </g>
    </g>
    <g id="ytick_15">
     <g id="line2d_37">
      <path d="M 41.070938 151.749701
L 638.574937 151.749701
" clip-path="url(#p7cbe626d39)" style="fill: none; stroke: #d9d9d9; stroke-opacity: 0.8; stroke-width: 0.7; stroke-linecap: square"/>
     </g>
     <g id="line2d_38">
      <g>
       <use xlink:href="#m351ded40ae" x="41.070938" y="151.749701" style="fill: #333333; stroke: #333333; stroke-width: 0.8"/>
      </g>
     </g>
     <g id="text_24">
      <!-- 15 -->
      <g style="fill: #333333" transform="translate(21.845938 155.54892) scale(0.1 -0.1)">
       <use xlink:href="#DejaVuSans-31"/>
       <use xlink:href="#DejaVuSans-35" transform="translate(63.623047 0)"/>
      </g>
     </g>
    </g>
    <g id="ytick_16">
     <g id="line2d_39">
      <path d="M 41.070938 159.104075
L 638.574937 159.104075
" clip-path="url(#p7cbe626d39)" style="fill: none; stroke: #d9d9d9; stroke-opacity: 0.8; stroke-width: 0.7; stroke-linecap: square"/>
     </g>
     <g id="line2d_40">
      <g>
       <use xlink:href="#m351ded40ae" x="41.070938" y="159.104075" style="fill: #333333; stroke: #333333; stroke-width: 0.8"/>
      </g>
     </g>
     <g id="text_25">
      <!-- 16 -->
      <g style="fill: #333333" transform="translate(21.845938 162.903294) scale(0.1 -0.1)">
       <use xlink:href="#DejaVuSans-31"/>
       <use xlink:href="#DejaVuSans-36" transform="translate(63.623047 0)"/>
      </g>
     </g>
    </g>
    <g id="ytick_17">
     <g id="line2d_41">
      <path d="M 41.070938 166.458449
L 638.574937 166.458449
" clip-path="url(#p7cbe626d39)" style="fill: none; stroke: #d9d9d9; stroke-opacity: 0.8; stroke-width: 0.7; stroke-linecap: square"/>
     </g>
     <g id="line2d_42">
      <g>
       <use xlink:href="#m351ded40ae" x="41.070938" y="166.458449" style="fill: #333333; stroke: #333333; stroke-width: 0.8"/>
      </g>
     </g>
     <g id="text_26">
      <!-- 17 -->
      <g style="fill: #333333" transform="translate(21.845938 170.257668) scale(0.1 -0.1)">
       <use xlink:href="#DejaVuSans-31"/>
       <use xlink:href="#DejaVuSans-37" transform="translate(63.623047 0)"/>
      </g>
     </g>
    </g>
    <g id="ytick_18">
     <g id="line2d_43">
      <path d="M 41.070938 173.812823
L 638.574937 173.812823
" clip-path="url(#p7cbe626d39)" style="fill: none; stroke: #d9d9d9; stroke-opacity: 0.8; stroke-width: 0.7; stroke-linecap: square"/>
     </g>
     <g id="line2d_44">
      <g>
       <use xlink:href="#m351ded40ae" x="41.070938" y="173.812823" style="fill: #333333; stroke: #333333; stroke-width: 0.8"/>
      </g>
     </g>
     <g id="text_27">
      <!-- 18 -->
      <g style="fill: #333333" transform="translate(21.845938 177.612041) scale(0.1 -0.1)">
       <use xlink:href="#DejaVuSans-31"/>
       <use xlink:href="#DejaVuSans-38" transform="translate(63.623047 0)"/>
      </g>
     </g>
    </g>
    <g id="ytick_19">
     <g id="line2d_45">
      <path d="M 41.070938 181.167197
L 638.574937 181.167197
" clip-path="url(#p7cbe626d39)" style="fill: none; stroke: #d9d9d9; stroke-opacity: 0.8; stroke-width: 0.7; stroke-linecap: square"/>
     </g>
     <g id="line2d_46">
      <g>
       <use xlink:href="#m351ded40ae" x="41.070938" y="181.167197" style="fill: #333333; stroke: #333333; stroke-width: 0.8"/>
      </g>
     </g>
     <g id="text_28">
      <!-- 19 -->
      <g style="fill: #333333" transform="translate(21.845938 184.966415) scale(0.1 -0.1)">
       <use xlink:href="#DejaVuSans-31"/>
       <use xlink:href="#DejaVuSans-39" transform="translate(63.623047 0)"/>
      </g>
     </g>
    </g>
    <g id="ytick_20">
     <g id="line2d_47">
      <path d="M 41.070938 188.521571
L 638.574937 188.521571
" clip-path="url(#p7cbe626d39)" style="fill: none; stroke: #d9d9d9; stroke-opacity: 0.8; stroke-width: 0.7; stroke-linecap: square"/>
     </g>
     <g id="line2d_48">
      <g>
       <use xlink:href="#m351ded40ae" x="41.070938" y="188.521571" style="fill: #333333; stroke: #333333; stroke-width: 0.8"/>
      </g>
     </g>
     <g id="text_29">
      <!-- 20 -->
      <g style="fill: #333333" transform="translate(21.845938 192.320789) scale(0.1 -0.1)">
       <use xlink:href="#DejaVuSans-32"/>
       <use xlink:href="#DejaVuSans-30" transform="translate(63.623047 0)"/>
      </g>
     </g>
    </g>
    <g id="ytick_21">
     <g id="line2d_49">
      <path d="M 41.070938 195.875944
L 638.574937 195.875944
" clip-path="url(#p7cbe626d39)" style="fill: none; stroke: #d9d9d9; stroke-opacity: 0.8; stroke-width: 0.7; stroke-linecap: square"/>
     </g>
     <g id="line2d_50">
      <g>
       <use xlink:href="#m351ded40ae" x="41.070938" y="195.875944" style="fill: #333333; stroke: #333333; stroke-width: 0.8"/>
      </g>
     </g>
     <g id="text_30">
      <!-- 21 -->
      <g style="fill: #333333" transform="translate(21.845938 199.675163) scale(0.1 -0.1)">
       <use xlink:href="#DejaVuSans-32"/>
       <use xlink:href="#DejaVuSans-31" transform="translate(63.623047 0)"/>
      </g>
     </g>
    </g>
    <g id="ytick_22">
     <g id="line2d_51">
      <path d="M 41.070938 203.230318
L 638.574937 203.230318
" clip-path="url(#p7cbe626d39)" style="fill: none; stroke: #d9d9d9; stroke-opacity: 0.8; stroke-width: 0.7; stroke-linecap: square"/>
     </g>
     <g id="line2d_52">
      <g>
       <use xlink:href="#m351ded40ae" x="41.070938" y="203.230318" style="fill: #333333; stroke: #333333; stroke-width: 0.8"/>
      </g>
     </g>
     <g id="text_31">
      <!-- 22 -->
      <g style="fill: #333333" transform="translate(21.845938 207.029537) scale(0.1 -0.1)">
       <use xlink:href="#DejaVuSans-32"/>
       <use xlink:href="#DejaVuSans-32" transform="translate(63.623047 0)"/>
      </g>
     </g>
    </g>
    <g id="ytick_23">
     <g id="line2d_53">
      <path d="M 41.070938 210.584692
L 638.574937 210.584692
" clip-path="url(#p7cbe626d39)" style="fill: none; stroke: #d9d9d9; stroke-opacity: 0.8; stroke-width: 0.7; stroke-linecap: square"/>
     </g>
     <g id="line2d_54">
      <g>
       <use xlink:href="#m351ded40ae" x="41.070938" y="210.584692" style="fill: #333333; stroke: #333333; stroke-width: 0.8"/>
      </g>
     </g>
     <g id="text_32">
      <!-- 23 -->
      <g style="fill: #333333" transform="translate(21.845938 214.383911) scale(0.1 -0.1)">
       <use xlink:href="#DejaVuSans-32"/>
       <use xlink:href="#DejaVuSans-33" transform="translate(63.623047 0)"/>
      </g>
     </g>
    </g>
    <g id="ytick_24">
     <g id="line2d_55">
      <path d="M 41.070938 217.939066
L 638.574937 217.939066
" clip-path="url(#p7cbe626d39)" style="fill: none; stroke: #d9d9d9; stroke-opacity: 0.8; stroke-width: 0.7; stroke-linecap: square"/>
     </g>
     <g id="line2d_56">
      <g>
       <use xlink:href="#m351ded40ae" x="41.070938" y="217.939066" style="fill: #333333; stroke: #333333; stroke-width: 0.8"/>
      </g>
     </g>
     <g id="text_33">
      <!-- 24 -->
      <g style="fill: #333333" transform="translate(21.845938 221.738285) scale(0.1 -0.1)">
       <use xlink:href="#DejaVuSans-32"/>
       <use xlink:href="#DejaVuSans-34" transform="translate(63.623047 0)"/>
      </g>
     </g>
    </g>
    <g id="ytick_25">
     <g id="line2d_57">
      <path d="M 41.070938 225.29344
L 638.574937 225.29344
" clip-path="url(#p7cbe626d39)" style="fill: none; stroke: #d9d9d9; stroke-opacity: 0.8; stroke-width: 0.7; stroke-linecap: square"/>
     </g>
     <g id="line2d_58">
      <g>
       <use xlink:href="#m351ded40ae" x="41.070938" y="225.29344" style="fill: #333333; stroke: #333333; stroke-width: 0.8"/>
      </g>
     </g>
     <g id="text_34">
      <!-- 25 -->
      <g style="fill: #333333" transform="translate(21.845938 229.092659) scale(0.1 -0.1)">
       <use xlink:href="#DejaVuSans-32"/>
       <use xlink:href="#DejaVuSans-35" transform="translate(63.623047 0)"/>
      </g>
     </g>
    </g>
    <g id="text_35">
     <!-- Ранг по стоимости экспорта (1 = крупнейший) -->
     <g transform="translate(15.558281 379.97625) rotate(-90) scale(0.11 -0.11)">
      <defs>
       <path id="DejaVuSans-420" d="M 1259 4147
L 1259 2394
L 2053 2394
Q 2494 2394 2734 2622
Q 2975 2850 2975 3272
Q 2975 3691 2734 3919
Q 2494 4147 2053 4147
L 1259 4147
z
M 628 4666
L 2053 4666
Q 2838 4666 3239 4311
Q 3641 3956 3641 3272
Q 3641 2581 3239 2228
Q 2838 1875 2053 1875
L 1259 1875
L 1259 0
L 628 0
L 628 4666
z
" transform="scale(0.015625)"/>
       <path id="DejaVuSans-430" d="M 2194 1759
Q 1497 1759 1228 1600
Q 959 1441 959 1056
Q 959 750 1161 570
Q 1363 391 1709 391
Q 2188 391 2477 730
Q 2766 1069 2766 1631
L 2766 1759
L 2194 1759
z
M 3341 1997
L 3341 0
L 2766 0
L 2766 531
Q 2569 213 2275 61
Q 1981 -91 1556 -91
Q 1019 -91 701 211
Q 384 513 384 1019
Q 384 1609 779 1909
Q 1175 2209 1959 2209
L 2766 2209
L 2766 2266
Q 2766 2663 2505 2880
Q 2244 3097 1772 3097
Q 1472 3097 1187 3025
Q 903 2953 641 2809
L 641 3341
Q 956 3463 1253 3523
Q 1550 3584 1831 3584
Q 2591 3584 2966 3190
Q 3341 2797 3341 1997
z
" transform="scale(0.015625)"/>
       <path id="DejaVuSans-43d" d="M 581 3500
L 1159 3500
L 1159 2072
L 3025 2072
L 3025 3500
L 3603 3500
L 3603 0
L 3025 0
L 3025 1613
L 1159 1613
L 1159 0
L 581 0
L 581 3500
z
" transform="scale(0.015625)"/>
       <path id="DejaVuSans-433" d="M 581 0
L 581 3500
L 3050 3500
L 3050 3041
L 1159 3041
L 1159 0
L 581 0
z
" transform="scale(0.015625)"/>
       <path id="DejaVuSans-20" transform="scale(0.015625)"/>
       <path id="DejaVuSans-43f" d="M 3603 3500
L 3603 0
L 3025 0
L 3025 3041
L 1159 3041
L 1159 0
L 581 0
L 581 3500
L 3603 3500
z
" transform="scale(0.015625)"/>
       <path id="DejaVuSans-441" d="M 3122 3366
L 3122 2828
Q 2878 2963 2633 3030
Q 2388 3097 2138 3097
Q 1578 3097 1268 2742
Q 959 2388 959 1747
Q 959 1106 1268 751
Q 1578 397 2138 397
Q 2388 397 2633 464
Q 2878 531 3122 666
L 3122 134
Q 2881 22 2623 -34
Q 2366 -91 2075 -91
Q 1284 -91 818 406
Q 353 903 353 1747
Q 353 2603 823 3093
Q 1294 3584 2113 3584
Q 2378 3584 2631 3529
Q 2884 3475 3122 3366
z
" transform="scale(0.015625)"/>
       <path id="DejaVuSans-442" d="M 188 3500
L 3541 3500
L 3541 3041
L 2147 3041
L 2147 0
L 1581 0
L 1581 3041
L 188 3041
L 188 3500
z
" transform="scale(0.015625)"/>
       <path id="DejaVuSans-438" d="M 3578 3500
L 3578 0
L 3006 0
L 3006 2809
L 1319 0
L 581 0
L 581 3500
L 1153 3500
L 1153 697
L 2838 3500
L 3578 3500
z
" transform="scale(0.015625)"/>
       <path id="DejaVuSans-43c" d="M 581 3500
L 1422 3500
L 2416 1156
L 3413 3500
L 4247 3500
L 4247 0
L 3669 0
L 3669 2950
L 2703 672
L 2128 672
L 1159 2950
L 1159 0
L 581 0
L 581 3500
z
" transform="scale(0.015625)"/>
       <path id="DejaVuSans-44d" d="M 353 666
Q 847 397 1338 397
Q 1797 397 2125 664
Q 2453 931 2513 1613
L 738 1613
L 738 2072
L 2494 2072
Q 2456 2400 2207 2748
Q 1959 3097 1338 3097
Q 856 3097 353 2828
L 353 3366
Q 844 3584 1363 3584
Q 2181 3584 2651 3089
Q 3122 2594 3122 1747
Q 3122 903 2664 406
Q 2206 -91 1403 -91
Q 813 -91 353 134
L 353 666
z
" transform="scale(0.015625)"/>
       <path id="DejaVuSans-43a" d="M 581 3500
L 1153 3500
L 1153 1856
L 2775 3500
L 3481 3500
L 2144 2147
L 3653 0
L 3009 0
L 1769 1766
L 1153 1141
L 1153 0
L 581 0
L 581 3500
z
" transform="scale(0.015625)"/>
       <path id="DejaVuSans-440" d="M 1159 525
L 1159 -1331
L 581 -1331
L 581 3500
L 1159 3500
L 1159 2969
Q 1341 3281 1617 3432
Q 1894 3584 2278 3584
Q 2916 3584 3314 3078
Q 3713 2572 3713 1747
Q 3713 922 3314 415
Q 2916 -91 2278 -91
Q 1894 -91 1617 61
Q 1341 213 1159 525
z
M 3116 1747
Q 3116 2381 2855 2742
Q 2594 3103 2138 3103
Q 1681 3103 1420 2742
Q 1159 2381 1159 1747
Q 1159 1113 1420 752
Q 1681 391 2138 391
Q 2594 391 2855 752
Q 3116 1113 3116 1747
z
" transform="scale(0.015625)"/>
       <path id="DejaVuSans-28" d="M 1984 4856
Q 1566 4138 1362 3434
Q 1159 2731 1159 2009
Q 1159 1288 1364 580
Q 1569 -128 1984 -844
L 1484 -844
Q 1016 -109 783 600
Q 550 1309 550 2009
Q 550 2706 781 3412
Q 1013 4119 1484 4856
L 1984 4856
z
" transform="scale(0.015625)"/>
       <path id="DejaVuSans-3d" d="M 678 2906
L 4684 2906
L 4684 2381
L 678 2381
L 678 2906
z
M 678 1631
L 4684 1631
L 4684 1100
L 678 1100
L 678 1631
z
" transform="scale(0.015625)"/>
       <path id="DejaVuSans-443" d="M 2059 -325
Q 1816 -950 1584 -1140
Q 1353 -1331 966 -1331
L 506 -1331
L 506 -850
L 844 -850
Q 1081 -850 1212 -737
Q 1344 -625 1503 -206
L 1606 56
L 191 3500
L 800 3500
L 1894 763
L 2988 3500
L 3597 3500
L 2059 -325
z
" transform="scale(0.015625)"/>
       <path id="DejaVuSans-435" d="M 3597 1894
L 3597 1613
L 953 1613
Q 991 1019 1311 708
Q 1631 397 2203 397
Q 2534 397 2845 478
Q 3156 559 3463 722
L 3463 178
Q 3153 47 2828 -22
Q 2503 -91 2169 -91
Q 1331 -91 842 396
Q 353 884 353 1716
Q 353 2575 817 3079
Q 1281 3584 2069 3584
Q 2775 3584 3186 3129
Q 3597 2675 3597 1894
z
M 3022 2063
Q 3016 2534 2758 2815
Q 2500 3097 2075 3097
Q 1594 3097 1305 2825
Q 1016 2553 972 2059
L 3022 2063
z
" transform="scale(0.015625)"/>
       <path id="DejaVuSans-439" d="M 3578 3500
L 3578 0
L 3006 0
L 3006 2809
L 1319 0
L 581 0
L 581 3500
L 1153 3500
L 1153 697
L 2838 3500
L 3578 3500
z
M 1102 4833
L 1471 4833
Q 1505 4599 1656 4481
Q 1808 4364 2080 4364
Q 2349 4364 2499 4480
Q 2649 4596 2689 4833
L 3058 4833
Q 3027 4386 2780 4161
Q 2533 3936 2080 3936
Q 1627 3936 1380 4161
Q 1133 4386 1102 4833
z
" transform="scale(0.015625)"/>
       <path id="DejaVuSans-448" d="M 3216 459
L 4697 459
L 4697 3500
L 5275 3500
L 5275 0
L 581 0
L 581 3500
L 1159 3500
L 1159 459
L 2638 459
L 2638 3500
L 3216 3500
L 3216 459
z
" transform="scale(0.015625)"/>
       <path id="DejaVuSans-29" d="M 513 4856
L 1013 4856
Q 1481 4119 1714 3412
Q 1947 2706 1947 2009
Q 1947 1309 1714 600
Q 1481 -109 1013 -844
L 513 -844
Q 928 -128 1133 580
Q 1338 1288 1338 2009
Q 1338 2731 1133 3434
Q 928 4138 513 4856
z
" transform="scale(0.015625)"/>
      </defs>
      <use xlink:href="#DejaVuSans-420"/>
      <use xlink:href="#DejaVuSans-430" transform="translate(60.302734 0)"/>
      <use xlink:href="#DejaVuSans-43d" transform="translate(121.582031 0)"/>
      <use xlink:href="#DejaVuSans-433" transform="translate(186.962891 0)"/>
      <use xlink:href="#DejaVuSans-20" transform="translate(239.501953 0)"/>
      <use xlink:href="#DejaVuSans-43f" transform="translate(271.289062 0)"/>
      <use xlink:href="#DejaVuSans-43e" transform="translate(336.669922 0)"/>
      <use xlink:href="#DejaVuSans-20" transform="translate(397.851562 0)"/>
      <use xlink:href="#DejaVuSans-441" transform="translate(429.638672 0)"/>
      <use xlink:href="#DejaVuSans-442" transform="translate(484.619141 0)"/>
      <use xlink:href="#DejaVuSans-43e" transform="translate(542.871094 0)"/>
      <use xlink:href="#DejaVuSans-438" transform="translate(604.052734 0)"/>
      <use xlink:href="#DejaVuSans-43c" transform="translate(669.042969 0)"/>
      <use xlink:href="#DejaVuSans-43e" transform="translate(744.482422 0)"/>
      <use xlink:href="#DejaVuSans-441" transform="translate(805.664062 0)"/>
      <use xlink:href="#DejaVuSans-442" transform="translate(860.644531 0)"/>
      <use xlink:href="#DejaVuSans-438" transform="translate(918.896484 0)"/>
      <use xlink:href="#DejaVuSans-20" transform="translate(983.886719 0)"/>
      <use xlink:href="#DejaVuSans-44d" transform="translate(1015.673828 0)"/>
      <use xlink:href="#DejaVuSans-43a" transform="translate(1070.556641 0)"/>
      <use xlink:href="#DejaVuSans-441" transform="translate(1130.957031 0)"/>
      <use xlink:href="#DejaVuSans-43f" transform="translate(1185.9375 0)"/>
      <use xlink:href="#DejaVuSans-43e" transform="translate(1251.318359 0)"/>
      <use xlink:href="#DejaVuSans-440" transform="translate(1312.5 0)"/>
      <use xlink:href="#DejaVuSans-442" transform="translate(1375.976562 0)"/>
      <use xlink:href="#DejaVuSans-430" transform="translate(1434.228516 0)"/>
      <use xlink:href="#DejaVuSans-20" transform="translate(1495.507812 0)"/>
      <use xlink:href="#DejaVuSans-28" transform="translate(1527.294922 0)"/>
      <use xlink:href="#DejaVuSans-31" transform="translate(1566.308594 0)"/>
      <use xlink:href="#DejaVuSans-20" transform="translate(1629.931641 0)"/>
      <use xlink:href="#DejaVuSans-3d" transform="translate(1661.71875 0)"/>
      <use xlink:href="#DejaVuSans-20" transform="translate(1745.507812 0)"/>
      <use xlink:href="#DejaVuSans-43a" transform="translate(1777.294922 0)"/>
      <use xlink:href="#DejaVuSans-440" transform="translate(1837.695312 0)"/>
      <use xlink:href="#DejaVuSans-443" transform="translate(1901.171875 0)"/>
      <use xlink:href="#DejaVuSans-43f" transform="translate(1960.351562 0)"/>
      <use xlink:href="#DejaVuSans-43d" transform="translate(2025.732422 0)"/>
      <use xlink:href="#DejaVuSans-435" transform="translate(2091.113281 0)"/>
      <use xlink:href="#DejaVuSans-439" transform="translate(2152.636719 0)"/>
      <use xlink:href="#DejaVuSans-448" transform="translate(2217.626953 0)"/>
      <use xlink:href="#DejaVuSans-438" transform="translate(2309.130859 0)"/>
      <use xlink:href="#DejaVuSans-439" transform="translate(2374.121094 0)"/>
      <use xlink:href="#DejaVuSans-29" transform="translate(2439.111328 0)"/>
     </g>
    </g>
   </g>
   <g id="line2d_59">
    <path d="M 68.23021 144.395327
L 107.029171 114.977831
L 145.828132 159.104075
L 184.627093 114.977831
L 223.426054 129.686579
L 262.225015 122.332205
L 301.023976 137.040953
L 339.822937 129.686579
L 378.621899 173.812823
L 417.42086 151.749701
L 456.219821 225.29344
L 495.018782 173.812823
L 533.817743 247.356562
L 572.616704 181.167197
L 611.415665 217.939066
" clip-path="url(#p7cbe626d39)" style="fill: none; stroke: #1f4e79; stroke-width: 1.8; stroke-linecap: square"/>
    <defs>
     <path id="me221d60280" d="M 0 2.5
C 0.663008 2.5 1.29895 2.236584 1.767767 1.767767
C 2.236584 1.29895 2.5 0.663008 2.5 0
C 2.5 -0.663008 2.236584 -1.29895 1.767767 -1.767767
C 1.29895 -2.236584 0.663008 -2.5 0 -2.5
C -0.663008 -2.5 -1.29895 -2.236584 -1.767767 -1.767767
C -2.236584 -1.29895 -2.5 -0.663008 -2.5 0
C -2.5 0.663008 -2.236584 1.29895 -1.767767 1.767767
C -1.29895 2.236584 -0.663008 2.5 0 2.5
z
" style="stroke: #1f4e79"/>
    </defs>
    <g clip-path="url(#p7cbe626d39)">
     <use xlink:href="#me221d60280" x="68.23021" y="144.395327" style="fill: #1f4e79; stroke: #1f4e79"/>
     <use xlink:href="#me221d60280" x="107.029171" y="114.977831" style="fill: #1f4e79; stroke: #1f4e79"/>
     <use xlink:href="#me221d60280" x="145.828132" y="159.104075" style="fill: #1f4e79; stroke: #1f4e79"/>
     <use xlink:href="#me221d60280" x="184.627093" y="114.977831" style="fill: #1f4e79; stroke: #1f4e79"/>
     <use xlink:href="#me221d60280" x="223.426054" y="129.686579" style="fill: #1f4e79; stroke: #1f4e79"/>
     <use xlink:href="#me221d60280" x="262.225015" y="122.332205" style="fill: #1f4e79; stroke: #1f4e79"/>
     <use xlink:href="#me221d60280" x="301.023976" y="137.040953" style="fill: #1f4e79; stroke: #1f4e79"/>
     <use xlink:href="#me221d60280" x="339.822937" y="129.686579" style="fill: #1f4e79; stroke: #1f4e79"/>
     <use xlink:href="#me221d60280" x="378.621899" y="173.812823" style="fill: #1f4e79; stroke: #1f4e79"/>
     <use xlink:href="#me221d60280" x="417.42086" y="151.749701" style="fill: #1f4e79; stroke: #1f4e79"/>
     <use xlink:href="#me221d60280" x="456.219821" y="225.29344" style="fill: #1f4e79; stroke: #1f4e79"/>
     <use xlink:href="#me221d60280" x="495.018782" y="173.812823" style="fill: #1f4e79; stroke: #1f4e79"/>
     <use xlink:href="#me221d60280" x="533.817743" y="247.356562" style="fill: #1f4e79; stroke: #1f4e79"/>
     <use xlink:href="#me221d60280" x="572.616704" y="181.167197" style="fill: #1f4e79; stroke: #1f4e79"/>
     <use xlink:href="#me221d60280" x="611.415665" y="217.939066" style="fill: #1f4e79; stroke: #1f4e79"/>
    </g>
   </g>
   <g id="line2d_60">
    <path d="M 68.23021 70.851588
L 107.029171 63.497214
L 145.828132 70.851588
L 184.627093 100.269083
L 223.426054 114.977831
L 262.225015 85.560336
L 301.023976 70.851588
L 339.822937 78.205962
L 378.621899 85.560336
L 417.42086 122.332205
L 456.219821 107.623457
L 495.018782 107.623457
L 533.817743 129.686579
L 572.616704 129.686579
L 611.415665 129.686579
" clip-path="url(#p7cbe626d39)" style="fill: none; stroke: #8c5a2b; stroke-width: 1.8; stroke-linecap: square"/>
    <defs>
     <path id="m5d9cd11374" d="M 0 2.5
C 0.663008 2.5 1.29895 2.236584 1.767767 1.767767
C 2.236584 1.29895 2.5 0.663008 2.5 0
C 2.5 -0.663008 2.236584 -1.29895 1.767767 -1.767767
C 1.29895 -2.236584 0.663008 -2.5 0 -2.5
C -0.663008 -2.5 -1.29895 -2.236584 -1.767767 -1.767767
C -2.236584 -1.29895 -2.5 -0.663008 -2.5 0
C -2.5 0.663008 -2.236584 1.29895 -1.767767 1.767767
C -1.29895 2.236584 -0.663008 2.5 0 2.5
z
" style="stroke: #8c5a2b"/>
    </defs>
    <g clip-path="url(#p7cbe626d39)">
     <use xlink:href="#m5d9cd11374" x="68.23021" y="70.851588" style="fill: #8c5a2b; stroke: #8c5a2b"/>
     <use xlink:href="#m5d9cd11374" x="107.029171" y="63.497214" style="fill: #8c5a2b; stroke: #8c5a2b"/>
     <use xlink:href="#m5d9cd11374" x="145.828132" y="70.851588" style="fill: #8c5a2b; stroke: #8c5a2b"/>
     <use xlink:href="#m5d9cd11374" x="184.627093" y="100.269083" style="fill: #8c5a2b; stroke: #8c5a2b"/>
     <use xlink:href="#m5d9cd11374" x="223.426054" y="114.977831" style="fill: #8c5a2b; stroke: #8c5a2b"/>
     <use xlink:href="#m5d9cd11374" x="262.225015" y="85.560336" style="fill: #8c5a2b; stroke: #8c5a2b"/>
     <use xlink:href="#m5d9cd11374" x="301.023976" y="70.851588" style="fill: #8c5a2b; stroke: #8c5a2b"/>
     <use xlink:href="#m5d9cd11374" x="339.822937" y="78.205962" style="fill: #8c5a2b; stroke: #8c5a2b"/>
     <use xlink:href="#m5d9cd11374" x="378.621899" y="85.560336" style="fill: #8c5a2b; stroke: #8c5a2b"/>
     <use xlink:href="#m5d9cd11374" x="417.42086" y="122.332205" style="fill: #8c5a2b; stroke: #8c5a2b"/>
     <use xlink:href="#m5d9cd11374" x="456.219821" y="107.623457" style="fill: #8c5a2b; stroke: #8c5a2b"/>
     <use xlink:href="#m5d9cd11374" x="495.018782" y="107.623457" style="fill: #8c5a2b; stroke: #8c5a2b"/>
     <use xlink:href="#m5d9cd11374" x="533.817743" y="129.686579" style="fill: #8c5a2b; stroke: #8c5a2b"/>
     <use xlink:href="#m5d9cd11374" x="572.616704" y="129.686579" style="fill: #8c5a2b; stroke: #8c5a2b"/>
     <use xlink:href="#m5d9cd11374" x="611.415665" y="129.686579" style="fill: #8c5a2b; stroke: #8c5a2b"/>
    </g>
   </g>
   <g id="line2d_61">
    <path d="M 68.23021 92.914709
L 107.029171 78.205962
L 145.828132 85.560336
L 184.627093 78.205962
L 223.426054 92.914709
L 262.225015 92.914709
L 301.023976 92.914709
L 339.822937 85.560336
L 378.621899 92.914709
L 417.42086 107.623457
L 456.219821 129.686579
L 495.018782 100.269083
L 533.817743 92.914709
L 572.616704 92.914709
L 611.415665 85.560336
" clip-path="url(#p7cbe626d39)" style="fill: none; stroke: #3f7f5f; stroke-width: 1.8; stroke-linecap: square"/>
    <defs>
     <path id="m4b67fc30c1" d="M 0 2.5
C 0.663008 2.5 1.29895 2.236584 1.767767 1.767767
C 2.236584 1.29895 2.5 0.663008 2.5 0
C 2.5 -0.663008 2.236584 -1.29895 1.767767 -1.767767
C 1.29895 -2.236584 0.663008 -2.5 0 -2.5
C -0.663008 -2.5 -1.29895 -2.236584 -1.767767 -1.767767
C -2.236584 -1.29895 -2.5 -0.663008 -2.5 0
C -2.5 0.663008 -2.236584 1.29895 -1.767767 1.767767
C -1.29895 2.236584 -0.663008 2.5 0 2.5
z
" style="stroke: #3f7f5f"/>
    </defs>
    <g clip-path="url(#p7cbe626d39)">
     <use xlink:href="#m4b67fc30c1" x="68.23021" y="92.914709" style="fill: #3f7f5f; stroke: #3f7f5f"/>
     <use xlink:href="#m4b67fc30c1" x="107.029171" y="78.205962" style="fill: #3f7f5f; stroke: #3f7f5f"/>
     <use xlink:href="#m4b67fc30c1" x="145.828132" y="85.560336" style="fill: #3f7f5f; stroke: #3f7f5f"/>
     <use xlink:href="#m4b67fc30c1" x="184.627093" y="78.205962" style="fill: #3f7f5f; stroke: #3f7f5f"/>
     <use xlink:href="#m4b67fc30c1" x="223.426054" y="92.914709" style="fill: #3f7f5f; stroke: #3f7f5f"/>
     <use xlink:href="#m4b67fc30c1" x="262.225015" y="92.914709" style="fill: #3f7f5f; stroke: #3f7f5f"/>
     <use xlink:href="#m4b67fc30c1" x="301.023976" y="92.914709" style="fill: #3f7f5f; stroke: #3f7f5f"/>
     <use xlink:href="#m4b67fc30c1" x="339.822937" y="85.560336" style="fill: #3f7f5f; stroke: #3f7f5f"/>
     <use xlink:href="#m4b67fc30c1" x="378.621899" y="92.914709" style="fill: #3f7f5f; stroke: #3f7f5f"/>
     <use xlink:href="#m4b67fc30c1" x="417.42086" y="107.623457" style="fill: #3f7f5f; stroke: #3f7f5f"/>
     <use xlink:href="#m4b67fc30c1" x="456.219821" y="129.686579" style="fill: #3f7f5f; stroke: #3f7f5f"/>
     <use xlink:href="#m4b67fc30c1" x="495.018782" y="100.269083" style="fill: #3f7f5f; stroke: #3f7f5f"/>
     <use xlink:href="#m4b67fc30c1" x="533.817743" y="92.914709" style="fill: #3f7f5f; stroke: #3f7f5f"/>
     <use xlink:href="#m4b67fc30c1" x="572.616704" y="92.914709" style="fill: #3f7f5f; stroke: #3f7f5f"/>
     <use xlink:href="#m4b67fc30c1" x="611.415665" y="85.560336" style="fill: #3f7f5f; stroke: #3f7f5f"/>
    </g>
   </g>
   <g id="line2d_62">
    <path d="M 68.23021 100.269083
L 107.029171 70.851588
L 145.828132 63.497214
L 184.627093 48.788466
L 223.426054 70.851588
L 262.225015 107.623457
L 301.023976 122.332205
L 339.822937 114.977831
L 378.621899 78.205962
L 417.42086 173.812823
L 456.219821 159.104075
L 495.018782 137.040953
L 533.817743 232.647814
L 572.616704 298.837179
L 611.415665 232.647814
" clip-path="url(#p7cbe626d39)" style="fill: none; stroke: #6f5f90; stroke-width: 1.8; stroke-linecap: square"/>
    <defs>
     <path id="m1306112d14" d="M 0 2.5
C 0.663008 2.5 1.29895 2.236584 1.767767 1.767767
C 2.236584 1.29895 2.5 0.663008 2.5 0
C 2.5 -0.663008 2.236584 -1.29895 1.767767 -1.767767
C 1.29895 -2.236584 0.663008 -2.5 0 -2.5
C -0.663008 -2.5 -1.29895 -2.236584 -1.767767 -1.767767
C -2.236584 -1.29895 -2.5 -0.663008 -2.5 0
C -2.5 0.663008 -2.236584 1.29895 -1.767767 1.767767
C -1.29895 2.236584 -0.663008 2.5 0 2.5
z
" style="stroke: #6f5f90"/>
    </defs>
    <g clip-path="url(#p7cbe626d39)">
     <use xlink:href="#m1306112d14" x="68.23021" y="100.269083" style="fill: #6f5f90; stroke: #6f5f90"/>
     <use xlink:href="#m1306112d14" x="107.029171" y="70.851588" style="fill: #6f5f90; stroke: #6f5f90"/>
     <use xlink:href="#m1306112d14" x="145.828132" y="63.497214" style="fill: #6f5f90; stroke: #6f5f90"/>
     <use xlink:href="#m1306112d14" x="184.627093" y="48.788466" style="fill: #6f5f90; stroke: #6f5f90"/>
     <use xlink:href="#m1306112d14" x="223.426054" y="70.851588" style="fill: #6f5f90; stroke: #6f5f90"/>
     <use xlink:href="#m1306112d14" x="262.225015" y="107.623457" style="fill: #6f5f90; stroke: #6f5f90"/>
     <use xlink:href="#m1306112d14" x="301.023976" y="122.332205" style="fill: #6f5f90; stroke: #6f5f90"/>
     <use xlink:href="#m1306112d14" x="339.822937" y="114.977831" style="fill: #6f5f90; stroke: #6f5f90"/>
     <use xlink:href="#m1306112d14" x="378.621899" y="78.205962" style="fill: #6f5f90; stroke: #6f5f90"/>
     <use xlink:href="#m1306112d14" x="417.42086" y="173.812823" style="fill: #6f5f90; stroke: #6f5f90"/>
     <use xlink:href="#m1306112d14" x="456.219821" y="159.104075" style="fill: #6f5f90; stroke: #6f5f90"/>
     <use xlink:href="#m1306112d14" x="495.018782" y="137.040953" style="fill: #6f5f90; stroke: #6f5f90"/>
     <use xlink:href="#m1306112d14" x="533.817743" y="232.647814" style="fill: #6f5f90; stroke: #6f5f90"/>
     <use xlink:href="#m1306112d14" x="572.616704" y="298.837179" style="fill: #6f5f90; stroke: #6f5f90"/>
     <use xlink:href="#m1306112d14" x="611.415665" y="232.647814" style="fill: #6f5f90; stroke: #6f5f90"/>
    </g>
   </g>
   <g id="line2d_63">
    <path d="M 68.23021 85.560336
L 107.029171 92.914709
L 145.828132 107.623457
L 184.627093 107.623457
L 223.426054 100.269083
L 262.225015 100.269083
L 301.023976 100.269083
L 339.822937 100.269083
L 378.621899 114.977831
L 417.42086 85.560336
L 456.219821 122.332205
L 495.018782 122.332205
L 533.817743 122.332205
L 572.616704 107.623457
L 611.415665 144.395327
" clip-path="url(#p7cbe626d39)" style="fill: none; stroke: #7a7a7a; stroke-width: 1.8; stroke-linecap: square"/>
    <defs>
     <path id="ma7012bd700" d="M 0 2.5
C 0.663008 2.5 1.29895 2.236584 1.767767 1.767767
C 2.236584 1.29895 2.5 0.663008 2.5 0
C 2.5 -0.663008 2.236584 -1.29895 1.767767 -1.767767
C 1.29895 -2.236584 0.663008 -2.5 0 -2.5
C -0.663008 -2.5 -1.29895 -2.236584 -1.767767 -1.767767
C -2.236584 -1.29895 -2.5 -0.663008 -2.5 0
C -2.5 0.663008 -2.236584 1.29895 -1.767767 1.767767
C -1.29895 2.236584 -0.663008 2.5 0 2.5
z
" style="stroke: #7a7a7a"/>
    </defs>
    <g clip-path="url(#p7cbe626d39)">
     <use xlink:href="#ma7012bd700" x="68.23021" y="85.560336" style="fill: #7a7a7a; stroke: #7a7a7a"/>
     <use xlink:href="#ma7012bd700" x="107.029171" y="92.914709" style="fill: #7a7a7a; stroke: #7a7a7a"/>
     <use xlink:href="#ma7012bd700" x="145.828132" y="107.623457" style="fill: #7a7a7a; stroke: #7a7a7a"/>
     <use xlink:href="#ma7012bd700" x="184.627093" y="107.623457" style="fill: #7a7a7a; stroke: #7a7a7a"/>
     <use xlink:href="#ma7012bd700" x="223.426054" y="100.269083" style="fill: #7a7a7a; stroke: #7a7a7a"/>
     <use xlink:href="#ma7012bd700" x="262.225015" y="100.269083" style="fill: #7a7a7a; stroke: #7a7a7a"/>
     <use xlink:href="#ma7012bd700" x="301.023976" y="100.269083" style="fill: #7a7a7a; stroke: #7a7a7a"/>
     <use xlink:href="#ma7012bd700" x="339.822937" y="100.269083" style="fill: #7a7a7a; stroke: #7a7a7a"/>
     <use xlink:href="#ma7012bd700" x="378.621899" y="114.977831" style="fill: #7a7a7a; stroke: #7a7a7a"/>
     <use xlink:href="#ma7012bd700" x="417.42086" y="85.560336" style="fill: #7a7a7a; stroke: #7a7a7a"/>
     <use xlink:href="#ma7012bd700" x="456.219821" y="122.332205" style="fill: #7a7a7a; stroke: #7a7a7a"/>
     <use xlink:href="#ma7012bd700" x="495.018782" y="122.332205" style="fill: #7a7a7a; stroke: #7a7a7a"/>
     <use xlink:href="#ma7012bd700" x="533.817743" y="122.332205" style="fill: #7a7a7a; stroke: #7a7a7a"/>
     <use xlink:href="#ma7012bd700" x="572.616704" y="107.623457" style="fill: #7a7a7a; stroke: #7a7a7a"/>
     <use xlink:href="#ma7012bd700" x="611.415665" y="144.395327" style="fill: #7a7a7a; stroke: #7a7a7a"/>
    </g>
   </g>
   <g id="line2d_64">
    <path d="M 68.23021 48.788466
L 107.029171 48.788466
L 145.828132 48.788466
L 184.627093 63.497214
L 223.426054 48.788466
L 262.225015 56.14284
L 301.023976 48.788466
L 339.822937 48.788466
L 378.621899 48.788466
L 417.42086 48.788466
L 456.219821 48.788466
L 495.018782 48.788466
L 533.817743 48.788466
L 572.616704 48.788466
L 611.415665 48.788466
" clip-path="url(#p7cbe626d39)" style="fill: none; stroke: #b05a4a; stroke-width: 1.8; stroke-linecap: square"/>
    <defs>
     <path id="m57f7e91ea5" d="M 0 2.5
C 0.663008 2.5 1.29895 2.236584 1.767767 1.767767
C 2.236584 1.29895 2.5 0.663008 2.5 0
C 2.5 -0.663008 2.236584 -1.29895 1.767767 -1.767767
C 1.29895 -2.236584 0.663008 -2.5 0 -2.5
C -0.663008 -2.5 -1.29895 -2.236584 -1.767767 -1.767767
C -2.236584 -1.29895 -2.5 -0.663008 -2.5 0
C -2.5 0.663008 -2.236584 1.29895 -1.767767 1.767767
C -1.29895 2.236584 -0.663008 2.5 0 2.5
z
" style="stroke: #b05a4a"/>
    </defs>
    <g clip-path="url(#p7cbe626d39)">
     <use xlink:href="#m57f7e91ea5" x="68.23021" y="48.788466" style="fill: #b05a4a; stroke: #b05a4a"/>
     <use xlink:href="#m57f7e91ea5" x="107.029171" y="48.788466" style="fill: #b05a4a; stroke: #b05a4a"/>
     <use xlink:href="#m57f7e91ea5" x="145.828132" y="48.788466" style="fill: #b05a4a; stroke: #b05a4a"/>
     <use xlink:href="#m57f7e91ea5" x="184.627093" y="63.497214" style="fill: #b05a4a; stroke: #b05a4a"/>
     <use xlink:href="#m57f7e91ea5" x="223.426054" y="48.788466" style="fill: #b05a4a; stroke: #b05a4a"/>
     <use xlink:href="#m57f7e91ea5" x="262.225015" y="56.14284" style="fill: #b05a4a; stroke: #b05a4a"/>
     <use xlink:href="#m57f7e91ea5" x="301.023976" y="48.788466" style="fill: #b05a4a; stroke: #b05a4a"/>
     <use xlink:href="#m57f7e91ea5" x="339.822937" y="48.788466" style="fill: #b05a4a; stroke: #b05a4a"/>
     <use xlink:href="#m57f7e91ea5" x="378.621899" y="48.788466" style="fill: #b05a4a; stroke: #b05a4a"/>
     <use xlink:href="#m57f7e91ea5" x="417.42086" y="48.788466" style="fill: #b05a4a; stroke: #b05a4a"/>
     <use xlink:href="#m57f7e91ea5" x="456.219821" y="48.788466" style="fill: #b05a4a; stroke: #b05a4a"/>
     <use xlink:href="#m57f7e91ea5" x="495.018782" y="48.788466" style="fill: #b05a4a; stroke: #b05a4a"/>
     <use xlink:href="#m57f7e91ea5" x="533.817743" y="48.788466" style="fill: #b05a4a; stroke: #b05a4a"/>
     <use xlink:href="#m57f7e91ea5" x="572.616704" y="48.788466" style="fill: #b05a4a; stroke: #b05a4a"/>
     <use xlink:href="#m57f7e91ea5" x="611.415665" y="48.788466" style="fill: #b05a4a; stroke: #b05a4a"/>
    </g>
   </g>
   <g id="line2d_65">
    <path d="M 68.23021 63.497214
L 107.029171 85.560336
L 145.828132 92.914709
L 184.627093 85.560336
L 223.426054 63.497214
L 262.225015 70.851588
L 301.023976 63.497214
L 339.822937 63.497214
L 378.621899 70.851588
L 417.42086 70.851588
L 456.219821 70.851588
L 495.018782 70.851588
L 533.817743 78.205962
L 572.616704 63.497214
L 611.415665 70.851588
" clip-path="url(#p7cbe626d39)" style="fill: none; stroke: #4f6f8f; stroke-width: 1.8; stroke-linecap: square"/>
    <defs>
     <path id="meada3e93a1" d="M 0 2.5
C 0.663008 2.5 1.29895 2.236584 1.767767 1.767767
C 2.236584 1.29895 2.5 0.663008 2.5 0
C 2.5 -0.663008 2.236584 -1.29895 1.767767 -1.767767
C 1.29895 -2.236584 0.663008 -2.5 0 -2.5
C -0.663008 -2.5 -1.29895 -2.236584 -1.767767 -1.767767
C -2.236584 -1.29895 -2.5 -0.663008 -2.5 0
C -2.5 0.663008 -2.236584 1.29895 -1.767767 1.767767
C -1.29895 2.236584 -0.663008 2.5 0 2.5
z
" style="stroke: #4f6f8f"/>
    </defs>
    <g clip-path="url(#p7cbe626d39)">
     <use xlink:href="#meada3e93a1" x="68.23021" y="63.497214" style="fill: #4f6f8f; stroke: #4f6f8f"/>
     <use xlink:href="#meada3e93a1" x="107.029171" y="85.560336" style="fill: #4f6f8f; stroke: #4f6f8f"/>
     <use xlink:href="#meada3e93a1" x="145.828132" y="92.914709" style="fill: #4f6f8f; stroke: #4f6f8f"/>
     <use xlink:href="#meada3e93a1" x="184.627093" y="85.560336" style="fill: #4f6f8f; stroke: #4f6f8f"/>
     <use xlink:href="#meada3e93a1" x="223.426054" y="63.497214" style="fill: #4f6f8f; stroke: #4f6f8f"/>
     <use xlink:href="#meada3e93a1" x="262.225015" y="70.851588" style="fill: #4f6f8f; stroke: #4f6f8f"/>
     <use xlink:href="#meada3e93a1" x="301.023976" y="63.497214" style="fill: #4f6f8f; stroke: #4f6f8f"/>
     <use xlink:href="#meada3e93a1" x="339.822937" y="63.497214" style="fill: #4f6f8f; stroke: #4f6f8f"/>
     <use xlink:href="#meada3e93a1" x="378.621899" y="70.851588" style="fill: #4f6f8f; stroke: #4f6f8f"/>
     <use xlink:href="#meada3e93a1" x="417.42086" y="70.851588" style="fill: #4f6f8f; stroke: #4f6f8f"/>
     <use xlink:href="#meada3e93a1" x="456.219821" y="70.851588" style="fill: #4f6f8f; stroke: #4f6f8f"/>
     <use xlink:href="#meada3e93a1" x="495.018782" y="70.851588" style="fill: #4f6f8f; stroke: #4f6f8f"/>
     <use xlink:href="#meada3e93a1" x="533.817743" y="78.205962" style="fill: #4f6f8f; stroke: #4f6f8f"/>
     <use xlink:href="#meada3e93a1" x="572.616704" y="63.497214" style="fill: #4f6f8f; stroke: #4f6f8f"/>
     <use xlink:href="#meada3e93a1" x="611.415665" y="70.851588" style="fill: #4f6f8f; stroke: #4f6f8f"/>
    </g>
   </g>
   <g id="line2d_66">
    <path d="M 68.23021 78.205962
L 107.029171 100.269083
L 145.828132 78.205962
L 184.627093 70.851588
L 223.426054 85.560336
L 262.225015 78.205962
L 301.023976 78.205962
L 339.822937 70.851588
L 378.621899 63.497214
L 417.42086 78.205962
L 456.219821 78.205962
L 495.018782 85.560336
L 533.817743 85.560336
L 572.616704 78.205962
L 611.415665 78.205962
" clip-path="url(#p7cbe626d39)" style="fill: none; stroke: #9a7d34; stroke-width: 1.8; stroke-linecap: square"/>
    <defs>
     <path id="m252a91bb9d" d="M 0 2.5
C 0.663008 2.5 1.29895 2.236584 1.767767 1.767767
C 2.236584 1.29895 2.5 0.663008 2.5 0
C 2.5 -0.663008 2.236584 -1.29895 1.767767 -1.767767
C 1.29895 -2.236584 0.663008 -2.5 0 -2.5
C -0.663008 -2.5 -1.29895 -2.236584 -1.767767 -1.767767
C -2.236584 -1.29895 -2.5 -0.663008 -2.5 0
C -2.5 0.663008 -2.236584 1.29895 -1.767767 1.767767
C -1.29895 2.236584 -0.663008 2.5 0 2.5
z
" style="stroke: #9a7d34"/>
    </defs>
    <g clip-path="url(#p7cbe626d39)">
     <use xlink:href="#m252a91bb9d" x="68.23021" y="78.205962" style="fill: #9a7d34; stroke: #9a7d34"/>
     <use xlink:href="#m252a91bb9d" x="107.029171" y="100.269083" style="fill: #9a7d34; stroke: #9a7d34"/>
     <use xlink:href="#m252a91bb9d" x="145.828132" y="78.205962" style="fill: #9a7d34; stroke: #9a7d34"/>
     <use xlink:href="#m252a91bb9d" x="184.627093" y="70.851588" style="fill: #9a7d34; stroke: #9a7d34"/>
     <use xlink:href="#m252a91bb9d" x="223.426054" y="85.560336" style="fill: #9a7d34; stroke: #9a7d34"/>
     <use xlink:href="#m252a91bb9d" x="262.225015" y="78.205962" style="fill: #9a7d34; stroke: #9a7d34"/>
     <use xlink:href="#m252a91bb9d" x="301.023976" y="78.205962" style="fill: #9a7d34; stroke: #9a7d34"/>
     <use xlink:href="#m252a91bb9d" x="339.822937" y="70.851588" style="fill: #9a7d34; stroke: #9a7d34"/>
     <use xlink:href="#m252a91bb9d" x="378.621899" y="63.497214" style="fill: #9a7d34; stroke: #9a7d34"/>
     <use xlink:href="#m252a91bb9d" x="417.42086" y="78.205962" style="fill: #9a7d34; stroke: #9a7d34"/>
     <use xlink:href="#m252a91bb9d" x="456.219821" y="78.205962" style="fill: #9a7d34; stroke: #9a7d34"/>
     <use xlink:href="#m252a91bb9d" x="495.018782" y="85.560336" style="fill: #9a7d34; stroke: #9a7d34"/>
     <use xlink:href="#m252a91bb9d" x="533.817743" y="85.560336" style="fill: #9a7d34; stroke: #9a7d34"/>
     <use xlink:href="#m252a91bb9d" x="572.616704" y="78.205962" style="fill: #9a7d34; stroke: #9a7d34"/>
     <use xlink:href="#m252a91bb9d" x="611.415665" y="78.205962" style="fill: #9a7d34; stroke: #9a7d34"/>
    </g>
   </g>
   <g id="line2d_67">
    <path d="M 68.23021 107.623457
L 107.029171 254.710936
L 145.828132 269.419684
L 223.426054 313.545927
L 262.225015 306.191553
L 301.023976 328.254675
L 339.822937 328.254675
L 378.621899 438.570284
L 417.42086 350.317797
L 495.018782 438.570284
L 533.817743 416.507162
L 572.616704 276.774058
L 611.415665 137.040953
" clip-path="url(#p7cbe626d39)" style="fill: none; stroke: #5f7f7f; stroke-width: 1.8; stroke-linecap: square"/>
    <defs>
     <path id="m5e9452f17b" d="M 0 2.5
C 0.663008 2.5 1.29895 2.236584 1.767767 1.767767
C 2.236584 1.29895 2.5 0.663008 2.5 0
C 2.5 -0.663008 2.236584 -1.29895 1.767767 -1.767767
C 1.29895 -2.236584 0.663008 -2.5 0 -2.5
C -0.663008 -2.5 -1.29895 -2.236584 -1.767767 -1.767767
C -2.236584 -1.29895 -2.5 -0.663008 -2.5 0
C -2.5 0.663008 -2.236584 1.29895 -1.767767 1.767767
C -1.29895 2.236584 -0.663008 2.5 0 2.5
z
" style="stroke: #5f7f7f"/>
    </defs>
    <g clip-path="url(#p7cbe626d39)">
     <use xlink:href="#m5e9452f17b" x="68.23021" y="107.623457" style="fill: #5f7f7f; stroke: #5f7f7f"/>
     <use xlink:href="#m5e9452f17b" x="107.029171" y="254.710936" style="fill: #5f7f7f; stroke: #5f7f7f"/>
     <use xlink:href="#m5e9452f17b" x="145.828132" y="269.419684" style="fill: #5f7f7f; stroke: #5f7f7f"/>
     <use xlink:href="#m5e9452f17b" x="223.426054" y="313.545927" style="fill: #5f7f7f; stroke: #5f7f7f"/>
     <use xlink:href="#m5e9452f17b" x="262.225015" y="306.191553" style="fill: #5f7f7f; stroke: #5f7f7f"/>
     <use xlink:href="#m5e9452f17b" x="301.023976" y="328.254675" style="fill: #5f7f7f; stroke: #5f7f7f"/>
     <use xlink:href="#m5e9452f17b" x="339.822937" y="328.254675" style="fill: #5f7f7f; stroke: #5f7f7f"/>
     <use xlink:href="#m5e9452f17b" x="378.621899" y="438.570284" style="fill: #5f7f7f; stroke: #5f7f7f"/>
     <use xlink:href="#m5e9452f17b" x="417.42086" y="350.317797" style="fill: #5f7f7f; stroke: #5f7f7f"/>
     <use xlink:href="#m5e9452f17b" x="495.018782" y="438.570284" style="fill: #5f7f7f; stroke: #5f7f7f"/>
     <use xlink:href="#m5e9452f17b" x="533.817743" y="416.507162" style="fill: #5f7f7f; stroke: #5f7f7f"/>
     <use xlink:href="#m5e9452f17b" x="572.616704" y="276.774058" style="fill: #5f7f7f; stroke: #5f7f7f"/>
     <use xlink:href="#m5e9452f17b" x="611.415665" y="137.040953" style="fill: #5f7f7f; stroke: #5f7f7f"/>
    </g>
   </g>
   <g id="line2d_68">
    <path d="M 68.23021 114.977831
L 107.029171 129.686579
L 145.828132 137.040953
L 184.627093 159.104075
L 223.426054 107.623457
L 262.225015 114.977831
L 301.023976 129.686579
L 339.822937 107.623457
L 378.621899 100.269083
L 417.42086 92.914709
L 456.219821 85.560336
L 495.018782 78.205962
L 533.817743 70.851588
L 572.616704 85.560336
L 611.415665 122.332205
" clip-path="url(#p7cbe626d39)" style="fill: none; stroke: #8f6f6f; stroke-width: 1.8; stroke-linecap: square"/>
    <defs>
     <path id="m79702c7a95" d="M 0 2.5
C 0.663008 2.5 1.29895 2.236584 1.767767 1.767767
C 2.236584 1.29895 2.5 0.663008 2.5 0
C 2.5 -0.663008 2.236584 -1.29895 1.767767 -1.767767
C 1.29895 -2.236584 0.663008 -2.5 0 -2.5
C -0.663008 -2.5 -1.29895 -2.236584 -1.767767 -1.767767
C -2.236584 -1.29895 -2.5 -0.663008 -2.5 0
C -2.5 0.663008 -2.236584 1.29895 -1.767767 1.767767
C -1.29895 2.236584 -0.663008 2.5 0 2.5
z
" style="stroke: #8f6f6f"/>
    </defs>
    <g clip-path="url(#p7cbe626d39)">
     <use xlink:href="#m79702c7a95" x="68.23021" y="114.977831" style="fill: #8f6f6f; stroke: #8f6f6f"/>
     <use xlink:href="#m79702c7a95" x="107.029171" y="129.686579" style="fill: #8f6f6f; stroke: #8f6f6f"/>
     <use xlink:href="#m79702c7a95" x="145.828132" y="137.040953" style="fill: #8f6f6f; stroke: #8f6f6f"/>
     <use xlink:href="#m79702c7a95" x="184.627093" y="159.104075" style="fill: #8f6f6f; stroke: #8f6f6f"/>
     <use xlink:href="#m79702c7a95" x="223.426054" y="107.623457" style="fill: #8f6f6f; stroke: #8f6f6f"/>
     <use xlink:href="#m79702c7a95" x="262.225015" y="114.977831" style="fill: #8f6f6f; stroke: #8f6f6f"/>
     <use xlink:href="#m79702c7a95" x="301.023976" y="129.686579" style="fill: #8f6f6f; stroke: #8f6f6f"/>
     <use xlink:href="#m79702c7a95" x="339.822937" y="107.623457" style="fill: #8f6f6f; stroke: #8f6f6f"/>
     <use xlink:href="#m79702c7a95" x="378.621899" y="100.269083" style="fill: #8f6f6f; stroke: #8f6f6f"/>
     <use xlink:href="#m79702c7a95" x="417.42086" y="92.914709" style="fill: #8f6f6f; stroke: #8f6f6f"/>
     <use xlink:href="#m79702c7a95" x="456.219821" y="85.560336" style="fill: #8f6f6f; stroke: #8f6f6f"/>
     <use xlink:href="#m79702c7a95" x="495.018782" y="78.205962" style="fill: #8f6f6f; stroke: #8f6f6f"/>
     <use xlink:href="#m79702c7a95" x="533.817743" y="70.851588" style="fill: #8f6f6f; stroke: #8f6f6f"/>
     <use xlink:href="#m79702c7a95" x="572.616704" y="85.560336" style="fill: #8f6f6f; stroke: #8f6f6f"/>
     <use xlink:href="#m79702c7a95" x="611.415665" y="122.332205" style="fill: #8f6f6f; stroke: #8f6f6f"/>
    </g>
   </g>
   <g id="line2d_69">
    <path d="M 68.23021 56.14284
L 107.029171 56.14284
L 145.828132 56.14284
L 184.627093 56.14284
L 223.426054 56.14284
L 262.225015 48.788466
L 301.023976 56.14284
L 339.822937 56.14284
L 378.621899 56.14284
L 417.42086 56.14284
L 456.219821 56.14284
L 495.018782 56.14284
L 533.817743 56.14284
L 572.616704 56.14284
L 611.415665 56.14284
" clip-path="url(#p7cbe626d39)" style="fill: none; stroke: #2f5f5f; stroke-width: 1.8; stroke-linecap: square"/>
    <defs>
     <path id="ma87f6174a3" d="M 0 2.5
C 0.663008 2.5 1.29895 2.236584 1.767767 1.767767
C 2.236584 1.29895 2.5 0.663008 2.5 0
C 2.5 -0.663008 2.236584 -1.29895 1.767767 -1.767767
C 1.29895 -2.236584 0.663008 -2.5 0 -2.5
C -0.663008 -2.5 -1.29895 -2.236584 -1.767767 -1.767767
C -2.236584 -1.29895 -2.5 -0.663008 -2.5 0
C -2.5 0.663008 -2.236584 1.29895 -1.767767 1.767767
C -1.29895 2.236584 -0.663008 2.5 0 2.5
z
" style="stroke: #2f5f5f"/>
    </defs>
    <g clip-path="url(#p7cbe626d39)">
     <use xlink:href="#ma87f6174a3" x="68.23021" y="56.14284" style="fill: #2f5f5f; stroke: #2f5f5f"/>
     <use xlink:href="#ma87f6174a3" x="107.029171" y="56.14284" style="fill: #2f5f5f; stroke: #2f5f5f"/>
     <use xlink:href="#ma87f6174a3" x="145.828132" y="56.14284" style="fill: #2f5f5f; stroke: #2f5f5f"/>
     <use xlink:href="#ma87f6174a3" x="184.627093" y="56.14284" style="fill: #2f5f5f; stroke: #2f5f5f"/>
     <use xlink:href="#ma87f6174a3" x="223.426054" y="56.14284" style="fill: #2f5f5f; stroke: #2f5f5f"/>
     <use xlink:href="#ma87f6174a3" x="262.225015" y="48.788466" style="fill: #2f5f5f; stroke: #2f5f5f"/>
     <use xlink:href="#ma87f6174a3" x="301.023976" y="56.14284" style="fill: #2f5f5f; stroke: #2f5f5f"/>
     <use xlink:href="#ma87f6174a3" x="339.822937" y="56.14284" style="fill: #2f5f5f; stroke: #2f5f5f"/>
     <use xlink:href="#ma87f6174a3" x="378.621899" y="56.14284" style="fill: #2f5f5f; stroke: #2f5f5f"/>
     <use xlink:href="#ma87f6174a3" x="417.42086" y="56.14284" style="fill: #2f5f5f; stroke: #2f5f5f"/>
     <use xlink:href="#ma87f6174a3" x="456.219821" y="56.14284" style="fill: #2f5f5f; stroke: #2f5f5f"/>
     <use xlink:href="#ma87f6174a3" x="495.018782" y="56.14284" style="fill: #2f5f5f; stroke: #2f5f5f"/>
     <use xlink:href="#ma87f6174a3" x="533.817743" y="56.14284" style="fill: #2f5f5f; stroke: #2f5f5f"/>
     <use xlink:href="#ma87f6174a3" x="572.616704" y="56.14284" style="fill: #2f5f5f; stroke: #2f5f5f"/>
     <use xlink:href="#ma87f6174a3" x="611.415665" y="56.14284" style="fill: #2f5f5f; stroke: #2f5f5f"/>
    </g>
   </g>
   <g id="line2d_70">
    <path d="M 68.23021 129.686579
L 107.029171 107.623457
L 145.828132 100.269083
L 184.627093 92.914709
L 223.426054 78.205962
L 262.225015 63.497214
L 301.023976 85.560336
L 339.822937 92.914709
L 378.621899 107.623457
L 417.42086 63.497214
L 456.219821 63.497214
L 495.018782 63.497214
L 533.817743 63.497214
L 572.616704 70.851588
L 611.415665 63.497214
" clip-path="url(#p7cbe626d39)" style="fill: none; stroke: #5f5f7f; stroke-width: 1.8; stroke-linecap: square"/>
    <defs>
     <path id="ma39eab8c9f" d="M 0 2.5
C 0.663008 2.5 1.29895 2.236584 1.767767 1.767767
C 2.236584 1.29895 2.5 0.663008 2.5 0
C 2.5 -0.663008 2.236584 -1.29895 1.767767 -1.767767
C 1.29895 -2.236584 0.663008 -2.5 0 -2.5
C -0.663008 -2.5 -1.29895 -2.236584 -1.767767 -1.767767
C -2.236584 -1.29895 -2.5 -0.663008 -2.5 0
C -2.5 0.663008 -2.236584 1.29895 -1.767767 1.767767
C -1.29895 2.236584 -0.663008 2.5 0 2.5
z
" style="stroke: #5f5f7f"/>
    </defs>
    <g clip-path="url(#p7cbe626d39)">
     <use xlink:href="#ma39eab8c9f" x="68.23021" y="129.686579" style="fill: #5f5f7f; stroke: #5f5f7f"/>
     <use xlink:href="#ma39eab8c9f" x="107.029171" y="107.623457" style="fill: #5f5f7f; stroke: #5f5f7f"/>
     <use xlink:href="#ma39eab8c9f" x="145.828132" y="100.269083" style="fill: #5f5f7f; stroke: #5f5f7f"/>
     <use xlink:href="#ma39eab8c9f" x="184.627093" y="92.914709" style="fill: #5f5f7f; stroke: #5f5f7f"/>
     <use xlink:href="#ma39eab8c9f" x="223.426054" y="78.205962" style="fill: #5f5f7f; stroke: #5f5f7f"/>
     <use xlink:href="#ma39eab8c9f" x="262.225015" y="63.497214" style="fill: #5f5f7f; stroke: #5f5f7f"/>
     <use xlink:href="#ma39eab8c9f" x="301.023976" y="85.560336" style="fill: #5f5f7f; stroke: #5f5f7f"/>
     <use xlink:href="#ma39eab8c9f" x="339.822937" y="92.914709" style="fill: #5f5f7f; stroke: #5f5f7f"/>
     <use xlink:href="#ma39eab8c9f" x="378.621899" y="107.623457" style="fill: #5f5f7f; stroke: #5f5f7f"/>
     <use xlink:href="#ma39eab8c9f" x="417.42086" y="63.497214" style="fill: #5f5f7f; stroke: #5f5f7f"/>
     <use xlink:href="#ma39eab8c9f" x="456.219821" y="63.497214" style="fill: #5f5f7f; stroke: #5f5f7f"/>
     <use xlink:href="#ma39eab8c9f" x="495.018782" y="63.497214" style="fill: #5f5f7f; stroke: #5f5f7f"/>
     <use xlink:href="#ma39eab8c9f" x="533.817743" y="63.497214" style="fill: #5f5f7f; stroke: #5f5f7f"/>
     <use xlink:href="#ma39eab8c9f" x="572.616704" y="70.851588" style="fill: #5f5f7f; stroke: #5f5f7f"/>
     <use xlink:href="#ma39eab8c9f" x="611.415665" y="63.497214" style="fill: #5f5f7f; stroke: #5f5f7f"/>
    </g>
   </g>
   <g id="line2d_71">
    <path d="M 262.225015 458.059375
L 262.225015 29.299375
" clip-path="url(#p7cbe626d39)" style="fill: none; stroke-dasharray: 3.7,1.6; stroke-dashoffset: 0; stroke: #666666; stroke-opacity: 0.85"/>
   </g>
   <g id="line2d_72">
    <path d="M 301.023976 458.059375
L 301.023976 29.299375
" clip-path="url(#p7cbe626d39)" style="fill: none; stroke-dasharray: 1.2,1.98; stroke-dashoffset: 0; stroke: #666666; stroke-opacity: 0.9; stroke-width: 1.2"/>
   </g>
   <g id="patch_3">
    <path d="M 41.070938 458.059375
L 41.070938 29.299375
" style="fill: none; stroke: #333333; stroke-width: 0.8; stroke-linejoin: miter; stroke-linecap: square"/>
   </g>
   <g id="patch_4">
    <path d="M 41.070938 458.059375
L 638.574938 458.059375
" style="fill: none; stroke: #333333; stroke-width: 0.8; stroke-linejoin: miter; stroke-linecap: square"/>
   </g>
   <g id="text_36">
    <!-- Динамика рангов выбранных импортёров, HS 284690: соединения редкоземельных металлов -->
    <g transform="translate(41.070938 17.299375) scale(0.13 -0.13)">
     <defs>
      <path id="DejaVuSans-414" d="M 1459 531
L 3522 531
L 3522 4134
L 2006 4134
L 2006 3472
Q 2006 1913 1656 878
Q 1584 666 1459 531
z
M 538 531
Q 956 728 1075 1103
Q 1378 2066 1378 3784
L 1378 4666
L 4153 4666
L 4153 531
L 4684 531
L 4684 -1003
L 4153 -1003
L 4153 0
L 847 0
L 847 -1003
L 316 -1003
L 316 531
L 538 531
z
" transform="scale(0.015625)"/>
      <path id="DejaVuSans-432" d="M 1156 1613
L 1156 459
L 1975 459
Q 2369 459 2575 607
Q 2781 756 2781 1038
Q 2781 1319 2575 1466
Q 2369 1613 1975 1613
L 1156 1613
z
M 1156 3041
L 1156 2072
L 1913 2072
Q 2238 2072 2444 2201
Q 2650 2331 2650 2563
Q 2650 2794 2444 2917
Q 2238 3041 1913 3041
L 1156 3041
z
M 581 3500
L 1950 3500
Q 2566 3500 2897 3275
Q 3228 3050 3228 2634
Q 3228 2313 3059 2123
Q 2891 1934 2559 1888
Q 2956 1813 3175 1575
Q 3394 1338 3394 981
Q 3394 513 3033 256
Q 2672 0 2003 0
L 581 0
L 581 3500
z
" transform="scale(0.015625)"/>
      <path id="DejaVuSans-44b" d="M 3907 3500
L 4482 3500
L 4482 0
L 3907 0
L 3907 3500
z
M 4195 3584
L 4195 3584
z
M 2781 1038
Q 2781 1319 2576 1466
Q 2372 1613 1978 1613
L 1159 1613
L 1159 459
L 1978 459
Q 2372 459 2576 607
Q 2781 756 2781 1038
z
M 581 3500
L 1159 3500
L 1159 2072
L 2003 2072
Q 2672 2072 3033 1817
Q 3394 1563 3394 1038
Q 3394 513 3033 256
Q 2672 0 2003 0
L 581 0
L 581 3500
z
" transform="scale(0.015625)"/>
      <path id="DejaVuSans-431" d="M 1991 3584
Q 2741 3584 3169 3096
Q 3597 2609 3597 1747
Q 3597 888 3169 398
Q 2741 -91 1991 -91
Q 1238 -91 822 384
Q 406 859 384 1747
L 366 2463
Q 350 2834 350 2963
Q 350 3463 531 3831
Q 816 4409 1308 4659
Q 1800 4909 2625 4916
Q 3006 4919 3175 4972
L 3334 4516
Q 3181 4453 3041 4450
L 2259 4397
Q 1866 4369 1628 4231
Q 1006 3866 947 3388
L 925 3213
Q 1331 3584 1991 3584
z
M 1991 3097
Q 1528 3097 1259 2736
Q 991 2375 991 1747
Q 991 1119 1258 758
Q 1525 397 1991 397
Q 2450 397 2719 759
Q 2988 1122 2988 1747
Q 2988 2369 2719 2733
Q 2450 3097 1991 3097
z
" transform="scale(0.015625)"/>
      <path id="DejaVuSans-445" d="M 3513 3500
L 2247 1797
L 3578 0
L 2900 0
L 1881 1375
L 863 0
L 184 0
L 1544 1831
L 300 3500
L 978 3500
L 1906 2253
L 2834 3500
L 3513 3500
z
" transform="scale(0.015625)"/>
      <path id="DejaVuSans-451" d="M 3597 1894
L 3597 1613
L 953 1613
Q 991 1019 1311 708
Q 1631 397 2203 397
Q 2534 397 2845 478
Q 3156 559 3463 722
L 3463 178
Q 3153 47 2828 -22
Q 2503 -91 2169 -91
Q 1331 -91 842 396
Q 353 884 353 1716
Q 353 2575 817 3079
Q 1281 3584 2069 3584
Q 2775 3584 3186 3129
Q 3597 2675 3597 1894
z
M 3022 2063
Q 3016 2534 2758 2815
Q 2500 3097 2075 3097
Q 1594 3097 1305 2825
Q 1016 2553 972 2059
L 3022 2063
z
M 2366 4850
L 3000 4850
L 3000 4219
L 2366 4219
L 2366 4850
z
M 1144 4850
L 1778 4850
L 1778 4219
L 1144 4219
L 1144 4850
z
" transform="scale(0.015625)"/>
      <path id="DejaVuSans-2c" d="M 750 794
L 1409 794
L 1409 256
L 897 -744
L 494 -744
L 750 256
L 750 794
z
" transform="scale(0.015625)"/>
      <path id="DejaVuSans-48" d="M 628 4666
L 1259 4666
L 1259 2753
L 3553 2753
L 3553 4666
L 4184 4666
L 4184 0
L 3553 0
L 3553 2222
L 1259 2222
L 1259 0
L 628 0
L 628 4666
z
" transform="scale(0.015625)"/>
      <path id="DejaVuSans-53" d="M 3425 4513
L 3425 3897
Q 3066 4069 2747 4153
Q 2428 4238 2131 4238
Q 1616 4238 1336 4038
Q 1056 3838 1056 3469
Q 1056 3159 1242 3001
Q 1428 2844 1947 2747
L 2328 2669
Q 3034 2534 3370 2195
Q 3706 1856 3706 1288
Q 3706 609 3251 259
Q 2797 -91 1919 -91
Q 1588 -91 1214 -16
Q 841 59 441 206
L 441 856
Q 825 641 1194 531
Q 1563 422 1919 422
Q 2459 422 2753 634
Q 3047 847 3047 1241
Q 3047 1584 2836 1778
Q 2625 1972 2144 2069
L 1759 2144
Q 1053 2284 737 2584
Q 422 2884 422 3419
Q 422 4038 858 4394
Q 1294 4750 2059 4750
Q 2388 4750 2728 4690
Q 3069 4631 3425 4513
z
" transform="scale(0.015625)"/>
      <path id="DejaVuSans-3a" d="M 750 794
L 1409 794
L 1409 0
L 750 0
L 750 794
z
M 750 3309
L 1409 3309
L 1409 2516
L 750 2516
L 750 3309
z
" transform="scale(0.015625)"/>
      <path id="DejaVuSans-44f" d="M 1181 2491
Q 1181 2231 1381 2084
Q 1581 1938 1953 1938
L 2728 1938
L 2728 3041
L 1953 3041
Q 1581 3041 1381 2897
Q 1181 2753 1181 2491
z
M 363 0
L 1431 1534
Q 1069 1616 828 1830
Q 588 2044 588 2491
Q 588 2997 923 3248
Q 1259 3500 1938 3500
L 3306 3500
L 3306 0
L 2728 0
L 2728 1478
L 2013 1478
L 981 0
L 363 0
z
" transform="scale(0.015625)"/>
      <path id="DejaVuSans-437" d="M 2206 1888
Q 2594 1813 2809 1584
Q 3025 1356 3025 1019
Q 3025 478 2622 193
Q 2219 -91 1475 -91
Q 1225 -91 961 -47
Q 697 -3 416 84
L 416 619
Q 638 503 903 445
Q 1169 388 1459 388
Q 1931 388 2195 563
Q 2459 738 2459 1019
Q 2459 1294 2225 1461
Q 1991 1628 1563 1628
L 1100 1628
L 1100 2103
L 1584 2103
Q 1947 2103 2158 2242
Q 2369 2381 2369 2600
Q 2369 2800 2151 2944
Q 1934 3088 1563 3088
Q 1341 3088 1089 3047
Q 838 3006 534 2916
L 534 3438
Q 841 3513 1106 3550
Q 1372 3588 1609 3588
Q 2222 3588 2576 3342
Q 2931 3097 2931 2656
Q 2931 2366 2743 2164
Q 2556 1963 2206 1888
z
" transform="scale(0.015625)"/>
      <path id="DejaVuSans-43b" d="M 238 0
L 238 478
Q 806 566 981 959
Q 1194 1513 1194 2928
L 1194 3500
L 3559 3500
L 3559 0
L 2984 0
L 2984 3041
L 1769 3041
L 1769 2694
Q 1769 1344 1494 738
Q 1200 91 238 0
z
" transform="scale(0.015625)"/>
      <path id="DejaVuSans-44c" d="M 2781 1038
Q 2781 1319 2576 1466
Q 2372 1613 1978 1613
L 1159 1613
L 1159 459
L 1978 459
Q 2372 459 2576 607
Q 2781 756 2781 1038
z
M 581 3500
L 1159 3500
L 1159 2072
L 2003 2072
Q 2672 2072 3033 1817
Q 3394 1563 3394 1038
Q 3394 513 3033 256
Q 2672 0 2003 0
L 581 0
L 581 3500
z
" transform="scale(0.015625)"/>
     </defs>
     <use xlink:href="#DejaVuSans-414"/>
     <use xlink:href="#DejaVuSans-438" transform="translate(78.125 0)"/>
     <use xlink:href="#DejaVuSans-43d" transform="translate(143.115234 0)"/>
     <use xlink:href="#DejaVuSans-430" transform="translate(208.496094 0)"/>
     <use xlink:href="#DejaVuSans-43c" transform="translate(269.775391 0)"/>
     <use xlink:href="#DejaVuSans-438" transform="translate(345.214844 0)"/>
     <use xlink:href="#DejaVuSans-43a" transform="translate(410.205078 0)"/>
     <use xlink:href="#DejaVuSans-430" transform="translate(470.605469 0)"/>
     <use xlink:href="#DejaVuSans-20" transform="translate(531.884766 0)"/>
     <use xlink:href="#DejaVuSans-440" transform="translate(563.671875 0)"/>
     <use xlink:href="#DejaVuSans-430" transform="translate(627.148438 0)"/>
     <use xlink:href="#DejaVuSans-43d" transform="translate(688.427734 0)"/>
     <use xlink:href="#DejaVuSans-433" transform="translate(753.808594 0)"/>
     <use xlink:href="#DejaVuSans-43e" transform="translate(806.347656 0)"/>
     <use xlink:href="#DejaVuSans-432" transform="translate(867.529297 0)"/>
     <use xlink:href="#DejaVuSans-20" transform="translate(926.464844 0)"/>
     <use xlink:href="#DejaVuSans-432" transform="translate(958.251953 0)"/>
     <use xlink:href="#DejaVuSans-44b" transform="translate(1017.1875 0)"/>
     <use xlink:href="#DejaVuSans-431" transform="translate(1096.142578 0)"/>
     <use xlink:href="#DejaVuSans-440" transform="translate(1157.8125 0)"/>
     <use xlink:href="#DejaVuSans-430" transform="translate(1221.289062 0)"/>
     <use xlink:href="#DejaVuSans-43d" transform="translate(1282.568359 0)"/>
     <use xlink:href="#DejaVuSans-43d" transform="translate(1347.949219 0)"/>
     <use xlink:href="#DejaVuSans-44b" transform="translate(1413.330078 0)"/>
     <use xlink:href="#DejaVuSans-445" transform="translate(1492.285156 0)"/>
     <use xlink:href="#DejaVuSans-20" transform="translate(1551.464844 0)"/>
     <use xlink:href="#DejaVuSans-438" transform="translate(1583.251953 0)"/>
     <use xlink:href="#DejaVuSans-43c" transform="translate(1648.242188 0)"/>
     <use xlink:href="#DejaVuSans-43f" transform="translate(1723.681641 0)"/>
     <use xlink:href="#DejaVuSans-43e" transform="translate(1789.0625 0)"/>
     <use xlink:href="#DejaVuSans-440" transform="translate(1850.244141 0)"/>
     <use xlink:href="#DejaVuSans-442" transform="translate(1913.720703 0)"/>
     <use xlink:href="#DejaVuSans-451" transform="translate(1971.972656 0)"/>
     <use xlink:href="#DejaVuSans-440" transform="translate(2033.496094 0)"/>
     <use xlink:href="#DejaVuSans-43e" transform="translate(2096.972656 0)"/>
     <use xlink:href="#DejaVuSans-432" transform="translate(2158.154297 0)"/>
     <use xlink:href="#DejaVuSans-2c" transform="translate(2217.089844 0)"/>
     <use xlink:href="#DejaVuSans-20" transform="translate(2248.876953 0)"/>
     <use xlink:href="#DejaVuSans-48" transform="translate(2280.664062 0)"/>
     <use xlink:href="#DejaVuSans-53" transform="translate(2355.859375 0)"/>
     <use xlink:href="#DejaVuSans-20" transform="translate(2419.335938 0)"/>
     <use xlink:href="#DejaVuSans-32" transform="translate(2451.123047 0)"/>
     <use xlink:href="#DejaVuSans-38" transform="translate(2514.746094 0)"/>
     <use xlink:href="#DejaVuSans-34" transform="translate(2578.369141 0)"/>
     <use xlink:href="#DejaVuSans-36" transform="translate(2641.992188 0)"/>
     <use xlink:href="#DejaVuSans-39" transform="translate(2705.615234 0)"/>
     <use xlink:href="#DejaVuSans-30" transform="translate(2769.238281 0)"/>
     <use xlink:href="#DejaVuSans-3a" transform="translate(2832.861328 0)"/>
     <use xlink:href="#DejaVuSans-20" transform="translate(2866.552734 0)"/>
     <use xlink:href="#DejaVuSans-441" transform="translate(2898.339844 0)"/>
     <use xlink:href="#DejaVuSans-43e" transform="translate(2953.320312 0)"/>
     <use xlink:href="#DejaVuSans-435" transform="translate(3014.501953 0)"/>
     <use xlink:href="#DejaVuSans-434" transform="translate(3076.025391 0)"/>
     <use xlink:href="#DejaVuSans-438" transform="translate(3145.166016 0)"/>
     <use xlink:href="#DejaVuSans-43d" transform="translate(3210.15625 0)"/>
     <use xlink:href="#DejaVuSans-435" transform="translate(3275.537109 0)"/>
     <use xlink:href="#DejaVuSans-43d" transform="translate(3337.060547 0)"/>
     <use xlink:href="#DejaVuSans-438" transform="translate(3402.441406 0)"/>
     <use xlink:href="#DejaVuSans-44f" transform="translate(3467.431641 0)"/>
     <use xlink:href="#DejaVuSans-20" transform="translate(3527.587891 0)"/>
     <use xlink:href="#DejaVuSans-440" transform="translate(3559.375 0)"/>
     <use xlink:href="#DejaVuSans-435" transform="translate(3622.851562 0)"/>
     <use xlink:href="#DejaVuSans-434" transform="translate(3684.375 0)"/>
     <use xlink:href="#DejaVuSans-43a" transform="translate(3753.515625 0)"/>
     <use xlink:href="#DejaVuSans-43e" transform="translate(3813.916016 0)"/>
     <use xlink:href="#DejaVuSans-437" transform="translate(3875.097656 0)"/>
     <use xlink:href="#DejaVuSans-435" transform="translate(3928.271484 0)"/>
     <use xlink:href="#DejaVuSans-43c" transform="translate(3989.794922 0)"/>
     <use xlink:href="#DejaVuSans-435" transform="translate(4065.234375 0)"/>
     <use xlink:href="#DejaVuSans-43b" transform="translate(4126.757812 0)"/>
     <use xlink:href="#DejaVuSans-44c" transform="translate(4190.673828 0)"/>
     <use xlink:href="#DejaVuSans-43d" transform="translate(4249.609375 0)"/>
     <use xlink:href="#DejaVuSans-44b" transform="translate(4314.990234 0)"/>
     <use xlink:href="#DejaVuSans-445" transform="translate(4393.945312 0)"/>
     <use xlink:href="#DejaVuSans-20" transform="translate(4453.125 0)"/>
     <use xlink:href="#DejaVuSans-43c" transform="translate(4484.912109 0)"/>
     <use xlink:href="#DejaVuSans-435" transform="translate(4560.351562 0)"/>
     <use xlink:href="#DejaVuSans-442" transform="translate(4621.875 0)"/>
     <use xlink:href="#DejaVuSans-430" transform="translate(4680.126953 0)"/>
     <use xlink:href="#DejaVuSans-43b" transform="translate(4741.40625 0)"/>
     <use xlink:href="#DejaVuSans-43b" transform="translate(4805.322266 0)"/>
     <use xlink:href="#DejaVuSans-43e" transform="translate(4869.238281 0)"/>
     <use xlink:href="#DejaVuSans-432" transform="translate(4930.419922 0)"/>
    </g>
   </g>
   <g id="legend_1">
    <g id="line2d_73">
     <path d="M 654.325017 36.992891
L 663.825017 36.992891
L 673.325017 36.992891
" style="fill: none; stroke: #1f4e79; stroke-width: 1.8; stroke-linecap: square"/>
     <g>
      <use xlink:href="#me221d60280" x="663.825017" y="36.992891" style="fill: #1f4e79; stroke: #1f4e79"/>
     </g>
    </g>
    <g id="text_37">
     <!-- Австрия -->
     <g transform="translate(680.925017 40.317891) scale(0.095 -0.095)">
      <defs>
       <path id="DejaVuSans-410" d="M 2188 4044
L 1331 1722
L 3047 1722
L 2188 4044
z
M 1831 4666
L 2547 4666
L 4325 0
L 3669 0
L 3244 1197
L 1141 1197
L 716 0
L 50 0
L 1831 4666
z
" transform="scale(0.015625)"/>
      </defs>
      <use xlink:href="#DejaVuSans-410"/>
      <use xlink:href="#DejaVuSans-432" transform="translate(68.408203 0)"/>
      <use xlink:href="#DejaVuSans-441" transform="translate(127.34375 0)"/>
      <use xlink:href="#DejaVuSans-442" transform="translate(182.324219 0)"/>
      <use xlink:href="#DejaVuSans-440" transform="translate(240.576172 0)"/>
      <use xlink:href="#DejaVuSans-438" transform="translate(304.052734 0)"/>
      <use xlink:href="#DejaVuSans-44f" transform="translate(369.042969 0)"/>
     </g>
    </g>
    <g id="line2d_74">
     <path d="M 654.325017 50.937109
L 663.825017 50.937109
L 673.325017 50.937109
" style="fill: none; stroke: #8c5a2b; stroke-width: 1.8; stroke-linecap: square"/>
     <g>
      <use xlink:href="#m5d9cd11374" x="663.825017" y="50.937109" style="fill: #8c5a2b; stroke: #8c5a2b"/>
     </g>
    </g>
    <g id="text_38">
     <!-- Франция -->
     <g transform="translate(680.925017 54.262109) scale(0.095 -0.095)">
      <defs>
       <path id="DejaVuSans-424" d="M 2441 3706
Q 1763 3644 1403 3325
Q 1044 3006 1044 2391
Q 1044 1775 1403 1458
Q 1763 1141 2441 1078
L 2441 3706
z
M 3075 1078
Q 3753 1141 4109 1458
Q 4466 1775 4466 2391
Q 4466 3006 4109 3325
Q 3753 3644 3075 3706
L 3075 1078
z
M 2441 556
Q 1450 628 914 1095
Q 378 1563 378 2391
Q 378 3219 914 3689
Q 1450 4159 2441 4231
L 2441 4666
L 3075 4666
L 3075 4231
Q 4066 4159 4598 3692
Q 5131 3225 5131 2391
Q 5131 1563 4598 1095
Q 4066 628 3075 556
L 3075 0
L 2441 0
L 2441 556
z
" transform="scale(0.015625)"/>
       <path id="DejaVuSans-446" d="M 3603 0
L 581 0
L 581 3500
L 1159 3500
L 1159 459
L 3025 459
L 3025 3500
L 3603 3500
L 3603 459
L 4063 459
L 4063 -884
L 3603 -884
L 3603 0
z
" transform="scale(0.015625)"/>
      </defs>
      <use xlink:href="#DejaVuSans-424"/>
      <use xlink:href="#DejaVuSans-440" transform="translate(86.083984 0)"/>
      <use xlink:href="#DejaVuSans-430" transform="translate(149.560547 0)"/>
      <use xlink:href="#DejaVuSans-43d" transform="translate(210.839844 0)"/>
      <use xlink:href="#DejaVuSans-446" transform="translate(276.220703 0)"/>
      <use xlink:href="#DejaVuSans-438" transform="translate(344.287109 0)"/>
      <use xlink:href="#DejaVuSans-44f" transform="translate(409.277344 0)"/>
     </g>
    </g>
    <g id="line2d_75">
     <path d="M 654.325017 64.881328
L 663.825017 64.881328
L 673.325017 64.881328
" style="fill: none; stroke: #3f7f5f; stroke-width: 1.8; stroke-linecap: square"/>
     <g>
      <use xlink:href="#m4b67fc30c1" x="663.825017" y="64.881328" style="fill: #3f7f5f; stroke: #3f7f5f"/>
     </g>
    </g>
    <g id="text_39">
     <!-- Германия -->
     <g transform="translate(680.925017 68.206328) scale(0.095 -0.095)">
      <use xlink:href="#DejaVuSans-413"/>
      <use xlink:href="#DejaVuSans-435" transform="translate(60.986328 0)"/>
      <use xlink:href="#DejaVuSans-440" transform="translate(122.509766 0)"/>
      <use xlink:href="#DejaVuSans-43c" transform="translate(185.986328 0)"/>
      <use xlink:href="#DejaVuSans-430" transform="translate(261.425781 0)"/>
      <use xlink:href="#DejaVuSans-43d" transform="translate(322.705078 0)"/>
      <use xlink:href="#DejaVuSans-438" transform="translate(388.085938 0)"/>
      <use xlink:href="#DejaVuSans-44f" transform="translate(453.076172 0)"/>
     </g>
    </g>
    <g id="line2d_76">
     <path d="M 654.325017 78.825547
L 663.825017 78.825547
L 673.325017 78.825547
" style="fill: none; stroke: #6f5f90; stroke-width: 1.8; stroke-linecap: square"/>
     <g>
      <use xlink:href="#m1306112d14" x="663.825017" y="78.825547" style="fill: #6f5f90; stroke: #6f5f90"/>
     </g>
    </g>
    <g id="text_40">
     <!-- Гонконг -->
     <g transform="translate(680.925017 82.150547) scale(0.095 -0.095)">
      <use xlink:href="#DejaVuSans-413"/>
      <use xlink:href="#DejaVuSans-43e" transform="translate(60.986328 0)"/>
      <use xlink:href="#DejaVuSans-43d" transform="translate(122.167969 0)"/>
      <use xlink:href="#DejaVuSans-43a" transform="translate(187.548828 0)"/>
      <use xlink:href="#DejaVuSans-43e" transform="translate(247.949219 0)"/>
      <use xlink:href="#DejaVuSans-43d" transform="translate(309.130859 0)"/>
      <use xlink:href="#DejaVuSans-433" transform="translate(374.511719 0)"/>
     </g>
    </g>
    <g id="line2d_77">
     <path d="M 654.325017 92.769766
L 663.825017 92.769766
L 673.325017 92.769766
" style="fill: none; stroke: #7a7a7a; stroke-width: 1.8; stroke-linecap: square"/>
     <g>
      <use xlink:href="#ma7012bd700" x="663.825017" y="92.769766" style="fill: #7a7a7a; stroke: #7a7a7a"/>
     </g>
    </g>
    <g id="text_41">
     <!-- Италия -->
     <g transform="translate(680.925017 96.094766) scale(0.095 -0.095)">
      <defs>
       <path id="DejaVuSans-418" d="M 4159 4666
L 4159 0
L 3547 0
L 3547 3903
L 1478 0
L 628 0
L 628 4666
L 1241 4666
L 1241 763
L 3309 4666
L 4159 4666
z
" transform="scale(0.015625)"/>
      </defs>
      <use xlink:href="#DejaVuSans-418"/>
      <use xlink:href="#DejaVuSans-442" transform="translate(74.804688 0)"/>
      <use xlink:href="#DejaVuSans-430" transform="translate(133.056641 0)"/>
      <use xlink:href="#DejaVuSans-43b" transform="translate(194.335938 0)"/>
      <use xlink:href="#DejaVuSans-438" transform="translate(258.251953 0)"/>
      <use xlink:href="#DejaVuSans-44f" transform="translate(323.242188 0)"/>
     </g>
    </g>
    <g id="line2d_78">
     <path d="M 654.325017 106.713984
L 663.825017 106.713984
L 673.325017 106.713984
" style="fill: none; stroke: #b05a4a; stroke-width: 1.8; stroke-linecap: square"/>
     <g>
      <use xlink:href="#m57f7e91ea5" x="663.825017" y="106.713984" style="fill: #b05a4a; stroke: #b05a4a"/>
     </g>
    </g>
    <g id="text_42">
     <!-- Япония -->
     <g transform="translate(680.925017 110.038984) scale(0.095 -0.095)">
      <defs>
       <path id="DejaVuSans-42f" d="M 1284 3322
Q 1284 2913 1517 2702
Q 1750 2491 2206 2491
L 3188 2491
L 3188 4147
L 2206 4147
Q 1750 4147 1517 3939
Q 1284 3731 1284 3322
z
M 425 0
L 1700 2041
Q 1388 2122 988 2386
Q 588 2650 588 3322
Q 588 3966 994 4316
Q 1400 4666 2206 4666
L 3819 4666
L 3819 0
L 3188 0
L 3188 1972
L 2344 1972
L 1113 0
L 425 0
z
" transform="scale(0.015625)"/>
      </defs>
      <use xlink:href="#DejaVuSans-42f"/>
      <use xlink:href="#DejaVuSans-43f" transform="translate(69.482422 0)"/>
      <use xlink:href="#DejaVuSans-43e" transform="translate(134.863281 0)"/>
      <use xlink:href="#DejaVuSans-43d" transform="translate(196.044922 0)"/>
      <use xlink:href="#DejaVuSans-438" transform="translate(261.425781 0)"/>
      <use xlink:href="#DejaVuSans-44f" transform="translate(326.416016 0)"/>
     </g>
    </g>
    <g id="line2d_79">
     <path d="M 654.325017 120.82
L 663.825017 120.82
L 673.325017 120.82
" style="fill: none; stroke: #4f6f8f; stroke-width: 1.8; stroke-linecap: square"/>
     <g>
      <use xlink:href="#meada3e93a1" x="663.825017" y="120.82" style="fill: #4f6f8f; stroke: #4f6f8f"/>
     </g>
    </g>
    <g id="text_43">
     <!-- Республика Корея -->
     <g transform="translate(680.925017 124.145) scale(0.095 -0.095)">
      <defs>
       <path id="DejaVuSans-41a" d="M 628 4666
L 1259 4666
L 1259 2359
L 3516 4666
L 4325 4666
L 2522 2822
L 4419 0
L 3731 0
L 2113 2403
L 1259 1531
L 1259 0
L 628 0
L 628 4666
z
" transform="scale(0.015625)"/>
      </defs>
      <use xlink:href="#DejaVuSans-420"/>
      <use xlink:href="#DejaVuSans-435" transform="translate(60.302734 0)"/>
      <use xlink:href="#DejaVuSans-441" transform="translate(121.826172 0)"/>
      <use xlink:href="#DejaVuSans-43f" transform="translate(176.806641 0)"/>
      <use xlink:href="#DejaVuSans-443" transform="translate(242.1875 0)"/>
      <use xlink:href="#DejaVuSans-431" transform="translate(301.367188 0)"/>
      <use xlink:href="#DejaVuSans-43b" transform="translate(363.037109 0)"/>
      <use xlink:href="#DejaVuSans-438" transform="translate(426.953125 0)"/>
      <use xlink:href="#DejaVuSans-43a" transform="translate(491.943359 0)"/>
      <use xlink:href="#DejaVuSans-430" transform="translate(552.34375 0)"/>
      <use xlink:href="#DejaVuSans-20" transform="translate(613.623047 0)"/>
      <use xlink:href="#DejaVuSans-41a" transform="translate(645.410156 0)"/>
      <use xlink:href="#DejaVuSans-43e" transform="translate(716.40625 0)"/>
      <use xlink:href="#DejaVuSans-440" transform="translate(777.587891 0)"/>
      <use xlink:href="#DejaVuSans-435" transform="translate(841.064453 0)"/>
      <use xlink:href="#DejaVuSans-44f" transform="translate(902.587891 0)"/>
     </g>
    </g>
    <g id="line2d_80">
     <path d="M 654.325017 134.764219
L 663.825017 134.764219
L 673.325017 134.764219
" style="fill: none; stroke: #9a7d34; stroke-width: 1.8; stroke-linecap: square"/>
     <g>
      <use xlink:href="#m252a91bb9d" x="663.825017" y="134.764219" style="fill: #9a7d34; stroke: #9a7d34"/>
     </g>
    </g>
    <g id="text_44">
     <!-- Нидерланды -->
     <g transform="translate(680.925017 138.089219) scale(0.095 -0.095)">
      <defs>
       <path id="DejaVuSans-41d" d="M 628 4666
L 1259 4666
L 1259 2753
L 3553 2753
L 3553 4666
L 4184 4666
L 4184 0
L 3553 0
L 3553 2222
L 1259 2222
L 1259 0
L 628 0
L 628 4666
z
" transform="scale(0.015625)"/>
      </defs>
      <use xlink:href="#DejaVuSans-41d"/>
      <use xlink:href="#DejaVuSans-438" transform="translate(75.195312 0)"/>
      <use xlink:href="#DejaVuSans-434" transform="translate(140.185547 0)"/>
      <use xlink:href="#DejaVuSans-435" transform="translate(209.326172 0)"/>
      <use xlink:href="#DejaVuSans-440" transform="translate(270.849609 0)"/>
      <use xlink:href="#DejaVuSans-43b" transform="translate(334.326172 0)"/>
      <use xlink:href="#DejaVuSans-430" transform="translate(398.242188 0)"/>
      <use xlink:href="#DejaVuSans-43d" transform="translate(459.521484 0)"/>
      <use xlink:href="#DejaVuSans-434" transform="translate(524.902344 0)"/>
      <use xlink:href="#DejaVuSans-44b" transform="translate(594.042969 0)"/>
     </g>
    </g>
    <g id="line2d_81">
     <path d="M 654.325017 148.708437
L 663.825017 148.708437
L 673.325017 148.708437
" style="fill: none; stroke: #5f7f7f; stroke-width: 1.8; stroke-linecap: square"/>
     <g>
      <use xlink:href="#m5e9452f17b" x="663.825017" y="148.708437" style="fill: #5f7f7f; stroke: #5f7f7f"/>
     </g>
    </g>
    <g id="text_45">
     <!-- Сингапур -->
     <g transform="translate(680.925017 152.033437) scale(0.095 -0.095)">
      <defs>
       <path id="DejaVuSans-421" d="M 4122 4306
L 4122 3641
Q 3803 3938 3442 4084
Q 3081 4231 2675 4231
Q 1875 4231 1450 3742
Q 1025 3253 1025 2328
Q 1025 1406 1450 917
Q 1875 428 2675 428
Q 3081 428 3442 575
Q 3803 722 4122 1019
L 4122 359
Q 3791 134 3420 21
Q 3050 -91 2638 -91
Q 1578 -91 968 557
Q 359 1206 359 2328
Q 359 3453 968 4101
Q 1578 4750 2638 4750
Q 3056 4750 3426 4639
Q 3797 4528 4122 4306
z
" transform="scale(0.015625)"/>
      </defs>
      <use xlink:href="#DejaVuSans-421"/>
      <use xlink:href="#DejaVuSans-438" transform="translate(69.824219 0)"/>
      <use xlink:href="#DejaVuSans-43d" transform="translate(134.814453 0)"/>
      <use xlink:href="#DejaVuSans-433" transform="translate(200.195312 0)"/>
      <use xlink:href="#DejaVuSans-430" transform="translate(252.734375 0)"/>
      <use xlink:href="#DejaVuSans-43f" transform="translate(314.013672 0)"/>
      <use xlink:href="#DejaVuSans-443" transform="translate(379.394531 0)"/>
      <use xlink:href="#DejaVuSans-440" transform="translate(438.574219 0)"/>
     </g>
    </g>
    <g id="line2d_82">
     <path d="M 654.325017 162.652656
L 663.825017 162.652656
L 673.325017 162.652656
" style="fill: none; stroke: #8f6f6f; stroke-width: 1.8; stroke-linecap: square"/>
     <g>
      <use xlink:href="#m79702c7a95" x="663.825017" y="162.652656" style="fill: #8f6f6f; stroke: #8f6f6f"/>
     </g>
    </g>
    <g id="text_46">
     <!-- Таиланд -->
     <g transform="translate(680.925017 165.977656) scale(0.095 -0.095)">
      <defs>
       <path id="DejaVuSans-422" d="M -19 4666
L 3928 4666
L 3928 4134
L 2272 4134
L 2272 0
L 1638 0
L 1638 4134
L -19 4134
L -19 4666
z
" transform="scale(0.015625)"/>
      </defs>
      <use xlink:href="#DejaVuSans-422"/>
      <use xlink:href="#DejaVuSans-430" transform="translate(61.083984 0)"/>
      <use xlink:href="#DejaVuSans-438" transform="translate(122.363281 0)"/>
      <use xlink:href="#DejaVuSans-43b" transform="translate(187.353516 0)"/>
      <use xlink:href="#DejaVuSans-430" transform="translate(251.269531 0)"/>
      <use xlink:href="#DejaVuSans-43d" transform="translate(312.548828 0)"/>
      <use xlink:href="#DejaVuSans-434" transform="translate(377.929688 0)"/>
     </g>
    </g>
    <g id="line2d_83">
     <path d="M 654.325017 176.596875
L 663.825017 176.596875
L 673.325017 176.596875
" style="fill: none; stroke: #2f5f5f; stroke-width: 1.8; stroke-linecap: square"/>
     <g>
      <use xlink:href="#ma87f6174a3" x="663.825017" y="176.596875" style="fill: #2f5f5f; stroke: #2f5f5f"/>
     </g>
    </g>
    <g id="text_47">
     <!-- США -->
     <g transform="translate(680.925017 179.921875) scale(0.095 -0.095)">
      <defs>
       <path id="DejaVuSans-428" d="M 3738 531
L 5584 531
L 5584 4666
L 6216 4666
L 6216 0
L 628 0
L 628 4666
L 1259 4666
L 1259 531
L 3106 531
L 3106 4666
L 3738 4666
L 3738 531
z
" transform="scale(0.015625)"/>
      </defs>
      <use xlink:href="#DejaVuSans-421"/>
      <use xlink:href="#DejaVuSans-428" transform="translate(69.824219 0)"/>
      <use xlink:href="#DejaVuSans-410" transform="translate(176.757812 0)"/>
     </g>
    </g>
    <g id="line2d_84">
     <path d="M 654.325017 190.541094
L 663.825017 190.541094
L 673.325017 190.541094
" style="fill: none; stroke: #5f5f7f; stroke-width: 1.8; stroke-linecap: square"/>
     <g>
      <use xlink:href="#ma39eab8c9f" x="663.825017" y="190.541094" style="fill: #5f5f7f; stroke: #5f5f7f"/>
     </g>
    </g>
    <g id="text_48">
     <!-- Вьетнам -->
     <g transform="translate(680.925017 193.866094) scale(0.095 -0.095)">
      <defs>
       <path id="DejaVuSans-412" d="M 1259 2228
L 1259 519
L 2272 519
Q 2781 519 3026 730
Q 3272 941 3272 1375
Q 3272 1813 3026 2020
Q 2781 2228 2272 2228
L 1259 2228
z
M 1259 4147
L 1259 2741
L 2194 2741
Q 2656 2741 2882 2914
Q 3109 3088 3109 3444
Q 3109 3797 2882 3972
Q 2656 4147 2194 4147
L 1259 4147
z
M 628 4666
L 2241 4666
Q 2963 4666 3353 4366
Q 3744 4066 3744 3513
Q 3744 3084 3544 2831
Q 3344 2578 2956 2516
Q 3422 2416 3680 2098
Q 3938 1781 3938 1306
Q 3938 681 3513 340
Q 3088 0 2303 0
L 628 0
L 628 4666
z
" transform="scale(0.015625)"/>
      </defs>
      <use xlink:href="#DejaVuSans-412"/>
      <use xlink:href="#DejaVuSans-44c" transform="translate(68.603516 0)"/>
      <use xlink:href="#DejaVuSans-435" transform="translate(127.539062 0)"/>
      <use xlink:href="#DejaVuSans-442" transform="translate(189.0625 0)"/>
      <use xlink:href="#DejaVuSans-43d" transform="translate(247.314453 0)"/>
      <use xlink:href="#DejaVuSans-430" transform="translate(312.695312 0)"/>
      <use xlink:href="#DejaVuSans-43c" transform="translate(373.974609 0)"/>
     </g>
    </g>
   </g>
  </g>
 </g>
 <defs>
  <clipPath id="p7cbe626d39">
   <rect x="41.070938" y="29.299375" width="597.504" height="428.76"/>
  </clipPath>
 </defs>
</svg>
